<svg xmlns="http://www.w3.org/2000/svg" width="100" height="50" viewBox="0 0 100 50">
  <style>
    @keyframes bounce {

      0%,
      100% {
        transform: scale(.35) translate(-16px, -5px) translateY(0);

      }

      50% {
        transform: scale(.35) translate(-16px, -5px) translateY(-5px);
      }
    }

    .bounce {
      animation: bounce 5s linear infinite;
      transform-origin: center;
      /* Hoặc bạn có thể chỉ định tọa độ cụ thể như "50% 50%" */
    }
  </style>

  <text x="0" y="35" font-family="PT Sans, sans-serif" font-size="32" font-weight="bold" fill="#fff">M</text>

  <g class="bounce">
    <path
      d="M8.94 32c-.95-1.622-3.138-5.426-4.05-7.02a28.231 28.231 0 0 0 0 14.03C4.89 39 8.94 32 8.94 32zM10.67 31.01h9.8l4.9-8.5-4.9-8.49h-9.82a22.4 22.4 0 0 0-4.9 8.46zm3.67-13.74a1.004 1.004 0 0 1 .18 1.41 21.165 21.165 0 0 0-2.81 4.82 1.017 1.017 0 0 1-1.31.54 1.003 1.003 0 0 1-.53-1.31 23.102 23.102 0 0 1 3.07-5.28 1.011 1.011 0 0 1 1.4-.18zM56.96 39.29c.01-.012-3.63-6.27-3.63-6.28h-9.8c-.002.008-4.909 8.47-4.9 8.48-.003.01 4.893 8.498 4.91 8.49h9.81a22.747 22.747 0 0 0 4.9-8.46zm-6.68 7.64a1.002 1.002 0 0 1-.79-1.61 21.99 21.99 0 0 0 2.8-4.81.997.997 0 0 1 1.84.77 23.466 23.466 0 0 1-3.06 5.27 1.004 1.004 0 0 1-.79.38zM59.11 24.98c-.9 1.582-3.113 5.405-4.05 7.02.951 1.624 3.129 5.421 4.05 7.01a28.231 28.231 0 0 0 0-14.03zM43.54 12.02c1.866-.006 6.227.005 8.05 0a27.856 27.856 0 0 0-12.08-6.99c.904 1.571 3.105 5.378 4.03 6.99zM43.54 14.02c-.02-.017-4.9 8.48-4.91 8.48-.028.026 4.906 8.489 4.9 8.51.008.018 9.788-.013 9.8 0 .976-1.668 4.041-7.046 4.98-8.61a25.512 25.512 0 0 0-4.96-8.38h-9.81zM43.54 51.98c-.929 1.625-3.119 5.406-4.03 6.99a27.856 27.856 0 0 0 12.08-6.99c-1.807-.005-6.196.003-8.05 0zM20.47 51.98c-1.868.006-6.236-.005-8.06 0a27.89 27.89 0 0 0 12.09 6.99c-.897-1.57-3.106-5.382-4.03-6.99zM36.91 42.49H27.1l-4.9 8.49 4.87 8.45c1.112.575 3.52.492 4.93.57 1.611-.114 3.597.074 4.96-.6l4.85-8.41zM20.47 49.98l4.9-8.49-4.9-8.48h-9.8c-.938 1.614-4.044 6.993-4.92 8.51a22.4 22.4 0 0 0 4.9 8.46h9.82zM20.47 12.02c.928-1.62 3.125-5.407 4.03-6.99a27.89 27.89 0 0 0-12.09 6.99c1.808.005 6.205-.003 8.06 0zM27.1 21.51c.009.002 9.802-.001 9.81 0l4.9-8.49c.013-.011-4.87-8.45-4.87-8.45-1.383-.61-3.313-.468-4.94-.57-1.554.11-3.67-.067-4.94.6l-4.86 8.42zM36.9 23.51h-9.8L22.2 32c-.01.012 4.9 8.48 4.9 8.49.009.002 9.802-.001 9.81 0 .003-.004 4.908-8.482 4.9-8.49-.01 0-4.89-8.507-4.91-8.49z"
      fill="#fff" opacity="1"></path>
  </g>

  <text x="50" y="35" font-family="PT Sans, sans-serif" font-size="32" font-weight="bold" fill="#fff">dAI</text>
</svg>