<svg width="106" height="24" viewBox="0 0 106 24" fill="none" xmlns="http://www.w3.org/2000/svg">
<path fill-rule="evenodd" clip-rule="evenodd" d="M100.691 0V4.6577C71.9968 7.27648 51.2148 4.95699 51.2148 4.95699C65.7117 5.3311 84.1741 2.91807 100.691 0ZM13.6536 16.3498C10.3801 16.4807 7.21885 16.5369 4.20725 16.4808H4.15113C3.53385 16.2002 3.01009 15.8448 2.59857 15.3958C1.75682 14.498 1.47623 13.2821 1.73811 11.7669C1.92517 10.682 2.33669 9.76544 2.97268 8.99851C3.60867 8.23158 4.41301 7.6517 5.40441 7.24018C6.39581 6.84736 7.51814 6.6416 8.75271 6.6416C10.0995 6.6416 11.2031 6.86607 12.0636 7.315C12.9241 7.76394 13.5226 8.38122 13.878 9.20427C14.2335 10.0273 14.3083 10.9626 14.1212 12.0475H10.0808C10.1369 11.6921 10.1182 11.3554 9.98728 11.0561C9.85634 10.7568 9.63188 10.5137 9.33259 10.3453C9.0333 10.177 8.64048 10.0834 8.15413 10.0834C7.72391 10.0834 7.33109 10.1396 6.99439 10.2892C6.65769 10.4388 6.39581 10.6259 6.19004 10.8878C5.98428 11.1497 5.85334 11.4302 5.79723 11.7482C5.7224 12.1785 5.81593 12.5339 6.0404 12.8332C6.26487 13.1324 6.73251 13.3195 7.42461 13.3756L8.47213 13.4691C9.68799 13.5814 10.7355 13.8433 11.596 14.2735C12.4564 14.7037 13.0924 15.2836 13.5039 16.0131L13.504 16.0131C13.5601 16.1254 13.6162 16.2376 13.6536 16.3498ZM41.5265 13.4306L41.0402 13.3932C40.3481 13.3371 39.8804 13.15 39.656 12.8507C39.4315 12.5514 39.338 12.196 39.4128 11.7658C39.4689 11.4478 39.5999 11.1672 39.8056 10.9054C40.0114 10.6435 40.2733 10.4564 40.61 10.3068C40.9467 10.1571 41.3395 10.101 41.7697 10.101C42.256 10.101 42.6489 10.1945 42.9482 10.3629C43.2474 10.5312 43.4719 10.7744 43.6028 11.0737C43.7338 11.373 43.7525 11.7097 43.6964 12.0651H47.7368C47.9238 10.9802 47.849 10.0449 47.4936 9.22185C47.1382 8.3988 46.5396 7.78152 45.6792 7.33258C44.8187 6.88365 43.7151 6.65918 42.3683 6.65918C41.1337 6.65918 40.0114 6.86494 39.02 7.25776C38.0286 7.66928 37.2242 8.24916 36.5882 9.01609C35.9523 9.78302 35.5407 10.6996 35.3537 11.7845C35.1853 12.7385 35.2602 13.5615 35.5407 14.2911C37.5235 14.0292 39.525 13.7486 41.4891 13.4493L41.5265 13.4306ZM55.4809 7.57575C56.6219 7.57575 57.5572 7.76281 58.2306 8.13692C58.8666 8.49233 59.3155 8.95997 59.5587 9.53984C59.8206 10.1571 59.8767 10.8679 59.7457 11.6723L59.6896 11.9342C59.5026 13.0191 59.0723 13.8795 58.3615 14.5717C57.6133 15.3012 56.4723 15.9746 54.9571 16.5919L52.2822 17.6394C51.7772 17.8264 51.403 18.0509 51.1038 18.3128C50.7483 18.6308 50.5052 19.061 50.4116 19.566L50.3742 19.7531L50.1872 20.8567H58.0435L57.7442 22.5777H47.6993L48.1296 20.0898C48.2418 19.4912 48.4289 18.9675 48.7094 18.5372C48.99 18.107 49.3828 17.7142 49.8692 17.3588C50.4116 16.9847 51.1225 16.6293 51.9642 16.2926L54.6391 15.2451C55.4622 14.9271 56.0981 14.5342 56.5471 14.0479C57.0334 13.5428 57.3514 12.9069 57.4824 12.1586C57.6133 11.373 57.4637 10.6622 56.996 10.0823C56.5284 9.48373 55.7989 9.18444 54.8262 9.18444C53.8535 9.18444 53.124 9.46502 52.5441 10.0075C52.17 10.3629 51.8707 10.7931 51.6836 11.2982H49.5699C49.757 10.7931 50.0001 10.3255 50.3181 9.91396C50.8419 9.20314 51.5153 8.64197 52.3757 8.23045C53.2362 7.81893 54.265 7.61317 55.4435 7.61317L55.4809 7.57575ZM55.4435 6.67789C54.1154 6.67789 52.9556 6.92106 51.9642 7.3887C50.9728 7.87504 50.1685 8.52974 49.5699 9.37149C48.9526 10.2132 48.5598 11.1672 48.3727 12.2522H52.4131C52.5254 11.6162 52.7873 11.0924 53.1988 10.7183C53.6103 10.3442 54.1528 10.1384 54.8449 10.1384C55.537 10.1384 56.0046 10.3255 56.2852 10.6809C56.5658 11.055 56.678 11.4852 56.5845 12.009C56.491 12.5702 56.2478 13.0565 55.8924 13.4306C55.537 13.8047 55.0132 14.1227 54.3211 14.4033L51.6462 15.4508C50.7296 15.8062 49.9627 16.199 49.3641 16.6106C48.7656 17.0221 48.2792 17.5084 47.9425 18.0509C47.6058 18.5934 47.3626 19.2293 47.2317 19.9402L46.5957 23.5316H58.5299L59.1659 19.9402H51.3095L51.3469 19.7531C51.403 19.4538 51.534 19.2106 51.7397 19.0423C51.9455 18.8739 52.2448 18.7056 52.6189 18.5559L55.2938 17.5084C56.9399 16.8537 58.1745 16.1055 59.0162 15.2825C59.858 14.4594 60.3817 13.4119 60.6062 12.1399L60.6623 11.878C60.8307 10.8866 60.7558 10.0075 60.4191 9.22185C60.0824 8.43621 59.5026 7.81893 58.6795 7.35129C57.8565 6.90235 56.7903 6.65918 55.4622 6.65918L55.4435 6.67789ZM73.2316 8.21181C72.3338 7.40747 70.9121 7.01465 69.0042 7.01465H62.5881L59.6514 23.6626H66.7221C68.0315 23.6626 69.1538 23.4756 70.1265 23.1015C71.0992 22.7274 71.8661 22.1849 72.4647 21.4928C73.0446 20.782 73.4374 19.9402 73.6057 18.9488L73.6619 18.6308C73.8489 17.5833 73.7367 16.7416 73.3252 16.1243C73.0259 15.6753 72.5956 15.3573 72.0719 15.0955C72.3712 14.9084 72.6705 14.7027 72.9324 14.4595C73.5683 13.8422 73.9799 13.0191 74.1669 11.9716L74.223 11.6349C74.4849 10.1572 74.1669 9.01615 73.2503 8.21181H73.2316ZM69.5466 18.6308C69.4344 19.2294 69.2099 19.6783 68.8545 19.9963C68.4991 20.3143 68.0128 20.464 67.3955 20.464H64.2342L64.8702 16.7977H68.0315C68.6488 16.7977 69.079 16.9473 69.3222 17.2653C69.5653 17.5646 69.6402 18.0323 69.5279 18.6308H69.5466ZM70.0517 11.9716C69.9582 12.5328 69.7337 12.963 69.4157 13.2623C69.079 13.5616 68.6114 13.73 67.9941 13.73H65.4314L66.0487 10.2133H68.6114C69.2286 10.2133 69.6402 10.363 69.8646 10.6809C70.0891 10.9802 70.1452 11.4292 70.0517 11.9903V11.9716ZM97.0808 14.2349L101.009 7.14551H105.031L98.9888 17.3775H98.1845L97.0995 23.5316H93.0217L94.1066 17.3775H93.3023L90.6087 7.68797L89 16.8163C88.7381 18.2753 88.2331 19.5473 87.4849 20.6135C86.7366 21.6985 85.7639 22.5215 84.5855 23.1014C83.407 23.6813 82.0228 23.9806 80.4515 23.9806C78.8803 23.9806 77.5896 23.6813 76.6169 23.1014C75.6442 22.5028 74.9521 21.6798 74.578 20.6135C74.1852 19.5473 74.1291 18.2753 74.3909 16.8163L76.0931 7.14551H80.2645L78.5436 16.9098C78.4314 17.5458 78.4501 18.107 78.6184 18.5933C78.7868 19.0797 79.086 19.4351 79.4976 19.697C79.9278 19.9401 80.4703 20.0711 81.1437 20.0711C81.8171 20.0711 82.4156 19.9588 82.9207 19.697C83.4445 19.4538 83.856 19.0984 84.174 18.612C84.492 18.1257 84.7164 17.5645 84.8287 16.9098L86.5496 7.14551H94.7426L96.5197 14.2349H97.0808ZM40.6459 17.0609C42.8158 16.9487 45.0604 16.8178 47.3799 16.6494L47.3986 16.6681C47.5857 17.2667 47.6044 17.9588 47.4734 18.7257C47.2864 19.792 46.8562 20.7272 46.1641 21.5129C45.472 22.2985 44.5928 22.9158 43.5079 23.346C42.4229 23.7762 41.1697 24.0007 39.748 24.0007C38.2142 24.0007 36.9796 23.7762 36.0256 23.2899C35.0529 22.8036 34.3982 22.1489 34.0054 21.3258C33.6126 20.5028 33.5191 19.5488 33.7061 18.4639H37.7465C37.6717 18.8567 37.7091 19.2121 37.8775 19.5301C38.0271 19.8481 38.3077 20.0912 38.7192 20.2783C39.112 20.4467 39.6545 20.5402 40.3279 20.5402C40.9078 20.5402 41.4315 20.4654 41.8618 20.3157C42.292 20.1661 42.6474 19.9416 42.9093 19.6797C43.1899 19.3991 43.3395 19.0811 43.4143 18.707C43.4892 18.2394 43.3582 17.8653 43.0028 17.6034C42.6474 17.3415 41.9927 17.1732 41.0574 17.0984L40.6459 17.0609ZM29.7035 15.003C31.1064 14.8346 32.5093 14.6663 33.9309 14.4792L35.2216 7.12793H29.3106L24.5781 15.5267C25.7378 15.4145 26.9162 15.2836 28.0946 15.1527L28.0948 15.1526L30.3582 11.2058L29.7035 14.9656V15.003ZM16.3479 7.14551H22.1467L22.128 7.16421L23.9237 15.6191C22.7454 15.7314 21.5858 15.8249 20.4262 15.9184L20.4261 15.9184L20.426 15.9184L20.426 15.9184L20.4259 15.9184L20.4259 15.9184L20.4258 15.9184L20.4258 15.9184L19.4157 11.3356L18.5926 16.0494C17.3737 16.1377 16.1548 16.2093 14.9517 16.2801L14.951 16.2801L14.7393 16.2925L16.3479 7.14551ZM28.1886 23.5315H32.3226L33.4075 17.3213C32.0255 17.3577 30.6789 17.3763 29.3677 17.3945L29.3671 17.3946L29.2548 17.3961L28.1699 23.5315H28.1886ZM17.2839 23.5297H13.4679L13.4492 23.511L14.5716 17.1885C15.75 17.2446 17.022 17.282 18.3688 17.3194L17.2839 23.5297ZM21.4172 20.2417H25.2145L26.8232 17.4358C24.6907 17.4358 22.6705 17.4358 20.7812 17.3984L21.4172 20.2604V20.2417ZM4.79981 16.5877H4.79978C4.64973 16.575 4.51476 16.5635 4.39514 16.5536C4.97501 16.778 5.64841 16.9464 6.39664 17.0025L7.44415 17.096C8.37943 17.1709 9.03413 17.3392 9.38953 17.6011C9.74494 17.863 9.87588 18.2371 9.80106 18.7047C9.72623 19.0788 9.57659 19.3968 9.296 19.6774C9.03413 19.9393 8.67872 20.1638 8.24849 20.3134C7.81826 20.463 7.29451 20.5379 6.71463 20.5379C6.04123 20.5379 5.49877 20.4443 5.10595 20.276C4.69443 20.0889 4.41384 19.8458 4.2642 19.5278C4.11455 19.2098 4.05844 18.8544 4.13326 18.4615H0.0928465C-0.0942095 19.5465 -0.000681508 20.5005 0.392136 21.3235C0.784954 22.1465 1.43965 22.8012 2.39364 23.2876C3.34762 23.7739 4.58219 23.9984 6.11605 23.9984C7.53768 23.9984 8.79095 23.7739 9.87588 23.3437C10.9608 22.9135 11.84 22.2962 12.5321 21.5106C13.2242 20.7249 13.6544 19.7896 13.8415 18.7234C13.935 18.1623 13.9537 17.6572 13.8789 17.1896L13.8976 17.1709C9.46612 16.9834 6.33919 16.7182 4.79981 16.5877Z" fill="white"/>
</svg>
