<svg width="520" height="475" viewBox="0 0 520 475" fill="none" xmlns="http://www.w3.org/2000/svg">
<g clip-path="url(#clip0_112_9556)">
<path d="M179.198 275.341L206.256 259.727C210.172 257.471 216.462 257.471 220.378 259.727L247.257 275.341C251.114 277.597 251.114 281.278 247.257 283.534L220.2 299.148C216.284 301.404 209.994 301.404 206.078 299.148L179.198 283.534C175.341 281.278 175.341 277.597 179.198 275.341Z" fill="#4E10FF"/>
<g style="mix-blend-mode:screen">
<path d="M120.276 241.263L147.334 225.649C151.25 223.393 157.54 223.393 161.456 225.649L188.336 241.263C192.193 243.519 192.193 247.2 188.336 249.456L161.278 265.07C157.362 267.326 151.072 267.326 147.156 265.07L120.276 249.456C116.42 247.2 116.42 243.519 120.276 241.263Z" fill="#24C6FE"/>
</g>
<path d="M120.87 309.064L147.927 293.45C151.844 291.194 158.133 291.194 162.05 293.45L188.929 309.064C192.786 311.32 192.786 315.001 188.929 317.257L161.872 332.871C157.955 335.127 151.666 335.127 147.749 332.871L120.87 317.257C117.013 315.001 117.013 311.32 120.87 309.064Z" fill="#4E10FF"/>
<g style="mix-blend-mode:screen">
<path d="M61.9479 274.986L89.0056 259.372C92.9218 257.116 99.2115 257.116 103.128 259.372L130.007 274.986C133.864 277.242 133.864 280.923 130.007 283.179L102.95 298.793C99.0335 301.049 92.7438 301.049 88.8276 298.793L61.9479 283.179C58.0909 280.923 58.0909 277.242 61.9479 274.986Z" fill="#24C6FE"/>
</g>
<path d="M62.5411 342.724L89.5988 327.11C93.5151 324.854 99.8048 324.854 103.721 327.11L130.601 342.724C134.458 344.98 134.458 348.661 130.601 350.917L103.543 366.531C99.6268 368.787 93.3371 368.787 89.4208 366.531L62.5411 350.917C58.6842 348.661 58.6842 344.98 62.5411 342.724Z" fill="#4E10FF"/>
<g style="mix-blend-mode:screen">
<path d="M3.6195 308.708L30.6772 293.094C34.5934 290.838 40.8832 290.838 44.7994 293.094L71.6791 308.708C75.536 310.964 75.536 314.645 71.6791 316.901L44.6214 332.516C40.7052 334.772 34.4154 334.772 30.4992 332.516L3.56016 316.842C-0.296747 314.586 -0.296747 310.905 3.56016 308.649L3.6195 308.708Z" fill="#24C6FE"/>
</g>
<path d="M179.198 275.518L206.078 291.132C209.935 293.388 216.284 293.388 220.2 291.132L247.258 275.518C249.216 274.39 250.225 272.906 250.225 271.422V277.062C250.225 278.546 249.275 280.03 247.317 281.158L220.26 296.773C216.343 299.029 210.054 299.029 206.137 296.773L179.258 281.158C177.299 280.03 176.35 278.546 176.35 277.121V271.481C176.35 272.965 177.299 274.39 179.258 275.518H179.198Z" fill="#9CE6FF"/>
<path d="M213.376 251.357C215.809 251.357 218.064 251.891 219.725 252.901L246.605 268.515C248.029 269.346 248.86 270.414 248.86 271.424C248.86 272.492 248.029 273.561 246.605 274.392L219.547 290.006C217.886 290.956 215.572 291.49 213.139 291.49C210.706 291.49 208.451 290.956 206.731 289.947L179.851 274.333C178.427 273.502 177.596 272.433 177.596 271.424C177.596 270.355 178.427 269.286 179.851 268.455L206.909 252.841C208.629 251.891 210.884 251.298 213.317 251.298L213.376 251.357ZM213.376 250.051C210.825 250.051 208.273 250.644 206.315 251.772L179.257 267.387C175.341 269.643 175.341 273.324 179.257 275.58L206.137 291.194C208.095 292.322 210.647 292.915 213.198 292.915C215.75 292.915 218.301 292.322 220.259 291.253L247.317 275.639C251.233 273.383 251.233 269.702 247.317 267.446L220.437 251.832C218.479 250.704 215.928 250.11 213.376 250.11V250.051Z" fill="#9CE6FF"/>
<path d="M120.217 196.026L147.097 211.64C150.953 213.896 157.302 213.896 161.219 211.64L188.276 196.026C190.235 194.898 191.243 193.414 191.243 191.93V197.57C191.243 199.054 190.294 200.538 188.336 201.666L161.278 217.28C157.362 219.536 151.072 219.536 147.156 217.28L120.276 201.666C118.318 200.538 117.369 199.054 117.369 197.629V191.989C117.369 193.473 118.318 194.898 120.276 196.026H120.217Z" fill="#9CE6FF"/>
<path d="M120.276 187.892L147.334 172.278C151.25 170.022 157.54 170.022 161.456 172.278L188.336 187.892C192.192 190.148 192.192 193.829 188.336 196.085L161.278 211.699C157.362 213.955 151.072 213.955 147.156 211.699L120.276 196.085C116.419 193.829 116.419 190.148 120.276 187.892Z" fill="#4E10FF"/>
<path d="M120.87 309.178L147.749 324.793C151.606 327.049 157.955 327.049 161.872 324.793L188.929 309.178C190.887 308.05 191.896 306.566 191.896 305.082V310.722C191.896 312.206 190.947 313.691 188.989 314.819L161.931 330.433C158.015 332.689 151.725 332.689 147.809 330.433L120.929 314.819C118.971 313.691 118.021 312.206 118.021 310.781V305.141C118.021 306.626 118.971 308.05 120.929 309.178H120.87Z" fill="#9CE6FF"/>
<path d="M155.048 285.017C157.481 285.017 159.735 285.551 161.397 286.561L188.276 302.175C189.701 303.006 190.531 304.075 190.531 305.084C190.531 306.152 189.701 307.221 188.276 308.052L161.219 323.666C159.557 324.616 157.243 325.21 154.81 325.21C152.378 325.21 150.123 324.676 148.402 323.666L121.522 308.052C120.098 307.221 119.267 306.153 119.267 305.143C119.267 304.075 120.098 303.006 121.522 302.175L148.58 286.561C150.301 285.611 152.556 285.017 154.988 285.017H155.048ZM155.048 283.711C152.496 283.711 149.945 284.305 147.987 285.433L120.929 301.047C117.013 303.303 117.013 306.984 120.929 309.24L147.809 324.854C149.767 325.982 152.318 326.575 154.87 326.575C157.421 326.575 159.973 325.982 161.931 324.913L188.989 309.299C192.905 307.043 192.905 303.362 188.989 301.106L162.109 285.492C160.151 284.364 157.599 283.77 155.048 283.77V283.711Z" fill="#9CE6FF"/>
<path d="M61.8887 250.346L88.7684 265.961C92.6253 268.217 98.9744 268.217 102.891 265.961L129.948 250.346C131.906 249.218 132.915 247.734 132.915 246.25V251.89C132.915 253.374 131.966 254.859 130.008 255.987L102.95 271.601C99.0337 273.857 92.744 273.857 88.8277 271.601L61.948 255.987C59.9899 254.859 59.0405 253.374 59.0405 251.949V246.309C59.0405 247.794 59.9899 249.218 61.948 250.346H61.8887Z" fill="#9CE6FF"/>
<path d="M61.9479 242.154L89.0056 226.54C92.9218 224.284 99.2115 224.284 103.128 226.54L130.007 242.154C133.864 244.41 133.864 248.091 130.007 250.347L102.95 265.961C99.0335 268.217 92.7438 268.217 88.8276 265.961L61.9479 250.347C58.0909 248.091 58.0909 244.41 61.9479 242.154Z" fill="#4E10FF"/>
<path d="M62.5415 342.901L89.4212 358.515C93.2781 360.771 99.6272 360.771 103.543 358.515L130.601 342.901C132.559 341.773 133.568 340.289 133.568 338.805V344.445C133.568 345.929 132.619 347.413 130.66 348.541L103.603 364.155C99.6865 366.411 93.3968 366.411 89.4806 364.155L62.6009 348.541C60.6428 347.413 59.6934 345.929 59.6934 344.504V338.864C59.6934 340.348 60.6428 341.773 62.6009 342.901H62.5415Z" fill="#9CE6FF"/>
<path d="M96.7196 318.74C99.1524 318.74 101.407 319.274 103.069 320.283L129.948 335.897C131.372 336.729 132.203 337.797 132.203 338.806C132.203 339.875 131.372 340.944 129.948 341.775L102.891 357.389C101.229 358.339 98.915 358.873 96.4822 358.873C94.0494 358.873 91.7946 358.339 90.0738 357.33L63.1941 341.716C61.77 340.884 60.9393 339.816 60.9393 338.806C60.9393 337.738 61.77 336.669 63.1941 335.838L90.2518 320.224C91.9726 319.274 94.2274 318.68 96.6602 318.68L96.7196 318.74ZM96.7196 317.434C94.1681 317.434 91.6166 318.027 89.6585 319.155L62.6008 334.769C58.6845 337.025 58.6845 340.706 62.6008 342.962L89.4804 358.576C91.4386 359.704 93.9901 360.298 96.5416 360.298C99.0931 360.298 101.645 359.704 103.603 358.636L130.66 343.022C134.577 340.766 134.577 337.085 130.66 334.829L103.781 319.215C101.823 318.087 99.2711 317.493 96.7196 317.493V317.434Z" fill="#9CE6FF"/>
<path d="M3.56035 304.788L30.44 320.402C34.2969 322.658 40.646 322.658 44.5623 320.402L71.62 304.788C73.5781 303.66 74.5868 302.176 74.5868 300.691V306.331C74.5868 307.816 73.6374 309.3 71.6793 310.428L44.6216 326.042C40.7053 328.298 34.4156 328.298 30.4994 326.042L3.56035 310.428C1.60223 309.3 0.652832 307.816 0.652832 306.391V300.751C0.652832 302.235 1.60223 303.66 3.56035 304.788Z" fill="#9CE6FF"/>
<path d="M3.6195 296.654L30.6772 281.04C34.5934 278.784 40.8832 278.784 44.7994 281.04L71.6791 296.654C75.536 298.91 75.536 302.591 71.6791 304.847L44.6214 320.461C40.7052 322.717 34.4154 322.717 30.4992 320.461L3.56016 304.787C-0.296747 302.531 -0.296747 298.85 3.56016 296.594L3.6195 296.654Z" fill="#4E10FF"/>
<path d="M241.146 311.142L268.203 295.528C272.12 293.272 278.409 293.272 282.326 295.528L309.205 311.142C313.062 313.398 313.062 317.079 309.205 319.335L282.148 334.949C278.231 337.205 271.942 337.205 268.025 334.949L241.146 319.335C237.289 317.079 237.289 313.398 241.146 311.142Z" fill="#4E10FF"/>
<path d="M182.817 344.802L209.875 329.188C213.791 326.932 220.081 326.932 223.997 329.188L250.877 344.802C254.734 347.058 254.734 350.739 250.877 352.995L223.819 368.609C219.903 370.865 213.613 370.865 209.697 368.609L182.817 352.995C178.961 350.739 178.961 347.058 182.817 344.802Z" fill="#4E10FF"/>
<path d="M124.489 378.525L151.547 362.911C155.463 360.655 161.753 360.655 165.669 362.911L192.549 378.525C196.406 380.781 196.406 384.462 192.549 386.718L165.491 402.332C161.575 404.588 155.285 404.588 151.369 402.332L124.489 386.718C120.632 384.462 120.632 380.781 124.489 378.525Z" fill="#4E10FF"/>
<path d="M301.848 346.169L328.905 330.555C332.822 328.299 339.111 328.299 343.028 330.555L369.907 346.169C373.764 348.425 373.764 352.106 369.907 354.362L342.85 369.976C338.933 372.232 332.644 372.232 328.727 369.976L301.848 354.362C297.991 352.106 297.991 348.425 301.848 346.169Z" fill="#4E10FF"/>
<path d="M243.519 379.892L270.577 364.278C274.493 362.022 280.783 362.022 284.699 364.278L311.579 379.892C315.436 382.148 315.436 385.829 311.579 388.085L284.521 403.699C280.605 405.955 274.315 405.955 270.399 403.699L243.519 388.085C239.662 385.829 239.662 382.148 243.519 379.892Z" fill="#4E10FF"/>
<path d="M185.191 413.552L212.249 397.938C216.165 395.682 222.455 395.682 226.371 397.938L253.251 413.552C257.108 415.808 257.108 419.489 253.251 421.745L226.193 437.359C222.277 439.615 215.987 439.615 212.071 437.359L185.191 421.745C181.334 419.489 181.334 415.808 185.191 413.552Z" fill="#4E10FF"/>
<path d="M364.033 382.087L391.091 366.473C395.007 364.217 401.297 364.217 405.213 366.473L432.092 382.087C435.949 384.343 435.949 388.024 432.092 390.28L405.035 405.894C401.119 408.15 394.829 408.15 390.913 405.894L364.033 390.28C360.176 388.024 360.176 384.343 364.033 382.087Z" fill="#4E10FF"/>
<path d="M305.705 415.81L332.762 400.196C336.679 397.94 342.968 397.94 346.885 400.196L373.764 415.81C377.621 418.066 377.621 421.747 373.764 424.003L346.707 439.617C342.79 441.873 336.501 441.873 332.584 439.617L305.705 424.003C301.848 421.747 301.848 418.066 305.705 415.81Z" fill="#4E10FF"/>
<path d="M247.376 449.47L274.434 433.856C278.35 431.6 284.64 431.6 288.556 433.856L315.436 449.47C319.293 451.726 319.293 455.407 315.436 457.663L288.378 473.277C284.462 475.533 278.172 475.533 274.256 473.277L247.376 457.663C243.519 455.407 243.519 451.726 247.376 449.47Z" fill="#4E10FF"/>
<path d="M241.086 311.257L267.966 326.871C271.823 329.127 278.172 329.127 282.088 326.871L309.146 311.257C311.104 310.129 312.113 308.644 312.113 307.16V312.8C312.113 314.284 311.164 315.769 309.205 316.897L282.148 332.511C278.231 334.767 271.942 334.767 268.025 332.511L241.146 316.897C239.188 315.769 238.238 314.284 238.238 312.86V307.22C238.238 308.704 239.188 310.129 241.146 311.257H241.086Z" fill="#9CE6FF"/>
<path d="M275.264 287.095C277.697 287.095 279.952 287.63 281.614 288.639L308.493 304.253C309.917 305.084 310.748 306.153 310.748 307.162C310.748 308.231 309.917 309.299 308.493 310.13L281.436 325.745C279.774 326.694 277.46 327.288 275.027 327.288C272.594 327.288 270.34 326.754 268.619 325.745L241.739 310.13C240.315 309.299 239.484 308.231 239.484 307.221C239.484 306.153 240.315 305.084 241.739 304.253L268.797 288.639C270.518 287.689 272.772 287.095 275.205 287.095H275.264ZM275.264 285.789C272.713 285.789 270.162 286.383 268.203 287.511L241.146 303.125C237.229 305.381 237.229 309.062 241.146 311.318L268.025 326.932C269.983 328.06 272.535 328.654 275.086 328.654C277.638 328.654 280.189 328.06 282.148 326.991L309.205 311.377C313.122 309.121 313.122 305.44 309.205 303.184L282.326 287.57C280.367 286.442 277.816 285.848 275.264 285.848V285.789Z" fill="#9CE6FF"/>
<path d="M182.758 344.979L209.638 360.593C213.495 362.849 219.844 362.849 223.76 360.593L250.818 344.979C252.776 343.851 253.785 342.367 253.785 340.883V346.523C253.785 348.007 252.835 349.491 250.877 350.619L223.82 366.233C219.903 368.49 213.614 368.49 209.697 366.233L182.818 350.619C180.86 349.491 179.91 348.007 179.91 346.582V340.942C179.91 342.426 180.86 343.851 182.818 344.979H182.758Z" fill="#9CE6FF"/>
<path d="M216.936 320.818C219.369 320.818 221.624 321.352 223.285 322.361L250.165 337.976C251.589 338.807 252.42 339.875 252.42 340.885C252.42 341.953 251.589 343.022 250.165 343.853L223.107 359.467C221.446 360.417 219.132 361.011 216.699 361.011C214.266 361.011 212.011 360.476 210.291 359.467L183.411 343.853C181.987 343.022 181.156 341.953 181.156 340.944C181.156 339.875 181.987 338.807 183.411 337.976L210.469 322.361C212.189 321.412 214.444 320.818 216.877 320.818H216.936ZM216.936 319.512C214.385 319.512 211.833 320.105 209.875 321.233L182.818 336.848C178.901 339.104 178.901 342.784 182.818 345.04L209.697 360.655C211.655 361.783 214.207 362.376 216.758 362.376C219.31 362.376 221.861 361.783 223.819 360.714L250.877 345.1C254.793 342.844 254.793 339.163 250.877 336.907L223.997 321.293C222.039 320.165 219.488 319.571 216.936 319.571V319.512Z" fill="#9CE6FF"/>
<path d="M124.43 378.706L151.309 394.32C155.166 396.576 161.515 396.576 165.432 394.32L192.489 378.706C194.447 377.578 195.456 376.094 195.456 374.609V380.249C195.456 381.734 194.507 383.218 192.549 384.346L165.491 399.96C161.575 402.216 155.285 402.216 151.369 399.96L124.489 384.346C122.531 383.218 121.582 381.734 121.582 380.309V374.669C121.582 376.153 122.531 377.578 124.489 378.706H124.43Z" fill="#9CE6FF"/>
<path d="M158.608 354.482C161.041 354.482 163.295 355.016 164.957 356.026L191.837 371.64C193.261 372.471 194.091 373.539 194.091 374.549C194.091 375.617 193.261 376.686 191.837 377.517L164.779 393.131C163.117 394.081 160.803 394.675 158.37 394.675C155.938 394.675 153.683 394.141 151.962 393.131L125.082 377.517C123.658 376.686 122.828 375.617 122.828 374.608C122.828 373.539 123.658 372.471 125.082 371.64L152.14 356.026C153.861 355.076 156.116 354.482 158.548 354.482H158.608ZM158.608 353.176C156.056 353.176 153.505 353.769 151.547 354.897L124.489 370.512C120.573 372.768 120.573 376.449 124.489 378.705L151.369 394.319C153.327 395.447 155.878 396.04 158.43 396.04C160.981 396.04 163.533 395.506 165.491 394.378L192.549 378.764C196.465 376.508 196.465 372.827 192.549 370.571L165.669 354.957C163.711 353.829 161.159 353.235 158.608 353.235V353.176Z" fill="#9CE6FF"/>
<path d="M154.158 199.111C151.487 199.111 148.817 198.518 146.8 197.33L119.92 181.716C117.843 180.529 116.716 178.866 116.716 177.085C116.716 175.304 117.903 173.642 119.979 172.395L146.978 156.781C151.072 154.406 157.718 154.406 161.753 156.781L188.632 172.395C190.709 173.583 191.837 175.245 191.837 177.026C191.837 178.807 190.65 180.469 188.573 181.716L161.515 197.33C159.498 198.518 156.828 199.111 154.098 199.111H154.158ZM154.395 156.306C151.962 156.306 149.529 156.84 147.69 157.909L120.632 173.523C118.971 174.473 118.021 175.72 118.021 177.026C118.021 178.332 118.911 179.579 120.573 180.529L147.452 196.143C151.131 198.28 157.184 198.28 160.922 196.143L187.98 180.529C189.641 179.579 190.59 178.332 190.59 177.026C190.59 175.72 189.7 174.473 188.039 173.523L161.1 157.909C159.26 156.84 156.828 156.306 154.395 156.306Z" fill="#9CE6FF"/>
<path d="M95.8294 253.436C93.1592 253.436 90.489 252.842 88.4716 251.654L61.5919 236.04C59.5151 234.853 58.3877 233.191 58.3877 231.41C58.3877 229.628 59.5744 227.966 61.6512 226.719L88.7089 211.105C92.8032 208.731 99.4489 208.731 103.484 211.105L130.364 226.719C132.44 227.907 133.568 229.569 133.568 231.35C133.568 233.131 132.381 234.794 130.304 236.04L103.247 251.654C101.229 252.842 98.5589 253.436 95.8294 253.436ZM62.2446 227.847C60.5832 228.797 59.6338 230.044 59.6338 231.35C59.6338 232.656 60.5238 233.903 62.1853 234.853L89.065 250.467C92.7439 252.604 98.7962 252.604 102.534 250.467L129.592 234.853C131.254 233.903 132.203 232.656 132.203 231.35C132.203 230.044 131.313 228.797 129.652 227.847L102.772 212.233C99.0929 210.096 93.0405 210.096 89.3023 212.233L62.2446 227.847Z" fill="#9CE6FF"/>
<path d="M37.501 307.877C34.8309 307.877 32.1607 307.283 30.1432 306.096L3.2042 290.482C1.1274 289.294 0 287.632 0 285.851C0 284.07 1.18674 282.408 3.26354 281.161L30.3212 265.547C34.4155 263.172 41.0612 263.172 45.0962 265.547L71.9759 281.161C74.0527 282.348 75.1801 284.011 75.1801 285.792C75.1801 287.573 73.9933 289.235 71.9165 290.482L44.8588 306.096C42.8414 307.283 40.1712 307.877 37.501 307.877ZM37.7384 265.072C35.3056 265.072 32.8727 265.606 31.0333 266.675L3.91625 282.289C2.25481 283.239 1.30542 284.485 1.30542 285.792C1.30542 287.098 2.19547 288.344 3.85691 289.294L30.7366 304.908C34.4155 307.046 40.4679 307.046 44.1468 304.908L71.2045 289.294C72.8659 288.344 73.8153 287.098 73.8153 285.792C73.8153 284.485 72.9253 283.239 71.2638 282.289L44.3841 266.675C42.5447 265.606 40.1119 265.072 37.679 265.072H37.7384Z" fill="#9CE6FF"/>
</g>
<g style="mix-blend-mode:multiply" opacity="0.5">
<path d="M242.801 411.149C222.146 411.149 245.613 394.277 268.722 394.277H361.875L360.546 365.391H242.392C141.212 365.391 78.9914 433.9 123.727 433.9H296.637L286.105 411.2H242.852L242.801 411.149Z" fill="#003893"/>
</g>
<path d="M486.583 168.223L422.674 205.085C416.028 208.92 410.608 206.67 410.608 199.973V184.174C410.608 177.528 416.028 168.99 422.674 165.155L486.583 128.293C493.229 124.459 498.648 126.708 498.648 133.406V149.204C498.648 155.85 493.229 164.388 486.583 168.223Z" fill="#24C6FE"/>
<path d="M250.522 111.844L193.771 144.616C187.125 148.451 181.706 146.201 181.706 139.504V123.705C181.706 117.059 187.125 108.521 193.771 104.686L250.522 71.9142C257.168 68.0797 262.588 70.3292 262.588 77.0268V92.8249C262.588 99.4714 257.168 108.01 250.522 111.844Z" fill="#4E10FF"/>
<path d="M225.03 213.196L146.295 258.647C139.649 262.482 134.229 260.232 134.229 253.535V237.736C134.229 231.09 139.649 222.552 146.295 218.717L225.03 173.266C231.677 169.431 237.096 171.681 237.096 178.378V194.177C237.096 200.823 231.677 209.361 225.03 213.196Z" fill="#B429FF"/>
<path d="M451.04 41.7972L407.889 66.6958C401.243 70.5303 395.823 68.2808 395.823 61.5832V45.785C395.823 39.1386 401.243 30.6004 407.889 26.7659L451.04 1.86728C457.686 -1.96721 463.106 0.282357 463.106 6.97994V22.7781C463.106 29.4245 457.686 37.9627 451.04 41.7972Z" fill="#24C6FE"/>
<path d="M280.482 425.415C279.255 428.074 279.306 431.704 280.227 433.493C285.646 444.026 293.571 456.961 301.955 459.057C309.42 460.948 316.987 459.159 318.981 455.018C320.412 452.001 319.083 446.633 317.396 444.792C315.197 442.338 309.062 440.753 305.074 436.101C300.882 431.142 294.338 428.534 289.174 424.751C286.873 423.064 280.687 424.751 280.431 425.415H280.482Z" fill="#242991"/>
<path d="M281.148 431.141C279.052 425.312 281.25 425.006 281.301 422.143C281.403 418.359 281.71 414.422 283.039 413.093C283.602 412.531 284.318 412.173 284.982 411.866C287.078 410.844 289.379 411.099 291.68 411.304C295.105 411.662 297.764 412.633 300.627 414.729C302.57 416.161 301.394 417.848 302.877 421.58C304.615 425.977 318.266 439.832 319.339 449.137C319.646 451.847 317.908 454.403 315.3 455.273C312.182 456.346 307.989 456.858 304.717 456.397C294.338 454.915 281.966 433.288 281.199 431.141H281.148Z" fill="url(#paint0_linear_112_9556)"/>
<path d="M350.729 111.699L373.123 155.003C372.765 158.685 368.266 162.315 364.125 161.19C363.409 160.985 346.435 136.905 340.811 127.906C338.459 124.174 350.678 111.699 350.678 111.699H350.729Z" fill="#242991"/>
<path d="M347.918 134.091C359.421 130.103 362.796 107.199 350.73 100.757C336.721 93.3433 319.134 116.555 330.842 128.007C333.296 130.41 337.232 133.069 340.607 134.091C343.316 134.909 345.771 134.858 347.969 134.091H347.918Z" fill="#242991"/>
<path d="M346.691 393.304C346.18 394.429 345.822 399.082 347.867 400.462C352.213 403.376 354.36 404.143 359.268 407.518C362.591 409.818 367.602 414.675 371.538 416.107C375.475 417.538 381.713 418.97 385.905 418.714C391.478 418.408 396.028 417.027 396.539 411.096C396.846 407.518 393.932 404.859 393.574 404.603C390.711 402.507 379.361 401.74 373.481 398.775C367.244 395.656 360.955 392.793 354.973 389.419C352.315 387.936 346.793 392.589 346.64 393.304H346.691Z" fill="#242991"/>
<path d="M348.174 396.883C344.953 394.02 347.765 389.879 348.327 386.504C348.685 384.51 348.481 381.289 350.168 379.858C352.417 377.864 357.274 379.551 359.933 379.756C361.927 379.909 365.455 379.807 367.193 380.88C369.034 382.056 369.136 385.022 370.465 386.658C373.993 391.106 379.463 393.1 384.218 396.065C389.331 399.184 395.977 403.427 396.54 410.022C396.744 412.17 395.21 414.419 393.216 415.237C386.11 418.1 376.651 415.135 370.005 411.249C364.586 408.08 360.444 402.916 354.718 400.257C352.469 399.235 350.014 398.519 348.174 396.883Z" fill="url(#paint1_linear_112_9556)"/>
<path d="M365.966 369.071C365.966 371.73 366.938 380.575 366.938 382.62C366.938 386.147 361.774 386.659 359.064 386.659C353.645 386.659 351.906 384.205 351.804 382.722C351.804 382.262 351.651 372.292 351.702 371.832C352.366 367.077 355.587 369.071 360.547 369.071H365.966Z" fill="#242991"/>
<path d="M365.251 317.945C360.803 316.974 354.054 317.843 348.992 320.246C344.698 322.291 342.295 326.943 342.499 331.647C343.164 345.553 348.226 340.083 350.015 374.235C350.271 378.683 355.332 380.831 358.451 378.581C363.666 374.798 361.621 376.536 365.813 375.411C367.5 374.951 367.705 373.162 367.347 371.73C365.506 363.448 369.085 355.267 369.648 323.671C369.648 320.962 367.858 318.507 365.251 317.945Z" fill="url(#paint2_linear_112_9556)"/>
<path d="M365.813 316.871C363.921 312.729 357.173 316.615 352.827 316.513C351.037 316.513 349.964 316.104 348.532 317.484C336.977 328.63 374.095 335.276 365.762 316.871H365.813Z" fill="#242991"/>
<path d="M369.647 310.48C369.187 297.8 365.864 244.475 353.798 230.825C351.293 228.013 349.248 229.035 346.436 230.569C341.886 233.074 338.665 237.778 335.802 242.072C331.507 248.566 329.257 256.695 328.695 264.415C328.082 272.697 331.098 283.894 333.859 294.273C335.699 301.226 340.147 313.19 341.937 317.842C346.334 325.664 369.75 320.807 369.699 310.48H369.647Z" fill="url(#paint3_linear_112_9556)"/>
<path d="M350.73 229.445C345.77 227.093 334.011 246.316 332.222 251.48C330.586 256.133 330.228 265.847 332.529 272.493C334.471 278.117 341.476 280.418 346.179 276.737C357.836 267.636 359.217 233.535 350.73 229.445Z" fill="#94A0B4"/>
<path d="M324.042 240.029L336.312 259.406C345.719 270.807 350.781 253.475 350.934 240.949C351.037 233.178 348.02 229.906 335.903 209.711C330.637 212.983 323.991 237.831 324.042 240.029Z" fill="#242991"/>
<path d="M316.935 256.182L311.413 288.136C300.472 288.852 292.394 276.684 288.253 264.464L290.554 236.549C299.143 232.561 319.645 247.081 316.935 256.182Z" fill="#242991"/>
<path d="M350.781 217.02L282.987 227.091C282.732 228.728 283.55 231.693 283.55 233.329C283.652 239.617 295.565 240.333 305.994 246.008C309.931 248.156 313.612 251.223 315.402 255.364C321.026 268.555 333.245 265.948 335.392 256.234C336.824 249.689 338.255 242.327 342.192 235.425C344.646 231.079 346.436 230.006 349.708 226.018C350.424 225.149 350.781 224.024 350.781 222.899V217.02Z" fill="url(#paint4_linear_112_9556)"/>
<path d="M343.93 209.097C332.631 203.677 311.363 205.109 296.434 212.215C281.505 219.373 278.59 229.547 289.889 234.967C301.188 240.386 322.457 238.955 337.386 231.848C352.315 224.69 355.229 214.516 343.93 209.097Z" fill="url(#paint5_linear_112_9556)"/>
<path d="M346.179 177.348L345.361 214.772C344.901 232.82 290.503 236.603 289.173 226.174L286.003 191.868L346.179 177.348Z" fill="#242991"/>
<path d="M282.987 195.138C286.361 206.846 296.995 212.265 308.601 208.635C314.941 206.641 320.718 203.114 324.808 199.126C331.608 192.479 338.561 188.236 346.844 188.543C348.633 188.594 350.065 187.162 350.065 185.373C349.196 138.387 352.928 105.615 332.784 110.012C313.305 114.256 285.799 127.906 271.33 141.66C271.176 142.682 277.823 177.193 282.987 195.189V195.138Z" fill="url(#paint6_linear_112_9556)"/>
<path d="M298.683 402.2C298.683 404.859 299.654 413.704 299.654 415.749C299.654 419.276 294.491 419.788 291.781 419.788C286.361 419.788 284.623 417.333 284.521 415.851C284.521 415.391 284.368 405.421 284.419 404.961C285.083 400.206 288.304 402.2 293.264 402.2H298.683Z" fill="#242991"/>
<path d="M300.369 405.218C301.903 394.021 305.533 372.548 309.061 351.33C309.725 347.445 307.68 343.406 304.05 341.923C296.023 338.702 282.986 343.303 282.986 349.285C282.782 352.404 282.168 355.574 281.197 358.59C275.113 378.274 284.06 384.511 282.373 404.706C282.168 407.416 282.066 412.529 286.156 412.529C289.53 412.529 290.144 410.688 294.132 409.972C296.586 409.512 298.477 411.353 299.756 410.228C300.983 409.103 300.267 406.649 300.42 405.218H300.369Z" fill="url(#paint7_linear_112_9556)"/>
<path d="M306.146 339.316C304.255 335.175 297.506 339.06 293.16 338.958C291.371 338.958 290.297 338.549 288.866 339.929C277.311 351.075 314.429 357.722 306.095 339.316H306.146Z" fill="#242991"/>
<path d="M282.067 336.965C284.06 344.634 296.229 345.606 304.409 342.385C308.499 340.8 311.362 337.119 312.027 332.773C314.123 319.685 316.935 300.717 316.935 294.786C316.935 282.413 317.497 271.268 309.777 261.298C305.994 256.441 301.239 250.561 295.359 247.954C283.294 242.586 279.306 266.973 278.59 272.853C275.88 295.399 276.238 314.776 282.067 336.965Z" fill="url(#paint8_linear_112_9556)"/>
<path d="M306.659 120.441C305.279 121.055 304.103 121.668 303.183 122.333C295.871 127.343 300.78 133.836 309.676 136.904C314.891 138.693 326.445 139.511 328.95 132.814C334.268 118.345 315.504 116.709 306.71 120.441H306.659Z" fill="#242991"/>
<path d="M327.058 106.077L291.116 96.4648C293.417 98.5099 301.955 124.278 303.744 128.419C307.017 135.832 325.013 136.701 327.007 130.157C327.416 126.783 327.007 106.077 327.007 106.077H327.058Z" fill="#242991"/>
<path d="M331.965 71.5164C329.971 61.3934 308.805 49.5831 291.882 58.6837C283.804 63.0294 277.771 71.3119 279.1 86.3943C283.088 110.322 307.015 111.855 311.003 110.168C314.377 108.737 337.078 98.0512 331.914 71.5164H331.965Z" fill="#242991"/>
<path d="M332.887 74.1724C330.535 65.2252 322.201 54.7443 308.397 64.1004C302.006 68.4462 294.695 79.1828 297.149 90.9931C303.029 119.164 326.803 123.714 333.143 121.004C336.619 119.522 336.466 114.46 336.568 110.575C336.773 105.002 338.153 102.19 336.057 87.5164C335.392 82.8639 334.063 78.6204 332.887 74.1213V74.1724Z" fill="url(#paint9_linear_112_9556)"/>
<path d="M363.255 164.462C364.329 167.427 366.783 169.575 370.924 169.626C374.708 169.677 378.031 167.274 380.485 164.718C385.598 159.4 408.758 131.792 415.609 124.123C420.568 118.601 410.854 113.54 408.707 115.431C400.271 122.896 371.435 144.523 366.067 150.555C362.948 154.032 361.619 160.065 363.255 164.411V164.462Z" fill="url(#paint10_linear_112_9556)"/>
<path d="M417.244 120.748C418.42 119.981 422.613 114.101 423.073 112.976C424.198 110.369 417.653 109.295 414.995 110.42C414.995 110.42 410.802 113.59 410.189 115.584C409.473 117.936 412.899 121.361 415.659 121.259C416.222 121.259 416.733 121.054 417.244 120.748Z" fill="#242991"/>
<path d="M268.57 288.037C267.24 287.474 265.962 286.605 265.195 285.276C263.661 282.617 262.69 280.828 261.514 279.703C259.213 277.505 259.98 273.67 257.168 271.83C255.89 270.96 254.152 271.216 252.72 271.83C248.017 273.67 246.534 277.607 244.284 281.697C241.268 287.27 237.28 292.996 236.053 299.285C235.797 300.461 235.491 301.79 235.542 303.017C235.593 304.397 236.564 304.193 237.28 303.375C237.945 302.659 238.456 301.739 238.763 300.87C238.916 300.512 238.916 300.205 238.916 299.949C239.018 302.659 239.274 307.925 240.245 308.845C240.961 309.561 242.495 309.408 242.648 308.385C243.211 309.459 244.08 310.686 245.256 310.43C247.812 309.868 245.972 306.851 246.636 304.857C247.608 305.062 248.477 304.193 248.732 303.272C248.988 302.352 248.784 301.33 248.732 300.358C248.221 293.201 254.101 287.679 258.191 288.446C259.929 288.753 261.31 290.031 262.895 290.9C268.467 293.967 273.069 289.98 268.57 288.088V288.037Z" fill="url(#paint11_linear_112_9556)"/>
<path d="M249.399 269.271C248.99 270.601 249.143 274.435 249.501 275.611C250.319 278.321 256.506 278.218 257.835 275.611C257.835 275.611 258.96 270.498 258.091 268.556C257.119 266.306 252.313 265.948 250.268 267.789C249.859 268.147 249.552 268.658 249.399 269.22V269.271Z" fill="#242991"/>
<path d="M263.202 158.43L254.562 206.642C256.147 209.965 261.669 211.806 265.145 209.352C265.759 208.943 271.945 177.347 274.144 166.917L263.202 158.43Z" fill="#242991"/>
<path d="M261.822 200.918C259.061 199.385 255.789 199.333 252.62 201.992C249.705 204.395 248.734 208.383 248.529 211.911C248.12 219.273 248.529 255.317 248.325 265.594C248.171 273.007 258.857 270.553 259.215 267.639C260.749 256.442 268.52 221.267 268.673 213.24C268.776 208.587 265.81 203.117 261.771 200.867L261.822 200.918Z" fill="url(#paint12_linear_112_9556)"/>
<path d="M276.8 170.138C288.304 166.15 291.678 143.246 279.612 136.804C265.603 129.39 248.016 152.602 259.724 164.054C262.178 166.457 266.115 169.116 269.489 170.138C272.199 170.956 274.653 170.905 276.851 170.138H276.8Z" fill="#242991"/>
<path d="M289.123 197.847C291.935 201.068 295.923 204.749 300.064 202.807L294.543 166.098C294.543 166.098 291.884 171.159 285.596 173.971C284.42 174.482 283.653 175.607 283.806 176.885C284.317 182.305 284.726 192.837 289.174 197.898L289.123 197.847Z" fill="#242991"/>
<path d="M431.715 98.8695C431.715 98.0004 435.651 93.6035 437.185 92.0186C438.77 90.3825 440.917 88.1841 439.435 87.2127C437.85 86.139 424.455 96.2109 422.154 98.3583C413.514 106.692 413.616 111.242 413.616 111.242C411.98 123.257 431.306 121.007 438.821 106.641C439.384 105.516 440.815 104.8 440.713 103.573C440.253 99.7898 431.766 102.806 431.715 98.8695Z" fill="url(#paint13_linear_112_9556)"/>
<path d="M427.624 110.12C424.556 114.568 428.084 115.488 430.896 112.523C431.509 113.239 432.685 113.188 433.503 112.625C433.708 112.472 435.702 110.222 435.753 109.967C435.344 112.216 438.002 111.143 438.974 109.813C440.201 108.024 441.172 105.774 441.019 103.576C440.916 102.144 439.792 101.275 438.718 101.275C438.513 101.275 438.462 101.275 438.462 101.019C438.36 99.8947 437.389 99.0255 436.213 99.0767C436.213 97.0827 434.321 96.3669 432.838 97.2872C431.611 98.0541 431.765 99.4857 431.663 100.764C431.458 105.161 429.72 107.155 427.726 110.069L427.624 110.12Z" fill="url(#paint14_linear_112_9556)"/>
<path d="M507.177 80.4105L439.741 119.369C433.095 123.203 427.675 120.954 427.675 114.256V98.4582C427.675 91.8117 433.095 83.2735 439.741 79.4391L507.177 40.4806C513.824 36.6461 519.243 38.8956 519.243 45.5932V61.3914C519.243 68.0378 513.824 76.576 507.177 80.4105Z" fill="#4E10FF"/>
<g style="mix-blend-mode:screen">
<path d="M438.618 101.323C438.618 101.323 438.362 101.323 438.362 101.067C438.26 99.9422 437.288 99.073 436.112 99.1241C436.112 97.1302 434.221 96.4144 432.738 97.3347C432.533 97.4369 432.431 97.6415 432.278 97.7948C433.403 96.1588 436.01 93.2446 437.237 91.9664C438.822 90.3303 440.969 88.1319 439.487 87.1605C438.515 86.4959 433.198 89.9725 428.648 93.2957C428.085 95.034 427.728 96.8234 427.728 98.4595V114.258C427.728 115.331 427.932 116.252 428.188 117.07C430.949 115.74 433.658 113.746 435.959 111.037C436.521 111.701 438.26 110.832 438.975 109.81C440.202 108.02 441.174 105.771 441.02 103.572C440.918 102.141 439.793 101.271 438.72 101.271L438.618 101.323Z" fill="#3D0CFF"/>
</g>
<path d="M424.198 276.336L367.447 309.108C360.801 312.943 355.381 310.693 355.381 303.996V288.198C355.381 281.551 360.801 273.013 367.447 269.179L424.198 236.406C430.844 232.572 436.264 234.821 436.264 241.519V257.317C436.264 263.964 430.844 272.502 424.198 276.336Z" fill="#B92AFF"/>
<defs>
<linearGradient id="paint0_linear_112_9556" x1="286.312" y1="441.468" x2="304.206" y2="431.243" gradientUnits="userSpaceOnUse">
<stop stop-color="#BBC2CD"/>
<stop offset="1" stop-color="#EEF4FF"/>
</linearGradient>
<linearGradient id="paint1_linear_112_9556" x1="363.41" y1="406.086" x2="377.469" y2="392.026" gradientUnits="userSpaceOnUse">
<stop stop-color="#BBC2CD"/>
<stop offset="1" stop-color="#EEF4FF"/>
</linearGradient>
<linearGradient id="paint2_linear_112_9556" x1="328.695" y1="348.519" x2="369.648" y2="348.519" gradientUnits="userSpaceOnUse">
<stop stop-color="#BBC2CD"/>
<stop offset="1" stop-color="#EEF4FF"/>
</linearGradient>
<linearGradient id="paint3_linear_112_9556" x1="328.593" y1="275.407" x2="369.699" y2="275.407" gradientUnits="userSpaceOnUse">
<stop stop-color="#BBC2CD"/>
<stop offset="1" stop-color="#EEF4FF"/>
</linearGradient>
<linearGradient id="paint4_linear_112_9556" x1="282.987" y1="240.691" x2="350.781" y2="240.691" gradientUnits="userSpaceOnUse">
<stop stop-color="#BBC2CD"/>
<stop offset="1" stop-color="#EEF4FF"/>
</linearGradient>
<linearGradient id="paint5_linear_112_9556" x1="288.151" y1="230.161" x2="344.339" y2="214.363" gradientUnits="userSpaceOnUse">
<stop stop-color="#E5ECF8"/>
<stop offset="1" stop-color="#F5F9FF"/>
</linearGradient>
<linearGradient id="paint6_linear_112_9556" x1="271.279" y1="159.656" x2="350.014" y2="159.656" gradientUnits="userSpaceOnUse">
<stop stop-color="#BBC2CD"/>
<stop offset="1" stop-color="#EEF4FF"/>
</linearGradient>
<linearGradient id="paint7_linear_112_9556" x1="277.004" y1="376.74" x2="316.423" y2="376.74" gradientUnits="userSpaceOnUse">
<stop stop-color="#BBC2CD"/>
<stop offset="1" stop-color="#EEF4FF"/>
</linearGradient>
<linearGradient id="paint8_linear_112_9556" x1="277.005" y1="295.655" x2="316.986" y2="295.655" gradientUnits="userSpaceOnUse">
<stop stop-color="#BBC2CD"/>
<stop offset="1" stop-color="#EEF4FF"/>
</linearGradient>
<linearGradient id="paint9_linear_112_9556" x1="296.485" y1="106.74" x2="334.574" y2="84.4488" gradientUnits="userSpaceOnUse">
<stop stop-color="#E5ECF8"/>
<stop offset="1" stop-color="#F5F9FF"/>
</linearGradient>
<linearGradient id="paint10_linear_112_9556" x1="362.591" y1="142.375" x2="417.04" y2="142.375" gradientUnits="userSpaceOnUse">
<stop stop-color="#BBC2CD"/>
<stop offset="1" stop-color="#EEF4FF"/>
</linearGradient>
<linearGradient id="paint11_linear_112_9556" x1="235.491" y1="290.798" x2="270.359" y2="290.798" gradientUnits="userSpaceOnUse">
<stop stop-color="#BBC2CD"/>
<stop offset="1" stop-color="#EEF4FF"/>
</linearGradient>
<linearGradient id="paint12_linear_112_9556" x1="248.376" y1="235.224" x2="268.724" y2="235.224" gradientUnits="userSpaceOnUse">
<stop stop-color="#BBC2CD"/>
<stop offset="1" stop-color="#EEF4FF"/>
</linearGradient>
<linearGradient id="paint13_linear_112_9556" x1="411.622" y1="126.325" x2="435.242" y2="96.5177" gradientUnits="userSpaceOnUse">
<stop stop-color="#BBC2CD"/>
<stop offset="1" stop-color="#EEF4FF"/>
</linearGradient>
<linearGradient id="paint14_linear_112_9556" x1="406.265" y1="119.233" x2="439.63" y2="101.827" gradientUnits="userSpaceOnUse">
<stop stop-color="#BBC2CD"/>
<stop offset="1" stop-color="#EEF4FF"/>
</linearGradient>
<clipPath id="clip0_112_9556">
<rect width="435" height="320" fill="white" transform="translate(0 155)"/>
</clipPath>
</defs>
</svg>
