<svg width="96" height="96" viewBox="0 0 96 96" fill="none" xmlns="http://www.w3.org/2000/svg">
<rect width="96" height="96" rx="8" fill="url(#paint0_linear_48_5538)" fill-opacity="0.1"/>
<path d="M76.125 27.4688H50.5312V23.8015C50.5296 22.3875 49.9671 21.0319 48.9671 20.0322C47.9672 19.0324 46.6115 18.4701 45.1975 18.4688H23.8014C22.3875 18.4702 21.032 19.0325 20.0322 20.0323C19.0325 21.0321 18.4702 22.3876 18.4688 23.8015V72.1975C18.4701 73.6115 19.0323 74.9673 20.0321 75.9672C21.0319 76.9672 22.3875 77.5297 23.8015 77.5314H45.1975C46.6116 77.5298 47.9673 76.9673 48.9673 75.9674C49.9672 74.9675 50.5297 73.6117 50.5314 72.1976V52.7812H76.125C76.498 52.7812 76.8556 52.6331 77.1194 52.3694C77.3831 52.1056 77.5312 51.748 77.5312 51.375V28.875C77.5312 28.6903 77.4949 28.5075 77.4242 28.3369C77.3535 28.1662 77.25 28.0112 77.1194 27.8806C76.9888 27.75 76.8338 27.6465 76.6631 27.5758C76.4925 27.5051 76.3097 27.4688 76.125 27.4688ZM45.1975 74.7188H23.8014C23.1331 74.7178 22.4925 74.4518 22.02 73.9791C21.5476 73.5065 21.2819 72.8658 21.2811 72.1975V68.5312H47.7186V72.1975C47.7177 72.8659 47.4517 73.5066 46.9791 73.9792C46.5065 74.4519 45.8658 74.7178 45.1974 74.7188H45.1975ZM47.7188 65.7188H21.2812V23.8015C21.282 23.1333 21.5477 22.4927 22.0202 22.0202C22.4927 21.5477 23.1333 21.282 23.8015 21.2812H45.1975C45.8658 21.2819 46.5065 21.5477 46.9792 22.0201C47.4519 22.4926 47.7179 23.1332 47.7189 23.8015V27.4688H28.875C28.6903 27.4688 28.5075 27.5051 28.3369 27.5758C28.1662 27.6465 28.0112 27.75 27.8806 27.8806C27.75 28.0112 27.6465 28.1662 27.5758 28.3369C27.5051 28.5075 27.4688 28.6903 27.4688 28.875V51.375C27.4688 51.5597 27.5051 51.7425 27.5758 51.9131C27.6465 52.0838 27.75 52.2388 27.8806 52.3694C28.0112 52.5 28.1662 52.6035 28.3369 52.6742C28.5075 52.7449 28.6903 52.7812 28.875 52.7812H35.3438V59.25C35.3437 59.5281 35.4262 59.8 35.5807 60.0313C35.7352 60.2625 35.9549 60.4427 36.2118 60.5492C36.4688 60.6556 36.7515 60.6834 37.0243 60.6292C37.2971 60.5749 37.5476 60.4409 37.7442 60.2443L45.2073 52.7812H47.7188V65.7188ZM74.7188 49.9688H44.625C44.2521 49.9689 43.8945 50.1171 43.6308 50.3807L38.1562 55.8553V51.375C38.1562 51.002 38.0081 50.6444 37.7444 50.3806C37.4806 50.1169 37.123 49.9688 36.75 49.9688H30.2812V30.2812H74.7188V49.9688Z" fill="url(#paint1_linear_48_5538)"/>
<path d="M60.8859 43.0781C60.9781 43.2381 61.101 43.3783 61.2474 43.4908C61.3939 43.6032 61.5611 43.6857 61.7395 43.7334C61.9178 43.7812 62.1039 43.7933 62.2869 43.769C62.47 43.7448 62.6464 43.6847 62.8063 43.5923L64.5938 42.5601V44.625C64.5938 44.998 64.7419 45.3556 65.0056 45.6194C65.2694 45.8831 65.627 46.0312 66 46.0312C66.373 46.0312 66.7306 45.8831 66.9944 45.6194C67.2581 45.3556 67.4062 44.998 67.4062 44.625V42.5601L69.1937 43.5923C69.5165 43.7765 69.899 43.8254 70.2577 43.7284C70.6164 43.6314 70.9221 43.3963 71.108 43.0746C71.2938 42.7528 71.3447 42.3705 71.2495 42.0113C71.1544 41.6521 70.9208 41.3452 70.6 41.1577L68.8114 40.125L70.6 39.0923C70.7608 39.0004 70.9019 38.8777 71.0152 38.7312C71.1285 38.5847 71.2117 38.4172 71.26 38.2384C71.3084 38.0596 71.3209 37.8731 71.297 37.6894C71.273 37.5058 71.2129 37.3287 71.1203 37.1683C71.0277 37.0079 70.9043 36.8674 70.7572 36.7549C70.6101 36.6424 70.4422 36.56 70.2631 36.5126C70.0841 36.4651 69.8975 36.4535 69.714 36.4785C69.5304 36.5034 69.3536 36.5643 69.1937 36.6577L67.4062 37.6899V35.625C67.4062 35.252 67.2581 34.8944 66.9944 34.6306C66.7306 34.3669 66.373 34.2188 66 34.2188C65.627 34.2188 65.2694 34.3669 65.0056 34.6306C64.7419 34.8944 64.5938 35.252 64.5938 35.625V37.6899L62.8063 36.6577C62.6464 36.5643 62.4696 36.5034 62.286 36.4785C62.1025 36.4535 61.9159 36.4651 61.7369 36.5126C61.5578 36.56 61.3899 36.6424 61.2428 36.7549C61.0957 36.8674 60.9723 37.0079 60.8797 37.1683C60.7871 37.3287 60.727 37.5058 60.703 37.6894C60.6791 37.8731 60.6916 38.0596 60.74 38.2384C60.7883 38.4172 60.8715 38.5847 60.9848 38.7312C61.0981 38.8777 61.2392 39.0004 61.4 39.0923L63.1886 40.125L61.4 41.1577C61.2401 41.25 61.0999 41.3729 60.9875 41.5194C60.8751 41.6658 60.7927 41.833 60.7449 42.0114C60.6972 42.1897 60.685 42.3757 60.7092 42.5588C60.7334 42.7418 60.7934 42.9183 60.8859 43.0781ZM47.3859 37.1719C47.2934 37.3317 47.2334 37.5082 47.2092 37.6912C47.185 37.8743 47.1972 38.0603 47.2449 38.2386C47.2927 38.417 47.3751 38.5842 47.4875 38.7306C47.5999 38.8771 47.7401 39 47.9 39.0923L49.6886 40.125L47.9 41.1577C47.7392 41.2496 47.598 41.3723 47.4848 41.5188C47.3715 41.6653 47.2883 41.8328 47.24 42.0116C47.1916 42.1904 47.1791 42.3769 47.203 42.5606C47.227 42.7442 47.2871 42.9213 47.3797 43.0817C47.4723 43.2421 47.5957 43.3826 47.7428 43.4951C47.8899 43.6076 48.0578 43.69 48.2369 43.7374C48.4159 43.7849 48.6025 43.7964 48.786 43.7715C48.9696 43.7466 49.1464 43.6857 49.3063 43.5923L51.0938 42.5601V44.625C51.0938 44.998 51.2419 45.3556 51.5056 45.6194C51.7694 45.8831 52.127 46.0312 52.5 46.0312C52.873 46.0312 53.2306 45.8831 53.4944 45.6194C53.7581 45.3556 53.9062 44.998 53.9062 44.625V42.5601L55.6937 43.5923C56.0165 43.7765 56.399 43.8254 56.7577 43.7284C57.1164 43.6314 57.4221 43.3963 57.608 43.0746C57.7938 42.7528 57.8447 42.3705 57.7495 42.0113C57.6544 41.6521 57.4208 41.3452 57.1 41.1577L55.3114 40.125L57.1 39.0923C57.2608 39.0004 57.4019 38.8777 57.5152 38.7312C57.6285 38.5847 57.7117 38.4172 57.76 38.2384C57.8084 38.0596 57.8209 37.8731 57.797 37.6894C57.773 37.5058 57.7129 37.3287 57.6203 37.1683C57.5277 37.0079 57.4043 36.8674 57.2572 36.7549C57.1101 36.6424 56.9422 36.56 56.7631 36.5126C56.5841 36.4651 56.3975 36.4535 56.214 36.4785C56.0304 36.5034 55.8536 36.5643 55.6937 36.6577L53.9062 37.6899V35.625C53.9062 35.252 53.7581 34.8944 53.4944 34.6306C53.2306 34.3669 52.873 34.2188 52.5 34.2188C52.127 34.2188 51.7694 34.3669 51.5056 34.6306C51.2419 34.8944 51.0938 35.252 51.0938 35.625V37.6899L49.3063 36.6577C49.1465 36.565 48.97 36.5048 48.7869 36.4804C48.6038 36.4561 48.4177 36.4682 48.2393 36.5159C48.0609 36.5637 47.8936 36.6462 47.7472 36.7588C47.6007 36.8714 47.4779 37.0117 47.3859 37.1719ZM44.1141 37.1719C44.0221 37.0117 43.8993 36.8713 43.7529 36.7587C43.6064 36.6462 43.4392 36.5636 43.2607 36.5158C43.0823 36.4681 42.8962 36.456 42.7131 36.4804C42.53 36.5047 42.3535 36.565 42.1938 36.6577L40.4062 37.6899V35.625C40.4062 35.252 40.2581 34.8944 39.9944 34.6306C39.7306 34.3669 39.373 34.2188 39 34.2188C38.627 34.2188 38.2694 34.3669 38.0056 34.6306C37.7419 34.8944 37.5938 35.252 37.5938 35.625V37.6899L35.8062 36.6577C35.4835 36.4735 35.101 36.4246 34.7423 36.5216C34.3836 36.6186 34.0779 36.8537 33.892 37.1754C33.7062 37.4972 33.6553 37.8795 33.7504 38.2387C33.8456 38.5979 34.0792 38.9048 34.4 39.0923L36.1886 40.125L34.4 41.1577C34.2392 41.2496 34.098 41.3723 33.9848 41.5188C33.8715 41.6653 33.7883 41.8328 33.74 42.0116C33.6916 42.1904 33.6791 42.3769 33.703 42.5606C33.727 42.7442 33.7871 42.9213 33.8797 43.0817C33.9723 43.2421 34.0957 43.3826 34.2428 43.4951C34.3899 43.6076 34.5578 43.69 34.7369 43.7374C34.9159 43.7849 35.1025 43.7964 35.286 43.7715C35.4696 43.7466 35.6463 43.6857 35.8062 43.5923L37.5938 42.5601V44.625C37.5938 44.998 37.7419 45.3556 38.0056 45.6194C38.2694 45.8831 38.627 46.0312 39 46.0312C39.373 46.0312 39.7306 45.8831 39.9944 45.6194C40.2581 45.3556 40.4062 44.998 40.4062 44.625V42.5601L42.1938 43.5923C42.5165 43.7765 42.899 43.8254 43.2577 43.7284C43.6164 43.6314 43.9221 43.3963 44.108 43.0746C44.2938 42.7528 44.3447 42.3705 44.2496 42.0113C44.1544 41.6521 43.9208 41.3452 43.6 41.1577L41.8114 40.125L43.6 39.0923C43.7599 39 43.9001 38.8771 44.0125 38.7306C44.1249 38.5842 44.2073 38.417 44.2551 38.2386C44.3028 38.0603 44.315 37.8743 44.2908 37.6912C44.2666 37.5082 44.2066 37.3317 44.1141 37.1719ZM37.3125 70.2188H31.6875C31.3145 70.2188 30.9569 70.3669 30.6931 70.6306C30.4294 70.8944 30.2812 71.252 30.2812 71.625C30.2812 71.998 30.4294 72.3556 30.6931 72.6194C30.9569 72.8831 31.3145 73.0312 31.6875 73.0312H37.3125C37.6855 73.0312 38.0431 72.8831 38.3069 72.6194C38.5706 72.3556 38.7188 71.998 38.7188 71.625C38.7188 71.252 38.5706 70.8944 38.3069 70.6306C38.0431 70.3669 37.6855 70.2188 37.3125 70.2188ZM31.6875 25.7812H37.3125C37.6855 25.7812 38.0431 25.6331 38.3069 25.3694C38.5706 25.1056 38.7188 24.748 38.7188 24.375C38.7188 24.002 38.5706 23.6444 38.3069 23.3806C38.0431 23.1169 37.6855 22.9688 37.3125 22.9688H31.6875C31.3145 22.9688 30.9569 23.1169 30.6931 23.3806C30.4294 23.6444 30.2812 24.002 30.2812 24.375C30.2812 24.748 30.4294 25.1056 30.6931 25.3694C30.9569 25.6331 31.3145 25.7812 31.6875 25.7812Z" fill="url(#paint2_linear_48_5538)"/>
<defs>
<linearGradient id="paint0_linear_48_5538" x1="96" y1="25.4694" x2="8.24908" y2="72.7722" gradientUnits="userSpaceOnUse">
<stop stop-color="#A45CFF"/>
<stop offset="1" stop-color="#3C0CFF"/>
</linearGradient>
<linearGradient id="paint1_linear_48_5538" x1="77.5312" y1="34.1384" x2="23.5438" y2="63.2407" gradientUnits="userSpaceOnUse">
<stop stop-color="#A45CFF"/>
<stop offset="1" stop-color="#3C0CFF"/>
</linearGradient>
<linearGradient id="paint2_linear_48_5538" x1="71.3088" y1="36.2506" x2="30.8125" y2="54.1408" gradientUnits="userSpaceOnUse">
<stop stop-color="#A45CFF"/>
<stop offset="1" stop-color="#3C0CFF"/>
</linearGradient>
</defs>
</svg>
