<svg width="96" height="96" viewBox="0 0 96 96" fill="none" xmlns="http://www.w3.org/2000/svg">
<rect width="96" height="96" rx="8" fill="url(#paint0_linear_48_5525)" fill-opacity="0.1"/>
<g clip-path="url(#clip0_48_5525)">
<path d="M30.4722 48.3955H24.3234C22.3363 48.3955 22.3363 45.3961 24.3234 45.3961H30.4722C32.4218 45.3961 32.4218 48.3955 30.4722 48.3955ZM59.2665 78.4647H32.5718C30.0972 78.4647 28.1101 76.4401 28.1101 73.9655V55.4442L25.0732 53.2696H20.949C18.2121 53.2696 16 51.0575 16 48.3206V40.2221C16 37.4852 18.2121 35.2356 20.949 35.2356H28.1101V22.0007C28.1101 19.5262 30.0972 17.5391 32.5718 17.5391H59.2665C61.7411 17.5391 63.7657 19.5262 63.7657 22.0007V32.4986C64.553 32.6111 65.3404 33.1735 65.7528 33.8859L74.0012 48.1706C74.901 49.7453 74.1886 51.9948 72.314 52.0323L63.7657 52.2198V73.9655C63.7657 76.4401 61.7411 78.4647 59.2665 78.4647ZM31.1095 57.6187V66.0546H60.7663V60.3932L56.0047 55.2567C51.8805 57.4313 47.0439 53.682 48.2812 49.1079C48.6561 47.7207 49.5185 46.5584 50.7557 45.846L55.7797 42.9591L60.7663 34.7857V29.9491H31.0721V35.2356H33.809C36.546 35.2356 38.7581 37.4852 38.7581 40.2221V48.3206C38.7581 51.02 36.546 53.2321 33.8465 53.2696L34.7838 56.9814C35.1213 58.3686 33.5841 59.3809 32.4593 58.5935L31.1095 57.6187ZM31.1095 69.054V73.9655C31.1095 74.7904 31.7469 75.4652 32.5718 75.4652H59.2665C60.0914 75.4652 60.7663 74.7904 60.7663 73.9655V69.054H31.1095ZM60.7663 56.0065V52.5197L58.6667 53.7195L60.7663 56.0065ZM63.5032 35.9855V36.023L58.1418 44.8337C57.8418 45.3211 56.942 45.7336 56.3421 46.071L58.7416 50.2327C60.6538 49.1454 60.0164 49.3329 62.2285 49.2579L71.0392 49.0704L63.5032 35.9855ZM60.7663 26.9497V22.0007C60.7663 21.2133 60.0914 20.5385 59.2665 20.5385H32.5718C31.7469 20.5385 31.0721 21.2133 31.0721 22.0007V26.9497H60.7663ZM54.8799 73.7406H52.9678C50.9807 73.7406 50.9807 70.7412 52.9678 70.7412H54.8799C56.8295 70.7412 56.8295 73.7406 54.8799 73.7406ZM38.8705 73.7406H36.9584C35.0088 73.7406 35.0088 70.7412 36.9584 70.7412H38.8705C40.8576 70.7412 40.8576 73.7406 38.8705 73.7406ZM48.5061 25.2251H43.3697C41.3825 25.2251 41.3825 22.2256 43.3697 22.2256H48.5061C50.4558 22.2256 50.4558 25.2251 48.5061 25.2251ZM73.4763 40.4471C71.9391 40.4471 71.3767 38.4225 72.7264 37.6726L74.9385 36.3979C76.6257 35.3856 78.1254 38.0101 76.4382 38.9849C75.6508 39.4348 74.1511 40.4471 73.4763 40.4471ZM70.7018 36.8103C69.7645 36.8103 69.0521 35.9855 69.2021 35.0481L69.802 31.6363C70.1394 29.7242 73.1013 30.2116 72.7639 32.1612L72.164 35.573C72.0515 36.2854 71.4142 36.8103 70.7018 36.8103ZM78.4628 45.8835C77.9754 45.8835 75.3509 44.8337 74.7135 44.6088C73.9262 44.3088 73.5513 43.4465 73.8137 42.6592C74.1136 41.9093 74.976 41.4969 75.7633 41.7968L78.9877 42.9966C80.5624 43.559 80.15 45.8835 78.4628 45.8835ZM53.7551 47.5707C52.5554 48.2831 51.5056 48.658 51.1681 49.8952C50.6057 51.9948 52.8553 53.607 54.6549 52.5947L56.1547 51.7324L53.7551 47.5707ZM20.949 38.235C19.8992 38.235 18.9994 39.1348 18.9994 40.2221V48.3206C18.9994 49.3703 19.8992 50.2702 20.949 50.2702H25.5231C25.8606 50.2702 26.1605 50.3826 26.423 50.5326L30.8846 53.757C30.5847 52.5947 30.1347 51.6199 30.7346 50.8326C31.372 50.0452 32.5343 50.2702 33.809 50.2702C34.8963 50.2702 35.7586 49.3703 35.7586 48.3206V40.2221C35.7586 39.1348 34.8963 38.235 33.809 38.235H20.949ZM30.4722 43.1466H24.3234C22.3363 43.1466 22.3363 40.1471 24.3234 40.1471H30.4722C32.4218 40.1471 32.4218 43.1466 30.4722 43.1466Z" fill="url(#paint1_linear_48_5525)"/>
</g>
<defs>
<linearGradient id="paint0_linear_48_5525" x1="96" y1="25.4694" x2="8.24908" y2="72.7722" gradientUnits="userSpaceOnUse">
<stop stop-color="#A45CFF"/>
<stop offset="1" stop-color="#3C0CFF"/>
</linearGradient>
<linearGradient id="paint1_linear_48_5525" x1="79.9734" y1="33.703" x2="22.8169" y2="66.055" gradientUnits="userSpaceOnUse">
<stop stop-color="#A45CFF"/>
<stop offset="1" stop-color="#3C0CFF"/>
</linearGradient>
<clipPath id="clip0_48_5525">
<rect width="64" height="64" fill="white" transform="translate(16 16)"/>
</clipPath>
</defs>
</svg>
