<svg width="120" height="65" viewBox="0 0 120 65" fill="none" xmlns="http://www.w3.org/2000/svg">
<path fill-rule="evenodd" clip-rule="evenodd" d="M35.0649 8.38266C35.0649 6.01371 36.0568 3.86856 37.6465 2.34137L37.6649 2.3216C37.7501 2.23148 37.8407 2.14962 37.9358 2.07603C39.4113 0.784413 41.3409 0 43.4476 0H111.611C113.729 0 115.67 0.793251 117.151 2.09846C117.232 2.16305 117.309 2.2337 117.383 2.31047C118.993 3.83901 120 5.99656 120 8.38266V56.1101C120 58.3837 119.085 60.4528 117.604 61.9673C117.587 61.9849 117.57 62.0022 117.553 62.0194C116.031 63.5494 113.927 64.4995 111.611 64.4995H43.4476C41.1627 64.4995 39.0873 63.5756 37.5732 62.0836C37.5558 62.0677 37.5385 62.0516 37.5214 62.0351C37.4743 61.9896 37.4295 61.9427 37.3871 61.8944C35.9494 60.3862 35.0649 58.3464 35.0649 56.1101V8.38266ZM39.7524 8.38266C39.7524 8.11417 39.7817 7.85199 39.8371 7.59916L64.4009 30.8128L39.7597 56.3414C39.7549 56.2649 39.7524 56.1878 39.7524 56.1101V8.38266ZM69.3643 29.0454C69.4 29.0799 69.4344 29.1152 69.4674 29.1513L70.4678 30.0967C73.6724 33.1213 75.8007 34.108 77.5288 34.1144C79.2569 34.108 81.3847 33.1214 84.5888 30.0977L84.59 30.0966L85.6637 29.0819C85.6715 29.074 85.6794 29.0662 85.6874 29.0584C85.6919 29.054 85.6964 29.0496 85.7009 29.0452C85.7256 29.0214 85.7506 28.9983 85.776 28.9758L111.477 4.6875H43.5808L69.2162 28.9139C69.2669 28.9553 69.3163 28.9991 69.3643 29.0454ZM42.9566 59.7789L67.813 34.0273C71.0202 36.9449 74.1229 38.7936 77.5231 38.8019H77.5346C80.9364 38.7936 84.04 36.9432 87.2483 34.0239L112.102 59.7789C111.941 59.8007 111.777 59.812 111.611 59.812H43.4476C43.2813 59.812 43.1174 59.8008 42.9566 59.7789ZM115.305 56.3475L90.6604 30.8094L115.226 7.59407C115.283 7.84855 115.313 8.11246 115.313 8.38266V56.1101C115.313 56.1898 115.31 56.2689 115.305 56.3475ZM7.47914 21.3923C6.18472 21.3923 5.13539 22.4417 5.13539 23.7361C5.13539 25.0305 6.18472 26.0798 7.47914 26.0798H10.3826C11.677 26.0798 12.7263 25.0305 12.7263 23.7361C12.7263 22.4417 11.677 21.3923 10.3826 21.3923H7.47914ZM21.2447 21.3923C19.9503 21.3923 18.9009 22.4417 18.9009 23.7361C18.9009 25.0305 19.9503 26.0798 21.2447 26.0798H28.267C29.5614 26.0798 30.6108 25.0305 30.6108 23.7361C30.6108 22.4417 29.5614 21.3923 28.267 21.3923H21.2447ZM2.34375 35.1312C1.04933 35.1312 0 36.1805 0 37.4749C0 38.7693 1.04933 39.8187 2.34375 39.8187H28.267C29.5614 39.8187 30.6108 38.7693 30.6108 37.4749C30.6108 36.1805 29.5614 35.1312 28.267 35.1312H2.34375ZM9.83109 48.8768C8.53668 48.8768 7.48734 49.9261 7.48734 51.2205C7.48734 52.515 8.53668 53.5643 9.83109 53.5643H16.8532C18.1476 53.5643 19.197 52.515 19.197 51.2205C19.197 49.9261 18.1476 48.8768 16.8532 48.8768H9.83109ZM25.3638 48.8768C24.0694 48.8768 23.0201 49.9261 23.0201 51.2205C23.0201 52.515 24.0694 53.5643 25.3638 53.5643H28.267C29.5614 53.5643 30.6108 52.515 30.6108 51.2205C30.6108 49.9261 29.5614 48.8768 28.267 48.8768H25.3638Z" fill="url(#paint0_linear_48_3279)"/>
<defs>
<linearGradient id="paint0_linear_48_3279" x1="120" y1="17.1121" x2="49.4243" y2="87.893" gradientUnits="userSpaceOnUse">
<stop stop-color="#A45CFF"/>
<stop offset="1" stop-color="#3C0CFF"/>
</linearGradient>
</defs>
</svg>
