<svg width="110" height="120" viewBox="0 0 110 120" fill="none" xmlns="http://www.w3.org/2000/svg">
<path d="M100 32.5H90V10C90 7.34784 88.9464 4.8043 87.0711 2.92893C85.1957 1.05357 82.6522 0 80 0L30 0C27.3478 0 24.8043 1.05357 22.9289 2.92893C21.0536 4.8043 20 7.34784 20 10V37.5H10C7.34784 37.5 4.8043 38.5536 2.92893 40.4289C1.05357 42.3043 0 44.8478 0 47.5V72.5C0 75.1522 1.05357 77.6957 2.92893 79.5711C4.8043 81.4464 7.34784 82.5 10 82.5H20V110C20 112.652 21.0536 115.196 22.9289 117.071C24.8043 118.946 27.3478 120 30 120H80C82.6522 120 85.1957 118.946 87.0711 117.071C88.9464 115.196 90 112.652 90 110V77.5H100C102.652 77.5 105.196 76.4464 107.071 74.5711C108.946 72.6957 110 70.1522 110 67.5V42.5C110 39.8478 108.946 37.3043 107.071 35.4289C105.196 33.5536 102.652 32.5 100 32.5ZM25 10C25 8.67392 25.5268 7.40215 26.4645 6.46447C27.4021 5.52678 28.6739 5 30 5H80C81.3261 5 82.5979 5.52678 83.5355 6.46447C84.4732 7.40215 85 8.67392 85 10V12.5C66.25 12.5 68.7 11.75 66.25 15H43.75C41.25 11.675 43.75 12.5 25 12.5V10ZM5 72.5V47.5C5 46.1739 5.52678 44.9021 6.46447 43.9645C7.40215 43.0268 8.67392 42.5 10 42.5H40C41.3261 42.5 42.5979 43.0268 43.5355 43.9645C44.4732 44.9021 45 46.1739 45 47.5V81.3L35.925 77.675C35.225 77.5 36.8 77.5 10 77.5C8.67392 77.5 7.40215 76.9732 6.46447 76.0355C5.52678 75.0979 5 73.8261 5 72.5ZM85 110C85 111.326 84.4732 112.598 83.5355 113.536C82.5979 114.473 81.3261 115 80 115H30C28.6739 115 27.4021 114.473 26.4645 113.536C25.5268 112.598 25 111.326 25 110V105H85V110ZM85 100H25V82.5H34.525C47.5 87.65 47.5 88.075 48.9 87.075C50.3 86.075 50 87.9 50 47.5C50 44.8478 48.9464 42.3043 47.0711 40.4289C45.1957 38.5536 42.6522 37.5 40 37.5H25V17.5H39.375C40.6 19.125 41.025 20 42.5 20C71.65 20 68.125 20.825 70.625 17.5H85V32.5H70C67.3478 32.5 64.8043 33.5536 62.9289 35.4289C61.0536 37.3043 60 39.8478 60 42.5V80C60 80.663 60.2634 81.2989 60.7322 81.7678C61.2011 82.2366 61.837 82.5 62.5 82.5C63.15 82.5 62.675 82.5 75.475 77.5H85V100ZM105 67.5C105 68.8261 104.473 70.0979 103.536 71.0355C102.598 71.9732 101.326 72.5 100 72.5H75C74.3 72.5 74.725 72.5 65 76.3V42.5C65 41.1739 65.5268 39.9021 66.4645 38.9645C67.4021 38.0268 68.6739 37.5 70 37.5H100C101.326 37.5 102.598 38.0268 103.536 38.9645C104.473 39.9021 105 41.1739 105 42.5V67.5Z" fill="url(#paint0_linear_48_3251)"/>
<path d="M12.5 52.5H37.5C38.163 52.5 38.7989 52.2366 39.2678 51.7678C39.7366 51.2989 40 50.663 40 50C40 49.337 39.7366 48.7011 39.2678 48.2322C38.7989 47.7634 38.163 47.5 37.5 47.5H12.5C11.837 47.5 11.2011 47.7634 10.7322 48.2322C10.2634 48.7011 10 49.337 10 50C10 50.663 10.2634 51.2989 10.7322 51.7678C11.2011 52.2366 11.837 52.5 12.5 52.5ZM37.5 67.5H12.5C11.837 67.5 11.2011 67.7634 10.7322 68.2322C10.2634 68.7011 10 69.337 10 70C10 70.663 10.2634 71.2989 10.7322 71.7678C11.2011 72.2366 11.837 72.5 12.5 72.5H37.5C38.163 72.5 38.7989 72.2366 39.2678 71.7678C39.7366 71.2989 40 70.663 40 70C40 69.337 39.7366 68.7011 39.2678 68.2322C38.7989 67.7634 38.163 67.5 37.5 67.5ZM12.5 62.5H37.5C38.163 62.5 38.7989 62.2366 39.2678 61.7678C39.7366 61.2989 40 60.663 40 60C40 59.337 39.7366 58.7011 39.2678 58.2322C38.7989 57.7634 38.163 57.5 37.5 57.5H12.5C11.837 57.5 11.2011 57.7634 10.7322 58.2322C10.2634 58.7011 10 59.337 10 60C10 60.663 10.2634 61.2989 10.7322 61.7678C11.2011 62.2366 11.837 62.5 12.5 62.5ZM97.5 42.5H72.5C71.837 42.5 71.2011 42.7634 70.7322 43.2322C70.2634 43.7011 70 44.337 70 45C70 45.663 70.2634 46.2989 70.7322 46.7678C71.2011 47.2366 71.837 47.5 72.5 47.5H97.5C98.163 47.5 98.7989 47.2366 99.2678 46.7678C99.7366 46.2989 100 45.663 100 45C100 44.337 99.7366 43.7011 99.2678 43.2322C98.7989 42.7634 98.163 42.5 97.5 42.5ZM97.5 62.5H72.5C71.837 62.5 71.2011 62.7634 70.7322 63.2322C70.2634 63.7011 70 64.337 70 65C70 65.663 70.2634 66.2989 70.7322 66.7678C71.2011 67.2366 71.837 67.5 72.5 67.5H97.5C98.163 67.5 98.7989 67.2366 99.2678 66.7678C99.7366 66.2989 100 65.663 100 65C100 64.337 99.7366 63.7011 99.2678 63.2322C98.7989 62.7634 98.163 62.5 97.5 62.5ZM97.5 52.5H72.5C71.837 52.5 71.2011 52.7634 70.7322 53.2322C70.2634 53.7011 70 54.337 70 55C70 55.663 70.2634 56.2989 70.7322 56.7678C71.2011 57.2366 71.837 57.5 72.5 57.5H97.5C98.163 57.5 98.7989 57.2366 99.2678 56.7678C99.7366 56.2989 100 55.663 100 55C100 54.337 99.7366 53.7011 99.2678 53.2322C98.7989 52.7634 98.163 52.5 97.5 52.5Z" fill="url(#paint1_linear_48_3251)"/>
<defs>
<linearGradient id="paint0_linear_48_3251" x1="110" y1="31.8367" x2="5.70123" y2="83.3745" gradientUnits="userSpaceOnUse">
<stop stop-color="#A45CFF"/>
<stop offset="1" stop-color="#3C0CFF"/>
</linearGradient>
<linearGradient id="paint1_linear_48_3251" x1="100" y1="50.4592" x2="70.6322" y2="97.9519" gradientUnits="userSpaceOnUse">
<stop stop-color="#A45CFF"/>
<stop offset="1" stop-color="#3C0CFF"/>
</linearGradient>
</defs>
</svg>
