<svg width="120" height="120" viewBox="0 0 120 120" fill="none" xmlns="http://www.w3.org/2000/svg">
<path fill-rule="evenodd" clip-rule="evenodd" d="M23.4801 107.806C33.606 115.553 46.2687 120.156 59.9997 120.156C93.2229 120.156 120.156 93.2234 120.156 60.0002C120.156 46.234 115.529 33.5411 107.746 23.4024C106.905 22.3071 105.336 22.1008 104.241 22.9415C103.145 23.7823 102.939 25.3517 103.78 26.4469C110.916 35.7429 115.156 47.373 115.156 60.0002C115.156 90.462 90.4615 115.156 59.9997 115.156C47.4047 115.156 35.8023 110.938 26.5182 103.835C25.4216 102.996 23.8525 103.205 23.0136 104.302C22.1746 105.398 22.3835 106.967 23.4801 107.806Z" fill="url(#paint0_linear_48_3223)"/>
<path fill-rule="evenodd" clip-rule="evenodd" d="M97.0701 15.7688C97.9111 14.6738 97.7052 13.1043 96.6102 12.2633C86.4695 4.47476 73.772 -0.156263 60 -0.156263C47.1022 -0.156263 35.1457 3.90555 25.3496 10.8197C24.2216 11.6159 23.9526 13.1758 24.7487 14.3038C25.5449 15.4319 27.1048 15.7009 28.2328 14.9047C37.213 8.56644 48.1679 4.84374 60 4.84374C72.6325 4.84374 84.2668 9.08753 93.5646 16.2287C94.6597 17.0697 96.2291 16.8638 97.0701 15.7688Z" fill="url(#paint1_linear_48_3223)"/>
<path fill-rule="evenodd" clip-rule="evenodd" d="M15.6772 96.9609C16.7743 96.1226 16.984 94.5536 16.1457 93.4566C9.05462 84.1767 4.84375 72.5837 4.84375 60C4.84375 48.6226 8.28572 38.057 14.1847 29.278C14.9548 28.132 14.65 26.5787 13.504 25.8086C12.358 25.0385 10.8047 25.3433 10.0346 26.4893C3.59894 36.067 -0.15625 47.5986 -0.15625 60C-0.15625 73.7186 4.43879 86.3712 12.1728 96.4924C13.0111 97.5895 14.5801 97.7992 15.6772 96.9609Z" fill="url(#paint2_linear_48_3223)"/>
<path fill-rule="evenodd" clip-rule="evenodd" d="M50.5556 114.673C53.0794 117.875 56.252 120.156 59.9999 120.156C65.1951 120.156 69.2874 115.834 72.2884 110.271C75.3951 104.512 77.8663 96.4899 79.4975 87.1489C79.735 85.7888 78.8249 84.4936 77.4648 84.2561C76.1047 84.0186 74.8095 84.9287 74.572 86.2888C72.9918 95.3377 70.6457 102.785 67.8879 107.897C65.0243 113.205 62.2049 115.156 59.9999 115.156C58.4407 115.156 56.5574 114.211 54.4826 111.578C52.4301 108.973 50.4723 105.05 48.7819 99.9786C45.4098 89.8622 43.2812 75.7275 43.2812 60.0002C43.2812 56.043 43.416 52.1824 43.6722 48.4577C43.7669 47.0802 42.727 45.8868 41.3496 45.792C39.9721 45.6973 38.7787 46.7372 38.6839 48.1146C38.4198 51.955 38.2812 55.93 38.2812 60.0002C38.2812 76.1154 40.4549 90.8087 44.0385 101.56C45.826 106.922 48.0095 111.442 50.5556 114.673Z" fill="url(#paint3_linear_48_3223)"/>
<path fill-rule="evenodd" clip-rule="evenodd" d="M78.6501 74.2128C80.0275 74.3075 81.221 73.2677 81.3158 71.8903C81.5802 68.0485 81.719 64.0716 81.719 59.9997C81.719 43.8845 79.5453 29.1911 75.9616 18.4401C74.1741 13.0777 71.9906 8.55776 69.4446 5.32709C66.9207 2.1246 63.7481 -0.15638 60.0003 -0.15638C54.796 -0.15638 50.6981 4.18123 47.6946 9.76118C44.5848 15.5386 42.1128 23.5857 40.4846 32.9545C40.2482 34.3148 41.1593 35.6092 42.5196 35.8456C43.8799 36.082 45.1744 35.1709 45.4108 33.8106C46.9881 24.7341 49.3356 17.2618 52.0973 12.131C54.9652 6.80283 57.7909 4.84362 60.0003 4.84362C61.5595 4.84362 63.4428 5.78933 65.5175 8.42196C67.57 11.0264 69.5278 14.95 71.2182 20.0213C74.5904 30.1377 76.719 44.2724 76.719 59.9997C76.719 63.9584 76.584 67.8209 76.3276 71.547C76.2328 72.9245 77.2726 74.118 78.6501 74.2128Z" fill="url(#paint4_linear_48_3223)"/>
<path fill-rule="evenodd" clip-rule="evenodd" d="M3.98438 79.2188C3.98438 80.5995 5.10366 81.7188 6.48438 81.7188H70.6237C72.0044 81.7188 73.1237 80.5995 73.1237 79.2188C73.1237 77.838 72.0044 76.7188 70.6237 76.7188H6.48438C5.10366 76.7188 3.98438 77.838 3.98438 79.2188Z" fill="url(#paint5_linear_48_3223)"/>
<path fill-rule="evenodd" clip-rule="evenodd" d="M47.7344 40.7812C47.7344 42.162 48.8537 43.2812 50.2344 43.2812H113.515C114.896 43.2812 116.015 42.162 116.015 40.7812C116.015 39.4005 114.896 38.2812 113.515 38.2812H50.2344C48.8537 38.2812 47.7344 39.4005 47.7344 40.7812Z" fill="url(#paint6_linear_48_3223)"/>
<path fill-rule="evenodd" clip-rule="evenodd" d="M3.98438 40.7812C3.98438 42.162 5.10366 43.2812 6.48438 43.2812H34.2177C35.5984 43.2812 36.7177 42.162 36.7177 40.7812C36.7177 39.4005 35.5984 38.2812 34.2177 38.2812H6.48438C5.10366 38.2812 3.98438 39.4005 3.98438 40.7812Z" fill="url(#paint7_linear_48_3223)"/>
<path fill-rule="evenodd" clip-rule="evenodd" d="M78.124 84.2188C75.3626 84.2188 73.124 81.9802 73.124 79.2188C73.124 76.4574 75.3626 74.2188 78.124 74.2188C80.8854 74.2188 83.124 76.4574 83.124 79.2188C83.124 81.9802 80.8854 84.2188 78.124 84.2188ZM68.124 79.2188C68.124 84.7416 72.6012 89.2188 78.124 89.2188C83.6468 89.2188 88.124 84.7416 88.124 79.2188C88.124 73.696 83.6468 69.2188 78.124 69.2188C72.6012 69.2188 68.124 73.696 68.124 79.2188Z" fill="url(#paint8_linear_48_3223)"/>
<path fill-rule="evenodd" clip-rule="evenodd" d="M41.7178 45.7813C38.9564 45.7813 36.7178 43.5427 36.7178 40.7813C36.7178 38.0199 38.9564 35.7813 41.7178 35.7813C44.4791 35.7813 46.7177 38.0199 46.7177 40.7813C46.7177 43.5427 44.4791 45.7813 41.7178 45.7813ZM31.7178 40.7813C31.7178 46.3041 36.1949 50.7812 41.7178 50.7812C47.2406 50.7812 51.7177 46.3041 51.7177 40.7813C51.7177 35.2585 47.2406 30.7813 41.7178 30.7813C36.1949 30.7813 31.7178 35.2585 31.7178 40.7813Z" fill="url(#paint9_linear_48_3223)"/>
<path fill-rule="evenodd" clip-rule="evenodd" d="M100.782 24.2188C98.0208 24.2188 95.7822 21.9802 95.7822 19.2188C95.7822 16.4574 98.0208 14.2188 100.782 14.2188C103.544 14.2188 105.782 16.4574 105.782 19.2188C105.782 21.9802 103.544 24.2188 100.782 24.2188ZM90.7822 19.2188C90.7822 24.7416 95.2594 29.2188 100.782 29.2188C106.305 29.2188 110.782 24.7416 110.782 19.2188C110.782 13.696 106.305 9.21879 100.782 9.21879C95.2594 9.21879 90.7822 13.696 90.7822 19.2188Z" fill="url(#paint10_linear_48_3223)"/>
<path fill-rule="evenodd" clip-rule="evenodd" d="M19.2187 105.781C16.4573 105.781 14.2187 103.543 14.2187 100.781C14.2187 98.0199 16.4573 95.7813 19.2187 95.7813C21.9801 95.7813 24.2187 98.0199 24.2187 100.781C24.2187 103.543 21.9801 105.781 19.2187 105.781ZM9.21875 100.781C9.21875 106.304 13.6959 110.781 19.2187 110.781C24.7415 110.781 29.2187 106.304 29.2187 100.781C29.2187 95.2585 24.7415 90.7813 19.2187 90.7813C13.6959 90.7813 9.21875 95.2585 9.21875 100.781Z" fill="url(#paint11_linear_48_3223)"/>
<path fill-rule="evenodd" clip-rule="evenodd" d="M83.124 79.2188C83.124 80.5995 84.2433 81.7188 85.624 81.7188H113.516C114.896 81.7188 116.016 80.5995 116.016 79.2188C116.016 77.838 114.896 76.7188 113.516 76.7188H85.624C84.2433 76.7188 83.124 77.838 83.124 79.2188Z" fill="url(#paint12_linear_48_3223)"/>
<defs>
<linearGradient id="paint0_linear_48_3223" x1="120.156" y1="94.2274" x2="30.8596" y2="46.1286" gradientUnits="userSpaceOnUse">
<stop stop-color="#A45CFF"/>
<stop offset="1" stop-color="#3C0CFF"/>
</linearGradient>
<linearGradient id="paint1_linear_48_3223" x1="97.5876" y1="12.2618" x2="84.2117" y2="-19.0057" gradientUnits="userSpaceOnUse">
<stop stop-color="#A45CFF"/>
<stop offset="1" stop-color="#3C0CFF"/>
</linearGradient>
<linearGradient id="paint2_linear_48_3223" x1="16.6594" y1="78.3484" x2="-2.86904" y2="75.8929" gradientUnits="userSpaceOnUse">
<stop stop-color="#A45CFF"/>
<stop offset="1" stop-color="#3C0CFF"/>
</linearGradient>
<linearGradient id="paint3_linear_48_3223" x1="79.5352" y1="100.425" x2="34.8628" y2="87.0674" gradientUnits="userSpaceOnUse">
<stop stop-color="#A45CFF"/>
<stop offset="1" stop-color="#3C0CFF"/>
</linearGradient>
<linearGradient id="paint4_linear_48_3223" x1="81.719" y1="54.4866" x2="37.03" y2="41.1188" gradientUnits="userSpaceOnUse">
<stop stop-color="#A45CFF"/>
<stop offset="1" stop-color="#3C0CFF"/>
</linearGradient>
<linearGradient id="paint5_linear_48_3223" x1="73.1237" y1="80.3922" x2="71.6817" y2="69.6436" gradientUnits="userSpaceOnUse">
<stop stop-color="#A45CFF"/>
<stop offset="1" stop-color="#3C0CFF"/>
</linearGradient>
<linearGradient id="paint6_linear_48_3223" x1="116.015" y1="41.9547" x2="114.556" y2="31.2109" gradientUnits="userSpaceOnUse">
<stop stop-color="#A45CFF"/>
<stop offset="1" stop-color="#3C0CFF"/>
</linearGradient>
<linearGradient id="paint7_linear_48_3223" x1="36.7177" y1="41.9547" x2="33.8475" y2="31.8259" gradientUnits="userSpaceOnUse">
<stop stop-color="#A45CFF"/>
<stop offset="1" stop-color="#3C0CFF"/>
</linearGradient>
<linearGradient id="paint8_linear_48_3223" x1="88.124" y1="83.9126" x2="69.8426" y2="74.0579" gradientUnits="userSpaceOnUse">
<stop stop-color="#A45CFF"/>
<stop offset="1" stop-color="#3C0CFF"/>
</linearGradient>
<linearGradient id="paint9_linear_48_3223" x1="51.7177" y1="45.4751" x2="33.4363" y2="35.6204" gradientUnits="userSpaceOnUse">
<stop stop-color="#A45CFF"/>
<stop offset="1" stop-color="#3C0CFF"/>
</linearGradient>
<linearGradient id="paint10_linear_48_3223" x1="110.782" y1="23.9126" x2="92.5008" y2="14.0579" gradientUnits="userSpaceOnUse">
<stop stop-color="#A45CFF"/>
<stop offset="1" stop-color="#3C0CFF"/>
</linearGradient>
<linearGradient id="paint11_linear_48_3223" x1="29.2187" y1="105.475" x2="10.9373" y2="95.6204" gradientUnits="userSpaceOnUse">
<stop stop-color="#A45CFF"/>
<stop offset="1" stop-color="#3C0CFF"/>
</linearGradient>
<linearGradient id="paint12_linear_48_3223" x1="116.016" y1="80.3922" x2="113.157" y2="70.2562" gradientUnits="userSpaceOnUse">
<stop stop-color="#A45CFF"/>
<stop offset="1" stop-color="#3C0CFF"/>
</linearGradient>
</defs>
</svg>
