<svg width="110" height="110" viewBox="0 0 110 110" fill="none" xmlns="http://www.w3.org/2000/svg">
<path d="M49.825 92.5H12.5C10.5109 92.5 8.60322 91.7098 7.1967 90.3033C5.79018 88.8968 5 86.9891 5 85V32.5H87.5V48.3C87.5 48.963 87.7634 49.5989 88.2322 50.0678C88.7011 50.5366 89.337 50.8 90 50.8C90.663 50.8 91.2989 50.5366 91.7678 50.0678C92.2366 49.5989 92.5 48.963 92.5 48.3V20C92.496 16.686 91.1778 13.5089 88.8344 11.1655C86.4911 8.8222 83.314 7.50397 80 7.5H75C75 5.51088 74.2098 3.60322 72.8033 2.1967C71.3968 0.790177 69.4891 0 67.5 0C65.5109 0 63.6032 0.790177 62.1967 2.1967C60.7902 3.60322 60 5.51088 60 7.5H32.5C32.5 5.51088 31.7098 3.60322 30.3033 2.1967C28.8968 0.790177 26.9891 0 25 0C23.0109 0 21.1032 0.790177 19.6967 2.1967C18.2902 3.60322 17.5 5.51088 17.5 7.5H12.5C9.18601 7.50397 6.00889 8.8222 3.66555 11.1655C1.3222 13.5089 0.00396964 16.686 0 20V85C0.00396964 88.314 1.3222 91.4911 3.66555 93.8344C6.00889 96.1778 9.18601 97.496 12.5 97.5H49.825C50.488 97.5 51.1239 97.2366 51.5928 96.7678C52.0616 96.2989 52.325 95.663 52.325 95C52.325 94.337 52.0616 93.7011 51.5928 93.2322C51.1239 92.7634 50.488 92.5 49.825 92.5ZM65 7.5C65 6.83696 65.2634 6.20107 65.7322 5.73223C66.2011 5.26339 66.837 5 67.5 5C68.163 5 68.7989 5.26339 69.2678 5.73223C69.7366 6.20107 70 6.83696 70 7.5V12.5C70 13.163 69.7366 13.7989 69.2678 14.2678C68.7989 14.7366 68.163 15 67.5 15C66.837 15 66.2011 14.7366 65.7322 14.2678C65.2634 13.7989 65 13.163 65 12.5V7.5ZM22.5 7.5C22.5 6.83696 22.7634 6.20107 23.2322 5.73223C23.7011 5.26339 24.337 5 25 5C25.663 5 26.2989 5.26339 26.7678 5.73223C27.2366 6.20107 27.5 6.83696 27.5 7.5V12.5C27.5 13.163 27.2366 13.7989 26.7678 14.2678C26.2989 14.7366 25.663 15 25 15C24.337 15 23.7011 14.7366 23.2322 14.2678C22.7634 13.7989 22.5 13.163 22.5 12.5V7.5ZM5 20C5 18.0109 5.79018 16.1032 7.1967 14.6967C8.60322 13.2902 10.5109 12.5 12.5 12.5H17.5C17.5 14.4891 18.2902 16.3968 19.6967 17.8033C21.1032 19.2098 23.0109 20 25 20C26.9891 20 28.8968 19.2098 30.3033 17.8033C31.7098 16.3968 32.5 14.4891 32.5 12.5H60C60 14.4891 60.7902 16.3968 62.1967 17.8033C63.6032 19.2098 65.5109 20 67.5 20C69.4891 20 71.3968 19.2098 72.8033 17.8033C74.2098 16.3968 75 14.4891 75 12.5H80C81.9891 12.5 83.8968 13.2902 85.3033 14.6967C86.7098 16.1032 87.5 18.0109 87.5 20V27.5H5V20Z" fill="url(#paint0_linear_48_3242)"/>
<path d="M30 45C30 43.6739 29.4732 42.4021 28.5355 41.4645C27.5979 40.5268 26.3261 40 25 40H17.5C16.1739 40 14.9021 40.5268 13.9645 41.4645C13.0268 42.4021 12.5 43.6739 12.5 45V52.5C12.5 53.8261 13.0268 55.0979 13.9645 56.0355C14.9021 56.9732 16.1739 57.5 17.5 57.5H25C26.3261 57.5 27.5979 56.9732 28.5355 56.0355C29.4732 55.0979 30 53.8261 30 52.5V45ZM17.5 52.5V45H25V52.5H17.5ZM55 45C55 43.6739 54.4732 42.4021 53.5355 41.4645C52.5979 40.5268 51.3261 40 50 40H42.5C41.1739 40 39.9021 40.5268 38.9645 41.4645C38.0268 42.4021 37.5 43.6739 37.5 45V52.5C37.5 53.8261 38.0268 55.0979 38.9645 56.0355C39.9021 56.9732 41.1739 57.5 42.5 57.5H50C51.3261 57.5 52.5979 56.9732 53.5355 56.0355C54.4732 55.0979 55 53.8261 55 52.5V45ZM42.5 52.5V45H50V52.5H42.5ZM77.5 50.35C78.163 50.35 78.7989 50.0866 79.2678 49.6178C79.7366 49.1489 80 48.513 80 47.85V45C80 43.6739 79.4732 42.4021 78.5355 41.4645C77.5979 40.5268 76.3261 40 75 40H67.5C66.1739 40 64.9021 40.5268 63.9645 41.4645C63.0268 42.4021 62.5 43.6739 62.5 45V52.2C62.5 52.863 62.7634 53.4989 63.2322 53.9678C63.7011 54.4366 64.337 54.7 65 54.7C65.663 54.7 66.2989 54.4366 66.7678 53.9678C67.2366 53.4989 67.5 52.863 67.5 52.2V45H75V47.85C75 48.513 75.2634 49.1489 75.7322 49.6178C76.2011 50.0866 76.837 50.35 77.5 50.35ZM25 65H17.5C16.1739 65 14.9021 65.5268 13.9645 66.4645C13.0268 67.4022 12.5 68.6739 12.5 70V77.5C12.5 78.8261 13.0268 80.0979 13.9645 81.0355C14.9021 81.9732 16.1739 82.5 17.5 82.5H25C26.3261 82.5 27.5979 81.9732 28.5355 81.0355C29.4732 80.0979 30 78.8261 30 77.5V70C30 68.6739 29.4732 67.4022 28.5355 66.4645C27.5979 65.5268 26.3261 65 25 65ZM17.5 77.5V70H25V77.5H17.5ZM51.725 65.3275C51.1761 65.1095 50.5906 64.9984 50 65H42.5C41.1739 65 39.9021 65.5268 38.9645 66.4645C38.0268 67.4022 37.5 68.6739 37.5 70V77.5C37.5 78.8261 38.0268 80.0979 38.9645 81.0355C39.9021 81.9732 41.1739 82.5 42.5 82.5H47.6C48.263 82.5 48.8989 82.2366 49.3678 81.7678C49.8366 81.2989 50.1 80.663 50.1 80C50.1 79.337 49.8366 78.7011 49.3678 78.2322C48.8989 77.7634 48.263 77.5 47.6 77.5H42.5V70L49.875 69.9725C50.4898 70.2119 51.1742 70.1986 51.7792 69.9355C52.3842 69.6724 52.8606 69.1808 53.1047 68.5679C53.3488 67.955 53.3408 67.2705 53.0823 66.6635C52.8239 66.0565 52.336 65.5763 51.725 65.3275ZM82.5 55C77.061 55 71.7442 56.6128 67.2218 59.6346C62.6995 62.6563 59.1747 66.9512 57.0933 71.9762C55.0119 77.0012 54.4673 82.5305 55.5284 87.865C56.5895 93.1995 59.2086 98.0995 63.0546 101.945C66.9005 105.791 71.8005 108.411 77.135 109.472C82.4695 110.533 87.9988 109.988 93.0238 107.907C98.0488 105.825 102.344 102.301 105.365 97.7782C108.387 93.2558 110 87.939 110 82.5C109.991 75.2092 107.091 68.2195 101.936 63.0641C96.7806 57.9087 89.7908 55.0086 82.5 55ZM82.5 105C78.0499 105 73.6998 103.68 69.9997 101.208C66.2996 98.7357 63.4157 95.2217 61.7127 91.1104C60.0097 86.999 59.5642 82.475 60.4323 78.1105C61.3005 73.7459 63.4434 69.7368 66.5901 66.5901C69.7368 63.4434 73.7459 61.3005 78.1105 60.4323C82.475 59.5642 86.999 60.0097 91.1104 61.7127C95.2217 63.4157 98.7357 66.2996 101.208 69.9997C103.68 73.6998 105 78.0499 105 82.5C104.993 88.4653 102.621 94.1845 98.4026 98.4026C94.1845 102.621 88.4653 104.993 82.5 105Z" fill="url(#paint1_linear_48_3242)"/>
<path d="M85 81.465V70C85 69.337 84.7366 68.7011 84.2678 68.2322C83.7989 67.7634 83.163 67.5 82.5 67.5C81.837 67.5 81.2011 67.7634 80.7322 68.2322C80.2634 68.7011 80 69.337 80 70V82.5C80.0001 83.163 80.2636 83.7988 80.7325 84.2675L85.7325 89.2675C86.204 89.7229 86.8355 89.9749 87.491 89.9692C88.1465 89.9635 88.7735 89.7006 89.2371 89.2371C89.7006 88.7735 89.9635 88.1465 89.9692 87.491C89.9749 86.8355 89.7229 86.204 89.2675 85.7325L85 81.465Z" fill="url(#paint2_linear_48_3242)"/>
<defs>
<linearGradient id="paint0_linear_48_3242" x1="92.5" y1="25.8674" x2="6.00206" y2="70.1036" gradientUnits="userSpaceOnUse">
<stop stop-color="#A45CFF"/>
<stop offset="1" stop-color="#3C0CFF"/>
</linearGradient>
<linearGradient id="paint1_linear_48_3242" x1="110" y1="58.5714" x2="36.4462" y2="113.798" gradientUnits="userSpaceOnUse">
<stop stop-color="#A45CFF"/>
<stop offset="1" stop-color="#3C0CFF"/>
</linearGradient>
<linearGradient id="paint2_linear_48_3242" x1="89.9693" y1="73.4612" x2="78.845" y2="76.1219" gradientUnits="userSpaceOnUse">
<stop stop-color="#A45CFF"/>
<stop offset="1" stop-color="#3C0CFF"/>
</linearGradient>
</defs>
</svg>
