<svg width="120" height="88" viewBox="0 0 120 88" fill="none" xmlns="http://www.w3.org/2000/svg">
<path d="M110 0H10C7.34875 0.00297764 4.80694 1.0575 2.93222 2.93222C1.0575 4.80694 0.00297764 7.34875 0 10V78C0.00297764 80.6513 1.0575 83.1931 2.93222 85.0678C4.80694 86.9425 7.34875 87.997 10 88H110C112.651 87.997 115.193 86.9425 117.068 85.0678C118.942 83.1931 119.997 80.6513 120 78V10C119.997 7.34875 118.942 4.80694 117.068 2.93222C115.193 1.0575 112.651 0.00297764 110 0ZM10 4H110C111.591 4.00185 113.116 4.63459 114.241 5.75941C115.365 6.88422 115.998 8.40927 116 10V16H4V10C4.00185 8.40927 4.63459 6.88422 5.75941 5.75941C6.88422 4.63459 8.40927 4.00185 10 4ZM110 84H10C8.40927 83.9981 6.88422 83.3654 5.75941 82.2406C4.63459 81.1158 4.00185 79.5907 4 78V20H116V78C115.998 79.5907 115.365 81.1158 114.241 82.2406C113.116 83.3654 111.591 83.9981 110 84Z" fill="url(#paint0_linear_48_3271)"/>
<path d="M12 8H16V12H12V8ZM20 8H24V12H20V8ZM28 8H32V12H28V8ZM80.5857 32.586L71.772 41.4017L66.6 36.23L75.4137 27.414L72.5853 24.586L63.7715 33.4017L59.2853 28.9152C59.0995 28.7295 58.879 28.5821 58.6363 28.4816C58.3937 28.381 58.1336 28.3293 57.8709 28.3293C57.6082 28.3293 57.3481 28.381 57.1054 28.4816C56.8627 28.5821 56.6422 28.7295 56.4565 28.9152L46.5565 38.8153C43.8006 41.5705 42.1453 45.237 41.9016 49.1264C41.6579 53.0157 42.8424 56.8603 45.2327 59.938L28.5848 76.586L31.4132 79.4145L48.0612 62.7665C51.1391 65.1567 54.9838 66.341 58.8731 66.0971C62.7624 65.8531 66.4289 64.1976 69.184 61.4415L79.084 51.5415C79.2698 51.3558 79.4171 51.1353 79.5177 50.8926C79.6182 50.6499 79.6699 50.3898 79.6699 50.1271C79.6699 49.8644 79.6182 49.6043 79.5177 49.3617C79.4171 49.119 79.2698 48.8985 79.084 48.7128L74.6 44.23L83.4137 35.414L80.5857 32.586ZM66.3565 58.614C64.1061 60.8643 61.0539 62.1286 57.8714 62.1286C54.6889 62.1286 51.6367 60.8643 49.3863 58.614C47.1359 56.3636 45.8717 53.3114 45.8717 50.1289C45.8717 46.9464 47.1359 43.8942 49.3863 41.6437L52.1 38.9292L66.5853 53.4143L69.4137 50.5857L54.929 36.1L57.8713 33.1575L74.842 50.1283L66.3565 58.614Z" fill="url(#paint1_linear_48_3271)"/>
<defs>
<linearGradient id="paint0_linear_48_3271" x1="120" y1="23.3469" x2="28.0967" y2="90.903" gradientUnits="userSpaceOnUse">
<stop stop-color="#A45CFF"/>
<stop offset="1" stop-color="#3C0CFF"/>
</linearGradient>
<linearGradient id="paint1_linear_48_3271" x1="83.4137" y1="26.9467" x2="18.1361" y2="62.1347" gradientUnits="userSpaceOnUse">
<stop stop-color="#A45CFF"/>
<stop offset="1" stop-color="#3C0CFF"/>
</linearGradient>
</defs>
</svg>
