<svg width="116" height="116" viewBox="0 0 116 116" fill="none" xmlns="http://www.w3.org/2000/svg">
<path fill-rule="evenodd" clip-rule="evenodd" d="M8.56039 5.20039C6.70471 5.20039 5.20039 6.70471 5.20039 8.56039C5.20039 10.4161 6.70471 11.9204 8.56039 11.9204C10.4161 11.9204 11.9204 10.4161 11.9204 8.56039C11.9204 6.70471 10.4161 5.20039 8.56039 5.20039ZM0.400391 8.56039C0.400391 4.05375 4.05375 0.400391 8.56039 0.400391C13.067 0.400391 16.7204 4.05375 16.7204 8.56039C16.7204 12.2318 14.2958 15.3368 10.9604 16.3617V22.7204C10.9604 26.1949 13.9659 29.2004 17.4404 29.2004H25.8404V34.0004H17.4404C11.3149 34.0004 6.16043 28.8459 6.16043 22.7204V16.3617C2.82505 15.3369 0.400391 12.2318 0.400391 8.56039ZM42.4003 7.71909C39.065 8.74399 36.6404 11.849 36.6404 15.5204C36.6404 20.027 40.2938 23.6804 44.8004 23.6804C49.307 23.6804 52.9604 20.027 52.9604 15.5204C52.9604 11.849 50.5357 8.74386 47.2003 7.71902V0.400391H42.4003V7.71909ZM73.6003 0.400391V7.71905C76.9357 8.74391 79.3603 11.849 79.3603 15.5204C79.3603 20.027 75.707 23.6804 71.2003 23.6804C66.6937 23.6804 63.0403 20.027 63.0403 15.5204C63.0403 11.849 65.4649 8.74393 68.8003 7.71906V0.400391H73.6003ZM105.04 22.7204V16.3617C101.705 15.3369 99.2803 12.2318 99.2803 8.56039C99.2803 4.05375 102.934 0.400391 107.44 0.400391C111.947 0.400391 115.6 4.05375 115.6 8.56039C115.6 12.2318 113.176 15.3369 109.84 16.3617V22.7204C109.84 28.8459 104.686 34.0004 98.5603 34.0004H90.1603V29.2004H98.5603C102.035 29.2004 105.04 26.1949 105.04 22.7204ZM16.3617 55.6004C15.3369 52.265 12.2318 49.8404 8.56039 49.8404C4.05375 49.8404 0.400391 53.4938 0.400391 58.0004C0.400391 62.5071 4.05375 66.1604 8.56039 66.1604C12.2318 66.1604 15.3369 63.7358 16.3617 60.4004H26.0803V55.6004H16.3617ZM89.9203 55.6004H99.639C100.664 52.265 103.769 49.8404 107.44 49.8404C111.947 49.8404 115.6 53.4938 115.6 58.0004C115.6 62.5071 111.947 66.1604 107.44 66.1604C103.769 66.1604 100.664 63.7358 99.639 60.4004H89.9203V55.6004ZM90.1603 82.0004H98.5603C104.686 82.0004 109.84 87.1549 109.84 93.2804V99.639C113.176 100.664 115.6 103.769 115.6 107.44C115.6 111.947 111.947 115.6 107.44 115.6C102.934 115.6 99.2803 111.947 99.2803 107.44C99.2803 103.769 101.705 100.664 105.04 99.639V93.2804C105.04 89.8059 102.035 86.8004 98.5603 86.8004H90.1603V82.0004ZM47.2003 108.282C50.5357 107.257 52.9604 104.152 52.9604 100.48C52.9604 95.9738 49.307 92.3204 44.8004 92.3204C40.2937 92.3204 36.6404 95.9738 36.6404 100.48C36.6404 104.152 39.065 107.257 42.4003 108.282V115.6H47.2003V108.282ZM68.8003 115.6V108.282C65.4649 107.257 63.0403 104.152 63.0403 100.48C63.0403 95.9738 66.6937 92.3204 71.2003 92.3204C75.707 92.3204 79.3603 95.9738 79.3603 100.48C79.3603 104.152 76.9357 107.257 73.6003 108.282V115.6H68.8003ZM71.2003 12.1604C69.3446 12.1604 67.8403 13.6647 67.8403 15.5204C67.8403 17.3761 69.3446 18.8804 71.2003 18.8804C73.056 18.8804 74.5603 17.3761 74.5603 15.5204C74.5603 13.6647 73.056 12.1604 71.2003 12.1604ZM41.4404 15.5204C41.4404 13.6647 42.9447 12.1604 44.8004 12.1604C46.6561 12.1604 48.1604 13.6647 48.1604 15.5204C48.1604 17.3761 46.6561 18.8804 44.8004 18.8804C42.9447 18.8804 41.4404 17.3761 41.4404 15.5204ZM107.44 5.20039C105.585 5.20039 104.08 6.70471 104.08 8.56039C104.08 10.4161 105.585 11.9204 107.44 11.9204C109.296 11.9204 110.8 10.4161 110.8 8.56039C110.8 6.70472 109.296 5.20039 107.44 5.20039ZM10.9604 93.2804C10.9604 89.8059 13.9659 86.8004 17.4404 86.8004H25.8404V82.0004H17.4404C11.3149 82.0004 6.16043 87.1549 6.16043 93.2804V99.639C2.82505 100.664 0.400391 103.769 0.400391 107.44C0.400391 111.947 4.05375 115.6 8.56039 115.6C13.067 115.6 16.7204 111.947 16.7204 107.44C16.7204 103.769 14.2958 100.664 10.9604 99.639V93.2804ZM41.4404 100.48C41.4404 98.6247 42.9447 97.1204 44.8004 97.1204C46.6561 97.1204 48.1604 98.6247 48.1604 100.48C48.1604 102.336 46.6561 103.84 44.8004 103.84C42.9447 103.84 41.4404 102.336 41.4404 100.48ZM71.2003 97.1204C69.3446 97.1204 67.8403 98.6247 67.8403 100.48C67.8403 102.336 69.3446 103.84 71.2003 103.84C73.056 103.84 74.5603 102.336 74.5603 100.48C74.5603 98.6247 73.056 97.1204 71.2003 97.1204ZM104.08 107.44C104.08 105.585 105.585 104.08 107.44 104.08C109.296 104.08 110.8 105.585 110.8 107.44C110.8 109.296 109.296 110.8 107.44 110.8C105.585 110.8 104.08 109.296 104.08 107.44ZM8.56039 104.08C6.70471 104.08 5.20039 105.585 5.20039 107.44C5.20039 109.296 6.70472 110.8 8.56039 110.8C10.4161 110.8 11.9204 109.296 11.9204 107.44C11.9204 105.585 10.4161 104.08 8.56039 104.08ZM59.9534 27.8054L58.0004 25.0713L56.0474 27.8054C52.8853 32.2324 47.8439 34.9604 42.1604 34.9604C39.2687 34.9604 36.5182 34.136 33.8737 32.8138L30.4004 31.0771V45.5204C30.4004 59.1906 36.4754 72.1092 46.8684 80.7278L46.8707 80.7298L58.0004 89.9117L69.1301 80.7298L69.1324 80.7278C79.5254 72.1092 85.6004 59.1906 85.6004 45.5204V31.0771L82.1271 32.8138C79.4826 34.136 76.7321 34.9604 73.8404 34.9604C68.1569 34.9604 63.1155 32.2324 59.9534 27.8054ZM42.1604 39.7604C48.3574 39.7604 53.9756 37.2132 58.0004 32.9655C62.0252 37.2132 67.6434 39.7604 73.8404 39.7604C76.3038 39.7604 78.6269 39.3068 80.8004 38.5682V45.5204C80.8004 57.7693 75.3562 69.3299 66.0704 77.0313L66.0684 77.033L58.0004 83.6891L49.9324 77.033L49.9301 77.031C40.6445 69.3296 35.2004 57.7692 35.2004 45.5204V38.5682C37.3739 39.3068 39.697 39.7604 42.1604 39.7604ZM107.44 54.6404C105.585 54.6404 104.08 56.1447 104.08 58.0004C104.08 59.8561 105.585 61.3604 107.44 61.3604C109.296 61.3604 110.8 59.8561 110.8 58.0004C110.8 56.1447 109.296 54.6404 107.44 54.6404ZM5.20039 58.0004C5.20039 56.1447 6.70471 54.6404 8.56039 54.6404C10.4161 54.6404 11.9204 56.1447 11.9204 58.0004C11.9204 59.8561 10.4161 61.3604 8.56039 61.3604C6.70471 61.3604 5.20039 59.8561 5.20039 58.0004Z" fill="url(#paint0_linear_48_3290)"/>
<defs>
<linearGradient id="paint0_linear_48_3290" x1="115.6" y1="30.9637" x2="10.2993" y2="87.7269" gradientUnits="userSpaceOnUse">
<stop stop-color="#A45CFF"/>
<stop offset="1" stop-color="#3C0CFF"/>
</linearGradient>
</defs>
</svg>
