<svg width="95" height="106" viewBox="0 0 95 106" fill="none" xmlns="http://www.w3.org/2000/svg">
<path d="M55.0532 46.4833L45.1251 56.4115L38.947 50.2333C38.5897 49.9108 38.1221 49.738 37.641 49.7507C37.1598 49.7633 36.702 49.9606 36.3623 50.3015C36.0225 50.6425 35.8269 51.101 35.8159 51.5822C35.8049 52.0634 35.9794 52.5304 36.3032 52.8865L43.8032 60.3865C44.1545 60.7357 44.6298 60.9317 45.1251 60.9317C45.6205 60.9317 46.0957 60.7357 46.447 60.3865L57.697 49.1365C58.0208 48.7804 58.1953 48.3134 58.1843 47.8322C58.1733 47.351 57.9777 46.8925 57.638 46.5515C57.2982 46.2106 56.8404 46.0133 56.3592 46.0007C55.8781 45.988 55.4105 46.1608 55.0532 46.4833Z" fill="url(#paint0_linear_48_3310)"/>
<path d="M82.625 62.3747C80.9747 62.3759 79.3448 62.7402 77.851 63.4417C76.3572 64.1432 75.0361 65.1648 73.9812 66.4341L68.9844 63.5278C70.5568 60.2425 71.3731 56.6466 71.3731 53.0044C71.3731 49.3621 70.5568 45.7662 68.9844 42.4809L74.0094 39.5934C75.8218 41.7847 78.3917 43.2147 81.2092 43.5996C84.0268 43.9845 86.8861 43.2963 89.2198 41.6714C91.5536 40.0465 93.1913 37.6037 93.808 34.8277C94.4248 32.0517 93.9754 29.1452 92.5492 26.685C91.123 24.2248 88.8241 22.3906 86.1087 21.5463C83.3932 20.702 80.4595 20.9092 77.8897 22.127C75.32 23.3447 73.3018 25.484 72.2357 28.1203C71.1696 30.7566 71.1334 33.6973 72.1344 36.3591L67.1187 39.2372C65.0596 36.2281 62.3516 33.7192 59.1942 31.8955C56.0368 30.0718 52.5105 28.9797 48.875 28.6997V22.8309C51.6564 22.3608 54.1596 20.8629 55.8887 18.6342C57.6178 16.4054 58.4465 13.6084 58.2106 10.7975C57.9747 7.98654 56.6914 5.36679 54.6151 3.45739C52.5387 1.54798 49.8208 0.488281 47 0.488281C44.1792 0.488281 41.4613 1.54798 39.3849 3.45739C37.3086 5.36679 36.0253 7.98654 35.7894 10.7975C35.5535 13.6084 36.3822 16.4054 38.1113 18.6342C39.8404 20.8629 42.3436 22.3608 45.125 22.8309V28.6997C41.4936 28.9814 37.9715 30.0733 34.8176 31.8953C31.6637 33.7172 28.9582 36.2228 26.9 39.2278L21.8937 36.3216C22.3763 35.0616 22.6242 33.7239 22.625 32.3747C22.6273 29.7276 21.6962 27.1645 19.9954 25.1362C18.2945 23.1079 15.9329 21.7443 13.326 21.2852C10.7191 20.8261 8.03373 21.301 5.74235 22.6264C3.45097 23.9517 1.70031 26.0426 0.798304 28.5312C-0.103704 31.0198 -0.0992853 33.7468 0.810782 36.2325C1.72085 38.7182 3.47828 40.8034 5.77394 42.1213C8.0696 43.4392 10.7565 43.9054 13.3619 43.4379C15.9673 42.9704 18.3245 41.5991 20.0187 39.5653L25.0156 42.4716C23.4417 45.7581 22.6247 49.3557 22.6247 52.9997C22.6247 56.6437 23.4417 60.2413 25.0156 63.5278L20.0094 66.4247C18.3128 64.3935 15.9545 63.0254 13.3491 62.561C10.7436 62.0967 8.05786 62.5657 5.76401 63.8856C3.47017 65.2056 1.7151 67.292 0.807402 69.778C-0.100301 72.2639 -0.102525 74.9903 0.801121 77.4778C1.70477 79.9652 3.45643 82.0545 5.74811 83.3782C8.0398 84.7019 10.7248 85.1753 13.331 84.7151C15.9372 84.255 18.2977 82.8908 19.9976 80.8624C21.6974 78.834 22.6278 76.2712 22.625 73.6247C22.6196 72.2698 22.372 70.9268 21.8937 69.6591L26.9 66.7716C28.9582 69.7766 31.6637 72.2822 34.8176 74.1041C37.9715 75.926 41.4936 77.018 45.125 77.2997V83.1684C42.3436 83.6386 39.8404 85.1364 38.1113 87.3652C36.3822 89.5939 35.5535 92.3909 35.7894 95.2019C36.0253 98.0128 37.3086 100.633 39.3849 102.542C41.4613 104.451 44.1792 105.511 47 105.511C49.8208 105.511 52.5387 104.451 54.6151 102.542C56.6914 100.633 57.9747 98.0128 58.2106 95.2019C58.4465 92.3909 57.6178 89.5939 55.8887 87.3652C54.1596 85.1364 51.6564 83.6386 48.875 83.1684V77.2997C52.5064 77.018 56.0285 75.926 59.1824 74.1041C62.3363 72.2822 65.0418 69.7766 67.1 66.7716L72.0969 69.6872C71.2579 71.9326 71.1581 74.3874 71.812 76.6935C72.4659 78.9997 73.8393 81.0367 75.732 82.5076C77.6247 83.9785 79.9378 84.8064 82.334 84.8706C84.7302 84.9348 87.0843 84.232 89.053 82.8646C91.0218 81.4971 92.5023 79.5366 93.2788 77.2687C94.0552 75.0009 94.087 72.5443 93.3695 70.2572C92.652 67.97 91.2226 65.9718 89.2899 64.5539C87.3572 63.136 85.0221 62.3725 82.625 62.3747ZM82.625 24.8747C84.1084 24.8747 85.5584 25.3145 86.7918 26.1387C88.0251 26.9628 88.9864 28.1341 89.5541 29.5046C90.1217 30.875 90.2703 32.383 89.9809 33.8379C89.6915 35.2927 88.9772 36.6291 87.9283 37.678C86.8794 38.7269 85.543 39.4412 84.0882 39.7306C82.6333 40.02 81.1253 39.8714 79.7549 39.3038C78.3844 38.7361 77.2131 37.7748 76.389 36.5415C75.5649 35.3081 75.125 33.858 75.125 32.3747C75.125 30.3856 75.9152 28.4779 77.3217 27.0714C78.7282 25.6649 80.6359 24.8747 82.625 24.8747ZM11.375 39.8747C9.89164 39.8747 8.44159 39.4348 7.20822 38.6107C5.97485 37.7866 5.01356 36.6152 4.4459 35.2448C3.87824 33.8744 3.72972 32.3664 4.01911 30.9115C4.3085 29.4566 5.0228 28.1203 6.07169 27.0714C7.12059 26.0225 8.45696 25.3082 9.91182 25.0188C11.3667 24.7294 12.8747 24.8779 14.2451 25.4456C15.6156 26.0132 16.7869 26.9745 17.611 28.2079C18.4351 29.4413 18.875 30.8913 18.875 32.3747C18.875 34.3638 18.0848 36.2715 16.6783 37.678C15.2718 39.0845 13.3641 39.8747 11.375 39.8747ZM11.375 81.1247C9.89164 81.1247 8.44159 80.6848 7.20822 79.8607C5.97485 79.0366 5.01356 77.8653 4.4459 76.4948C3.87824 75.1244 3.72972 73.6164 4.01911 72.1615C4.3085 70.7066 5.0228 69.3703 6.07169 68.3214C7.12059 67.2725 8.45696 66.5582 9.91182 66.2688C11.3667 65.9794 12.8747 66.1279 14.2451 66.6956C15.6156 67.2632 16.7869 68.2245 17.611 69.4579C18.4351 70.6913 18.875 72.1413 18.875 73.6247C18.875 75.6138 18.0848 77.5215 16.6783 78.928C15.2718 80.3345 13.3641 81.1247 11.375 81.1247ZM39.5 11.7497C39.5 10.2663 39.9399 8.81627 40.764 7.5829C41.5881 6.34953 42.7594 5.38824 44.1299 4.82058C45.5003 4.25293 47.0083 4.1044 48.4632 4.39379C49.918 4.68318 51.2544 5.39749 52.3033 6.44638C53.3522 7.49527 54.0665 8.83165 54.3559 10.2865C54.6453 11.7414 54.4967 13.2494 53.9291 14.6198C53.3614 15.9903 52.4001 17.1616 51.1668 17.9857C49.9334 18.8098 48.4834 19.2497 47 19.2497C45.0109 19.2497 43.1032 18.4595 41.6967 17.053C40.2902 15.6465 39.5 13.7388 39.5 11.7497ZM54.5 94.2497C54.5 95.733 54.0601 97.1831 53.236 98.4165C52.4119 99.6498 51.2406 100.611 49.8701 101.179C48.4997 101.746 46.9917 101.895 45.5368 101.606C44.082 101.316 42.7456 100.602 41.6967 99.553C40.6478 98.5041 39.9335 97.1677 39.6441 95.7129C39.3547 94.258 39.5032 92.75 40.0709 91.3796C40.6386 90.0091 41.5999 88.8378 42.8332 88.0137C44.0666 87.1896 45.5166 86.7497 47 86.7497C48.9891 86.7497 50.8968 87.5399 52.3033 88.9464C53.7098 90.3529 54.5 92.2606 54.5 94.2497ZM47 73.6247C42.9208 73.6247 38.9331 72.415 35.5414 70.1487C32.1496 67.8824 29.506 64.6613 27.945 60.8925C26.3839 57.1238 25.9755 52.9768 26.7713 48.9759C27.5671 44.9751 29.5315 41.3001 32.4159 38.4156C35.3004 35.5311 38.9754 33.5668 42.9763 32.771C46.9771 31.9752 51.1241 32.3836 54.8928 33.9447C58.6616 35.5057 61.8827 38.1493 64.149 41.541C66.4154 44.9328 67.625 48.9204 67.625 52.9997C67.625 58.4698 65.452 63.7158 61.5841 67.5838C57.7161 71.4517 52.4701 73.6247 47 73.6247ZM82.625 81.1247C81.1416 81.1247 79.6916 80.6848 78.4582 79.8607C77.2248 79.0366 76.2635 77.8653 75.6959 76.4948C75.1282 75.1244 74.9797 73.6164 75.2691 72.1615C75.5585 70.7066 76.2728 69.3703 77.3217 68.3214C78.3706 67.2725 79.707 66.5582 81.1618 66.2688C82.6167 65.9794 84.1247 66.1279 85.4951 66.6956C86.8656 67.2632 88.0369 68.2245 88.861 69.4579C89.6851 70.6913 90.125 72.1413 90.125 73.6247C90.125 75.6138 89.3348 77.5215 87.9283 78.928C86.5218 80.3345 84.6141 81.1247 82.625 81.1247Z" fill="url(#paint1_linear_48_3310)"/>
<defs>
<linearGradient id="paint0_linear_48_3310" x1="58.1848" y1="49.9615" x2="42.2125" y2="62.8602" gradientUnits="userSpaceOnUse">
<stop stop-color="#A45CFF"/>
<stop offset="1" stop-color="#3C0CFF"/>
</linearGradient>
<linearGradient id="paint1_linear_48_3310" x1="94.0778" y1="28.3515" x2="4.15489" y2="71.7157" gradientUnits="userSpaceOnUse">
<stop stop-color="#A45CFF"/>
<stop offset="1" stop-color="#3C0CFF"/>
</linearGradient>
</defs>
</svg>
