<svg width="120" height="120" viewBox="0 0 120 120" fill="none" xmlns="http://www.w3.org/2000/svg">
<path d="M112.734 94.2487V37.7344C112.734 32.565 108.529 28.3594 103.359 28.3594H93.9844V24.9263L99.972 20.9346C100.293 20.7206 100.556 20.4306 100.738 20.0904C100.92 19.7501 101.016 19.3702 101.016 18.9844V13.8937C103.744 12.9262 105.703 10.3212 105.703 7.26562C105.703 3.38859 102.549 0.234375 98.6719 0.234375C94.7948 0.234375 91.6406 3.38859 91.6406 7.26562C91.6406 10.3209 93.6002 12.9262 96.3281 13.8937V17.7302L90.3405 21.7219C90.0195 21.9359 89.7562 22.2258 89.5742 22.566C89.3921 22.9062 89.2969 23.286 89.2969 23.6719V28.3594H68.2031V24.9263L74.1907 20.9346C74.5118 20.7206 74.775 20.4306 74.9571 20.0904C75.1391 19.7501 75.2344 19.3702 75.2344 18.9844V13.8937C77.9623 12.9262 79.9219 10.3212 79.9219 7.26562C79.9219 3.38859 76.7677 0.234375 72.8906 0.234375C69.0136 0.234375 65.8594 3.38859 65.8594 7.26562C65.8594 10.3209 67.819 12.9262 70.5469 13.8937V17.7302L64.5593 21.7219C64.2382 21.9359 63.975 22.2258 63.7929 22.566C63.6109 22.9062 63.5156 23.286 63.5156 23.6719V28.3594H56.4844V23.6719C56.4844 23.286 56.3891 22.9062 56.2071 22.566C56.025 22.2258 55.7618 21.9359 55.4407 21.7219L49.4531 17.73V13.8937C52.181 12.9262 54.1406 10.3212 54.1406 7.26562C54.1406 3.38859 50.9864 0.234375 47.1094 0.234375C43.2323 0.234375 40.0781 3.38859 40.0781 7.26562C40.0781 10.3209 42.0377 12.9262 44.7656 13.8937V18.9844C44.7656 19.3702 44.8609 19.7501 45.0429 20.0903C45.225 20.4304 45.4882 20.7204 45.8093 20.9344L51.7969 24.9263V28.3594H30.7031V23.6719C30.7031 23.286 30.6079 22.9062 30.4258 22.566C30.2438 22.2258 29.9805 21.9359 29.6595 21.7219L23.6719 17.73V13.8937C26.3998 12.9262 28.3594 10.3212 28.3594 7.26562C28.3594 3.38859 25.2052 0.234375 21.3281 0.234375C17.4511 0.234375 14.2969 3.38859 14.2969 7.26562C14.2969 10.3209 16.2565 12.9262 18.9844 13.8937V18.9844C18.9844 19.3702 19.0796 19.7501 19.2617 20.0903C19.4437 20.4304 19.707 20.7204 20.028 20.9344L26.0156 24.9263V28.3594H16.6406C11.4713 28.3594 7.26562 32.565 7.26562 37.7344V94.2487C3.23508 95.2336 0.234375 98.8734 0.234375 103.203C0.234375 112.336 7.6643 119.766 16.797 119.766H103.203C112.336 119.766 119.766 112.336 119.766 103.203C119.766 98.8734 116.765 95.2336 112.734 94.2487ZM98.6719 4.92188C99.9642 4.92188 101.016 5.97328 101.016 7.26562C101.016 8.55797 99.9642 9.60938 98.6719 9.60938C97.3795 9.60938 96.3281 8.55797 96.3281 7.26562C96.3281 5.97328 97.3795 4.92188 98.6719 4.92188ZM72.8906 4.92188C74.183 4.92188 75.2344 5.97328 75.2344 7.26562C75.2344 8.55797 74.183 9.60938 72.8906 9.60938C71.5983 9.60938 70.5469 8.55797 70.5469 7.26562C70.5469 5.97328 71.5983 4.92188 72.8906 4.92188ZM47.1094 4.92188C48.4017 4.92188 49.4531 5.97328 49.4531 7.26562C49.4531 8.55797 48.4017 9.60938 47.1094 9.60938C45.817 9.60938 44.7656 8.55797 44.7656 7.26562C44.7656 5.97328 45.817 4.92188 47.1094 4.92188ZM21.3281 4.92188C22.6205 4.92188 23.6719 5.97328 23.6719 7.26562C23.6719 8.55797 22.6205 9.60938 21.3281 9.60938C20.0358 9.60938 18.9844 8.55797 18.9844 7.26562C18.9844 5.97328 20.0358 4.92188 21.3281 4.92188ZM11.9948 93.9844V37.7552C11.9948 35.1779 14.0841 33.0885 16.6615 33.0885H103.339C105.916 33.0885 108.005 35.1779 108.005 37.7552V93.9844H11.9948ZM80.0555 98.6719L78.2977 103.359H41.7023L39.9445 98.6719H80.0555ZM103.203 115.078H16.797C10.249 115.078 4.92188 109.751 4.92188 103.203C4.92188 100.705 6.95461 98.6719 9.45305 98.6719H34.9383L37.8837 106.526C38.0512 106.973 38.3511 107.358 38.7432 107.63C39.1354 107.901 39.6011 108.047 40.0781 108.047H79.9219C80.8988 108.047 81.7732 107.441 82.1163 106.526L85.0617 98.6719H110.547C113.045 98.6719 115.078 100.705 115.078 103.203C115.078 109.751 109.751 115.078 103.203 115.078Z" fill="url(#paint0_linear_48_3260)"/>
<path d="M80.7674 57.9866L75.7675 49.3262C75.1197 48.2042 73.6849 47.822 72.566 48.4684L68.7283 50.6841C68.2804 50.3944 67.8182 50.1271 67.3436 49.8835V45.4531C67.3436 44.1589 66.2941 43.1094 64.9999 43.1094H55C53.7058 43.1094 52.6563 44.1589 52.6563 45.4531V49.8833C52.1817 50.1269 51.7195 50.3941 51.2716 50.6839L47.4339 48.4681C46.3138 47.821 44.8795 48.2052 44.2324 49.3259L39.2324 57.9863C38.5851 59.1073 38.9692 60.5408 40.0903 61.1879L43.926 63.4025C43.8996 63.9358 43.8996 64.47 43.926 65.0033L40.0903 67.2179C38.9692 67.865 38.5851 69.2984 39.2324 70.4195L44.2324 79.0798C44.8813 80.2037 46.3176 80.5831 47.4339 79.9377L51.2716 77.7219C51.7195 78.0117 52.1817 78.2789 52.6563 78.5225V82.9531C52.6563 84.2473 53.7058 85.2969 55 85.2969H64.9999C66.2941 85.2969 67.3436 84.2473 67.3436 82.9531V78.523C67.8182 78.2793 68.2804 78.0121 68.7283 77.7223L72.566 79.9381C73.6858 80.5852 75.1202 80.2013 75.7675 79.0803L80.7674 70.4199C81.4148 69.2989 81.0306 67.8655 79.9096 67.2184L76.0738 65.0037C76.1003 64.4705 76.1003 63.9362 76.0738 63.403L79.9096 61.1884C81.0306 60.541 81.4148 59.1076 80.7674 57.9866ZM71.2767 62.4793C71.4431 63.5804 71.4555 64.7445 71.2767 65.9272C71.206 66.3932 71.2775 66.8697 71.4818 67.2944C71.6861 67.7191 72.0138 68.0724 72.4221 68.308L75.5362 70.1059L72.88 74.7069L69.7617 72.9064C69.3529 72.6704 68.8824 72.5633 68.4118 72.5991C67.9411 72.6349 67.4923 72.8121 67.124 73.1073C66.2247 73.8285 65.2209 74.4088 64.1472 74.8283C63.7078 74.9998 63.3305 75.2999 63.0644 75.6894C62.7984 76.0789 62.6561 76.5396 62.6561 77.0113V80.6094H57.3438V77.0113C57.3438 76.5396 57.2015 76.0789 56.9355 75.6894C56.6694 75.2999 56.292 74.9998 55.8527 74.8283C54.7789 74.4088 53.7752 73.8285 52.8759 73.1073C52.5076 72.8121 52.0587 72.635 51.5881 72.5991C51.1175 72.5633 50.647 72.6704 50.2382 72.9064L47.1199 74.7069L44.4637 70.1059L47.5778 68.308C47.986 68.0723 48.3136 67.7191 48.518 67.2943C48.7223 66.8696 48.7938 66.3932 48.7232 65.9272C48.5506 64.7844 48.5506 63.6221 48.7232 62.4793C48.7939 62.0133 48.7224 61.5368 48.5181 61.1121C48.3137 60.6873 47.9861 60.3341 47.5778 60.0985L44.4637 58.3006L47.1199 53.6996L50.2382 55.5001C50.647 55.7361 51.1175 55.8432 51.5881 55.8073C52.0587 55.7715 52.5076 55.5944 52.8759 55.2992C53.7752 54.578 54.7789 53.9977 55.8527 53.5782C56.292 53.4067 56.6694 53.1065 56.9355 52.7171C57.2015 52.3276 57.3438 51.8669 57.3438 51.3952V47.7969H62.6561V51.395C62.6561 51.8667 62.7984 52.3274 63.0644 52.7168C63.3305 53.1063 63.7078 53.4064 64.1472 53.578C65.2209 53.9975 66.2247 54.5778 67.124 55.299C67.4923 55.5942 67.9412 55.7713 68.4118 55.8071C68.8824 55.8429 69.3529 55.7358 69.7617 55.4998L72.88 53.6994L75.5362 58.3004L72.4221 60.0983C72.0138 60.334 71.6862 60.6872 71.4819 61.112C71.2775 61.5368 71.206 62.0133 71.2767 62.4793Z" fill="url(#paint1_linear_48_3260)"/>
<path d="M60 57.1719C56.123 57.1719 52.9688 60.3261 52.9688 64.2031C52.9688 68.0802 56.123 71.2344 60 71.2344C63.877 71.2344 67.0312 68.0802 67.0312 64.2031C67.0312 60.3261 63.877 57.1719 60 57.1719ZM60 66.5469C58.7077 66.5469 57.6562 65.4955 57.6562 64.2031C57.6562 62.9108 58.7077 61.8594 60 61.8594C61.2923 61.8594 62.3438 62.9108 62.3438 64.2031C62.3438 65.4955 61.2923 66.5469 60 66.5469Z" fill="url(#paint2_linear_48_3260)"/>
<defs>
<linearGradient id="paint0_linear_48_3260" x1="119.766" y1="31.9468" x2="10.5055" y2="90.8443" gradientUnits="userSpaceOnUse">
<stop stop-color="#A45CFF"/>
<stop offset="1" stop-color="#3C0CFF"/>
</linearGradient>
<linearGradient id="paint1_linear_48_3260" x1="81.0819" y1="54.302" x2="42.5313" y2="75.0714" gradientUnits="userSpaceOnUse">
<stop stop-color="#A45CFF"/>
<stop offset="1" stop-color="#3C0CFF"/>
</linearGradient>
<linearGradient id="paint2_linear_48_3260" x1="67.0312" y1="60.9027" x2="54.1771" y2="67.8319" gradientUnits="userSpaceOnUse">
<stop stop-color="#A45CFF"/>
<stop offset="1" stop-color="#3C0CFF"/>
</linearGradient>
</defs>
</svg>
