<svg xmlns="http://www.w3.org/2000/svg" version="1.1" xmlns:xlink="http://www.w3.org/1999/xlink" width="512" height="512" x="0" y="0" viewBox="0 0 32 32" style="enable-background:new 0 0 512 512" xml:space="preserve" class=""><g transform="matrix(1.0000000000000004,0,0,1.0000000000000004,-7.105427357601002e-15,-7.105427357601002e-15)"><path d="M30 6.93V11H2V6.93A2.969 2.969 0 0 1 5 4h2v2a3 3 0 0 0 6 0V4h6v2a3 3 0 0 0 6 0V4h2a2.969 2.969 0 0 1 3 2.93zM2 13v16.07A2.969 2.969 0 0 0 5 32h22a2.969 2.969 0 0 0 3-2.93V13zm9 14a1.003 1.003 0 0 1-1 1H8a1.003 1.003 0 0 1-1-1v-2a1.003 1.003 0 0 1 1-1h2a1.003 1.003 0 0 1 1 1zm0-7a1.003 1.003 0 0 1-1 1H8a1.003 1.003 0 0 1-1-1v-2a1.003 1.003 0 0 1 1-1h2a1.003 1.003 0 0 1 1 1zm7 7a1.003 1.003 0 0 1-1 1h-2a1.003 1.003 0 0 1-1-1v-2a1.003 1.003 0 0 1 1-1h2a1.003 1.003 0 0 1 1 1zm0-7a1.003 1.003 0 0 1-1 1h-2a1.003 1.003 0 0 1-1-1v-2a1.003 1.003 0 0 1 1-1h2a1.003 1.003 0 0 1 1 1zm7 0a1.003 1.003 0 0 1-1 1h-2a1.003 1.003 0 0 1-1-1v-2a1.003 1.003 0 0 1 1-1h2a1.003 1.003 0 0 1 1 1z" fill="#A3A3A3" opacity="1" data-original="#000000" class=""></path><path d="M11 4v2a1 1 0 0 1-2 0V4a1 1 0 0 1 2 0zM23 4v2a1 1 0 0 1-2 0V4a1 1 0 0 1 2 0z" fill="#A3A3A3" opacity="1" data-original="#000000" class=""></path></g></svg>