<svg width="198" height="176" viewBox="0 0 198 176" fill="none" xmlns="http://www.w3.org/2000/svg">
<path d="M168.562 145.931L113.002 113.86L113.402 113.154L168.986 145.249L168.562 145.931Z" fill="#E5ECF8"/>
<path d="M52.3157 145.461L51.916 144.755L72.6777 132.764L64.7539 128.202L94.9677 110.756L95.3674 111.461L66.3763 128.202L74.3001 132.764L52.3157 145.461Z" fill="#E5ECF8"/>
<path d="M119.632 103.35L119.232 102.644L144.838 87.8549L122.172 74.7584L164.847 50.1406L165.247 50.8225L123.794 74.7584L146.46 87.8549L119.632 103.35Z" fill="#E5ECF8"/>
<path d="M86.362 96.9064L53.7029 78.0492L32.4004 90.3699L32.1888 90.2523L0 71.6538L35.7392 51.0332L36.1625 51.7151L1.62237 71.6538L32.4004 89.4294L53.7029 77.1087L53.9145 77.2263L86.7617 96.201L86.362 96.9064Z" fill="#E5ECF8"/>
<path d="M33.717 43.3203L0.352539 62.6007L14.4131 70.7125L29.1085 62.2245L35.0102 65.6103H35.8096L33.717 43.3203Z" fill="#B3B9CF" fill-opacity="0.13"/>
<g style="mix-blend-mode:multiply" opacity="0.5">
<path d="M37.9257 69.5605L31.4597 73.3226L38.0668 77.1316H38.9603L37.9257 69.5605Z" fill="#050CB6"/>
</g>
<g style="mix-blend-mode:multiply" opacity="0.5">
<path d="M58.7814 60.0859L56.1479 61.6143L60.1216 64.7414L63.0372 65.4468L58.7814 60.0859Z" fill="#050CB6"/>
</g>
<path d="M35.81 65.6127L30.167 62.3679V61.5215L35.81 64.7897V65.6127Z" fill="#94A0B4"/>
<path d="M47.0724 59.1218L35.8098 65.6113V64.7883L47.0724 58.2988V59.1218Z" fill="#BBC2CD"/>
<path d="M35.81 64.789L30.167 61.5207L41.406 55.0312L47.0726 58.2995L35.81 64.789Z" fill="#E5ECF8"/>
<path d="M38.9603 77.1341L32.2827 73.278V72.4551L38.9603 76.3112V77.1341Z" fill="#94A0B4"/>
<path d="M57.535 66.4108L38.96 77.1326V76.3097L57.535 65.5879V66.4108Z" fill="#BBC2CD"/>
<path d="M38.9603 76.3103L32.2827 72.4542L50.8342 61.7324L57.5353 65.5885L38.9603 76.3103Z" fill="#E5ECF8"/>
<path d="M63.0365 65.4485L56.3589 61.5924V61.4043L61.4611 63.7085L63.0365 65.4485Z" fill="#94A0B4"/>
<path d="M66.5632 63.402L63.0363 65.4476L61.4609 63.7077L64.9878 61.6621L66.5632 63.402Z" fill="#BBC2CD"/>
<path d="M61.4614 63.7073L56.3591 61.403L59.886 59.3574L64.9883 61.6617L61.4614 63.7073Z" fill="#E5ECF8"/>
<path d="M35.5744 60.9797L34.4458 60.3449V44.709L35.5744 45.3438V60.9797Z" fill="#94A0B4"/>
<path d="M40.5827 58.0871L35.5745 60.9791V45.3432L40.5827 42.4512V58.0871Z" fill="#BBC2CD"/>
<path d="M35.5744 45.3434L34.4458 44.7085L39.454 41.793L40.5826 42.4513L35.5744 45.3434Z" fill="#E5ECF8"/>
<path d="M22.2188 67.093L20.0557 65.8233V41.0645L22.2188 42.3106V67.093Z" fill="#94A0B4"/>
<path d="M56.9704 47.0127L22.2188 67.0925V42.3102L56.9704 22.2539V47.0127Z" fill="url(#paint0_linear_48_4460)"/>
<path d="M22.2188 42.3103L20.0557 41.0641L54.8074 21.0078L56.9705 22.254L22.2188 42.3103Z" fill="#E5ECF8"/>
<path d="M165.129 43.3203L131.765 62.6007L145.825 70.7125L160.521 62.2245L166.422 65.6103H167.222L165.129 43.3203Z" fill="#B3B9CF" fill-opacity="0.13"/>
<g style="mix-blend-mode:multiply" opacity="0.5">
<path d="M169.361 69.5605L162.872 73.3226L169.502 77.1316H170.396L169.361 69.5605Z" fill="#050CB6"/>
</g>
<g style="mix-blend-mode:multiply" opacity="0.5">
<path d="M190.194 60.0859L187.56 61.6143L191.534 64.7414L194.473 65.4468L190.194 60.0859Z" fill="#050CB6"/>
</g>
<path d="M167.222 65.6127L161.579 62.3679V61.5215L167.222 64.7897V65.6127Z" fill="#94A0B4"/>
<path d="M178.484 59.1218L167.222 65.6113V64.7883L178.484 58.2988V59.1218Z" fill="#BBC2CD"/>
<path d="M167.222 64.789L161.579 61.5207L172.842 55.0312L178.485 58.2995L167.222 64.789Z" fill="#E5ECF8"/>
<path d="M170.396 77.1341L163.695 73.278V72.4551L170.396 76.3112V77.1341Z" fill="#94A0B4"/>
<path d="M188.948 66.4108L170.396 77.1326V76.3097L188.948 65.5879V66.4108Z" fill="#BBC2CD"/>
<path d="M170.396 76.3103L163.695 72.4542L182.27 61.7324L188.948 65.5885L170.396 76.3103Z" fill="#E5ECF8"/>
<path d="M194.473 65.4485L187.772 61.5924V61.4043L192.874 63.7085L194.473 65.4485Z" fill="#94A0B4"/>
<path d="M198 63.402L194.473 65.4476L192.874 63.7077L196.401 61.6621L198 63.402Z" fill="#BBC2CD"/>
<path d="M192.874 63.7073L187.771 61.403L191.298 59.3574L196.401 61.6617L192.874 63.7073Z" fill="#E5ECF8"/>
<path d="M166.987 60.9797L165.858 60.3449V44.709L166.987 45.3438V60.9797Z" fill="#94A0B4"/>
<path d="M171.995 58.0871L166.987 60.9791V45.3432L171.995 42.4512V58.0871Z" fill="#BBC2CD"/>
<path d="M166.987 45.3434L165.858 44.7085L170.866 41.793L171.995 42.4513L166.987 45.3434Z" fill="#E5ECF8"/>
<path d="M153.631 67.093L151.468 65.8233V41.0645L153.631 42.3106V67.093Z" fill="#94A0B4"/>
<path d="M188.383 47.0127L153.631 67.0925V42.3102L188.383 22.2539V47.0127Z" fill="url(#paint1_linear_48_4460)"/>
<path d="M153.631 42.3103L151.468 41.0641L186.22 21.0078L188.383 22.254L153.631 42.3103Z" fill="#E5ECF8"/>
<path d="M33.717 141.934L0.352539 161.19L14.4131 169.326L29.1085 160.838L35.0102 164.224H35.8096L33.717 141.934Z" fill="#B3B9CF" fill-opacity="0.13"/>
<g style="mix-blend-mode:multiply" opacity="0.5">
<path d="M37.9257 168.172L31.4597 171.934L38.0668 175.743H38.9603L37.9257 168.172Z" fill="#050CB6"/>
</g>
<g style="mix-blend-mode:multiply" opacity="0.5">
<path d="M58.7814 158.697L56.1479 160.226L60.1216 163.353L63.0372 164.058L58.7814 158.697Z" fill="#050CB6"/>
</g>
<path d="M35.81 164.224L30.167 160.979V160.133L35.81 163.401V164.224Z" fill="#94A0B4"/>
<path d="M47.0724 157.733L35.8098 164.223V163.4L47.0724 156.91V157.733Z" fill="#BBC2CD"/>
<path d="M35.81 163.4L30.167 160.132L41.406 153.643L47.0726 156.911L35.81 163.4Z" fill="#E5ECF8"/>
<path d="M38.9603 175.745L32.2827 171.889V171.066L38.9603 174.922V175.745Z" fill="#94A0B4"/>
<path d="M57.535 165.022L38.96 175.744V174.921L57.535 164.199V165.022Z" fill="#BBC2CD"/>
<path d="M38.9603 174.922L32.2827 171.066L50.8342 160.344L57.5353 164.2L38.9603 174.922Z" fill="#E5ECF8"/>
<path d="M63.0365 164.058L56.3589 160.178V160.014L61.4611 162.318L63.0365 164.058Z" fill="#94A0B4"/>
<path d="M66.5632 162.013L63.0363 164.059L61.4609 162.319L64.9878 160.273L66.5632 162.013Z" fill="#BBC2CD"/>
<path d="M61.4614 162.319L56.3591 160.014L59.886 157.969L64.9883 160.273L61.4614 162.319Z" fill="#E5ECF8"/>
<path d="M35.5744 159.591L34.4458 158.956V143.32L35.5744 143.955V159.591Z" fill="#94A0B4"/>
<path d="M40.5827 156.698L35.5745 159.59V143.955L40.5827 141.062V156.698Z" fill="#BBC2CD"/>
<path d="M35.5744 143.955L34.4458 143.32L39.454 140.404L40.5826 141.063L35.5744 143.955Z" fill="#E5ECF8"/>
<path d="M22.2188 165.704L20.0557 164.435V139.676L22.2188 140.922V165.704Z" fill="#94A0B4"/>
<path d="M56.9704 145.624L22.2188 165.704V140.922L56.9704 120.865V145.624Z" fill="url(#paint2_linear_48_4460)"/>
<path d="M22.2188 140.922L20.0557 139.675L54.8074 119.619L56.9705 120.865L22.2188 140.922Z" fill="#E5ECF8"/>
<path d="M165.129 141.934L131.765 161.19L145.825 169.326L160.521 160.838L166.422 164.224H167.222L165.129 141.934Z" fill="#B3B9CF" fill-opacity="0.13"/>
<g style="mix-blend-mode:multiply" opacity="0.5">
<path d="M169.361 168.172L162.872 171.934L169.502 175.743H170.396L169.361 168.172Z" fill="#050CB6"/>
</g>
<g style="mix-blend-mode:multiply" opacity="0.5">
<path d="M190.194 158.697L187.56 160.226L191.534 163.353L194.473 164.058L190.194 158.697Z" fill="#050CB6"/>
</g>
<path d="M167.222 164.224L161.579 160.979V160.133L167.222 163.401V164.224Z" fill="#94A0B4"/>
<path d="M178.484 157.733L167.222 164.223V163.4L178.484 156.91V157.733Z" fill="#BBC2CD"/>
<path d="M167.222 163.4L161.579 160.132L172.842 153.643L178.485 156.911L167.222 163.4Z" fill="#E5ECF8"/>
<path d="M170.396 175.745L163.695 171.889V171.066L170.396 174.922V175.745Z" fill="#94A0B4"/>
<path d="M188.948 165.022L170.396 175.744V174.921L188.948 164.199V165.022Z" fill="#BBC2CD"/>
<path d="M170.396 174.922L163.695 171.066L182.27 160.344L188.948 164.2L170.396 174.922Z" fill="#E5ECF8"/>
<path d="M194.473 164.058L187.772 160.178V160.014L192.874 162.318L194.473 164.058Z" fill="#94A0B4"/>
<path d="M198 162.013L194.473 164.059L192.874 162.319L196.401 160.273L198 162.013Z" fill="#BBC2CD"/>
<path d="M192.874 162.319L187.771 160.014L191.298 157.969L196.401 160.273L192.874 162.319Z" fill="#E5ECF8"/>
<path d="M166.987 159.591L165.858 158.956V143.32L166.987 143.955V159.591Z" fill="#94A0B4"/>
<path d="M171.995 156.698L166.987 159.59V143.955L171.995 141.062V156.698Z" fill="#BBC2CD"/>
<path d="M166.987 143.955L165.858 143.32L170.866 140.404L171.995 141.063L166.987 143.955Z" fill="#E5ECF8"/>
<path d="M153.631 165.704L151.468 164.435V139.676L153.631 140.922V165.704Z" fill="#94A0B4"/>
<path d="M188.383 145.624L153.631 165.704V140.922L188.383 120.865V145.624Z" fill="url(#paint3_linear_48_4460)"/>
<path d="M153.631 140.922L151.468 139.675L186.22 119.619L188.383 120.865L153.631 140.922Z" fill="#E5ECF8"/>
<g style="mix-blend-mode:multiply" opacity="0.5">
<path d="M79.5428 92.9092L57.1117 105.865C56.1477 106.429 56.1477 107.793 57.1117 108.357L78.6022 120.772C80.1306 121.642 81.847 122.112 83.6104 122.112H102.256L89.324 91.3809H85.3504C83.3048 91.3809 81.3062 91.9216 79.5428 92.9327V92.9092Z" fill="#B3B9CF" fill-opacity="0.13"/>
</g>
<path d="M78.414 84.6567C78.414 85.268 78.8138 85.8558 79.6132 86.3261L99.4108 97.8238C101.01 98.7408 103.596 98.7408 105.218 97.8238L126.38 85.5972C127.179 85.1269 127.603 84.5156 127.603 83.9043L127.532 107.464C127.532 108.075 127.132 108.687 126.309 109.157L105.148 121.383C103.549 122.3 100.939 122.3 99.3403 121.383L79.5427 109.886C78.7432 109.416 78.3435 108.828 78.3435 108.216L78.414 84.6567Z" fill="url(#paint4_linear_48_4460)"/>
<path d="M79.6127 82.9632L100.774 70.7366C102.373 69.8196 104.983 69.8196 106.582 70.7366L126.379 82.2343C127.978 83.1513 127.978 84.6561 126.379 85.5966L105.218 97.8231C103.619 98.7401 101.009 98.7401 99.4104 97.8231L79.6127 86.3255C78.0139 85.4085 78.0139 83.9037 79.6127 82.9632Z" fill="#E5ECF8"/>
<path d="M127.579 83.9277L127.509 107.487C127.509 108.099 127.109 108.71 126.286 109.18L126.357 85.6206C127.156 85.1504 127.579 84.5391 127.579 83.9277Z" fill="#CAD2DD"/>
<path d="M78.414 84.6562C78.414 85.2676 78.8138 85.8554 79.6132 86.3256L79.5427 109.885C78.7432 109.415 78.3435 108.827 78.3435 108.216L78.414 84.6562Z" fill="#94A0B4"/>
<path d="M105.195 97.8477L105.124 121.407C103.525 122.324 100.916 122.324 99.3167 121.407L99.3872 97.8477C100.986 98.7646 103.572 98.7646 105.195 97.8477Z" fill="#ADB6C4"/>
<path d="M124.687 91.9457L107.288 101.986V99.4227L124.687 89.3828V91.9457Z" fill="#251E28"/>
<path d="M124.687 96.6723L107.288 106.712V104.149L124.687 94.1094V96.6723Z" fill="#251E28"/>
<path d="M124.687 107.252L107.288 117.291V108.897L124.687 98.834V107.252Z" fill="#251E28"/>
<path d="M80.6948 89.6875V107.557L98.0942 117.597V99.7274L80.6948 89.6875Z" fill="#251E28"/>
<path d="M117.751 83.7636L102.962 92.2987L88.1724 83.7636L102.962 75.2285L117.751 83.7636Z" fill="#3138E2"/>
<path style="mix-blend-mode:color-dodge" d="M114.624 77.0382C121.043 80.7532 121.043 86.7489 114.624 90.4639C108.205 94.1789 97.7891 94.1789 91.3701 90.4639C84.9512 86.7489 84.9512 80.7532 91.3701 77.0382C97.7891 73.3232 108.205 73.3232 114.624 77.0382Z" fill="url(#paint5_radial_48_4460)"/>
<path d="M101 0.0147666V84.1398C101 84.3614 101.244 84.5828 101.732 84.7453C102.707 85.0849 104.293 85.0849 105.268 84.7453C105.756 84.5681 106 84.3466 106 84.1251V0H101V0.0147666Z" fill="url(#paint6_linear_48_4460)" style="mix-blend-mode:color-dodge"/>
<defs>
<linearGradient id="paint0_linear_48_4460" x1="56.9704" y1="34.1499" x2="22.0668" y2="48.7323" gradientUnits="userSpaceOnUse">
<stop stop-color="#A45CFF"/>
<stop offset="1" stop-color="#3C0CFF"/>
</linearGradient>
<linearGradient id="paint1_linear_48_4460" x1="188.383" y1="34.1499" x2="153.479" y2="48.7323" gradientUnits="userSpaceOnUse">
<stop stop-color="#A45CFF"/>
<stop offset="1" stop-color="#3C0CFF"/>
</linearGradient>
<linearGradient id="paint2_linear_48_4460" x1="56.9704" y1="132.761" x2="22.0668" y2="147.344" gradientUnits="userSpaceOnUse">
<stop stop-color="#A45CFF"/>
<stop offset="1" stop-color="#3C0CFF"/>
</linearGradient>
<linearGradient id="paint3_linear_48_4460" x1="188.383" y1="132.761" x2="153.479" y2="147.344" gradientUnits="userSpaceOnUse">
<stop stop-color="#A45CFF"/>
<stop offset="1" stop-color="#3C0CFF"/>
</linearGradient>
<linearGradient id="paint4_linear_48_4460" x1="99.1287" y1="102.997" x2="105.36" y2="102.997" gradientUnits="userSpaceOnUse">
<stop offset="0.4" stop-color="#A2ACBD"/>
<stop offset="0.58" stop-color="#BBC2CD"/>
</linearGradient>
<radialGradient id="paint5_radial_48_4460" cx="0" cy="0" r="1" gradientUnits="userSpaceOnUse" gradientTransform="translate(262.989 -8.58085) rotate(-30) scale(13.3575 11.6153)">
<stop stop-color="#00BDFC"/>
<stop offset="0.17" stop-color="#008BBA"/>
<stop offset="0.34" stop-color="#006181"/>
<stop offset="0.49" stop-color="#003E53"/>
<stop offset="0.64" stop-color="#00232F"/>
<stop offset="0.78" stop-color="#000F15"/>
<stop offset="0.9" stop-color="#000405"/>
<stop offset="1"/>
</radialGradient>
<linearGradient id="paint6_linear_48_4460" x1="103.512" y1="84.0217" x2="103.512" y2="1.83105" gradientUnits="userSpaceOnUse">
<stop stop-color="#00BFFF"/>
<stop offset="1" stop-color="#00BFFF" stop-opacity="0"/>
</linearGradient>
</defs>
</svg>
