<svg width="48" height="48" viewBox="0 0 48 48" fill="none" xmlns="http://www.w3.org/2000/svg">
<path fill-rule="evenodd" clip-rule="evenodd" d="M6.34315 18.3431C7.84344 16.8429 9.87827 16 12 16H18C19.1046 16 20 15.1046 20 14C20 12.8954 19.1046 12 18 12H12C8.8174 12 5.76516 13.2643 3.51472 15.5147C1.26428 17.7652 0 20.8174 0 24C0 27.1826 1.26428 30.2348 3.51472 32.4853C4.62902 33.5996 5.95189 34.4835 7.4078 35.0866C8.86371 35.6896 10.4241 36 12 36H18C19.1046 36 20 35.1046 20 34C20 32.8954 19.1046 32 18 32H12C10.9494 32 9.90914 31.7931 8.93853 31.391C7.96793 30.989 7.08602 30.3997 6.34315 29.6569C4.84285 28.1566 4 26.1217 4 24C4 21.8783 4.84285 19.8434 6.34315 18.3431ZM30 12C28.8954 12 28 12.8954 28 14C28 15.1046 28.8954 16 30 16H36C37.0506 16 38.0909 16.2069 39.0615 16.609C40.0321 17.011 40.914 17.6003 41.6569 18.3431C42.3997 19.086 42.989 19.9679 43.391 20.9385C43.7931 21.9091 44 22.9494 44 24C44 25.0506 43.7931 26.0909 43.391 27.0615C42.989 28.0321 42.3997 28.914 41.6569 29.6569C40.914 30.3997 40.0321 30.989 39.0615 31.391C38.0909 31.7931 37.0506 32 36 32H30C28.8954 32 28 32.8954 28 34C28 35.1046 28.8954 36 30 36H36C37.5759 36 39.1363 35.6896 40.5922 35.0866C42.0481 34.4835 43.371 33.5996 44.4853 32.4853C45.5996 31.371 46.4835 30.0481 47.0866 28.5922C47.6896 27.1363 48 25.5759 48 24C48 22.4241 47.6896 20.8637 47.0866 19.4078C46.4835 17.9519 45.5996 16.629 44.4853 15.5147C43.371 14.4004 42.0481 13.5165 40.5922 12.9134C39.1363 12.3104 37.5759 12 36 12H30ZM16 22C14.8954 22 14 22.8954 14 24C14 25.1046 14.8954 26 16 26H32C33.1046 26 34 25.1046 34 24C34 22.8954 33.1046 22 32 22H16Z" fill="url(#paint0_linear_48_2184)"/>
<defs>
<linearGradient id="paint0_linear_48_2184" x1="23.9999" y1="12" x2="28.3273" y2="37.7265" gradientUnits="userSpaceOnUse">
<stop stop-color="#8459FF"/>
<stop offset="1" stop-color="#7AE691"/>
</linearGradient>
</defs>
</svg>
