<svg width="48" height="48" viewBox="0 0 48 48" fill="none" xmlns="http://www.w3.org/2000/svg">
<path fill-rule="evenodd" clip-rule="evenodd" d="M26 2C26 0.89543 25.1046 0 24 0C22.8954 0 22 0.89543 22 2V8H19C16.6131 8 14.3239 8.94821 12.636 10.636C10.9482 12.3239 10 14.6131 10 17C10 19.3869 10.9482 21.6761 12.636 23.364C14.3239 25.0518 16.6131 26 19 26H22V36H12C10.8954 36 10 36.8954 10 38C10 39.1046 10.8954 40 12 40H22V46C22 47.1046 22.8954 48 24 48C25.1046 48 26 47.1046 26 46V40H29C31.3869 40 33.6761 39.0518 35.364 37.364C37.0518 35.6761 38 33.3869 38 31C38 28.6131 37.0518 26.3239 35.364 24.636C33.6761 22.9482 31.3869 22 29 22H26V12H34C35.1046 12 36 11.1046 36 10C36 8.89543 35.1046 8 34 8H26V2ZM22 12H19C17.6739 12 16.4021 12.5268 15.4645 13.4645C14.5268 14.4021 14 15.6739 14 17C14 18.3261 14.5268 19.5979 15.4645 20.5355C16.4021 21.4732 17.6739 22 19 22H22V12ZM26 26V36H29C30.3261 36 31.5979 35.4732 32.5355 34.5355C33.4732 33.5979 34 32.3261 34 31C34 29.6739 33.4732 28.4021 32.5355 27.4645C31.5979 26.5268 30.3261 26 29 26H26Z" fill="url(#paint0_linear_76_38)"/>
<defs>
<linearGradient id="paint0_linear_76_38" x1="24" y1="0" x2="24" y2="48" gradientUnits="userSpaceOnUse">
<stop stop-color="#3D0CFF"/>
<stop offset="1" stop-color="#00F0FF"/>
</linearGradient>
</defs>
</svg>
