<svg width="48" height="48" viewBox="0 0 48 48" fill="none" xmlns="http://www.w3.org/2000/svg">
<path fill-rule="evenodd" clip-rule="evenodd" d="M7.75736 3.75736C8.88258 2.63214 10.4087 2 12 2H28C28.5304 2 29.0391 2.21071 29.4142 2.58579L29.4153 2.58683L41.4142 14.5858L41.4356 14.6075C41.785 14.9676 42 15.4587 42 16V40C42 41.5913 41.3679 43.1174 40.2426 44.2426C39.1174 45.3679 37.5913 46 36 46H12C10.4087 46 8.88258 45.3679 7.75736 44.2426C6.63214 43.1174 6 41.5913 6 40V8C6 6.4087 6.63214 4.88258 7.75736 3.75736ZM12 6H26V16C26 17.1046 26.8954 18 28 18H38V40C38 40.5304 37.7893 41.0391 37.4142 41.4142C37.0391 41.7893 36.5304 42 36 42H12C11.4696 42 10.9609 41.7893 10.5858 41.4142C10.2107 41.0391 10 40.5304 10 40V8C10 7.46957 10.2107 6.96086 10.5858 6.58579C10.9609 6.21071 11.4696 6 12 6ZM30 8.82843L35.1716 14H30V8.82843ZM16 24C14.8954 24 14 24.8954 14 26C14 27.1046 14.8954 28 16 28H32C33.1046 28 34 27.1046 34 26C34 24.8954 33.1046 24 32 24H16ZM14 34C14 32.8954 14.8954 32 16 32H32C33.1046 32 34 32.8954 34 34C34 35.1046 33.1046 36 32 36H16C14.8954 36 14 35.1046 14 34ZM16 16C14.8954 16 14 16.8954 14 18C14 19.1046 14.8954 20 16 20H20C21.1046 20 22 19.1046 22 18C22 16.8954 21.1046 16 20 16H16Z" fill="url(#paint0_linear_48_2567)"/>
<defs>
<linearGradient id="paint0_linear_48_2567" x1="24" y1="2" x2="24" y2="46" gradientUnits="userSpaceOnUse">
<stop stop-color="#00F0FF"/>
<stop offset="1" stop-color="#3D0CFF"/>
</linearGradient>
</defs>
</svg>
