<svg width="44" height="44" viewBox="0 0 44 44" fill="none" xmlns="http://www.w3.org/2000/svg">
<path fill-rule="evenodd" clip-rule="evenodd" d="M22 4C12.0589 4 4 12.0589 4 22C4 31.9411 12.0589 40 22 40C31.9411 40 40 31.9411 40 22C40 12.0589 31.9411 4 22 4ZM0 22C0 9.84974 9.84974 0 22 0C34.1503 0 44 9.84974 44 22C44 34.1503 34.1503 44 22 44C9.84974 44 0 34.1503 0 22ZM22.5165 14.0486C21.5854 13.8889 20.6279 14.0638 19.8135 14.5425C18.9991 15.0211 18.3804 15.7725 18.0669 16.6636C17.7004 17.7056 16.5585 18.2531 15.5165 17.8866C14.4746 17.52 13.927 16.3782 14.2936 15.3362C14.9205 13.554 16.158 12.0512 17.7868 11.0939C19.4156 10.1367 21.3306 9.78674 23.1927 10.1061C25.0548 10.4255 26.7437 11.3936 27.9604 12.839C29.1771 14.2843 29.843 16.1136 29.8402 18.0029L27.8402 17.9999H29.8402L29.8402 18.0029C29.8388 21.063 27.5699 23.0838 25.9496 24.164C25.0784 24.7449 24.2213 25.172 23.59 25.4525C23.2715 25.5941 23.0033 25.7015 22.81 25.7751C22.7132 25.812 22.6348 25.8406 22.5776 25.8609C22.5491 25.8711 22.5258 25.8792 22.5082 25.8852L22.486 25.8928L22.4783 25.8954L22.4739 25.8969C22.4733 25.8971 22.4727 25.8973 21.8402 23.9999L21.2078 22.1026L21.2376 22.0921C21.2684 22.0811 21.3188 22.0628 21.3861 22.0372C21.5209 21.9858 21.7215 21.9057 21.9655 21.7973C22.4591 21.5779 23.1021 21.255 23.7308 20.8358C25.11 19.9164 25.8402 18.9382 25.8402 17.9999L25.8402 17.9969C25.8416 17.0523 25.5087 16.1377 24.9003 15.415C24.292 14.6923 23.4475 14.2083 22.5165 14.0486ZM21.8402 23.9999L22.4727 25.8973C21.4248 26.2466 20.2922 25.6803 19.9429 24.6324C19.594 23.5859 20.1584 22.4549 21.2036 22.104L21.2057 22.1033L21.2067 22.1029C21.2073 22.1028 21.212 22.1151 21.8402 23.9999ZM22 30C20.8954 30 20 30.8954 20 32C20 33.1046 20.8954 34 22 34H22.02C23.1246 34 24.02 33.1046 24.02 32C24.02 30.8954 23.1246 30 22.02 30H22Z" fill="url(#paint0_linear_48_679)"/>
<defs>
<linearGradient id="paint0_linear_48_679" x1="22" y1="0" x2="22" y2="44" gradientUnits="userSpaceOnUse">
<stop stop-color="#00F0FF"/>
<stop offset="1" stop-color="#3D0CFF"/>
</linearGradient>
</defs>
</svg>
