<svg width="187" height="189" viewBox="0 0 187 189" fill="none" xmlns="http://www.w3.org/2000/svg">
<path d="M58.7994 127.569L0.839278 160.923C0.386907 161.186 0.386907 161.843 0.839278 162.125L45.4167 187.779C46.8304 188.587 48.4514 189.019 50.0912 189.019H97.4017L79.4011 126.01H64.6802C62.6068 126.01 60.59 126.554 58.7994 127.587V127.569Z" fill="#B3B9CF" fill-opacity="0.13"/>
<path d="M53.5217 75.451C53.5217 76.559 54.2568 77.6671 55.7082 78.5122L92.1241 99.6028C95.0645 101.312 99.8332 101.312 102.792 99.6028L164.202 64.2765C165.691 63.4126 166.426 62.3046 166.426 61.1777L166.294 149.296C166.294 150.423 165.559 151.55 164.07 152.395L102.661 187.721C99.7013 189.43 94.9325 189.43 91.9921 187.721L55.5762 166.631C54.1249 165.786 53.3898 164.678 53.3898 163.57L53.5217 75.451Z" fill="url(#paint0_linear_48_525)"/>
<path d="M55.7459 72.353L117.174 37.0267C120.133 35.3177 124.921 35.3364 127.843 37.0267L164.258 58.1173C167.199 59.8263 167.18 62.5683 164.221 64.2773L102.811 99.6036C99.8521 101.313 95.0833 101.313 92.1429 99.6036L55.727 78.513C52.8054 76.8228 52.8054 74.062 55.7647 72.353H55.7459Z" fill="#E5ECF8"/>
<path d="M166.464 61.1777L166.332 149.296C166.332 150.423 165.597 151.55 164.108 152.395L164.24 64.2765C165.729 63.4126 166.464 62.3046 166.464 61.1777Z" fill="#CAD2DD"/>
<path d="M53.5217 75.4512C53.5217 76.5592 54.2568 77.6673 55.7082 78.5124L55.5762 166.631C54.1249 165.786 53.3898 164.678 53.3898 163.57L53.5217 75.4512Z" fill="#94A0B4"/>
<path d="M102.811 99.6035L102.679 187.722C99.7201 189.431 94.9514 189.431 92.011 187.722L92.1429 99.6035C95.0833 101.313 99.8521 101.313 102.811 99.6035Z" fill="#ADB6C4"/>
<path d="M160.017 72.2598L108.127 102.102V160.209L160.017 130.348V72.2598Z" fill="#251E28"/>
<path d="M87.3176 102.195L59.8361 86.4004V144.508L87.3176 160.302V102.195Z" fill="#1B161E"/>
<path d="M113.555 104.732C113.555 105.182 113.178 105.783 112.726 106.046C112.273 106.309 111.896 106.159 111.896 105.689C111.896 105.22 112.273 104.638 112.726 104.375C113.178 104.112 113.555 104.262 113.555 104.732Z" fill="#9FFFFA"/>
<path d="M121.585 100.111C121.585 100.561 121.208 101.162 120.755 101.425C120.303 101.688 119.926 101.538 119.926 101.068C119.926 100.599 120.303 100.017 120.755 99.7537C121.208 99.4908 121.585 99.641 121.585 100.111Z" fill="#368781"/>
<path d="M129.614 95.4914C129.614 95.9421 129.237 96.5431 128.785 96.806C128.333 97.0689 127.956 96.9187 127.956 96.4492C127.956 95.9797 128.333 95.3975 128.785 95.1345C129.237 94.8716 129.614 95.0219 129.614 95.4914Z" fill="#368781"/>
<path d="M137.663 90.8703C137.663 91.321 137.286 91.922 136.834 92.1849C136.381 92.4479 136.004 92.2976 136.004 91.8281C136.004 91.3586 136.381 90.7764 136.834 90.5135C137.286 90.2505 137.663 90.4008 137.663 90.8703Z" fill="#9FFFFA"/>
<path d="M145.692 86.2511C145.692 86.7019 145.315 87.3029 144.863 87.5658C144.411 87.8287 144.034 87.6785 144.034 87.209C144.034 86.7394 144.411 86.1572 144.863 85.8943C145.315 85.6314 145.692 85.7816 145.692 86.2511Z" fill="#368781"/>
<path d="M113.555 111.267C113.555 111.718 113.178 112.318 112.726 112.581C112.273 112.844 111.896 112.694 111.896 112.225C111.896 111.755 112.273 111.173 112.726 110.91C113.178 110.647 113.555 110.797 113.555 111.267Z" fill="#9FFFFA"/>
<path d="M121.585 106.648C121.585 107.098 121.208 107.699 120.755 107.962C120.303 108.225 119.926 108.075 119.926 107.605C119.926 107.136 120.303 106.554 120.755 106.291C121.208 106.028 121.585 106.178 121.585 106.648Z" fill="#368781"/>
<path d="M129.614 102.027C129.614 102.477 129.237 103.078 128.785 103.341C128.333 103.604 127.956 103.454 127.956 102.984C127.956 102.515 128.333 101.933 128.785 101.67C129.237 101.407 129.614 101.557 129.614 102.027Z" fill="#368781"/>
<path d="M137.663 97.4074C137.663 97.8581 137.286 98.4591 136.834 98.722C136.381 98.985 136.004 98.8347 136.004 98.3652C136.004 97.8957 136.381 97.3135 136.834 97.0506C137.286 96.7876 137.663 96.9379 137.663 97.4074Z" fill="#9FFFFA"/>
<path d="M145.692 92.7863C145.692 93.237 145.315 93.838 144.863 94.1009C144.411 94.3639 144.034 94.2136 144.034 93.7441C144.034 93.2746 144.411 92.6924 144.863 92.4295C145.315 92.1665 145.692 92.3168 145.692 92.7863Z" fill="#9FFFFA"/>
<path d="M113.555 117.802C113.555 118.253 113.178 118.854 112.726 119.117C112.273 119.379 111.896 119.229 111.896 118.76C111.896 118.29 112.273 117.708 112.726 117.445C113.178 117.182 113.555 117.332 113.555 117.802Z" fill="#368781"/>
<path d="M121.585 113.183C121.585 113.634 121.208 114.234 120.755 114.497C120.303 114.76 119.926 114.61 119.926 114.141C119.926 113.671 120.303 113.089 120.755 112.826C121.208 112.563 121.585 112.713 121.585 113.183Z" fill="#9FFFFA"/>
<path d="M129.614 108.562C129.614 109.012 129.237 109.613 128.785 109.876C128.333 110.139 127.956 109.989 127.956 109.52C127.956 109.05 128.333 108.468 128.785 108.205C129.237 107.942 129.614 108.092 129.614 108.562Z" fill="#9FFFFA"/>
<path d="M137.663 103.943C137.663 104.393 137.286 104.994 136.834 105.257C136.381 105.52 136.004 105.37 136.004 104.9C136.004 104.431 136.381 103.849 136.834 103.586C137.286 103.323 137.663 103.473 137.663 103.943Z" fill="#368781"/>
<path d="M145.692 99.3234C145.692 99.7741 145.315 100.375 144.863 100.638C144.411 100.901 144.034 100.751 144.034 100.281C144.034 99.8117 144.411 99.2295 144.863 98.9666C145.315 98.7037 145.692 98.8539 145.692 99.3234Z" fill="#9FFFFA"/>
<path d="M113.555 124.357C113.555 124.807 113.178 125.408 112.726 125.671C112.273 125.934 111.896 125.784 111.896 125.314C111.896 124.845 112.273 124.263 112.726 124C113.178 123.737 113.555 123.887 113.555 124.357Z" fill="#9FFFFA"/>
<path d="M121.585 119.737C121.585 120.188 121.208 120.789 120.755 121.052C120.303 121.315 119.926 121.165 119.926 120.695C119.926 120.226 120.303 119.644 120.755 119.381C121.208 119.118 121.585 119.268 121.585 119.737Z" fill="#9FFFFA"/>
<path d="M129.614 115.116C129.614 115.567 129.237 116.168 128.785 116.431C128.333 116.694 127.956 116.544 127.956 116.074C127.956 115.605 128.333 115.022 128.785 114.76C129.237 114.497 129.614 114.647 129.614 115.116Z" fill="#9FFFFA"/>
<path d="M137.663 110.478C137.663 110.928 137.286 111.529 136.834 111.792C136.381 112.055 136.004 111.905 136.004 111.436C136.004 110.966 136.381 110.384 136.834 110.121C137.286 109.858 137.663 110.008 137.663 110.478Z" fill="#9FFFFA"/>
<path d="M145.692 105.859C145.692 106.309 145.315 106.91 144.863 107.173C144.411 107.436 144.034 107.286 144.034 106.816C144.034 106.347 144.411 105.765 144.863 105.502C145.315 105.239 145.692 105.389 145.692 105.859Z" fill="#368781"/>
<path d="M113.555 130.892C113.555 131.343 113.178 131.943 112.726 132.206C112.273 132.469 111.896 132.319 111.896 131.85C111.896 131.38 112.273 130.798 112.726 130.535C113.178 130.272 113.555 130.422 113.555 130.892Z" fill="#368781"/>
<path d="M121.585 126.273C121.585 126.723 121.208 127.324 120.755 127.587C120.303 127.85 119.926 127.7 119.926 127.23C119.926 126.761 120.303 126.179 120.755 125.916C121.208 125.653 121.585 125.803 121.585 126.273Z" fill="#368781"/>
<path d="M129.614 121.653C129.614 122.104 129.237 122.705 128.785 122.968C128.333 123.231 127.956 123.081 127.956 122.611C127.956 122.142 128.333 121.56 128.785 121.297C129.237 121.034 129.614 121.184 129.614 121.653Z" fill="#9FFFFA"/>
<path d="M137.663 117.032C137.663 117.483 137.286 118.084 136.834 118.347C136.381 118.61 136.004 118.46 136.004 117.99C136.004 117.521 136.381 116.938 136.834 116.676C137.286 116.413 137.663 116.563 137.663 117.032Z" fill="#368781"/>
<path d="M145.692 112.413C145.692 112.864 145.315 113.465 144.863 113.728C144.411 113.991 144.034 113.841 144.034 113.371C144.034 112.902 144.411 112.319 144.863 112.056C145.315 111.793 145.692 111.944 145.692 112.413Z" fill="#9FFFFA"/>
<path d="M113.555 137.429C113.555 137.88 113.178 138.481 112.726 138.744C112.273 139.006 111.896 138.856 111.896 138.387C111.896 137.917 112.273 137.335 112.726 137.072C113.178 136.809 113.555 136.959 113.555 137.429Z" fill="#9FFFFA"/>
<path d="M121.585 132.808C121.585 133.259 121.208 133.859 120.755 134.122C120.303 134.385 119.926 134.235 119.926 133.766C119.926 133.296 120.303 132.714 120.755 132.451C121.208 132.188 121.585 132.338 121.585 132.808Z" fill="#9FFFFA"/>
<path d="M129.614 128.189C129.614 128.639 129.237 129.24 128.785 129.503C128.333 129.766 127.956 129.616 127.956 129.146C127.956 128.677 128.333 128.095 128.785 127.832C129.237 127.569 129.614 127.719 129.614 128.189Z" fill="#9FFFFA"/>
<path d="M137.663 123.568C137.663 124.018 137.286 124.619 136.834 124.882C136.381 125.145 136.004 124.995 136.004 124.525C136.004 124.056 136.381 123.474 136.834 123.211C137.286 122.948 137.663 123.098 137.663 123.568Z" fill="#9FFFFA"/>
<path d="M145.692 118.948C145.692 119.399 145.315 120 144.863 120.263C144.411 120.526 144.034 120.376 144.034 119.906C144.034 119.437 144.411 118.855 144.863 118.592C145.315 118.329 145.692 118.479 145.692 118.948Z" fill="#9FFFFA"/>
<path d="M113.555 143.964C113.555 144.415 113.178 145.016 112.726 145.279C112.273 145.542 111.896 145.391 111.896 144.922C111.896 144.452 112.273 143.87 112.726 143.607C113.178 143.344 113.555 143.495 113.555 143.964Z" fill="#368781"/>
<path d="M121.585 139.343C121.585 139.794 121.208 140.395 120.755 140.658C120.303 140.921 119.926 140.77 119.926 140.301C119.926 139.831 120.303 139.249 120.755 138.986C121.208 138.723 121.585 138.873 121.585 139.343Z" fill="#368781"/>
<path d="M129.614 134.724C129.614 135.175 129.237 135.776 128.785 136.038C128.333 136.301 127.956 136.151 127.956 135.682C127.956 135.212 128.333 134.63 128.785 134.367C129.237 134.104 129.614 134.254 129.614 134.724Z" fill="#368781"/>
<path d="M137.663 130.105C137.663 130.555 137.286 131.156 136.834 131.419C136.381 131.682 136.004 131.532 136.004 131.062C136.004 130.593 136.381 130.011 136.834 129.748C137.286 129.485 137.663 129.635 137.663 130.105Z" fill="#9FFFFA"/>
<path d="M145.692 125.484C145.692 125.934 145.315 126.535 144.863 126.798C144.411 127.061 144.034 126.911 144.034 126.441C144.034 125.972 144.411 125.39 144.863 125.127C145.315 124.864 145.692 125.014 145.692 125.484Z" fill="#368781"/>
<path d="M113.555 150.519C113.555 150.969 113.178 151.57 112.726 151.833C112.273 152.096 111.896 151.946 111.896 151.477C111.896 151.007 112.273 150.425 112.726 150.162C113.178 149.899 113.555 150.049 113.555 150.519Z" fill="#368781"/>
<path d="M121.585 145.898C121.585 146.348 121.208 146.949 120.755 147.212C120.303 147.475 119.926 147.325 119.926 146.855C119.926 146.386 120.303 145.804 120.755 145.541C121.208 145.278 121.585 145.428 121.585 145.898Z" fill="#9FFFFA"/>
<path d="M129.614 141.278C129.614 141.729 129.237 142.33 128.785 142.593C128.333 142.856 127.956 142.706 127.956 142.236C127.956 141.767 128.333 141.185 128.785 140.922C129.237 140.659 129.614 140.809 129.614 141.278Z" fill="#9FFFFA"/>
<path d="M137.663 136.64C137.663 137.091 137.286 137.692 136.834 137.954C136.381 138.217 136.004 138.067 136.004 137.598C136.004 137.128 136.381 136.546 136.834 136.283C137.286 136.02 137.663 136.17 137.663 136.64Z" fill="#368781"/>
<path d="M145.692 132.019C145.692 132.469 145.315 133.07 144.863 133.333C144.411 133.596 144.034 133.446 144.034 132.977C144.034 132.507 144.411 131.925 144.863 131.662C145.315 131.399 145.692 131.549 145.692 132.019Z" fill="#9FFFFA"/>
<path d="M80.1173 103.548C80.1173 103.999 80.4943 104.6 80.9467 104.863C81.399 105.126 81.776 104.975 81.776 104.506C81.776 104.036 81.399 103.454 80.9467 103.191C80.4943 102.928 80.1173 103.078 80.1173 103.548Z" fill="#368781"/>
<path d="M72.0688 98.9269C72.0688 99.3777 72.4458 99.9786 72.8982 100.242C73.3506 100.504 73.7275 100.354 73.7275 99.8847C73.7275 99.4152 73.3506 98.833 72.8982 98.5701C72.4458 98.3072 72.0688 98.4574 72.0688 98.9269Z" fill="#9FFFFA"/>
<path d="M64.0393 94.3078C64.0393 94.7585 64.4163 95.3595 64.8687 95.6224C65.321 95.8854 65.698 95.7351 65.698 95.2656C65.698 94.7961 65.321 94.2139 64.8687 93.951C64.4163 93.688 64.0393 93.8383 64.0393 94.3078Z" fill="#368781"/>
<path d="M80.1173 110.103C80.1173 110.553 80.4943 111.154 80.9467 111.417C81.399 111.68 81.776 111.53 81.776 111.061C81.776 110.591 81.399 110.009 80.9467 109.746C80.4943 109.483 80.1173 109.633 80.1173 110.103Z" fill="#368781"/>
<path d="M72.0688 105.464C72.0688 105.915 72.4458 106.516 72.8982 106.779C73.3506 107.042 73.7275 106.891 73.7275 106.422C73.7275 105.952 73.3506 105.37 72.8982 105.107C72.4458 104.844 72.0688 104.995 72.0688 105.464Z" fill="#9FFFFA"/>
<path d="M64.0393 100.843C64.0393 101.294 64.4163 101.895 64.8687 102.158C65.321 102.421 65.698 102.27 65.698 101.801C65.698 101.331 65.321 100.749 64.8687 100.486C64.4163 100.223 64.0393 100.373 64.0393 100.843Z" fill="#9FFFFA"/>
<path d="M80.1173 116.638C80.1173 117.089 80.4943 117.69 80.9467 117.953C81.399 118.215 81.776 118.065 81.776 117.596C81.776 117.126 81.399 116.544 80.9467 116.281C80.4943 116.018 80.1173 116.168 80.1173 116.638Z" fill="#9FFFFA"/>
<path d="M72.0688 112.019C72.0688 112.469 72.4458 113.07 72.8982 113.333C73.3506 113.596 73.7275 113.446 73.7275 112.977C73.7275 112.507 73.3506 111.925 72.8982 111.662C72.4458 111.399 72.0688 111.549 72.0688 112.019Z" fill="#368781"/>
<path d="M64.0393 107.398C64.0393 107.848 64.4163 108.449 64.8687 108.712C65.321 108.975 65.698 108.825 65.698 108.355C65.698 107.886 65.321 107.304 64.8687 107.041C64.4163 106.778 64.0393 106.928 64.0393 107.398Z" fill="#9FFFFA"/>
<path d="M80.1173 123.173C80.1173 123.624 80.4943 124.225 80.9467 124.488C81.399 124.751 81.776 124.6 81.776 124.131C81.776 123.661 81.399 123.079 80.9467 122.816C80.4943 122.553 80.1173 122.704 80.1173 123.173Z" fill="#9FFFFA"/>
<path d="M72.0688 118.554C72.0688 119.005 72.4458 119.606 72.8982 119.869C73.3506 120.131 73.7275 119.981 73.7275 119.512C73.7275 119.042 73.3506 118.46 72.8982 118.197C72.4458 117.934 72.0688 118.084 72.0688 118.554Z" fill="#9FFFFA"/>
<path d="M64.0393 113.933C64.0393 114.384 64.4163 114.985 64.8687 115.247C65.321 115.51 65.698 115.36 65.698 114.891C65.698 114.421 65.321 113.839 64.8687 113.576C64.4163 113.313 64.0393 113.463 64.0393 113.933Z" fill="#368781"/>
<path d="M80.1173 129.71C80.1173 130.161 80.4943 130.762 80.9467 131.025C81.399 131.288 81.776 131.137 81.776 130.668C81.776 130.198 81.399 129.616 80.9467 129.353C80.4943 129.09 80.1173 129.241 80.1173 129.71Z" fill="#9FFFFA"/>
<path d="M72.0688 125.089C72.0688 125.54 72.4458 126.141 72.8982 126.404C73.3506 126.667 73.7275 126.516 73.7275 126.047C73.7275 125.577 73.3506 124.995 72.8982 124.732C72.4458 124.469 72.0688 124.62 72.0688 125.089Z" fill="#368781"/>
<path d="M64.0393 120.47C64.0393 120.921 64.4163 121.522 64.8687 121.785C65.321 122.047 65.698 121.897 65.698 121.428C65.698 120.958 65.321 120.376 64.8687 120.113C64.4163 119.85 64.0393 120 64.0393 120.47Z" fill="#9FFFFA"/>
<path d="M80.1173 136.263C80.1173 136.714 80.4943 137.315 80.9467 137.578C81.399 137.84 81.776 137.69 81.776 137.221C81.776 136.751 81.399 136.169 80.9467 135.906C80.4943 135.643 80.1173 135.793 80.1173 136.263Z" fill="#9FFFFA"/>
<path d="M72.0688 131.624C72.0688 132.075 72.4458 132.676 72.8982 132.939C73.3506 133.202 73.7275 133.052 73.7275 132.582C73.7275 132.112 73.3506 131.53 72.8982 131.267C72.4458 131.004 72.0688 131.155 72.0688 131.624Z" fill="#9FFFFA"/>
<path d="M64.0393 127.005C64.0393 127.456 64.4163 128.057 64.8687 128.32C65.321 128.583 65.698 128.432 65.698 127.963C65.698 127.493 65.321 126.911 64.8687 126.648C64.4163 126.385 64.0393 126.536 64.0393 127.005Z" fill="#9FFFFA"/>
<path d="M80.1173 142.8C80.1173 143.251 80.4943 143.852 80.9467 144.115C81.399 144.378 81.776 144.227 81.776 143.758C81.776 143.288 81.399 142.706 80.9467 142.443C80.4943 142.18 80.1173 142.33 80.1173 142.8Z" fill="#368781"/>
<path d="M72.0688 138.179C72.0688 138.63 72.4458 139.231 72.8982 139.494C73.3506 139.756 73.7275 139.606 73.7275 139.137C73.7275 138.667 73.3506 138.085 72.8982 137.822C72.4458 137.559 72.0688 137.709 72.0688 138.179Z" fill="#9FFFFA"/>
<path d="M64.0393 133.56C64.0393 134.01 64.4163 134.611 64.8687 134.874C65.321 135.137 65.698 134.987 65.698 134.518C65.698 134.048 65.321 133.466 64.8687 133.203C64.4163 132.94 64.0393 133.09 64.0393 133.56Z" fill="#368781"/>
<path d="M80.1173 149.335C80.1173 149.786 80.4943 150.387 80.9467 150.65C81.399 150.913 81.776 150.762 81.776 150.293C81.776 149.823 81.399 149.241 80.9467 148.978C80.4943 148.715 80.1173 148.866 80.1173 149.335Z" fill="#9FFFFA"/>
<path d="M72.0688 144.714C72.0688 145.165 72.4458 145.766 72.8982 146.029C73.3506 146.292 73.7275 146.141 73.7275 145.672C73.7275 145.202 73.3506 144.62 72.8982 144.357C72.4458 144.094 72.0688 144.245 72.0688 144.714Z" fill="#368781"/>
<path d="M64.0393 140.095C64.0393 140.546 64.4163 141.147 64.8687 141.41C65.321 141.672 65.698 141.522 65.698 141.053C65.698 140.583 65.321 140.001 64.8687 139.738C64.4163 139.475 64.0393 139.625 64.0393 140.095Z" fill="#9FFFFA"/>
<path d="M160.017 61.1786L153.288 65.0474L146.559 61.1786L153.288 57.291L160.017 61.1786Z" fill="#003893"/>
<path d="M104.168 93.2926L97.4395 97.1802L90.7104 93.2926L97.4395 89.4238L104.168 93.2926Z" fill="#003893"/>
<path d="M128.238 42.8864L121.509 46.7552L114.761 42.8864L121.509 39.0176L128.238 42.8864Z" fill="#003893"/>
<path d="M72.3894 75.0192L65.6603 78.888L58.9125 75.0192L65.6603 71.1504L72.3894 75.0192Z" fill="#003893"/>
<path d="M113.499 169.336L108.24 166.312V184.53L113.499 187.553V169.336Z" fill="#A2ACBD"/>
<path d="M165.276 157.767L113.499 187.553V169.336L165.276 139.531V157.767Z" fill="#BBC2CD"/>
<path d="M117.268 171.497L161.506 146.049V155.608L117.268 181.056V171.497Z" fill="#3138E3"/>
<path d="M113.499 169.336L108.24 166.313L160.036 136.508L165.276 139.531L113.499 169.336Z" fill="#E5ECF8"/>
<path d="M151.14 126.029L148.067 124.264V131.776L151.14 133.541V126.029Z" fill="#1B161E"/>
<path d="M161.62 127.512L151.14 133.541V126.029L161.62 120V127.512Z" fill="#251E28"/>
<path d="M160.734 123.135L160.112 123.492V120.863L160.734 120.506V123.135Z" fill="#9FFFFA"/>
<path d="M159 124.131L158.378 124.488V121.878L159 121.502V124.131Z" fill="#368781"/>
<path d="M157.266 125.126L156.625 125.502V122.872L157.266 122.516V125.126Z" fill="#368781"/>
<path d="M151.14 126.028L148.067 124.263L158.547 118.234L161.62 120L151.14 126.028Z" fill="#372E3C"/>
<path d="M151.14 112.864L148.067 111.08V118.592L151.14 120.376V112.864Z" fill="#1B161E"/>
<path d="M161.62 114.329L151.14 120.376V112.864L161.62 106.816V114.329Z" fill="#251E28"/>
<path d="M160.734 109.952L160.112 110.309V107.699L160.734 107.342V109.952Z" fill="#9FFFFA"/>
<path d="M159 110.948L158.378 111.324V108.695L159 108.338V110.948Z" fill="#368781"/>
<path d="M157.266 111.961L156.625 112.318V109.708L157.266 109.332V111.961Z" fill="#368781"/>
<path d="M151.14 112.864L148.067 111.079L158.547 105.051L161.62 106.816L151.14 112.864Z" fill="#372E3C"/>
<path d="M151.14 99.6794L148.067 97.9141V105.426L151.14 107.192V99.6794Z" fill="#1B161E"/>
<path d="M161.62 101.163L151.14 107.191V99.679L161.62 93.6504V101.163Z" fill="#251E28"/>
<path d="M160.734 96.7855L160.112 97.1424V94.5131L160.734 94.1562V96.7855Z" fill="#9FFFFA"/>
<path d="M159 97.7804L158.378 98.1373V95.5268L159 95.1699V97.7804Z" fill="#368781"/>
<path d="M157.266 98.7765L156.625 99.1521V96.5229L157.266 96.166V98.7765Z" fill="#368781"/>
<path d="M151.14 99.6787L148.067 97.9133L158.547 91.8848L161.62 93.6501L151.14 99.6787Z" fill="#372E3C"/>
<path d="M151.14 86.5146L148.067 84.7305V92.2427L151.14 94.0269V86.5146Z" fill="#1B161E"/>
<path d="M161.62 87.9966L151.14 94.0252V86.5129L161.62 80.4844V87.9966Z" fill="#251E28"/>
<path d="M160.734 83.6027L160.112 83.9595V81.349L160.734 80.9922V83.6027Z" fill="#9FFFFA"/>
<path d="M159 84.6176L158.378 84.9744V82.3451L159 81.9883V84.6176Z" fill="#368781"/>
<path d="M157.266 85.6117L156.625 85.9685V83.358L157.266 82.9824V85.6117Z" fill="#368781"/>
<path d="M151.14 86.5139L148.067 84.7297L158.547 78.7012L161.62 80.4853L151.14 86.5139Z" fill="#372E3C"/>
<path style="mix-blend-mode:color-dodge" d="M153.288 66.6271C158.525 66.6271 162.769 64.1887 162.769 61.1808C162.769 58.1728 158.525 55.7344 153.288 55.7344C148.052 55.7344 143.807 58.1728 143.807 61.1808C143.807 64.1887 148.052 66.6271 153.288 66.6271Z" fill="url(#paint1_radial_48_525)"/>
<path style="mix-blend-mode:color-dodge" d="M127.993 38.9061C131.688 41.0283 131.688 44.4839 127.993 46.6061C124.299 48.7284 118.286 48.7284 114.592 46.6061C110.897 44.4839 110.897 41.0283 114.592 38.9061C118.286 36.7839 124.299 36.7839 127.993 38.9061Z" fill="url(#paint2_radial_48_525)"/>
<path style="mix-blend-mode:color-dodge" d="M97.5337 98.6857C102.77 98.6857 107.015 96.2473 107.015 93.2393C107.015 90.2314 102.77 87.793 97.5337 87.793C92.2975 87.793 88.0527 90.2314 88.0527 93.2393C88.0527 96.2473 92.2975 98.6857 97.5337 98.6857Z" fill="url(#paint3_radial_48_525)"/>
<path style="mix-blend-mode:color-dodge" d="M72.2386 70.9842C75.9329 73.1064 75.9329 76.5621 72.2386 78.6843C68.5442 80.8065 62.5314 80.8065 58.8371 78.6843C55.1427 76.5621 55.1427 73.1064 58.8371 70.9842C62.5314 68.862 68.5442 68.862 72.2386 70.9842Z" fill="url(#paint4_radial_48_525)"/>
<path d="M152.5 23.0112V61.5231C152.5 61.6458 152.595 61.7574 152.797 61.8578C153.189 62.0474 153.811 62.0474 154.203 61.8578C154.405 61.7685 154.5 61.6458 154.5 61.5231V23H152.514L152.5 23.0112Z" fill="url(#paint5_linear_48_525)" style="mix-blend-mode:color-dodge"/>
<path d="M120.5 0V43.4619C120.5 43.6004 120.595 43.7262 120.798 43.8395C121.189 44.0535 121.811 44.0535 122.203 43.8395C122.406 43.7388 122.5 43.6004 122.5 43.4619V0H120.514H120.5Z" fill="url(#paint6_linear_48_525)" style="mix-blend-mode:color-dodge"/>
<path d="M96.5 44.0143V93.3884C96.5 93.5457 96.5946 93.6888 96.7973 93.8176C97.1892 94.0608 97.8108 94.0608 98.2027 93.8176C98.4054 93.7031 98.5 93.5457 98.5 93.3884V44H96.5135L96.5 44.0143Z" fill="url(#paint7_linear_48_525)" style="mix-blend-mode:color-dodge"/>
<path d="M64.5002 28.0137V75.413C64.5002 75.564 64.5948 75.7014 64.7975 75.8249C65.1894 76.0584 65.8111 76.0584 66.2029 75.8249C66.4056 75.7151 66.5002 75.564 66.5002 75.413V28H64.5138L64.5002 28.0137Z" fill="url(#paint8_linear_48_525)" style="mix-blend-mode:color-dodge"/>
<path d="M182.052 71.6962L143.883 93.6507C141.433 95.0592 139.435 94.2329 139.435 91.7726V73.9686C139.435 71.5271 141.433 68.3908 143.883 66.9822L182.052 45.0277C184.502 43.6192 186.5 44.4455 186.5 46.9058V64.7098C186.5 67.1513 184.502 70.2876 182.052 71.6962Z" fill="url(#paint9_linear_48_525)"/>
<path d="M182.052 86.8139L153.345 103.322C150.894 104.731 148.896 103.904 148.896 101.444V99.0965C148.896 96.655 150.894 93.5186 153.345 92.1101L182.052 75.6019C184.502 74.1934 186.5 75.0197 186.5 77.48V79.8276C186.5 82.269 184.502 85.4054 182.052 86.8139Z" fill="#24C6FE"/>
<defs>
<linearGradient id="paint0_linear_48_525" x1="92.8215" y1="125.088" x2="102.453" y2="125.088" gradientUnits="userSpaceOnUse">
<stop offset="0.4" stop-color="#A2ACBD"/>
<stop offset="0.58" stop-color="#BBC2CD"/>
</linearGradient>
<radialGradient id="paint1_radial_48_525" cx="0" cy="0" r="1" gradientUnits="userSpaceOnUse" gradientTransform="translate(266.892 -4.13328) rotate(-29.9101) scale(7.68807 6.67314)">
<stop stop-color="#00BDFC"/>
<stop offset="0.17" stop-color="#008BBA"/>
<stop offset="0.34" stop-color="#006181"/>
<stop offset="0.49" stop-color="#003E53"/>
<stop offset="0.64" stop-color="#00232F"/>
<stop offset="0.78" stop-color="#000F15"/>
<stop offset="0.9" stop-color="#000405"/>
<stop offset="1"/>
</radialGradient>
<radialGradient id="paint2_radial_48_525" cx="0" cy="0" r="1" gradientUnits="userSpaceOnUse" gradientTransform="translate(250.899 -31.7349) rotate(-29.9101) scale(7.68807 6.67314)">
<stop stop-color="#00BDFC"/>
<stop offset="0.17" stop-color="#008BBA"/>
<stop offset="0.34" stop-color="#006181"/>
<stop offset="0.49" stop-color="#003E53"/>
<stop offset="0.64" stop-color="#00232F"/>
<stop offset="0.78" stop-color="#000F15"/>
<stop offset="0.9" stop-color="#000405"/>
<stop offset="1"/>
</radialGradient>
<radialGradient id="paint3_radial_48_525" cx="0" cy="0" r="1" gradientUnits="userSpaceOnUse" gradientTransform="translate(211.365 27.8098) rotate(-29.9102) scale(1.08283 0.939879)">
<stop stop-color="#00BDFC"/>
<stop offset="0.17" stop-color="#008BBA"/>
<stop offset="0.34" stop-color="#006181"/>
<stop offset="0.49" stop-color="#003E53"/>
<stop offset="0.64" stop-color="#00232F"/>
<stop offset="0.78" stop-color="#000F15"/>
<stop offset="0.9" stop-color="#000405"/>
<stop offset="1"/>
</radialGradient>
<radialGradient id="paint4_radial_48_525" cx="0" cy="0" r="1" gradientUnits="userSpaceOnUse" gradientTransform="translate(195.362 0.192598) rotate(-29.9101) scale(7.68807 6.67314)">
<stop stop-color="#00BDFC"/>
<stop offset="0.17" stop-color="#008BBA"/>
<stop offset="0.34" stop-color="#006181"/>
<stop offset="0.49" stop-color="#003E53"/>
<stop offset="0.64" stop-color="#00232F"/>
<stop offset="0.78" stop-color="#000F15"/>
<stop offset="0.9" stop-color="#000405"/>
<stop offset="1"/>
</radialGradient>
<linearGradient id="paint5_linear_48_525" x1="153.505" y1="61.5511" x2="153.505" y2="23.8401" gradientUnits="userSpaceOnUse">
<stop stop-color="#00BFFF"/>
<stop offset="1" stop-color="#00BFFF" stop-opacity="0"/>
</linearGradient>
<linearGradient id="paint6_linear_48_525" x1="121.505" y1="43.4936" x2="121.505" y2="0.947837" gradientUnits="userSpaceOnUse">
<stop stop-color="#00BFFF"/>
<stop offset="1" stop-color="#00BFFF" stop-opacity="0"/>
</linearGradient>
<linearGradient id="paint7_linear_48_525" x1="97.5049" y1="93.4245" x2="97.5049" y2="45.0771" gradientUnits="userSpaceOnUse">
<stop stop-color="#00BFFF"/>
<stop offset="1" stop-color="#00BFFF" stop-opacity="0"/>
</linearGradient>
<linearGradient id="paint8_linear_48_525" x1="65.5051" y1="75.4476" x2="65.5051" y2="29.034" gradientUnits="userSpaceOnUse">
<stop stop-color="#00BFFF"/>
<stop offset="1" stop-color="#00BFFF" stop-opacity="0"/>
</linearGradient>
<linearGradient id="paint9_linear_48_525" x1="186.5" y1="57.6057" x2="142.348" y2="80.0117" gradientUnits="userSpaceOnUse">
<stop stop-color="#A45CFF"/>
<stop offset="1" stop-color="#3C0CFF"/>
</linearGradient>
</defs>
</svg>
