<svg width="273" height="196" viewBox="0 0 273 196" fill="none" xmlns="http://www.w3.org/2000/svg">
<ellipse cx="89.3425" cy="69" rx="32.2165" ry="18" fill="#B3B9CF" fill-opacity="0.13"/>
<ellipse cx="187.944" cy="68" rx="32.2165" ry="18" fill="#B3B9CF" fill-opacity="0.13"/>
<ellipse cx="240.662" cy="123" rx="32.2165" ry="18" fill="#B3B9CF" fill-opacity="0.13"/>
<ellipse cx="32.7194" cy="122" rx="32.2165" ry="18" fill="#B3B9CF" fill-opacity="0.13"/>
<ellipse cx="89.3425" cy="178" rx="32.2165" ry="18" fill="#B3B9CF" fill-opacity="0.13"/>
<ellipse cx="187.944" cy="177" rx="32.2165" ry="18" fill="#B3B9CF" fill-opacity="0.13"/>
<g style="mix-blend-mode:multiply" opacity="0.5">
<path d="M179.566 63.7637L167.67 70.8126L182.994 79.8793H188.29L179.566 63.7637Z" fill="#003893"/>
</g>
<path d="M188.315 72.3332L173.324 63.4762L188.315 54.6191L203.306 63.4762L188.315 72.3332Z" fill="#F5F9FF"/>
<path d="M188.315 79.8804L173.324 71.0234V63.4766L188.315 72.3336V79.8804Z" fill="#9BA5B5"/>
<path d="M203.306 71.0234L188.314 79.8804V72.3336L203.306 63.4766V71.0234Z" fill="#CAD2DE"/>
<path d="M201.542 69.8432L195.837 73.2236V69.8432L201.542 66.4629V69.8432Z" fill="#251E28"/>
<path d="M200.723 68.6391C200.723 68.875 200.544 69.1632 200.314 69.3204C200.083 69.4515 199.904 69.3728 199.904 69.137C199.904 68.9012 200.083 68.6129 200.314 68.4557C200.544 68.3247 200.723 68.4033 200.723 68.6391Z" fill="#9FFFFA"/>
<path d="M199.366 69.4516C199.366 69.6875 199.187 69.9757 198.957 70.1329C198.727 70.264 198.548 70.1853 198.548 69.9495C198.548 69.7137 198.727 69.4254 198.957 69.2682C199.187 69.1372 199.366 69.2158 199.366 69.4516Z" fill="#9FFFFA"/>
<path d="M198.011 70.264C198.011 70.4999 197.832 70.7881 197.602 70.9454C197.371 71.1026 197.192 70.9978 197.192 70.7619C197.192 70.5261 197.371 70.2378 197.602 70.0806C197.832 69.9234 198.011 70.0282 198.011 70.264Z" fill="#9FFFFA"/>
<path d="M197.192 63.2671L188.264 68.5341L179.335 63.2671L188.264 58L197.192 63.2671Z" fill="url(#paint0_linear_48_4245)"/>
<path style="mix-blend-mode:color-dodge" d="M188.29 69.136C193.771 69.136 198.215 66.508 198.215 63.2662C198.215 60.0245 193.771 57.3965 188.29 57.3965C182.808 57.3965 178.364 60.0245 178.364 63.2662C178.364 66.508 182.808 69.136 188.29 69.136Z" fill="url(#paint1_radial_48_4245)"/>
<path d="M186.943 27V63.5072C186.943 63.6276 187.097 63.763 187.38 63.8533C187.945 64.0489 188.87 64.0489 189.435 63.8533C189.717 63.763 189.872 63.6276 189.872 63.5072V27H186.943Z" fill="url(#paint2_linear_48_4245)" style="mix-blend-mode:color-dodge"/>
<g style="mix-blend-mode:multiply" opacity="0.5">
<path d="M80.973 63.791L69.0518 70.8399L84.3754 79.8804H89.6709L80.973 63.791Z" fill="#003893"/>
</g>
<path d="M89.7215 72.3332L74.7305 63.4762L89.7215 54.6191L104.713 63.4762L89.7215 72.3332Z" fill="#F5F9FF"/>
<path d="M89.7215 79.8804L74.7305 71.0234V63.4766L89.7215 72.3336V79.8804Z" fill="#9BA5B5"/>
<path d="M104.712 71.0234L89.7212 79.8804V72.3336L104.712 63.4766V71.0234Z" fill="#CAD2DE"/>
<path d="M76.5977 69.9741L82.3024 73.3544V69.9741L76.5977 66.5938V69.9741Z" fill="#251E28"/>
<path d="M77.2373 68.5864C77.2373 68.8222 77.4164 69.1105 77.6466 69.2677C77.8769 69.3987 78.0559 69.3201 78.0559 69.0843C78.0559 68.8484 77.8769 68.5602 77.6466 68.403C77.4164 68.2719 77.2373 68.3506 77.2373 68.5864Z" fill="#9FFFFA"/>
<path d="M78.5923 69.3989C78.5923 69.6347 78.7714 69.923 79.0016 70.0802C79.2318 70.2112 79.4109 70.1326 79.4109 69.8968C79.4109 69.6609 79.2318 69.3727 79.0016 69.2155C78.7714 69.0844 78.5923 69.1631 78.5923 69.3989Z" fill="#9FFFFA"/>
<path d="M79.9492 70.2114C79.9492 70.4472 80.1283 70.7355 80.3585 70.8927C80.5888 71.0237 80.7678 70.9451 80.7678 70.7093C80.7678 70.4734 80.5888 70.1852 80.3585 70.028C80.1283 69.8969 79.9492 69.9756 79.9492 70.2114Z" fill="#9FFFFA"/>
<path d="M98.5978 63.2671L89.6696 68.5341L80.7671 63.2671L89.6696 58L98.5978 63.2671Z" fill="url(#paint3_linear_48_4245)"/>
<path style="mix-blend-mode:color-dodge" d="M96.7052 59.1258C100.568 61.4056 100.568 65.1266 96.7052 67.4064C92.8423 69.6861 86.5491 69.6861 82.6862 67.4064C78.8233 65.1266 78.8233 61.4056 82.6862 59.1258C86.5491 56.8461 92.8423 56.8461 96.7052 59.1258Z" fill="url(#paint4_radial_48_4245)"/>
<path d="M88.3403 27V63.5072C88.3403 63.6276 88.4945 63.763 88.7771 63.8533C89.3423 64.0489 90.2672 64.0489 90.8324 63.8533C91.115 63.763 91.2691 63.6276 91.2691 63.5072V27H88.3403Z" fill="url(#paint5_linear_48_4245)" style="mix-blend-mode:color-dodge"/>
<g style="mix-blend-mode:multiply" opacity="0.5">
<path d="M179.566 171.279L167.67 178.328L182.994 187.395H188.29L179.566 171.279Z" fill="#003893"/>
</g>
<path d="M188.315 179.875L173.324 170.992L188.315 162.135L203.306 170.992L188.315 179.875Z" fill="#F5F9FF"/>
<path d="M188.315 187.396L173.324 178.539V170.992L188.315 179.875V187.396Z" fill="#9BA5B5"/>
<path d="M203.306 178.539L188.314 187.396V179.875L203.306 170.992V178.539Z" fill="#CAD2DE"/>
<path d="M201.542 177.385L195.837 180.765V177.359L201.542 173.979V177.385Z" fill="#251E28"/>
<path d="M200.825 175.946C200.825 176.182 200.646 176.47 200.416 176.627C200.185 176.758 200.006 176.679 200.006 176.444C200.006 176.208 200.185 175.92 200.416 175.762C200.646 175.631 200.825 175.71 200.825 175.946Z" fill="#9FFFFA"/>
<path d="M199.47 176.758C199.47 176.994 199.29 177.282 199.06 177.44C198.83 177.571 198.651 177.492 198.651 177.256C198.651 177.02 198.83 176.732 199.06 176.575C199.29 176.444 199.47 176.522 199.47 176.758Z" fill="#9FFFFA"/>
<path d="M198.088 177.571C198.088 177.807 197.909 178.095 197.679 178.252C197.449 178.383 197.27 178.304 197.27 178.069C197.27 177.833 197.449 177.545 197.679 177.387C197.909 177.256 198.088 177.335 198.088 177.571Z" fill="#9FFFFA"/>
<path d="M197.192 170.677L188.264 175.97L179.335 170.677L188.264 165.41L197.192 170.677Z" fill="url(#paint6_linear_48_4245)"/>
<path style="mix-blend-mode:color-dodge" d="M188.29 176.548C193.771 176.548 198.215 173.92 198.215 170.678C198.215 167.437 193.771 164.809 188.29 164.809C182.808 164.809 178.364 167.437 178.364 170.678C178.364 173.92 182.808 176.548 188.29 176.548Z" fill="url(#paint7_radial_48_4245)"/>
<path d="M186.943 133V171.481C186.943 171.607 187.097 171.75 187.38 171.845C187.945 172.052 188.87 172.052 189.435 171.845C189.717 171.75 189.872 171.607 189.872 171.481V133H186.943Z" fill="url(#paint8_linear_48_4245)" style="mix-blend-mode:color-dodge"/>
<g style="mix-blend-mode:multiply" opacity="0.5">
<path d="M232.087 117.51L220.191 124.559L235.489 133.599H240.81L232.087 117.51Z" fill="#003893"/>
</g>
<path d="M240.81 126.078L225.819 117.221L240.81 108.338L255.801 117.221L240.81 126.078Z" fill="#F5F9FF"/>
<path d="M240.81 133.625L225.819 124.741V117.221L240.81 126.078V133.625Z" fill="#9BA5B5"/>
<path d="M255.801 124.741L240.81 133.625V126.078L255.801 117.221V124.741Z" fill="#CAD2DE"/>
<path d="M254.292 123.457L248.587 126.863V123.457L254.292 120.076V123.457Z" fill="#251E28"/>
<path d="M253.652 122.043C253.652 122.279 253.473 122.567 253.242 122.725C253.012 122.856 252.833 122.777 252.833 122.541C252.833 122.305 253.012 122.017 253.242 121.86C253.473 121.703 253.652 121.808 253.652 122.043Z" fill="#9FFFFA"/>
<path d="M252.296 122.856C252.296 123.092 252.117 123.38 251.887 123.537C251.657 123.668 251.478 123.59 251.478 123.354C251.478 123.118 251.657 122.83 251.887 122.672C252.117 122.541 252.296 122.62 252.296 122.856Z" fill="#9FFFFA"/>
<path d="M250.915 123.668C250.915 123.904 250.736 124.193 250.505 124.35C250.275 124.481 250.096 124.402 250.096 124.166C250.096 123.93 250.275 123.642 250.505 123.485C250.736 123.354 250.915 123.433 250.915 123.668Z" fill="#9FFFFA"/>
<path d="M249.738 116.853L240.836 122.146L231.908 116.853L240.836 111.586L249.738 116.853Z" fill="url(#paint9_linear_48_4245)"/>
<path style="mix-blend-mode:color-dodge" d="M247.846 112.714C251.709 114.993 251.709 118.714 247.846 121.02C243.983 123.326 237.69 123.3 233.827 121.02C229.964 118.741 229.964 115.02 233.827 112.714C237.69 110.434 243.983 110.434 247.846 112.714Z" fill="url(#paint10_radial_48_4245)"/>
<path d="M239.661 73V117.401C239.661 117.547 239.815 117.712 240.097 117.822C240.663 118.059 241.587 118.059 242.153 117.822C242.435 117.712 242.589 117.547 242.589 117.401V73H239.661Z" fill="url(#paint11_linear_48_4245)" style="mix-blend-mode:color-dodge"/>
<g style="mix-blend-mode:multiply" opacity="0.5">
<path d="M23.5926 117.404L11.6714 124.453L26.995 133.494H32.2905L23.5926 117.404Z" fill="#003893"/>
</g>
<path d="M32.2909 125.973L17.2998 117.089L32.2909 108.232L47.282 117.089L32.2909 125.973Z" fill="#F5F9FF"/>
<path d="M32.2909 133.494L17.2998 124.637V117.09L32.2909 125.973V133.494Z" fill="#9BA5B5"/>
<path d="M47.2816 124.637L32.2905 133.494V125.973L47.2816 117.09V124.637Z" fill="#CAD2DE"/>
<path d="M18.8862 123.457L24.6166 126.838V123.431L18.8862 120.051V123.457Z" fill="#251E28"/>
<path d="M19.5259 122.016C19.5259 122.252 19.705 122.54 19.9352 122.697C20.1654 122.828 20.3445 122.75 20.3445 122.514C20.3445 122.278 20.1654 121.99 19.9352 121.833C19.705 121.702 19.5259 121.78 19.5259 122.016Z" fill="#9FFFFA"/>
<path d="M20.8813 122.803C20.8813 123.039 21.0604 123.327 21.2907 123.485C21.5209 123.616 21.7 123.537 21.7 123.301C21.7 123.065 21.5209 122.777 21.2907 122.62C21.0604 122.489 20.8813 122.567 20.8813 122.803Z" fill="#9FFFFA"/>
<path d="M22.2627 123.616C22.2627 123.852 22.4418 124.14 22.672 124.297C22.9022 124.428 23.0813 124.349 23.0813 124.114C23.0813 123.878 22.9022 123.589 22.672 123.432C22.4418 123.301 22.2627 123.38 22.2627 123.616Z" fill="#9FFFFA"/>
<path d="M41.347 116.853L32.4188 122.146L23.4907 116.853L32.4188 111.586L41.347 116.853Z" fill="url(#paint12_linear_48_4245)"/>
<path style="mix-blend-mode:color-dodge" d="M39.4537 112.714C43.3166 114.993 43.3166 118.714 39.4537 121.02C35.5908 123.3 29.2977 123.3 25.4348 121.02C21.5719 118.741 21.5719 115.02 25.4348 112.714C29.2977 110.434 35.5908 110.434 39.4537 112.714Z" fill="url(#paint13_radial_48_4245)"/>
<path d="M30.7422 73V117.401C30.7422 117.547 30.8963 117.712 31.1789 117.822C31.7441 118.059 32.669 118.059 33.2342 117.822C33.5168 117.712 33.671 117.547 33.671 117.401V73H30.7422Z" fill="url(#paint14_linear_48_4245)" style="mix-blend-mode:color-dodge"/>
<g style="mix-blend-mode:multiply" opacity="0.5">
<path d="M80.973 171.307L69.0518 178.356L84.3754 187.422H89.6709L80.973 171.307Z" fill="#003893"/>
</g>
<path d="M89.7215 179.875L74.7305 170.992L89.7215 162.135L104.713 170.992L89.7215 179.875Z" fill="#F5F9FF"/>
<path d="M89.7215 187.396L74.7305 178.539V170.992L89.7215 179.875V187.396Z" fill="#9BA5B5"/>
<path d="M104.712 178.539L89.7212 187.396V179.875L104.712 170.992V178.539Z" fill="#CAD2DE"/>
<path d="M76.5977 177.492L82.3024 180.898V177.492L76.5977 174.111V177.492Z" fill="#251E28"/>
<path d="M77.2637 176.155C77.2637 176.391 77.4427 176.679 77.673 176.836C77.9032 176.967 78.0823 176.888 78.0823 176.653C78.0823 176.417 77.9032 176.129 77.673 175.971C77.4427 175.84 77.2637 175.919 77.2637 176.155Z" fill="#9FFFFA"/>
<path d="M78.6187 176.967C78.6187 177.203 78.7977 177.491 79.028 177.649C79.2582 177.78 79.4373 177.701 79.4373 177.465C79.4373 177.229 79.2582 176.941 79.028 176.784C78.7977 176.653 78.6187 176.731 78.6187 176.967Z" fill="#9FFFFA"/>
<path d="M80.0005 177.78C80.0005 178.016 80.1796 178.304 80.4098 178.461C80.64 178.592 80.8191 178.513 80.8191 178.278C80.8191 178.042 80.64 177.754 80.4098 177.596C80.1796 177.465 80.0005 177.544 80.0005 177.78Z" fill="#9FFFFA"/>
<path d="M98.5978 170.677L89.6696 175.97L80.7671 170.677L89.6696 165.41L98.5978 170.677Z" fill="url(#paint15_linear_48_4245)"/>
<path style="mix-blend-mode:color-dodge" d="M96.7052 166.538C100.568 168.818 100.568 172.539 96.7052 174.818C92.8423 177.098 86.5491 177.098 82.6862 174.818C78.8233 172.539 78.8233 168.818 82.6862 166.538C86.5491 164.258 92.8423 164.258 96.7052 166.538Z" fill="url(#paint16_radial_48_4245)"/>
<path d="M88.3403 133V171.481C88.3403 171.607 88.4945 171.75 88.7771 171.845C89.3423 172.052 90.2672 172.052 90.8324 171.845C91.115 171.75 91.2691 171.607 91.2691 171.481V133H88.3403Z" fill="url(#paint17_linear_48_4245)" style="mix-blend-mode:color-dodge"/>
<g style="mix-blend-mode:multiply" opacity="0.5">
<path d="M119.577 117.404L95.7861 131.476L126.408 149.609H139.148L119.577 117.404Z" fill="#003893"/>
</g>
<path d="M139.148 107.237L107.554 88.5274L139.148 69.8438L170.767 88.5274L139.148 107.237Z" fill="#F5F9FF"/>
<path d="M139.148 149.609L107.554 130.926V88.5273L139.148 107.237V149.609Z" fill="#9BA5B5"/>
<path d="M111.904 128.227V96.2578L134.8 109.805V141.775L111.904 128.227Z" fill="#050CB6"/>
<path d="M170.768 130.926L139.148 149.609V107.237L170.768 88.5273V130.926Z" fill="#CAD2DE"/>
<path d="M143.497 109.805L166.418 96.2578V128.227L143.497 141.775V109.805Z" fill="#3138E2"/>
<path d="M146.694 110.932C146.694 111.194 146.49 111.508 146.234 111.666C145.978 111.823 145.773 111.718 145.773 111.456C145.773 111.194 145.978 110.88 146.234 110.722C146.49 110.565 146.694 110.67 146.694 110.932Z" fill="#9FFFFA"/>
<path d="M151.095 108.338C151.095 108.6 150.891 108.915 150.635 109.072C150.379 109.229 150.174 109.124 150.174 108.862C150.174 108.6 150.379 108.286 150.635 108.129C150.891 107.971 151.095 108.076 151.095 108.338Z" fill="#368781"/>
<path d="M155.495 105.744C155.495 106.006 155.29 106.321 155.034 106.478C154.778 106.635 154.574 106.531 154.574 106.269C154.574 106.006 154.778 105.692 155.034 105.535C155.29 105.378 155.495 105.482 155.495 105.744Z" fill="#368781"/>
<path d="M159.92 103.123C159.92 103.385 159.716 103.7 159.46 103.857C159.204 104.014 159 103.909 159 103.647C159 103.385 159.204 103.071 159.46 102.914C159.716 102.756 159.92 102.861 159.92 103.123Z" fill="#9FFFFA"/>
<path d="M164.321 100.53C164.321 100.792 164.116 101.106 163.86 101.263C163.605 101.421 163.4 101.316 163.4 101.054C163.4 100.792 163.605 100.477 163.86 100.32C164.116 100.163 164.321 100.268 164.321 100.53Z" fill="#368781"/>
<path d="M146.694 114.627C146.694 114.889 146.49 115.204 146.234 115.361C145.978 115.518 145.773 115.413 145.773 115.151C145.773 114.889 145.978 114.575 146.234 114.418C146.49 114.26 146.694 114.365 146.694 114.627Z" fill="#9FFFFA"/>
<path d="M151.095 112.034C151.095 112.296 150.891 112.61 150.635 112.767C150.379 112.924 150.174 112.82 150.174 112.558C150.174 112.296 150.379 111.981 150.635 111.824C150.891 111.667 151.095 111.771 151.095 112.034Z" fill="#368781"/>
<path d="M155.495 109.412C155.495 109.674 155.29 109.989 155.034 110.146C154.778 110.303 154.574 110.199 154.574 109.936C154.574 109.674 154.778 109.36 155.034 109.203C155.29 109.046 155.495 109.15 155.495 109.412Z" fill="#368781"/>
<path d="M159.92 106.819C159.92 107.081 159.716 107.395 159.46 107.552C159.204 107.71 159 107.605 159 107.343C159 107.081 159.204 106.766 159.46 106.609C159.716 106.452 159.92 106.557 159.92 106.819Z" fill="#9FFFFA"/>
<path d="M164.321 104.198C164.321 104.46 164.116 104.774 163.86 104.931C163.605 105.089 163.4 104.984 163.4 104.722C163.4 104.46 163.605 104.145 163.86 103.988C164.116 103.831 164.321 103.936 164.321 104.198Z" fill="#9FFFFA"/>
<path d="M146.694 118.323C146.694 118.585 146.49 118.899 146.234 119.056C145.978 119.214 145.773 119.109 145.773 118.847C145.773 118.585 145.978 118.27 146.234 118.113C146.49 117.956 146.694 118.061 146.694 118.323Z" fill="#368781"/>
<path d="M150.904 116.198C151.107 115.92 151.154 115.604 151.007 115.491C150.86 115.378 150.576 115.511 150.372 115.788C150.168 116.066 150.122 116.383 150.269 116.496C150.415 116.609 150.7 116.476 150.904 116.198Z" fill="#9FFFFA"/>
<path d="M155.495 113.108C155.495 113.37 155.29 113.684 155.034 113.841C154.778 113.999 154.574 113.894 154.574 113.632C154.574 113.37 154.778 113.055 155.034 112.898C155.29 112.741 155.495 112.846 155.495 113.108Z" fill="#9FFFFA"/>
<path d="M159.92 110.514C159.92 110.776 159.716 111.09 159.46 111.248C159.204 111.405 159 111.3 159 111.038C159 110.776 159.204 110.462 159.46 110.304C159.716 110.147 159.92 110.252 159.92 110.514Z" fill="#368781"/>
<path d="M164.321 107.893C164.321 108.155 164.116 108.469 163.86 108.627C163.605 108.784 163.4 108.679 163.4 108.417C163.4 108.155 163.605 107.84 163.86 107.683C164.116 107.526 164.321 107.631 164.321 107.893Z" fill="#9FFFFA"/>
<path d="M146.694 122.018C146.694 122.28 146.49 122.594 146.234 122.752C145.978 122.909 145.773 122.804 145.773 122.542C145.773 122.28 145.978 121.965 146.234 121.808C146.49 121.651 146.694 121.756 146.694 122.018Z" fill="#9FFFFA"/>
<path d="M151.095 119.397C151.095 119.659 150.891 119.973 150.635 120.131C150.379 120.288 150.174 120.183 150.174 119.921C150.174 119.659 150.379 119.344 150.635 119.187C150.891 119.03 151.095 119.135 151.095 119.397Z" fill="#9FFFFA"/>
<path d="M155.495 116.803C155.495 117.065 155.29 117.38 155.034 117.537C154.778 117.694 154.574 117.589 154.574 117.327C154.574 117.065 154.778 116.751 155.034 116.593C155.29 116.436 155.495 116.541 155.495 116.803Z" fill="#9FFFFA"/>
<path d="M159.92 114.182C159.92 114.444 159.716 114.758 159.46 114.916C159.204 115.073 159 114.968 159 114.706C159 114.444 159.204 114.13 159.46 113.972C159.716 113.815 159.92 113.92 159.92 114.182Z" fill="#9FFFFA"/>
<path d="M164.321 111.588C164.321 111.85 164.116 112.165 163.86 112.322C163.605 112.479 163.4 112.374 163.4 112.112C163.4 111.85 163.605 111.536 163.86 111.379C164.116 111.221 164.321 111.326 164.321 111.588Z" fill="#368781"/>
<path d="M146.694 125.686C146.694 125.948 146.49 126.262 146.234 126.42C145.978 126.577 145.773 126.472 145.773 126.21C145.773 125.948 145.978 125.633 146.234 125.476C146.49 125.319 146.694 125.424 146.694 125.686Z" fill="#368781"/>
<path d="M151.095 123.092C151.095 123.354 150.891 123.669 150.635 123.826C150.379 123.983 150.174 123.878 150.174 123.616C150.174 123.354 150.379 123.04 150.635 122.882C150.891 122.725 151.095 122.83 151.095 123.092Z" fill="#368781"/>
<path d="M155.495 120.471C155.495 120.733 155.29 121.048 155.034 121.205C154.778 121.362 154.574 121.257 154.574 120.995C154.574 120.733 154.778 120.419 155.034 120.261C155.29 120.104 155.495 120.209 155.495 120.471Z" fill="#9FFFFA"/>
<path d="M159.92 117.877C159.92 118.139 159.716 118.454 159.46 118.611C159.204 118.768 159 118.663 159 118.401C159 118.139 159.204 117.825 159.46 117.668C159.716 117.51 159.92 117.615 159.92 117.877Z" fill="#368781"/>
<path d="M164.321 115.282C164.321 115.544 164.116 115.858 163.86 116.015C163.605 116.172 163.4 116.068 163.4 115.806C163.4 115.544 163.605 115.229 163.86 115.072C164.116 114.915 164.321 115.02 164.321 115.282Z" fill="#9FFFFA"/>
<path d="M146.694 129.381C146.694 129.643 146.49 129.958 146.234 130.115C145.978 130.272 145.773 130.167 145.773 129.905C145.773 129.643 145.978 129.329 146.234 129.172C146.49 129.014 146.694 129.119 146.694 129.381Z" fill="#9FFFFA"/>
<path d="M151.095 126.785C151.095 127.047 150.891 127.362 150.635 127.519C150.379 127.676 150.174 127.572 150.174 127.31C150.174 127.048 150.379 126.733 150.635 126.576C150.891 126.419 151.095 126.523 151.095 126.785Z" fill="#9FFFFA"/>
<path d="M155.495 124.166C155.495 124.428 155.29 124.743 155.034 124.9C154.778 125.057 154.574 124.952 154.574 124.69C154.574 124.428 154.778 124.114 155.034 123.957C155.29 123.799 155.495 123.904 155.495 124.166Z" fill="#9FFFFA"/>
<path d="M159.92 121.573C159.92 121.835 159.716 122.149 159.46 122.306C159.204 122.464 159 122.359 159 122.097C159 121.835 159.204 121.52 159.46 121.363C159.716 121.206 159.92 121.311 159.92 121.573Z" fill="#9FFFFA"/>
<path d="M164.321 118.951C164.321 119.214 164.116 119.528 163.86 119.685C163.605 119.842 163.4 119.738 163.4 119.476C163.4 119.214 163.605 118.899 163.86 118.742C164.116 118.585 164.321 118.689 164.321 118.951Z" fill="#9FFFFA"/>
<path d="M146.694 133.075C146.694 133.337 146.49 133.651 146.234 133.808C145.978 133.965 145.773 133.861 145.773 133.599C145.773 133.337 145.978 133.022 146.234 132.865C146.49 132.708 146.694 132.812 146.694 133.075Z" fill="#368781"/>
<path d="M150.903 130.962C151.106 130.684 151.153 130.367 151.006 130.254C150.859 130.141 150.575 130.275 150.371 130.552C150.167 130.83 150.121 131.146 150.268 131.259C150.415 131.373 150.699 131.239 150.903 130.962Z" fill="#368781"/>
<path d="M155.495 127.86C155.495 128.122 155.29 128.436 155.034 128.593C154.778 128.751 154.574 128.646 154.574 128.384C154.574 128.122 154.778 127.807 155.034 127.65C155.29 127.493 155.495 127.598 155.495 127.86Z" fill="#368781"/>
<path d="M159.92 125.241C159.92 125.503 159.716 125.817 159.46 125.974C159.204 126.131 159 126.027 159 125.765C159 125.503 159.204 125.188 159.46 125.031C159.716 124.874 159.92 124.978 159.92 125.241Z" fill="#9FFFFA"/>
<path d="M164.321 122.647C164.321 122.909 164.116 123.223 163.86 123.381C163.605 123.538 163.4 123.433 163.4 123.171C163.4 122.909 163.605 122.594 163.86 122.437C164.116 122.28 164.321 122.385 164.321 122.647Z" fill="#368781"/>
<path d="M146.694 136.744C146.694 137.006 146.49 137.321 146.234 137.478C145.978 137.635 145.773 137.531 145.773 137.269C145.773 137.006 145.978 136.692 146.234 136.535C146.49 136.378 146.694 136.482 146.694 136.744Z" fill="#368781"/>
<path d="M151.095 134.151C151.095 134.413 150.891 134.727 150.635 134.884C150.379 135.042 150.174 134.937 150.174 134.675C150.174 134.413 150.379 134.098 150.635 133.941C150.891 133.784 151.095 133.889 151.095 134.151Z" fill="#9FFFFA"/>
<path d="M155.495 131.555C155.495 131.817 155.29 132.131 155.034 132.289C154.778 132.446 154.574 132.341 154.574 132.079C154.574 131.817 154.778 131.503 155.034 131.345C155.29 131.188 155.495 131.293 155.495 131.555Z" fill="#9FFFFA"/>
<path d="M159.92 128.936C159.92 129.198 159.716 129.512 159.46 129.67C159.204 129.827 159 129.722 159 129.46C159 129.198 159.204 128.883 159.46 128.726C159.716 128.569 159.92 128.674 159.92 128.936Z" fill="#368781"/>
<path d="M164.321 126.34C164.321 126.602 164.116 126.917 163.86 127.074C163.605 127.231 163.4 127.126 163.4 126.864C163.4 126.602 163.605 126.288 163.86 126.131C164.116 125.973 164.321 126.078 164.321 126.34Z" fill="#9FFFFA"/>
<path d="M132.535 111.695C132.682 111.582 132.636 111.265 132.432 110.988C132.228 110.71 131.944 110.577 131.797 110.69C131.65 110.803 131.696 111.12 131.9 111.397C132.104 111.675 132.388 111.808 132.535 111.695Z" fill="#368781"/>
<path d="M127.303 108.338C127.303 108.6 127.507 108.915 127.763 109.072C128.019 109.229 128.224 109.124 128.224 108.862C128.224 108.6 128.019 108.286 127.763 108.129C127.507 107.971 127.303 108.076 127.303 108.338Z" fill="#9FFFFA"/>
<path d="M123.701 106.517C123.848 106.404 123.802 106.087 123.598 105.81C123.394 105.532 123.11 105.399 122.963 105.512C122.816 105.625 122.862 105.942 123.066 106.219C123.27 106.497 123.554 106.63 123.701 106.517Z" fill="#368781"/>
<path d="M118.478 103.123C118.478 103.385 118.683 103.7 118.939 103.857C119.194 104.014 119.399 103.909 119.399 103.647C119.399 103.385 119.194 103.071 118.939 102.914C118.683 102.756 118.478 102.861 118.478 103.123Z" fill="#368781"/>
<path d="M114.077 100.53C114.077 100.792 114.282 101.106 114.538 101.263C114.793 101.421 114.998 101.316 114.998 101.054C114.998 100.792 114.793 100.477 114.538 100.32C114.282 100.163 114.077 100.268 114.077 100.53Z" fill="#9FFFFA"/>
<path d="M131.704 114.627C131.704 114.889 131.908 115.204 132.164 115.361C132.42 115.518 132.625 115.413 132.625 115.151C132.625 114.889 132.42 114.575 132.164 114.418C131.908 114.26 131.704 114.365 131.704 114.627Z" fill="#368781"/>
<path d="M127.303 112.034C127.303 112.296 127.507 112.61 127.763 112.767C128.019 112.924 128.224 112.82 128.224 112.558C128.224 112.296 128.019 111.981 127.763 111.824C127.507 111.667 127.303 111.771 127.303 112.034Z" fill="#9FFFFA"/>
<path d="M122.877 109.412C122.877 109.674 123.082 109.989 123.338 110.146C123.594 110.303 123.798 110.199 123.798 109.936C123.798 109.674 123.594 109.36 123.338 109.203C123.082 109.046 122.877 109.15 122.877 109.412Z" fill="#368781"/>
<path d="M118.478 106.819C118.478 107.081 118.683 107.395 118.939 107.552C119.194 107.71 119.399 107.605 119.399 107.343C119.399 107.081 119.194 106.766 118.939 106.609C118.683 106.452 118.478 106.557 118.478 106.819Z" fill="#368781"/>
<path d="M114.077 104.198C114.077 104.46 114.282 104.774 114.538 104.931C114.793 105.089 114.998 104.984 114.998 104.722C114.998 104.46 114.793 104.145 114.538 103.988C114.282 103.831 114.077 103.936 114.077 104.198Z" fill="#368781"/>
<path d="M131.704 118.323C131.704 118.585 131.908 118.899 132.164 119.056C132.42 119.214 132.625 119.109 132.625 118.847C132.625 118.585 132.42 118.27 132.164 118.113C131.908 117.956 131.704 118.061 131.704 118.323Z" fill="#368781"/>
<path d="M128.133 116.488C128.28 116.375 128.234 116.058 128.03 115.781C127.826 115.503 127.542 115.37 127.395 115.483C127.248 115.596 127.295 115.913 127.498 116.19C127.702 116.468 127.987 116.601 128.133 116.488Z" fill="#9FFFFA"/>
<path d="M122.877 113.108C122.877 113.37 123.082 113.684 123.338 113.841C123.594 113.999 123.798 113.894 123.798 113.632C123.798 113.37 123.594 113.055 123.338 112.898C123.082 112.741 122.877 112.846 122.877 113.108Z" fill="#9FFFFA"/>
<path d="M119.299 111.281C119.446 111.168 119.4 110.851 119.196 110.574C118.992 110.296 118.708 110.163 118.561 110.276C118.414 110.389 118.461 110.705 118.664 110.983C118.868 111.261 119.153 111.394 119.299 111.281Z" fill="#9FFFFA"/>
<path d="M114.077 107.893C114.077 108.155 114.282 108.469 114.538 108.627C114.793 108.784 114.998 108.679 114.998 108.417C114.998 108.155 114.793 107.84 114.538 107.683C114.282 107.526 114.077 107.631 114.077 107.893Z" fill="#368781"/>
<path d="M131.704 122.018C131.704 122.28 131.908 122.594 132.164 122.752C132.42 122.909 132.625 122.804 132.625 122.542C132.625 122.28 132.42 121.965 132.164 121.808C131.908 121.651 131.704 121.756 131.704 122.018Z" fill="#9FFFFA"/>
<path d="M127.303 119.397C127.303 119.659 127.507 119.973 127.763 120.131C128.019 120.288 128.224 120.183 128.224 119.921C128.224 119.659 128.019 119.344 127.763 119.187C127.507 119.03 127.303 119.135 127.303 119.397Z" fill="#9FFFFA"/>
<path d="M122.877 116.803C122.877 117.065 123.082 117.38 123.338 117.537C123.594 117.694 123.798 117.589 123.798 117.327C123.798 117.065 123.594 116.751 123.338 116.593C123.082 116.436 122.877 116.541 122.877 116.803Z" fill="#9FFFFA"/>
<path d="M118.478 114.182C118.478 114.444 118.683 114.758 118.939 114.916C119.194 115.073 119.399 114.968 119.399 114.706C119.399 114.444 119.194 114.13 118.939 113.972C118.683 113.815 118.478 113.92 118.478 114.182Z" fill="#9FFFFA"/>
<path d="M114.077 111.588C114.077 111.85 114.282 112.165 114.538 112.322C114.793 112.479 114.998 112.374 114.998 112.112C114.998 111.85 114.793 111.536 114.538 111.379C114.282 111.221 114.077 111.326 114.077 111.588Z" fill="#368781"/>
<path d="M132.546 126.472C132.693 126.359 132.647 126.042 132.443 125.765C132.239 125.487 131.955 125.354 131.808 125.467C131.661 125.58 131.708 125.897 131.912 126.174C132.115 126.452 132.4 126.585 132.546 126.472Z" fill="#9FFFFA"/>
<path d="M127.303 123.092C127.303 123.354 127.507 123.669 127.763 123.826C128.019 123.983 128.224 123.878 128.224 123.616C128.224 123.354 128.019 123.04 127.763 122.882C127.507 122.725 127.303 122.83 127.303 123.092Z" fill="#9FFFFA"/>
<path d="M123.711 121.267C123.858 121.154 123.812 120.837 123.608 120.56C123.404 120.282 123.12 120.149 122.973 120.262C122.827 120.375 122.873 120.692 123.077 120.969C123.28 121.247 123.565 121.38 123.711 121.267Z" fill="#9FFFFA"/>
<path d="M118.478 117.877C118.478 118.139 118.683 118.454 118.939 118.611C119.194 118.768 119.399 118.663 119.399 118.401C119.399 118.139 119.194 117.825 118.939 117.668C118.683 117.51 118.478 117.615 118.478 117.877Z" fill="#368781"/>
<path d="M114.077 115.282C114.077 115.544 114.282 115.858 114.538 116.015C114.793 116.172 114.998 116.068 114.998 115.806C114.998 115.544 114.793 115.229 114.538 115.072C114.282 114.915 114.077 115.02 114.077 115.282Z" fill="#368781"/>
<path d="M131.704 129.381C131.704 129.643 131.908 129.958 132.164 130.115C132.42 130.272 132.625 130.167 132.625 129.905C132.625 129.643 132.42 129.329 132.164 129.172C131.908 129.014 131.704 129.119 131.704 129.381Z" fill="#9FFFFA"/>
<path d="M127.303 126.785C127.303 127.047 127.507 127.362 127.763 127.519C128.019 127.676 128.224 127.572 128.224 127.31C128.224 127.048 128.019 126.733 127.763 126.576C127.507 126.419 127.303 126.523 127.303 126.785Z" fill="#9FFFFA"/>
<path d="M122.877 124.166C122.877 124.428 123.082 124.743 123.338 124.9C123.594 125.057 123.798 124.952 123.798 124.69C123.798 124.428 123.594 124.114 123.338 123.957C123.082 123.799 122.877 123.904 122.877 124.166Z" fill="#9FFFFA"/>
<path d="M118.478 121.573C118.478 121.835 118.683 122.149 118.939 122.306C119.194 122.464 119.399 122.359 119.399 122.097C119.399 121.835 119.194 121.52 118.939 121.363C118.683 121.206 118.478 121.311 118.478 121.573Z" fill="#9FFFFA"/>
<path d="M114.077 118.951C114.077 119.214 114.282 119.528 114.538 119.685C114.793 119.842 114.998 119.738 114.998 119.476C114.998 119.214 114.793 118.899 114.538 118.742C114.282 118.585 114.077 118.689 114.077 118.951Z" fill="#9FFFFA"/>
<path d="M131.704 133.075C131.704 133.337 131.908 133.651 132.164 133.808C132.42 133.965 132.625 133.861 132.625 133.599C132.625 133.337 132.42 133.022 132.164 132.865C131.908 132.708 131.704 132.812 131.704 133.075Z" fill="#9FFFFA"/>
<path d="M128.145 131.238C128.291 131.125 128.245 130.808 128.041 130.531C127.837 130.253 127.553 130.12 127.406 130.233C127.26 130.346 127.306 130.663 127.51 130.94C127.714 131.218 127.998 131.351 128.145 131.238Z" fill="#9FFFFA"/>
<path d="M122.877 127.86C122.877 128.122 123.082 128.436 123.338 128.593C123.594 128.751 123.798 128.646 123.798 128.384C123.798 128.122 123.594 127.807 123.338 127.65C123.082 127.493 122.877 127.598 122.877 127.86Z" fill="#9FFFFA"/>
<path d="M119.311 126.033C119.457 125.92 119.411 125.603 119.207 125.325C119.003 125.048 118.719 124.915 118.572 125.028C118.426 125.141 118.472 125.457 118.676 125.735C118.88 126.013 119.164 126.146 119.311 126.033Z" fill="#9FFFFA"/>
<path d="M114.077 122.647C114.077 122.909 114.282 123.223 114.538 123.381C114.793 123.538 114.998 123.433 114.998 123.171C114.998 122.909 114.793 122.594 114.538 122.437C114.282 122.28 114.077 122.385 114.077 122.647Z" fill="#9FFFFA"/>
<path d="M131.704 136.744C131.704 137.006 131.908 137.321 132.164 137.478C132.42 137.635 132.625 137.531 132.625 137.269C132.625 137.006 132.42 136.692 132.164 136.535C131.908 136.378 131.704 136.482 131.704 136.744Z" fill="#9FFFFA"/>
<path d="M127.303 134.151C127.303 134.413 127.507 134.727 127.763 134.884C128.019 135.042 128.224 134.937 128.224 134.675C128.224 134.413 128.019 134.098 127.763 133.941C127.507 133.784 127.303 133.889 127.303 134.151Z" fill="#9FFFFA"/>
<path d="M122.877 131.555C122.877 131.817 123.082 132.131 123.338 132.289C123.594 132.446 123.798 132.341 123.798 132.079C123.798 131.817 123.594 131.503 123.338 131.345C123.082 131.188 122.877 131.293 122.877 131.555Z" fill="#9FFFFA"/>
<path d="M118.478 128.936C118.478 129.198 118.683 129.512 118.939 129.67C119.194 129.827 119.399 129.722 119.399 129.46C119.399 129.198 119.194 128.883 118.939 128.726C118.683 128.569 118.478 128.674 118.478 128.936Z" fill="#368781"/>
<path d="M114.077 126.34C114.077 126.602 114.282 126.917 114.538 127.074C114.793 127.231 114.998 127.126 114.998 126.864C114.998 126.602 114.793 126.288 114.538 126.131C114.282 125.973 114.077 126.078 114.077 126.34Z" fill="#9FFFFA"/>
<path d="M148.1 88.5784L139.172 93.8454L130.244 88.5784L139.172 83.2852L148.1 88.5784Z" fill="url(#paint18_linear_48_4245)"/>
<path style="mix-blend-mode:color-dodge" d="M139.198 94.4231C144.68 94.4231 149.124 91.7951 149.124 88.5533C149.124 85.3116 144.68 82.6836 139.198 82.6836C133.716 82.6836 129.272 85.3116 129.272 88.5533C129.272 91.7951 133.716 94.4231 139.198 94.4231Z" fill="url(#paint19_radial_48_4245)"/>
<path d="M138.13 0V89.4085C138.13 89.553 138.285 89.7155 138.567 89.8239C139.132 90.0587 140.057 90.0587 140.622 89.8239C140.905 89.7155 141.059 89.553 141.059 89.4085V0H138.13Z" fill="url(#paint20_linear_48_4245)" style="mix-blend-mode:color-dodge"/>
<defs>
<linearGradient id="paint0_linear_48_4245" x1="197.192" y1="60.7948" x2="185.712" y2="71.2845" gradientUnits="userSpaceOnUse">
<stop stop-color="#A45CFF"/>
<stop offset="1" stop-color="#3C0CFF"/>
</linearGradient>
<radialGradient id="paint1_radial_48_4245" cx="0" cy="0" r="1" gradientUnits="userSpaceOnUse" gradientTransform="translate(251.21 26.0603) rotate(-30.5997) scale(8.11035 7.13617)">
<stop stop-color="#00BDFC"/>
<stop offset="0.17" stop-color="#008BBA"/>
<stop offset="0.34" stop-color="#006181"/>
<stop offset="0.49" stop-color="#003E53"/>
<stop offset="0.64" stop-color="#00232F"/>
<stop offset="0.78" stop-color="#000F15"/>
<stop offset="0.9" stop-color="#000405"/>
<stop offset="1"/>
</radialGradient>
<linearGradient id="paint2_linear_48_4245" x1="188.414" y1="63.5742" x2="188.414" y2="27.797" gradientUnits="userSpaceOnUse">
<stop stop-color="#00BFFF"/>
<stop offset="1" stop-color="#00BFFF" stop-opacity="0"/>
</linearGradient>
<linearGradient id="paint3_linear_48_4245" x1="98.5978" y1="60.7948" x2="87.1195" y2="71.2681" gradientUnits="userSpaceOnUse">
<stop stop-color="#A45CFF"/>
<stop offset="1" stop-color="#3C0CFF"/>
</linearGradient>
<radialGradient id="paint4_radial_48_4245" cx="0" cy="0" r="1" gradientUnits="userSpaceOnUse" gradientTransform="translate(177.465 11.3647) rotate(-30.5997) scale(8.11036 7.13617)">
<stop stop-color="#00BDFC"/>
<stop offset="0.17" stop-color="#008BBA"/>
<stop offset="0.34" stop-color="#006181"/>
<stop offset="0.49" stop-color="#003E53"/>
<stop offset="0.64" stop-color="#00232F"/>
<stop offset="0.78" stop-color="#000F15"/>
<stop offset="0.9" stop-color="#000405"/>
<stop offset="1"/>
</radialGradient>
<linearGradient id="paint5_linear_48_4245" x1="89.8119" y1="63.5742" x2="89.8119" y2="27.797" gradientUnits="userSpaceOnUse">
<stop stop-color="#00BFFF"/>
<stop offset="1" stop-color="#00BFFF" stop-opacity="0"/>
</linearGradient>
<linearGradient id="paint6_linear_48_4245" x1="197.192" y1="168.212" x2="185.686" y2="178.699" gradientUnits="userSpaceOnUse">
<stop stop-color="#A45CFF"/>
<stop offset="1" stop-color="#3C0CFF"/>
</linearGradient>
<radialGradient id="paint7_radial_48_4245" cx="0" cy="0" r="1" gradientUnits="userSpaceOnUse" gradientTransform="translate(206.172 160.113) rotate(-30.5997) scale(1.47999 1.30222)">
<stop stop-color="#00BDFC"/>
<stop offset="0.17" stop-color="#008BBA"/>
<stop offset="0.34" stop-color="#006181"/>
<stop offset="0.49" stop-color="#003E53"/>
<stop offset="0.64" stop-color="#00232F"/>
<stop offset="0.78" stop-color="#000F15"/>
<stop offset="0.9" stop-color="#000405"/>
<stop offset="1"/>
</radialGradient>
<linearGradient id="paint8_linear_48_4245" x1="188.414" y1="171.551" x2="188.414" y2="133.84" gradientUnits="userSpaceOnUse">
<stop stop-color="#00BFFF"/>
<stop offset="1" stop-color="#00BFFF" stop-opacity="0"/>
</linearGradient>
<linearGradient id="paint9_linear_48_4245" x1="249.738" y1="114.388" x2="238.234" y2="124.859" gradientUnits="userSpaceOnUse">
<stop stop-color="#A45CFF"/>
<stop offset="1" stop-color="#3C0CFF"/>
</linearGradient>
<radialGradient id="paint10_radial_48_4245" cx="0" cy="0" r="1" gradientUnits="userSpaceOnUse" gradientTransform="translate(268.045 100.767) rotate(-30.5997) scale(8.11035 7.13617)">
<stop stop-color="#00BDFC"/>
<stop offset="0.17" stop-color="#008BBA"/>
<stop offset="0.34" stop-color="#006181"/>
<stop offset="0.49" stop-color="#003E53"/>
<stop offset="0.64" stop-color="#00232F"/>
<stop offset="0.78" stop-color="#000F15"/>
<stop offset="0.9" stop-color="#000405"/>
<stop offset="1"/>
</radialGradient>
<linearGradient id="paint11_linear_48_4245" x1="241.132" y1="117.482" x2="241.132" y2="73.9694" gradientUnits="userSpaceOnUse">
<stop stop-color="#00BFFF"/>
<stop offset="1" stop-color="#00BFFF" stop-opacity="0"/>
</linearGradient>
<linearGradient id="paint12_linear_48_4245" x1="41.347" y1="114.388" x2="29.8412" y2="124.875" gradientUnits="userSpaceOnUse">
<stop stop-color="#A45CFF"/>
<stop offset="1" stop-color="#3C0CFF"/>
</linearGradient>
<radialGradient id="paint13_radial_48_4245" cx="0" cy="0" r="1" gradientUnits="userSpaceOnUse" gradientTransform="translate(112.149 69.721) rotate(-30.5997) scale(8.11036 7.13617)">
<stop stop-color="#00BDFC"/>
<stop offset="0.17" stop-color="#008BBA"/>
<stop offset="0.34" stop-color="#006181"/>
<stop offset="0.49" stop-color="#003E53"/>
<stop offset="0.64" stop-color="#00232F"/>
<stop offset="0.78" stop-color="#000F15"/>
<stop offset="0.9" stop-color="#000405"/>
<stop offset="1"/>
</radialGradient>
<linearGradient id="paint14_linear_48_4245" x1="32.2137" y1="117.482" x2="32.2137" y2="73.9694" gradientUnits="userSpaceOnUse">
<stop stop-color="#00BFFF"/>
<stop offset="1" stop-color="#00BFFF" stop-opacity="0"/>
</linearGradient>
<linearGradient id="paint15_linear_48_4245" x1="98.5978" y1="168.212" x2="87.0935" y2="178.683" gradientUnits="userSpaceOnUse">
<stop stop-color="#A45CFF"/>
<stop offset="1" stop-color="#3C0CFF"/>
</linearGradient>
<radialGradient id="paint16_radial_48_4245" cx="0" cy="0" r="1" gradientUnits="userSpaceOnUse" gradientTransform="translate(132.427 145.417) rotate(-30.5997) scale(8.11036 7.13617)">
<stop stop-color="#00BDFC"/>
<stop offset="0.17" stop-color="#008BBA"/>
<stop offset="0.34" stop-color="#006181"/>
<stop offset="0.49" stop-color="#003E53"/>
<stop offset="0.64" stop-color="#00232F"/>
<stop offset="0.78" stop-color="#000F15"/>
<stop offset="0.9" stop-color="#000405"/>
<stop offset="1"/>
</radialGradient>
<linearGradient id="paint17_linear_48_4245" x1="89.8119" y1="171.551" x2="89.8119" y2="133.84" gradientUnits="userSpaceOnUse">
<stop stop-color="#00BFFF"/>
<stop offset="1" stop-color="#00BFFF" stop-opacity="0"/>
</linearGradient>
<linearGradient id="paint18_linear_48_4245" x1="148.1" y1="86.0869" x2="136.595" y2="96.5742" gradientUnits="userSpaceOnUse">
<stop stop-color="#A45CFF"/>
<stop offset="1" stop-color="#3C0CFF"/>
</linearGradient>
<radialGradient id="paint19_radial_48_4245" cx="0" cy="0" r="1" gradientUnits="userSpaceOnUse" gradientTransform="translate(203.879 50.3301) rotate(-30.5997) scale(8.11036 7.13617)">
<stop stop-color="#00BDFC"/>
<stop offset="0.17" stop-color="#008BBA"/>
<stop offset="0.34" stop-color="#006181"/>
<stop offset="0.49" stop-color="#003E53"/>
<stop offset="0.64" stop-color="#00232F"/>
<stop offset="0.78" stop-color="#000F15"/>
<stop offset="0.9" stop-color="#000405"/>
<stop offset="1"/>
</radialGradient>
<linearGradient id="paint20_linear_48_4245" x1="139.602" y1="88.9642" x2="139.602" y2="1.93876" gradientUnits="userSpaceOnUse">
<stop stop-color="#00BFFF"/>
<stop offset="1" stop-color="#00BFFF" stop-opacity="0"/>
</linearGradient>
</defs>
</svg>
