<svg width="189" height="179" viewBox="0 0 189 179" fill="none" xmlns="http://www.w3.org/2000/svg">
<path d="M56.9151 116.559L0.331223 149.913C-0.110408 150.176 -0.110408 150.833 0.331223 151.115L43.8502 176.769C45.2303 177.577 46.8128 178.009 48.4138 178.009H94.601L77.0277 115H62.6563C60.6322 115 58.6633 115.545 56.9151 116.578V116.559Z" fill="#B3B9CF" fill-opacity="0.13"/>
<path d="M103.041 76.6064L99.6479 74.669L106.581 70.7324L109.995 72.6698L103.041 76.6064Z" fill="#E5ECF8"/>
<path d="M103.041 107.708L99.6479 105.771V74.6699L103.041 76.6073V107.708Z" fill="#A2ACBD"/>
<path d="M109.995 103.771L103.041 107.707V76.6065L109.995 72.6699V103.771Z" fill="#BBC2CD"/>
<path d="M111.335 81.3056L107.921 79.3682L114.854 75.4316L118.268 77.369L111.335 81.3056Z" fill="#E5ECF8"/>
<path d="M111.335 112.428L107.921 110.491V79.3691L111.335 81.3065V112.428Z" fill="#A2ACBD"/>
<path d="M118.268 108.47L111.335 112.427V81.3057L118.268 77.3691V108.47Z" fill="#BBC2CD"/>
<path d="M119.608 86.0048L116.215 84.088L123.148 80.1309L126.541 82.0682L119.608 86.0048Z" fill="#E5ECF8"/>
<path d="M119.608 117.126L116.215 115.189V84.0879L119.608 86.0046V117.126Z" fill="#A2ACBD"/>
<path d="M126.541 113.19L119.608 117.126V86.0049L126.541 82.0684V113.19Z" fill="#BBC2CD"/>
<path d="M127.882 90.7235L124.489 88.7862L131.422 84.8496L134.836 86.7664L127.882 90.7235Z" fill="#E5ECF8"/>
<path d="M127.882 121.825L124.489 119.888V88.7871L127.882 90.7245V121.825Z" fill="#A2ACBD"/>
<path d="M134.836 117.887L127.882 121.824V90.7228L134.836 86.7656V117.887Z" fill="#BBC2CD"/>
<path d="M136.176 95.4228L132.762 93.4854L139.716 89.5488L143.109 91.4862L136.176 95.4228Z" fill="#E5ECF8"/>
<path d="M136.176 126.525L132.762 124.608V93.4863L136.176 95.4237V126.525Z" fill="#A2ACBD"/>
<path d="M143.109 122.587L136.176 126.524V95.4229L143.109 91.4863V122.587Z" fill="#BBC2CD"/>
<path d="M144.449 100.122L141.056 98.1846L147.989 94.248L151.403 96.1854L144.449 100.122Z" fill="#E5ECF8"/>
<path d="M144.449 131.244L141.056 129.307V98.1855L144.449 100.123V131.244Z" fill="#A2ACBD"/>
<path d="M151.403 127.286L144.449 131.244V100.122L151.403 96.1855V127.286Z" fill="#BBC2CD"/>
<path d="M152.743 104.842L149.329 102.904L156.262 98.9473L159.676 100.885L152.743 104.842Z" fill="#E5ECF8"/>
<path d="M152.743 135.943L149.329 134.005V102.904L152.743 104.842V135.943Z" fill="#A2ACBD"/>
<path d="M159.676 132.006L152.743 135.943V104.842L159.676 100.885V132.006Z" fill="#BBC2CD"/>
<path d="M161.017 109.542L157.603 107.605L164.556 103.668L167.949 105.605L161.017 109.542Z" fill="#E5ECF8"/>
<path d="M161.017 140.644L157.603 138.706V107.605L161.017 109.543V140.644Z" fill="#A2ACBD"/>
<path d="M167.949 136.706L161.017 140.643V109.542L167.949 105.605V136.706Z" fill="#BBC2CD"/>
<path d="M100.444 143.941L39.0752 109.089L99.669 74.6699L161.017 109.522L100.444 143.941Z" fill="#E5ECF8"/>
<path d="M100.444 175.063L39.0752 140.191V109.09L100.444 143.942V175.063Z" fill="#A2ACBD"/>
<path d="M161.017 140.643L100.444 175.062V143.941L161.017 109.521V140.643Z" fill="#BBC2CD"/>
<path d="M35.5564 114.942L32.1633 113.005L39.0961 109.068L42.5101 111.006L35.5564 114.942Z" fill="#E5ECF8"/>
<path d="M35.5564 146.065L32.1633 144.127V113.006L35.5564 114.943V146.065Z" fill="#A2ACBD"/>
<path d="M42.5101 142.107L35.5564 146.064V114.942L42.5101 111.006V142.107Z" fill="#BBC2CD"/>
<path d="M43.8506 119.642L40.4365 117.725L47.3693 113.768L50.7833 115.705L43.8506 119.642Z" fill="#E5ECF8"/>
<path d="M43.8506 150.763L40.4365 148.826V117.725L43.8506 119.641V150.763Z" fill="#A2ACBD"/>
<path d="M50.7834 146.827L43.8506 150.763V119.642L50.7834 115.705V146.827Z" fill="#BBC2CD"/>
<path d="M52.124 124.36L48.71 122.423L55.6637 118.486L59.0568 120.403L52.124 124.36Z" fill="#E5ECF8"/>
<path d="M52.124 155.462L48.71 153.525V122.424L52.124 124.361V155.462Z" fill="#A2ACBD"/>
<path d="M59.0568 151.524L52.124 155.46V124.36L59.0568 120.402V151.524Z" fill="#BBC2CD"/>
<path d="M60.3972 129.059L57.0042 127.122L63.9369 123.186L67.351 125.123L60.3972 129.059Z" fill="#E5ECF8"/>
<path d="M60.3972 160.161L57.0042 158.245V127.123L60.3972 129.06V160.161Z" fill="#A2ACBD"/>
<path d="M67.3509 156.224L60.3972 160.161V129.06L67.3509 125.123V156.224Z" fill="#BBC2CD"/>
<path d="M68.6914 133.759L65.2773 131.821L72.2311 127.885L75.6242 129.822L68.6914 133.759Z" fill="#E5ECF8"/>
<path d="M68.6914 164.881L65.2773 162.944V131.822L68.6914 133.76V164.881Z" fill="#A2ACBD"/>
<path d="M75.6242 160.923L68.6914 164.88V133.759L75.6242 129.822V160.923Z" fill="#BBC2CD"/>
<path d="M76.9646 138.479L73.5715 136.541L80.5043 132.584L83.8974 134.521L76.9646 138.479Z" fill="#E5ECF8"/>
<path d="M76.9646 169.579L73.5715 167.642V136.541L76.9646 138.478V169.579Z" fill="#A2ACBD"/>
<path d="M83.8974 165.643L76.9646 169.58V138.479L83.8974 134.521V165.643Z" fill="#BBC2CD"/>
<path d="M85.2588 143.179L81.8447 141.241L88.7775 137.305L92.1915 139.242L85.2588 143.179Z" fill="#E5ECF8"/>
<path d="M85.2588 174.281L81.8447 172.343V141.242L85.2588 143.18V174.281Z" fill="#A2ACBD"/>
<path d="M92.1916 170.343L85.2588 174.28V143.179L92.1916 139.242V170.343Z" fill="#BBC2CD"/>
<path d="M93.532 147.878L90.1179 145.94L97.0716 142.004L100.465 143.941L93.532 147.878Z" fill="#E5ECF8"/>
<path d="M93.532 179L90.1179 177.063V145.941L93.532 147.879V179Z" fill="#A2ACBD"/>
<path d="M100.465 175.042L93.532 179V147.878L100.465 143.941V175.042Z" fill="#BBC2CD"/>
<path opacity="0.9" d="M146.523 106.76L103.376 82.2542C101.324 81.1001 98.0142 81.0795 95.9826 82.2542L95.3123 82.6458L97.8467 82.2542C95.7941 81.1001 92.4847 81.0795 90.4531 82.2542L47.5788 106.781C45.5471 107.955 45.5471 109.831 47.5997 111.006L90.7463 135.511C91.7307 136.068 93.0084 136.356 94.286 136.377H99.8155C101.219 136.398 102.622 136.109 103.69 135.511L146.565 110.985C148.596 109.831 148.575 107.935 146.544 106.781L146.523 106.76Z" fill="#A2ACBD"/>
<path d="M125.515 91.6946L106.476 80.8742C102.182 78.4422 95.1657 78.4422 90.893 80.8948L72.1053 91.6328C62.8058 96.9502 62.8267 105.627 72.1263 110.924L91.1443 121.724C95.438 124.156 102.455 124.156 106.748 121.703L125.536 110.965C134.835 105.648 134.815 96.9708 125.515 91.674V91.6946Z" fill="#1B161E"/>
<path d="M72.8594 96.3319C77.7186 96.5586 87.6256 97.5891 95.4799 102.062L98.8102 100.165C98.8102 100.165 95.6684 93.7762 86.7878 88.7061C85.1122 87.758 82.536 87.5107 80.4624 88.1496C75.7498 89.5923 72.629 92.6633 71.0791 94.6006C70.4507 95.3632 71.3723 96.2495 72.8594 96.3319Z" fill="url(#paint0_linear_307_2)"/>
<path d="M72.9431 109.006C76.6713 107.213 84.9446 103.956 96.0664 103.956V101.277C96.0664 101.277 85.9081 98.0206 73.3201 98C70.9534 98 68.8379 98.8656 68.1677 100.143C66.6387 103.07 68.2724 106.491 69.55 108.47C70.0737 109.274 71.8121 109.521 72.9641 108.965L72.9431 109.006Z" fill="url(#paint1_linear_307_2)"/>
<path d="M88.7357 117.931C89.1336 115.169 90.9559 109.542 98.8102 105.07L95.48 103.174C95.48 103.174 84.2535 104.967 75.3309 109.996C73.6553 110.944 73.2364 112.407 74.3674 113.582C76.9227 116.261 82.3265 118.034 85.7196 118.92C87.081 119.27 88.631 118.755 88.7566 117.91L88.7357 117.931Z" fill="url(#paint2_linear_307_2)"/>
<path d="M111.042 117.89C107.879 115.768 102.161 111.068 102.161 104.762H97.4488C97.4488 104.762 91.7309 110.533 91.689 117.684C91.689 119.024 93.2179 120.219 95.48 120.611C100.612 121.477 106.644 120.549 110.141 119.828C111.545 119.539 112.006 118.55 111.021 117.89H111.042Z" fill="url(#paint3_linear_307_2)"/>
<path d="M126.751 108.903C121.892 108.677 111.985 107.646 104.13 103.174L100.8 105.07C100.8 105.07 103.942 111.459 112.822 116.529C114.477 117.477 117.074 117.725 119.148 117.086C123.86 115.643 126.981 112.572 128.531 110.635C129.16 109.872 128.238 108.986 126.751 108.903Z" fill="url(#paint4_linear_307_2)"/>
<path d="M126.688 96.2491C122.96 98.0422 114.686 101.299 103.565 101.299V103.978C103.565 103.978 113.723 107.234 126.311 107.255C128.678 107.255 130.793 106.389 131.463 105.112C132.992 102.185 131.359 98.7636 130.081 96.785C129.557 95.9812 127.819 95.7339 126.667 96.2904L126.688 96.2491Z" fill="url(#paint5_linear_307_2)"/>
<path d="M110.875 87.3037C110.477 90.0655 108.654 95.6921 100.8 100.165L104.13 102.061C104.13 102.061 115.357 100.268 124.279 95.2387C125.955 94.2906 126.374 92.8273 125.243 91.6525C122.688 88.9731 117.284 87.2007 113.891 86.3144C112.529 85.964 110.979 86.4793 110.854 87.3243L110.875 87.3037Z" fill="url(#paint6_linear_307_2)"/>
<path d="M88.589 87.3454C91.7517 89.4683 97.4697 94.1674 97.4697 100.474H102.182C102.182 100.474 107.9 94.7033 107.942 87.5515C107.942 86.2119 106.413 85.0165 104.151 84.6249C99.0196 83.7592 92.9875 84.6867 89.4897 85.4081C88.0864 85.6966 87.6256 86.6859 88.61 87.3454H88.589Z" fill="url(#paint7_linear_307_2)"/>
<path d="M104.025 96.4128V97.7525L111.105 86.829V85.4688L104.025 96.4128Z" fill="#BBC2CD"/>
<path d="M106.706 84.5423C102.161 83.7385 97.2812 83.7385 92.7361 84.5423C77.4882 87.2216 69.8852 94.2498 69.8643 101.278V102.618C69.8643 95.5688 77.4882 88.5407 92.7361 85.882C97.2603 85.0988 102.161 85.0782 106.706 85.882C107.502 86.0262 108.277 86.1705 109.031 86.3354V84.9957C108.277 84.8309 107.502 84.666 106.706 84.5423Z" fill="url(#paint8_linear_307_2)"/>
<path d="M120.928 89.2817C118.268 87.7565 114.98 86.458 111.105 85.4688V86.8084C114.98 87.7977 118.247 89.0962 120.928 90.6213C126.834 93.9808 129.788 98.3708 129.767 102.781V101.442C129.767 97.0517 126.834 92.6411 120.928 89.2817Z" fill="#A2ACBD"/>
<path d="M90.1809 101.71V103.05C90.1809 102.926 90.1599 102.782 90.1599 102.658V101.318C90.1599 101.442 90.1599 101.566 90.1809 101.71Z" fill="#9E9E9E"/>
<path d="M68.9426 104.368L70.5344 106.244L90.5788 104.307L91.0815 101.771L68.9426 104.368Z" fill="#BBC2CD"/>
<path d="M109.471 101.381V102.721C109.471 104.204 108.403 105.606 106.623 106.595V105.256C108.403 104.246 109.471 102.865 109.471 101.381Z" fill="#BBC2CD"/>
<path d="M101.449 106.781C98.2445 107.09 95.1447 106.451 93.0083 105.235C91.9191 104.617 91.0604 103.834 90.5996 102.947V104.287C91.0604 105.173 91.9191 105.956 93.0083 106.575C95.1447 107.791 98.2445 108.43 101.449 108.12C102.685 107.997 103.837 107.749 104.863 107.399V106.059C103.858 106.41 102.706 106.678 101.47 106.781H101.449Z" fill="#A2ACBD"/>
<path d="M104.863 106.059V107.398L117.891 116.364L117.912 115.003L104.863 106.059Z" fill="#A2ACBD"/>
<path d="M146.502 99.2578L103.355 74.7522C101.303 73.5774 97.9933 73.5774 95.9616 74.7522L53.0873 99.2785C51.0556 100.433 51.0556 102.329 53.1082 103.504L96.2549 128.009C98.3075 129.163 101.617 129.163 103.648 128.009L146.523 103.483C148.554 102.329 148.533 100.433 146.502 99.2785V99.2578ZM92.7361 84.5421C97.2602 83.7589 102.161 83.7383 106.706 84.5421C107.502 84.6864 108.277 84.8306 109.031 84.9955L101.91 96.0014C100.716 95.8571 99.4594 95.8159 98.1608 95.9396C93.2388 96.4136 89.8457 98.9281 90.1808 101.71L70.1365 103.648C68.2724 95.8777 75.7707 87.51 92.7361 84.5421ZM106.895 118.199C102.371 119.003 97.4697 119.003 92.9246 118.199C87.06 117.168 82.3265 115.499 78.703 113.438C74.4302 111.006 71.7074 108.038 70.5344 104.905L90.5997 102.968C91.0815 103.854 91.9193 104.637 93.0084 105.255C95.1448 106.471 98.2446 107.11 101.449 106.801C102.685 106.678 103.837 106.43 104.863 106.08L117.912 115.025C114.833 116.364 111.168 117.457 106.895 118.199ZM119.65 114.221L106.644 105.297C108.801 104.081 109.911 102.308 109.345 100.453C108.989 99.2785 108.026 98.2685 106.644 97.4854C105.89 97.0525 105.01 96.7022 104.046 96.4342L111.126 85.4902C115.001 86.4795 118.289 87.7779 120.949 89.3031C133.139 96.2281 132.72 107.626 119.671 114.221H119.65Z" fill="#E5ECF8"/>
<path d="M146.544 103.462L103.669 127.988C101.638 129.142 98.3076 129.142 96.2759 127.988L53.1293 103.482C52.103 102.905 51.5793 102.122 51.5793 101.359V108.903C51.5793 109.665 52.082 110.449 53.1293 111.026L96.2759 135.531C98.3285 136.685 101.638 136.685 103.669 135.531L146.544 111.005C147.549 110.428 148.052 109.665 148.052 108.923V101.38C148.052 102.143 147.549 102.885 146.544 103.462Z" fill="url(#paint9_linear_307_2)"/>
<path d="M144.449 101.978C143.842 102.329 142.836 102.329 142.208 101.978C141.58 101.628 141.601 101.051 142.208 100.7C142.815 100.35 143.821 100.35 144.449 100.7C145.057 101.051 145.057 101.628 144.449 101.978Z" fill="#271F2A"/>
<path d="M101.156 124.898C100.548 124.547 99.5431 124.547 98.9148 124.898C98.3074 125.248 98.3074 125.825 98.9148 126.175C99.5222 126.526 100.528 126.526 101.156 126.175C101.763 125.825 101.763 125.248 101.156 124.898Z" fill="#271F2A"/>
<path d="M101.156 76.2354C100.548 75.8851 99.5431 75.8851 98.9148 76.2354C98.3074 76.5858 98.3074 77.1629 98.9148 77.5133C99.5222 77.8636 100.528 77.8636 101.156 77.5133C101.763 77.1629 101.763 76.5858 101.156 76.2354Z" fill="#271F2A"/>
<path d="M58.1141 100.7C57.5067 100.35 56.5014 100.35 55.873 100.7C55.2656 101.051 55.2656 101.628 55.873 101.978C56.4804 102.329 57.4858 102.329 58.1141 101.978C58.7215 101.628 58.7215 101.051 58.1141 100.7Z" fill="#271F2A"/>
<path d="M146.502 79.5958L103.355 55.0902C101.303 53.936 97.9933 53.9154 95.9616 55.0902L53.0873 79.6164C51.0556 80.7912 51.0556 82.6668 53.1082 83.8415L96.2549 108.347C98.3075 109.501 101.617 109.501 103.648 108.347L146.523 83.8209C148.554 82.6668 148.533 80.7706 146.502 79.6164V79.5958Z" fill="#E5ECF8"/>
<path d="M99.9621 105.689C99.0614 105.689 98.3912 105.483 98.0561 105.297L58.0303 82.5639C57.36 82.1723 57.36 81.2243 58.0303 80.8533L97.7629 58.1201C98.098 57.9346 98.7682 57.7285 99.6688 57.7285C100.569 57.7285 101.261 57.9346 101.596 58.1407L141.622 80.8739C142.292 81.2449 142.292 82.2136 141.622 82.5845L101.889 105.318C101.554 105.503 100.863 105.709 99.983 105.709L99.9621 105.689Z" fill="url(#paint10_linear_307_2)"/>
<path d="M146.544 83.7995L103.669 108.326C101.638 109.501 98.3076 109.501 96.2759 108.326L53.1293 83.8201C52.103 83.243 51.5793 82.4598 51.5793 81.6973V85.0361C51.5793 85.7987 52.082 86.5819 53.1293 87.159L96.2759 111.665C98.3285 112.819 101.638 112.819 103.669 111.665L146.544 87.1384C147.549 86.5613 148.052 85.7987 148.052 85.0567V81.7179C148.052 82.4805 147.549 83.2224 146.544 83.7995Z" fill="url(#paint11_linear_307_2)"/>
<path d="M154.461 129.576L107.565 156.225V145.26L154.461 118.611V129.576Z" fill="#251E28"/>
<path d="M138.828 134.498L123.828 143V139.502L138.828 131V134.498Z" fill="#21C6FF"/>
<path d="M1.82812 0L57.5276 81.6988C57.5276 82.0285 57.6951 82.3583 58.0303 82.5438L98.0561 105.277C98.3912 105.462 99.0824 105.669 99.9621 105.669C100.842 105.669 101.533 105.462 101.868 105.277L141.601 82.5438C141.936 82.3583 142.103 82.0079 142.103 81.6781L188.662 0H1.82812Z" fill="url(#paint12_linear_307_2)" fill-opacity="0.3" style="mix-blend-mode:color-dodge"/>
<g clip-path="url(#clip0_307_2)">
<path d="M89.5286 44.3281V53.81V63.293V72.7761V82.258L99.2278 87.0007V77.5176V68.0358V58.5527V49.0697L89.5286 44.3281Z" fill="#050CB6"/>
<path d="M89.5286 53.8125L79.8281 49.0697V39.5879L89.5286 44.3294V53.8125Z" fill="#050CB6"/>
<path d="M79.8281 39.5871L89.5286 44.3286L108.828 34.8445L99.1277 30L79.8281 39.5871Z" fill="#5C7EFA"/>
<path d="M89.3984 44.3268V53.8099L99.1027 49.0696L99.1052 69.6856V77.4209V86.9676L108.802 82.2591V34.8438L89.3984 44.3268Z" fill="#3138E2"/>
</g>
<defs>
<linearGradient id="paint0_linear_307_2" x1="89.6154" y1="90.8908" x2="85.0239" y2="97.494" gradientUnits="userSpaceOnUse">
<stop stop-color="#2F2734"/>
<stop offset="1" stop-color="#251E28"/>
</linearGradient>
<linearGradient id="paint1_linear_307_2" x1="81.6772" y1="98.2885" x2="81.88" y2="105.379" gradientUnits="userSpaceOnUse">
<stop stop-color="#2F2734"/>
<stop offset="1" stop-color="#251E28"/>
</linearGradient>
<linearGradient id="paint2_linear_307_2" x1="81.7191" y1="106.636" x2="90.7296" y2="112.206" gradientUnits="userSpaceOnUse">
<stop stop-color="#2F2734"/>
<stop offset="1" stop-color="#251E28"/>
</linearGradient>
<linearGradient id="paint3_linear_307_2" x1="93.3646" y1="113.006" x2="103.774" y2="112.729" gradientUnits="userSpaceOnUse">
<stop stop-color="#2F2734"/>
<stop offset="1" stop-color="#251E28"/>
</linearGradient>
<linearGradient id="paint4_linear_307_2" x1="110.246" y1="114.86" x2="114.727" y2="107.54" gradientUnits="userSpaceOnUse">
<stop stop-color="#2F2734"/>
<stop offset="1" stop-color="#251E28"/>
</linearGradient>
<linearGradient id="paint5_linear_307_2" x1="119.692" y1="107.708" x2="116.904" y2="99.7657" gradientUnits="userSpaceOnUse">
<stop stop-color="#2F2734"/>
<stop offset="1" stop-color="#251E28"/>
</linearGradient>
<linearGradient id="paint6_linear_307_2" x1="118.813" y1="98.392" x2="79.6983" y2="79.2471" gradientUnits="userSpaceOnUse">
<stop stop-color="#2F2734"/>
<stop offset="1" stop-color="#251E28"/>
</linearGradient>
<linearGradient id="paint7_linear_307_2" x1="107.628" y1="88.6027" x2="95.6534" y2="93.1395" gradientUnits="userSpaceOnUse">
<stop stop-color="#2F2734"/>
<stop offset="1" stop-color="#251E28"/>
</linearGradient>
<linearGradient id="paint8_linear_307_2" x1="69.8433" y1="93.2811" x2="109.031" y2="93.2811" gradientUnits="userSpaceOnUse">
<stop stop-color="#BBC2CD"/>
<stop offset="1" stop-color="#A2ACBD"/>
</linearGradient>
<linearGradient id="paint9_linear_307_2" x1="91.7099" y1="118.878" x2="111.44" y2="118.878" gradientUnits="userSpaceOnUse">
<stop offset="0.4" stop-color="#A2ACBD"/>
<stop offset="0.58" stop-color="#BBC2CD"/>
</linearGradient>
<linearGradient id="paint10_linear_307_2" x1="142.124" y1="70.4581" x2="89.6909" y2="120.292" gradientUnits="userSpaceOnUse">
<stop stop-color="#A45CFF"/>
<stop offset="1" stop-color="#3C0CFF"/>
</linearGradient>
<linearGradient id="paint11_linear_307_2" x1="-3.33833" y1="97.1138" x2="-1.24383" y2="97.1138" gradientUnits="userSpaceOnUse">
<stop offset="0.4" stop-color="#A2ACBD"/>
<stop offset="0.58" stop-color="#BBC2CD"/>
</linearGradient>
<linearGradient id="paint12_linear_307_2" x1="100.828" y1="84.5" x2="100.579" y2="6.50001" gradientUnits="userSpaceOnUse">
<stop stop-color="#00BFFF" stop-opacity="0"/>
<stop offset="0.520833" stop-color="#00BFFF"/>
<stop offset="1" stop-color="#00BFFF" stop-opacity="0"/>
</linearGradient>
<clipPath id="clip0_307_2">
<rect width="29" height="57" fill="white" transform="translate(79.8281 30)"/>
</clipPath>
</defs>
</svg>
