<svg width="48" height="48" viewBox="0 0 48 48" fill="none" xmlns="http://www.w3.org/2000/svg">
<path fill-rule="evenodd" clip-rule="evenodd" d="M24 2.00391C22.9484 2.00391 21.9154 2.28028 21.0043 2.80528L14.6112 6.45844C14.1922 6.54173 13.8013 6.75821 13.5067 7.08961L7.00771 10.8033L7 10.8078C6.25899 11.2356 5.62007 11.8157 5.12406 12.5074C5.00436 12.6276 4.89809 12.7651 4.80916 12.9188C4.7326 13.0512 4.6729 13.1886 4.62939 13.3287C4.21712 14.1564 4.00095 15.0698 4 15.9978V32.0019C4.00108 33.054 4.27883 34.0874 4.80538 34.9984C5.33194 35.9093 6.08879 36.6658 7 37.1919L7.00772 37.1963L21 45.1919L21.0037 45.194C21.638 45.5596 22.3314 45.8047 23.049 45.9199C23.3318 46.073 23.6558 46.16 24 46.16C24.3442 46.16 24.6682 46.073 24.951 45.9199C25.6687 45.8046 26.3621 45.5595 26.9964 45.1939L27 45.1919L40.9923 37.1963L41 37.1919C41.9112 36.6658 42.6681 35.9093 43.1946 34.9984C43.7212 34.0874 43.9989 33.054 44 32.0019V15.9978C43.9991 15.0712 43.7836 14.1593 43.3726 13.3326C43.329 13.1912 43.2689 13.0524 43.1916 12.9188C43.102 12.7639 42.9948 12.6256 42.8741 12.5048C42.3783 11.8143 41.7401 11.235 41 10.8077L27 2.80775L26.9958 2.80535C26.0847 2.2803 25.0516 2.00391 24 2.00391ZM26 41.1563L39 33.7278L39.0032 33.7259C39.3055 33.5506 39.5566 33.2992 39.7315 32.9966C39.9071 32.6929 39.9996 32.3485 40 31.9978V17.0755L26 25.1741V41.1563ZM22 25.1736L8 17.0751V31.9986C8.00051 32.349 8.09308 32.6932 8.26846 32.9966C8.44337 33.2992 8.69452 33.5506 8.99685 33.7259L9 33.7278L22 41.1563V25.1736ZM25 6.27187L37.9226 13.6562L33.0108 16.4975L19.1216 8.48813L22.9923 6.27631L23 6.27186C23.304 6.09632 23.6489 6.00391 24 6.00391C24.3511 6.00391 24.6959 6.09634 25 6.27187ZM24.0004 21.7097L29.0134 18.8099L15.0997 10.7863L10.0778 13.656L24.0004 21.7097Z" fill="url(#paint0_linear_48_5516)"/>
<defs>
<linearGradient id="paint0_linear_48_5516" x1="23.9999" y1="46.118" x2="23.9999" y2="2.00391" gradientUnits="userSpaceOnUse">
<stop stop-color="#3E0DFF"/>
<stop offset="1" stop-color="#7AE691"/>
</linearGradient>
</defs>
</svg>
