<svg width="56" height="56" viewBox="0 0 56 56" fill="none" xmlns="http://www.w3.org/2000/svg">
<rect width="56" height="56" rx="4" fill="url(#paint0_linear_112_507)" fill-opacity="0.1"/>
<path d="M42.0625 17.7344H29.2656V15.9007C29.2648 15.1938 28.9835 14.516 28.4836 14.0161C27.9836 13.5162 27.3057 13.2351 26.5988 13.2344H15.9007C15.1938 13.2351 14.516 13.5163 14.0161 14.0161C13.5162 14.516 13.2351 15.1938 13.2344 15.9007V40.0987C13.2351 40.8058 13.5162 41.4836 14.0161 41.9836C14.5159 42.4836 15.1937 42.7649 15.9007 42.7657H26.5988C27.3058 42.7649 27.9837 42.4836 28.4836 41.9837C28.9836 41.4837 29.2649 40.8059 29.2657 40.0988V30.3906H42.0625C42.249 30.3906 42.4278 30.3165 42.5597 30.1847C42.6915 30.0528 42.7656 29.874 42.7656 29.6875V18.4375C42.7656 18.3452 42.7474 18.2537 42.7121 18.1684C42.6768 18.0831 42.625 18.0056 42.5597 17.9403C42.4944 17.875 42.4169 17.8232 42.3316 17.7879C42.2463 17.7526 42.1548 17.7344 42.0625 17.7344ZM26.5988 41.3594H15.9007C15.5665 41.3589 15.2462 41.2259 15.01 40.9896C14.7738 40.7532 14.6409 40.4329 14.6406 40.0987V38.2656H27.8593V40.0987C27.8588 40.4329 27.7259 40.7533 27.4896 40.9896C27.2532 41.2259 26.9329 41.3589 26.5987 41.3594H26.5988ZM27.8594 36.8594H14.6406V15.9007C14.641 15.5667 14.7739 15.2463 15.0101 15.0101C15.2463 14.7739 15.5667 14.641 15.9007 14.6406H26.5988C26.9329 14.641 27.2533 14.7738 27.4896 15.0101C27.7259 15.2463 27.8589 15.5666 27.8594 15.9007V17.7344H18.4375C18.3452 17.7344 18.2537 17.7526 18.1684 17.7879C18.0831 17.8232 18.0056 17.875 17.9403 17.9403C17.875 18.0056 17.8232 18.0831 17.7879 18.1684C17.7526 18.2537 17.7344 18.3452 17.7344 18.4375V29.6875C17.7344 29.7798 17.7526 29.8713 17.7879 29.9566C17.8232 30.0419 17.875 30.1194 17.9403 30.1847C18.0056 30.25 18.0831 30.3018 18.1684 30.3371C18.2537 30.3724 18.3452 30.3906 18.4375 30.3906H21.6719V33.625C21.6719 33.7641 21.7131 33.9 21.7904 34.0156C21.8676 34.1313 21.9774 34.2214 22.1059 34.2746C22.2344 34.3278 22.3758 34.3417 22.5121 34.3146C22.6485 34.2874 22.7738 34.2205 22.8721 34.1221L26.6036 30.3906H27.8594V36.8594ZM41.3594 28.9844H26.3125C26.126 28.9845 25.9472 29.0585 25.8154 29.1904L23.0781 31.9276V29.6875C23.0781 29.501 23.004 29.3222 22.8722 29.1903C22.7403 29.0585 22.5615 28.9844 22.375 28.9844H19.1406V19.1406H41.3594V28.9844Z" fill="url(#paint1_linear_112_507)"/>
<path d="M34.4429 25.5391C34.489 25.619 34.5505 25.6892 34.6237 25.7454C34.6969 25.8016 34.7805 25.8428 34.8697 25.8667C34.9589 25.8906 35.0519 25.8966 35.1435 25.8845C35.235 25.8724 35.3232 25.8424 35.4031 25.7961L36.2969 25.2801V26.3125C36.2969 26.499 36.371 26.6778 36.5028 26.8097C36.6347 26.9415 36.8135 27.0156 37 27.0156C37.1865 27.0156 37.3653 26.9415 37.4972 26.8097C37.629 26.6778 37.7031 26.499 37.7031 26.3125V25.2801L38.5969 25.7961C38.7582 25.8882 38.9495 25.9127 39.1288 25.8642C39.3082 25.8157 39.4611 25.6982 39.554 25.5373C39.6469 25.3764 39.6724 25.1853 39.6248 25.0057C39.5772 24.8261 39.4604 24.6726 39.3 24.5789L38.4057 24.0625L39.3 23.5461C39.3804 23.5002 39.451 23.4389 39.5076 23.3656C39.5642 23.2923 39.6058 23.2086 39.63 23.1192C39.6542 23.0298 39.6605 22.9365 39.6485 22.8447C39.6365 22.7529 39.6065 22.6643 39.5602 22.5842C39.5138 22.504 39.4521 22.4337 39.3786 22.3775C39.305 22.3212 39.2211 22.28 39.1316 22.2563C39.0421 22.2326 38.9487 22.2268 38.857 22.2392C38.7652 22.2517 38.6768 22.2822 38.5969 22.3289L37.7031 22.8449V21.8125C37.7031 21.626 37.629 21.4472 37.4972 21.3153C37.3653 21.1835 37.1865 21.1094 37 21.1094C36.8135 21.1094 36.6347 21.1835 36.5028 21.3153C36.371 21.4472 36.2969 21.626 36.2969 21.8125V22.8449L35.4031 22.3289C35.3232 22.2822 35.2348 22.2517 35.143 22.2392C35.0513 22.2268 34.9579 22.2326 34.8684 22.2563C34.7789 22.28 34.695 22.3212 34.6214 22.3775C34.5479 22.4337 34.4862 22.504 34.4398 22.5842C34.3935 22.6643 34.3635 22.7529 34.3515 22.8447C34.3395 22.9365 34.3458 23.0298 34.37 23.1192C34.3942 23.2086 34.4358 23.2923 34.4924 23.3656C34.549 23.4389 34.6196 23.5002 34.7 23.5461L35.5943 24.0625L34.7 24.5789C34.62 24.625 34.55 24.6864 34.4938 24.7597C34.4376 24.8329 34.3963 24.9165 34.3725 25.0057C34.3486 25.0949 34.3425 25.1879 34.3546 25.2794C34.3667 25.3709 34.3967 25.4591 34.4429 25.5391ZM27.6929 22.5859C27.6467 22.6659 27.6167 22.7541 27.6046 22.8456C27.5925 22.9371 27.5986 23.0301 27.6225 23.1193C27.6463 23.2085 27.6876 23.2921 27.7438 23.3653C27.8 23.4386 27.87 23.5 27.95 23.5461L28.8443 24.0625L27.95 24.5789C27.8696 24.6248 27.799 24.6861 27.7424 24.7594C27.6858 24.8327 27.6442 24.9164 27.62 25.0058C27.5958 25.0952 27.5895 25.1885 27.6015 25.2803C27.6135 25.3721 27.6435 25.4607 27.6898 25.5408C27.7362 25.621 27.7979 25.6913 27.8714 25.7475C27.945 25.8038 28.0289 25.845 28.1184 25.8687C28.2079 25.8924 28.3013 25.8982 28.393 25.8858C28.4848 25.8733 28.5732 25.8428 28.6531 25.7961L29.5469 25.2801V26.3125C29.5469 26.499 29.621 26.6778 29.7528 26.8097C29.8847 26.9415 30.0635 27.0156 30.25 27.0156C30.4365 27.0156 30.6153 26.9415 30.7472 26.8097C30.879 26.6778 30.9531 26.499 30.9531 26.3125V25.2801L31.8469 25.7961C32.0082 25.8882 32.1995 25.9127 32.3788 25.8642C32.5582 25.8157 32.7111 25.6982 32.804 25.5373C32.8969 25.3764 32.9224 25.1853 32.8748 25.0057C32.8272 24.8261 32.7104 24.6726 32.55 24.5789L31.6557 24.0625L32.55 23.5461C32.6304 23.5002 32.701 23.4389 32.7576 23.3656C32.8142 23.2923 32.8558 23.2086 32.88 23.1192C32.9042 23.0298 32.9105 22.9365 32.8985 22.8447C32.8865 22.7529 32.8565 22.6643 32.8102 22.5842C32.7638 22.504 32.7021 22.4337 32.6286 22.3775C32.555 22.3212 32.4711 22.28 32.3816 22.2563C32.2921 22.2326 32.1987 22.2268 32.107 22.2392C32.0152 22.2517 31.9268 22.2822 31.8469 22.3289L30.9531 22.8449V21.8125C30.9531 21.626 30.879 21.4472 30.7472 21.3153C30.6153 21.1835 30.4365 21.1094 30.25 21.1094C30.0635 21.1094 29.8847 21.1835 29.7528 21.3153C29.621 21.4472 29.5469 21.626 29.5469 21.8125V22.8449L28.6531 22.3289C28.5732 22.2825 28.485 22.2524 28.3935 22.2402C28.3019 22.2281 28.2089 22.2341 28.1196 22.258C28.0304 22.2819 27.9468 22.3231 27.8736 22.3794C27.8004 22.4357 27.739 22.5059 27.6929 22.5859ZM26.0571 22.5859C26.011 22.5059 25.9497 22.4357 25.8764 22.3794C25.8032 22.3231 25.7196 22.2818 25.6304 22.2579C25.5412 22.234 25.4481 22.228 25.3565 22.2402C25.265 22.2524 25.1767 22.2825 25.0969 22.3289L24.2031 22.8449V21.8125C24.2031 21.626 24.129 21.4472 23.9972 21.3153C23.8653 21.1835 23.6865 21.1094 23.5 21.1094C23.3135 21.1094 23.1347 21.1835 23.0028 21.3153C22.871 21.4472 22.7969 21.626 22.7969 21.8125V22.8449L21.9031 22.3289C21.7418 22.2368 21.5505 22.2123 21.3712 22.2608C21.1918 22.3093 21.0389 22.4268 20.946 22.5877C20.8531 22.7486 20.8276 22.9397 20.8752 23.1193C20.9228 23.2989 21.0396 23.4524 21.2 23.5461L22.0943 24.0625L21.2 24.5789C21.1196 24.6248 21.049 24.6861 20.9924 24.7594C20.9358 24.8327 20.8942 24.9164 20.87 25.0058C20.8458 25.0952 20.8395 25.1885 20.8515 25.2803C20.8635 25.3721 20.8935 25.4607 20.9398 25.5408C20.9862 25.621 21.0479 25.6913 21.1214 25.7475C21.195 25.8038 21.2789 25.845 21.3684 25.8687C21.4579 25.8924 21.5513 25.8982 21.643 25.8858C21.7348 25.8733 21.8232 25.8428 21.9031 25.7961L22.7969 25.2801V26.3125C22.7969 26.499 22.871 26.6778 23.0028 26.8097C23.1347 26.9415 23.3135 27.0156 23.5 27.0156C23.6865 27.0156 23.8653 26.9415 23.9972 26.8097C24.129 26.6778 24.2031 26.499 24.2031 26.3125V25.2801L25.0969 25.7961C25.2582 25.8882 25.4495 25.9127 25.6288 25.8642C25.8082 25.8157 25.9611 25.6982 26.054 25.5373C26.1469 25.3764 26.1724 25.1853 26.1248 25.0057C26.0772 24.8261 25.9604 24.6726 25.8 24.5789L24.9057 24.0625L25.8 23.5461C25.88 23.5 25.95 23.4386 26.0062 23.3653C26.0624 23.2921 26.1037 23.2085 26.1275 23.1193C26.1514 23.0301 26.1575 22.9371 26.1454 22.8456C26.1333 22.7541 26.1033 22.6659 26.0571 22.5859ZM22.6562 39.1094H19.8438C19.6573 39.1094 19.4784 39.1835 19.3466 39.3153C19.2147 39.4472 19.1406 39.626 19.1406 39.8125C19.1406 39.999 19.2147 40.1778 19.3466 40.3097C19.4784 40.4415 19.6573 40.5156 19.8438 40.5156H22.6562C22.8427 40.5156 23.0216 40.4415 23.1534 40.3097C23.2853 40.1778 23.3594 39.999 23.3594 39.8125C23.3594 39.626 23.2853 39.4472 23.1534 39.3153C23.0216 39.1835 22.8427 39.1094 22.6562 39.1094ZM19.8438 16.8906H22.6562C22.8427 16.8906 23.0216 16.8165 23.1534 16.6847C23.2853 16.5528 23.3594 16.374 23.3594 16.1875C23.3594 16.001 23.2853 15.8222 23.1534 15.6903C23.0216 15.5585 22.8427 15.4844 22.6562 15.4844H19.8438C19.6573 15.4844 19.4784 15.5585 19.3466 15.6903C19.2147 15.8222 19.1406 16.001 19.1406 16.1875C19.1406 16.374 19.2147 16.5528 19.3466 16.6847C19.4784 16.8165 19.6573 16.8906 19.8438 16.8906Z" fill="url(#paint2_linear_112_507)"/>
<defs>
<linearGradient id="paint0_linear_112_507" x1="56" y1="14.8571" x2="4.81197" y2="42.4504" gradientUnits="userSpaceOnUse">
<stop stop-color="#A45CFF"/>
<stop offset="1" stop-color="#3C0CFF"/>
</linearGradient>
<linearGradient id="paint1_linear_112_507" x1="42.7656" y1="21.0692" x2="15.7719" y2="35.6203" gradientUnits="userSpaceOnUse">
<stop stop-color="#A45CFF"/>
<stop offset="1" stop-color="#3C0CFF"/>
</linearGradient>
<linearGradient id="paint2_linear_112_507" x1="39.6544" y1="22.1253" x2="19.4063" y2="31.0704" gradientUnits="userSpaceOnUse">
<stop stop-color="#A45CFF"/>
<stop offset="1" stop-color="#3C0CFF"/>
</linearGradient>
</defs>
</svg>
