<svg width="56" height="56" viewBox="0 0 56 56" fill="none" xmlns="http://www.w3.org/2000/svg">
<rect width="56" height="56" rx="4" fill="url(#paint0_linear_112_499)" fill-opacity="0.1"/>
<g clip-path="url(#clip0_112_499)">
<path d="M19.2361 28.1978H16.1617C15.1681 28.1978 15.1681 26.6981 16.1617 26.6981H19.2361C20.2109 26.6981 20.2109 28.1978 19.2361 28.1978ZM33.6333 43.2323H20.2859C19.0486 43.2323 18.0551 42.22 18.0551 40.9828V31.7221L16.5366 30.6348H14.4745C13.106 30.6348 12 29.5288 12 28.1603V24.1111C12 22.7426 13.106 21.6178 14.4745 21.6178H18.0551V15.0003C18.0551 13.7631 19.0486 12.7695 20.2859 12.7695H33.6333C34.8705 12.7695 35.8828 13.7631 35.8828 15.0003V20.2493C36.2765 20.3056 36.6702 20.5868 36.8764 20.9429L41.0006 28.0853C41.4505 28.8726 41.0943 29.9974 40.157 30.0162L35.8828 30.1099V40.9828C35.8828 42.22 34.8705 43.2323 33.6333 43.2323ZM19.5548 32.8094V37.0273H34.3831V34.1966L32.0023 31.6283C29.9402 32.7156 27.522 30.841 28.1406 28.5539C28.3281 27.8603 28.7592 27.2792 29.3779 26.923L31.8899 25.4795L34.3831 21.3928V18.9746H19.536V21.6178H20.9045C22.273 21.6178 23.379 22.7426 23.379 24.1111V28.1603C23.379 29.51 22.273 30.616 20.9233 30.6348L21.3919 32.4907C21.5606 33.1843 20.792 33.6904 20.2296 33.2968L19.5548 32.8094ZM19.5548 38.527V40.9828C19.5548 41.3952 19.8735 41.7326 20.2859 41.7326H33.6333C34.0457 41.7326 34.3831 41.3952 34.3831 40.9828V38.527H19.5548ZM34.3831 32.0033V30.2599L33.3333 30.8597L34.3831 32.0033ZM35.7516 21.9927V22.0115L33.0709 26.4169C32.9209 26.6606 32.471 26.8668 32.1711 27.0355L33.3708 29.1163C34.3269 28.5727 34.0082 28.6664 35.1142 28.6289L39.5196 28.5352L35.7516 21.9927ZM34.3831 17.4749V15.0003C34.3831 14.6067 34.0457 14.2692 33.6333 14.2692H20.2859C19.8735 14.2692 19.536 14.6067 19.536 15.0003V17.4749H34.3831ZM31.44 40.8703H30.4839C29.4903 40.8703 29.4903 39.3706 30.4839 39.3706H31.44C32.4148 39.3706 32.4148 40.8703 31.44 40.8703ZM23.4353 40.8703H22.4792C21.5044 40.8703 21.5044 39.3706 22.4792 39.3706H23.4353C24.4288 39.3706 24.4288 40.8703 23.4353 40.8703ZM28.2531 16.6125H25.6848C24.6913 16.6125 24.6913 15.1128 25.6848 15.1128H28.2531C29.2279 15.1128 29.2279 16.6125 28.2531 16.6125ZM40.7381 24.2235C39.9695 24.2235 39.6883 23.2112 40.3632 22.8363L41.4692 22.1989C42.3128 21.6928 43.0627 23.005 42.2191 23.4924C41.8254 23.7174 41.0756 24.2235 40.7381 24.2235ZM39.3509 22.4051C38.8822 22.4051 38.5261 21.9927 38.6011 21.5241L38.901 19.8182C39.0697 18.8621 40.5507 19.1058 40.382 20.0806L40.082 21.7865C40.0258 22.1427 39.7071 22.4051 39.3509 22.4051ZM43.2314 26.9418C42.9877 26.9418 41.6755 26.4169 41.3568 26.3044C40.9631 26.1544 40.7756 25.7233 40.9069 25.3296C41.0568 24.9547 41.488 24.7484 41.8817 24.8984L43.4938 25.4983C44.2812 25.7795 44.075 26.9418 43.2314 26.9418ZM30.8776 27.7853C30.2777 28.1415 29.7528 28.329 29.5841 28.9476C29.3029 29.9974 30.4276 30.8035 31.3275 30.2974L32.0773 29.8662L30.8776 27.7853ZM14.4745 23.1175C13.9496 23.1175 13.4997 23.5674 13.4997 24.1111V28.1603C13.4997 28.6852 13.9496 29.1351 14.4745 29.1351H16.7616C16.9303 29.1351 17.0803 29.1913 17.2115 29.2663L19.4423 30.8785C19.2923 30.2974 19.0674 29.81 19.3673 29.4163C19.686 29.0226 20.2671 29.1351 20.9045 29.1351C21.4482 29.1351 21.8793 28.6852 21.8793 28.1603V24.1111C21.8793 23.5674 21.4482 23.1175 20.9045 23.1175H14.4745ZM19.2361 25.5733H16.1617C15.1681 25.5733 15.1681 24.0736 16.1617 24.0736H19.2361C20.2109 24.0736 20.2109 25.5733 19.2361 25.5733Z" fill="url(#paint1_linear_112_499)"/>
</g>
<defs>
<linearGradient id="paint0_linear_112_499" x1="56" y1="14.8571" x2="4.81197" y2="42.4504" gradientUnits="userSpaceOnUse">
<stop stop-color="#A45CFF"/>
<stop offset="1" stop-color="#3C0CFF"/>
</linearGradient>
<linearGradient id="paint1_linear_112_499" x1="43.9867" y1="20.8515" x2="15.4084" y2="37.0275" gradientUnits="userSpaceOnUse">
<stop stop-color="#A45CFF"/>
<stop offset="1" stop-color="#3C0CFF"/>
</linearGradient>
<clipPath id="clip0_112_499">
<rect width="32" height="32" fill="white" transform="translate(12 12)"/>
</clipPath>
</defs>
</svg>
