<svg width="114" height="114" viewBox="0 0 114 114" fill="none" xmlns="http://www.w3.org/2000/svg">
<path d="M57 88.875C54.0333 88.875 51.1332 87.9953 48.6664 86.347C46.1997 84.6988 44.2771 82.3561 43.1418 79.6153C42.0065 76.8744 41.7094 73.8584 42.2882 70.9487C42.867 68.0389 44.2956 65.3662 46.3934 63.2684C48.4912 61.1706 51.1639 59.742 54.0736 59.1632C56.9834 58.5844 59.9994 58.8815 62.7402 60.0168C65.4811 61.1521 67.8238 63.0747 69.472 65.5415C71.1203 68.0082 72 70.9083 72 73.875C71.9955 77.8519 70.4137 81.6646 67.6017 84.4767C64.7896 87.2888 60.9769 88.8705 57 88.875ZM57 62.625C54.775 62.625 52.5999 63.2848 50.7498 64.521C48.8998 65.7571 47.4578 67.5142 46.6064 69.5698C45.7549 71.6255 45.5321 73.8875 45.9662 76.0698C46.4002 78.2521 47.4717 80.2566 49.045 81.83C50.6184 83.4033 52.6229 84.4748 54.8052 84.9088C56.9875 85.3429 59.2495 85.1201 61.3052 84.2687C63.3609 83.4172 65.1179 81.9752 66.354 80.1252C67.5902 78.2751 68.25 76.1 68.25 73.875C68.247 70.8922 67.0608 68.0325 64.9517 65.9233C62.8425 63.8142 59.9828 62.628 57 62.625ZM79.5 113.25C79.0027 113.25 78.5258 113.052 78.1742 112.701C77.8225 112.349 77.625 111.872 77.625 111.375V100.125C77.625 98.2163 70.3444 94.5 57 94.5C43.6556 94.5 36.375 98.2163 36.375 100.125V111.375C36.375 111.872 36.1775 112.349 35.8258 112.701C35.4742 113.052 34.9973 113.25 34.5 113.25C34.0027 113.25 33.5258 113.052 33.1742 112.701C32.8225 112.349 32.625 111.872 32.625 111.375V100.125C32.625 93.9694 44.8875 90.75 57 90.75C69.1125 90.75 81.375 93.9694 81.375 100.125V111.375C81.375 111.872 81.1775 112.349 80.8258 112.701C80.4742 113.052 79.9973 113.25 79.5 113.25ZM88.875 79.5C85.9083 79.5 83.0082 78.6203 80.5414 76.9721C78.0747 75.3238 76.1521 72.9811 75.0168 70.2403C73.8815 67.4994 73.5844 64.4834 74.1632 61.5737C74.742 58.6639 76.1706 55.9912 78.2684 53.8934C80.3662 51.7956 83.0389 50.367 85.9486 49.7882C88.8584 49.2094 91.8744 49.5065 94.6152 50.6418C97.3561 51.7771 99.6988 53.6997 101.347 56.1665C102.995 58.6332 103.875 61.5333 103.875 64.5C103.871 68.4769 102.289 72.2896 99.4767 75.1017C96.6646 77.9138 92.8519 79.4955 88.875 79.5ZM88.875 53.25C86.65 53.25 84.4749 53.9098 82.6248 55.146C80.7748 56.3821 79.3328 58.1392 78.4814 60.1948C77.6299 62.2505 77.4071 64.5125 77.8412 66.6948C78.2752 68.8771 79.3467 70.8816 80.92 72.455C82.4934 74.0283 84.4979 75.0998 86.6802 75.5338C88.8625 75.9679 91.1245 75.7451 93.1802 74.8937C95.2359 74.0422 96.9929 72.6002 98.229 70.7502C99.4652 68.9001 100.125 66.725 100.125 64.5C100.122 61.5172 98.9358 58.6575 96.8267 56.5483C94.7175 54.4392 91.8578 53.253 88.875 53.25Z" fill="url(#paint0_linear_48_1911)"/>
<path d="M111.375 103.875C110.878 103.875 110.401 103.677 110.049 103.326C109.698 102.974 109.5 102.497 109.5 102V90.7499C109.5 88.8412 102.219 85.1249 88.875 85.1249C81.1875 85.1249 74.0625 86.4655 70.3125 88.6237C70.0992 88.7487 69.8632 88.8304 69.6182 88.8638C69.3732 88.8973 69.124 88.8821 68.885 88.8189C68.6459 88.7556 68.4217 88.6458 68.2253 88.4956C68.0289 88.3454 67.8641 88.1578 67.7404 87.9437C67.6168 87.7295 67.5367 87.493 67.5049 87.2478C67.473 87.0026 67.4899 86.7535 67.5547 86.5149C67.6195 86.2762 67.7309 86.0528 67.8824 85.8573C68.0339 85.6619 68.2225 85.4984 68.4375 85.3762C72.7969 82.8749 80.4375 81.3749 88.875 81.3749C100.988 81.3749 113.25 84.5943 113.25 90.7499V102C113.25 102.497 113.052 102.974 112.701 103.326C112.349 103.677 111.872 103.875 111.375 103.875ZM25.125 79.4999C22.1583 79.4999 19.2582 78.6202 16.7914 76.972C14.3247 75.3237 12.4021 72.9811 11.2668 70.2402C10.1315 67.4993 9.83444 64.4833 10.4132 61.5736C10.992 58.6638 12.4206 55.9911 14.5184 53.8933C16.6162 51.7955 19.2889 50.3669 22.1986 49.7881C25.1084 49.2094 28.1244 49.5064 30.8653 50.6417C33.6061 51.777 35.9488 53.6996 37.597 56.1664C39.2453 58.6331 40.125 61.5332 40.125 64.4999C40.1205 68.4768 38.5387 72.2895 35.7267 75.1016C32.9146 77.9137 29.1019 79.4954 25.125 79.4999ZM25.125 53.2499C22.9 53.2499 20.7249 53.9097 18.8748 55.1459C17.0248 56.382 15.5828 58.1391 14.7314 60.1947C13.8799 62.2504 13.6571 64.5124 14.0912 66.6947C14.5253 68.877 15.5967 70.8815 17.17 72.4549C18.7434 74.0282 20.7479 75.0997 22.9302 75.5338C25.1125 75.9678 27.3745 75.745 29.4302 74.8936C31.4859 74.0421 33.2429 72.6001 34.479 70.7501C35.7152 68.9 36.375 66.725 36.375 64.4999C36.372 61.5171 35.1858 58.6574 33.0767 56.5483C30.9675 54.4391 28.1078 53.2529 25.125 53.2499ZM2.625 103.875C2.12772 103.875 1.65081 103.677 1.29917 103.326C0.947544 102.974 0.75 102.497 0.75 102V90.7499C0.75 84.5943 13.0125 81.3749 25.125 81.3749C33.5625 81.3749 41.2031 82.8749 45.5512 85.3762C45.7662 85.4984 45.9549 85.6619 46.1064 85.8573C46.2579 86.0528 46.3692 86.2762 46.434 86.5149C46.4988 86.7535 46.5158 87.0026 46.4839 87.2478C46.452 87.493 46.3719 87.7295 46.2483 87.9437C46.1247 88.1578 45.9599 88.3454 45.7635 88.4956C45.567 88.6458 45.3428 88.7556 45.1038 88.8189C44.8647 88.8821 44.6155 88.8973 44.3705 88.8638C44.1255 88.8304 43.8896 88.7487 43.6762 88.6237C39.9375 86.4655 32.8219 85.1249 25.125 85.1249C11.7806 85.1249 4.5 88.8412 4.5 90.7499V102C4.5 102.497 4.30246 102.974 3.95083 103.326C3.59919 103.677 3.12228 103.875 2.625 103.875ZM27.1669 47.6249C26.786 47.6247 26.4143 47.5085 26.1011 47.2918C25.7879 47.0751 25.5482 46.7681 25.4138 46.4118C22.2545 38.0346 22.5525 28.7455 26.2422 20.588C29.9318 12.4306 36.7109 6.07289 45.0881 2.91367C53.4653 -0.245557 62.7544 0.0524383 70.9119 3.7421C79.0694 7.43176 85.427 14.2108 88.5863 22.588C88.6775 22.8193 88.7219 23.0664 88.7168 23.315C88.7118 23.5635 88.6573 23.8086 88.5566 24.0359C88.4559 24.2633 88.311 24.4683 88.1303 24.6391C87.9496 24.8099 87.7368 24.9431 87.5042 25.0308C87.2716 25.1186 87.0238 25.1592 86.7754 25.1504C86.5269 25.1415 86.2827 25.0833 86.0569 24.9792C85.8311 24.875 85.6283 24.727 85.4603 24.5438C85.2923 24.3605 85.1624 24.1457 85.0781 23.9118C82.27 16.465 76.6186 10.4388 69.3673 7.15875C62.116 3.87874 53.8587 3.61365 46.4119 6.42179C38.9651 9.22994 32.9388 14.8813 29.6588 22.1326C26.3788 29.3839 26.1137 37.6413 28.9219 45.088C29.0089 45.3185 29.0496 45.5639 29.0418 45.8101C29.0339 46.0563 28.9776 46.2985 28.8761 46.523C28.7746 46.7474 28.6298 46.9497 28.4501 47.1182C28.2704 47.2866 28.0593 47.4181 27.8287 47.5049C27.617 47.584 27.3929 47.6246 27.1669 47.6249Z" fill="url(#paint1_linear_48_1911)"/>
<path d="M57 57C52.5499 57 48.1998 55.6804 44.4997 53.2081C40.7996 50.7357 37.9157 47.2217 36.2127 43.1104C34.5097 38.9991 34.0642 34.4751 34.9323 30.1105C35.8005 25.7459 37.9434 21.7368 41.0901 18.5901C44.2368 15.4434 48.2459 13.3005 52.6105 12.4323C56.975 11.5642 61.499 12.0097 65.6104 13.7127C69.7217 15.4157 73.2357 18.2996 75.7081 21.9997C78.1804 25.6998 79.5 30.0499 79.5 34.5C79.4936 40.4654 77.1209 46.1846 72.9028 50.4028C68.6846 54.621 62.9654 56.9936 57 57ZM57 15.75C53.2916 15.75 49.6665 16.8497 46.5831 18.91C43.4996 20.9702 41.0964 23.8986 39.6773 27.3247C38.2581 30.7508 37.8868 34.5208 38.6103 38.158C39.3338 41.7951 41.1195 45.136 43.7418 47.7583C46.364 50.3805 49.7049 52.1663 53.3421 52.8897C56.9792 53.6132 60.7492 53.2419 64.1753 51.8228C67.6014 50.4036 70.5298 48.0004 72.5901 44.917C74.6503 41.8335 75.75 38.2084 75.75 34.5C75.7445 29.5289 73.7674 24.7629 70.2522 21.2478C66.7371 17.7327 61.9711 15.7555 57 15.75Z" fill="url(#paint2_linear_48_1911)"/>
<path d="M57 45.75C54.775 45.75 52.5999 45.0902 50.7498 43.854C48.8998 42.6179 47.4578 40.8609 46.6064 38.8052C45.7549 36.7495 45.5321 34.4875 45.9662 32.3052C46.4003 30.123 47.4717 28.1184 49.0451 26.5451C50.6184 24.9717 52.623 23.9003 54.8052 23.4662C56.9875 23.0321 59.2495 23.2549 61.3052 24.1064C63.3609 24.9578 65.1179 26.3998 66.354 28.2498C67.5902 30.0999 68.25 32.275 68.25 34.5C68.247 37.4828 67.0608 40.3425 64.9517 42.4517C62.8425 44.5608 59.9828 45.747 57 45.75ZM57 27C55.5166 27 54.0666 27.4399 52.8332 28.264C51.5999 29.0881 50.6386 30.2594 50.0709 31.6299C49.5033 33.0003 49.3547 34.5083 49.6441 35.9632C49.9335 37.418 50.6478 38.7544 51.6967 39.8033C52.7456 40.8522 54.082 41.5665 55.5368 41.8559C56.9917 42.1453 58.4997 41.9968 59.8701 41.4291C61.2406 40.8614 62.4119 39.9001 63.236 38.6668C64.0601 37.4334 64.5 35.9834 64.5 34.5C64.5 32.5109 63.7098 30.6032 62.3033 29.1967C60.8968 27.7902 58.9891 27 57 27Z" fill="url(#paint3_linear_48_1911)"/>
<path d="M105.75 43.875H90.1725C89.6884 43.874 89.2235 43.6859 88.875 43.35L81.6281 36.375H57C56.5027 36.375 56.0258 36.1775 55.6742 35.8258C55.3225 35.4742 55.125 34.9973 55.125 34.5C55.125 34.0027 55.3225 33.5258 55.6742 33.1742C56.0258 32.8225 56.5027 32.625 57 32.625H81.6281L88.875 25.65C89.224 25.3136 89.6897 25.1255 90.1744 25.125H105.75C106.124 25.125 106.489 25.2367 106.799 25.4458C107.109 25.6549 107.349 25.9518 107.489 26.2984C107.629 26.645 107.662 27.0256 107.584 27.3911C107.506 27.7567 107.32 28.0906 107.051 28.35L100.665 34.5L107.051 40.65C107.32 40.9094 107.506 41.2433 107.584 41.6089C107.662 41.9744 107.629 42.355 107.489 42.7016C107.349 43.0482 107.109 43.3451 106.799 43.5542C106.489 43.7633 106.124 43.875 105.75 43.875ZM90.9375 40.125H101.1L97.2056 36.375H87.0356L90.9375 40.125ZM87.0431 32.625H97.2131L101.107 28.875H90.9375L87.0431 32.625Z" fill="url(#paint4_linear_48_1911)"/>
<defs>
<linearGradient id="paint0_linear_48_1911" x1="103.875" y1="66.4133" x2="42.2066" y2="103.567" gradientUnits="userSpaceOnUse">
<stop stop-color="#A45CFF"/>
<stop offset="1" stop-color="#3C0CFF"/>
</linearGradient>
<linearGradient id="paint1_linear_48_1911" x1="113.25" y1="28.1039" x2="14.6336" y2="86.0922" gradientUnits="userSpaceOnUse">
<stop stop-color="#A45CFF"/>
<stop offset="1" stop-color="#3C0CFF"/>
</linearGradient>
<linearGradient id="paint2_linear_48_1911" x1="79.5" y1="23.9388" x2="38.3668" y2="46.112" gradientUnits="userSpaceOnUse">
<stop stop-color="#A45CFF"/>
<stop offset="1" stop-color="#3C0CFF"/>
</linearGradient>
<linearGradient id="paint3_linear_48_1911" x1="68.25" y1="29.2194" x2="47.6834" y2="40.306" gradientUnits="userSpaceOnUse">
<stop stop-color="#A45CFF"/>
<stop offset="1" stop-color="#3C0CFF"/>
</linearGradient>
<linearGradient id="paint4_linear_48_1911" x1="107.625" y1="30.0995" x2="88.7324" y2="58.6154" gradientUnits="userSpaceOnUse">
<stop stop-color="#A45CFF"/>
<stop offset="1" stop-color="#3C0CFF"/>
</linearGradient>
</defs>
</svg>
