<svg width="108" height="108" viewBox="0 0 108 108" fill="none" xmlns="http://www.w3.org/2000/svg">
<path d="M96 0.71875H12C5.4 0.71875 0 6.11875 0 12.7187V82.3187C0 88.9187 5.4 94.3187 12 94.3187H45.6V96.7187C45.6 97.5587 46.08 98.2787 46.8 98.7588C47.52 99.2387 48.36 99.2387 49.08 98.8787L56.64 95.1588L62.04 105.959C62.28 106.559 62.88 106.919 63.48 107.159C63.72 107.279 63.96 107.279 64.2 107.279C64.56 107.279 64.92 107.159 65.28 107.039L75.96 101.639C77.16 101.039 77.64 99.5987 77.04 98.3987L75 94.3187H96C102.6 94.3187 108 88.9187 108 82.3187V12.7187C108 6.11875 102.6 0.71875 96 0.71875ZM65.16 101.639L59.76 90.9587C59.28 90.1188 58.44 89.6387 57.6 89.6387C57.24 89.6387 56.88 89.7588 56.52 89.8787L50.4 92.8787V64.0788L73.44 81.3587L67.2 84.4788C66 85.0788 65.52 86.5187 66.12 87.7187L71.52 98.5187L65.16 101.639ZM103.2 82.3187C103.2 86.2787 99.96 89.5187 96 89.5187H72.6L71.64 87.5987L79.2 83.8787C79.92 83.5187 80.4 82.7988 80.52 81.9587C80.64 81.1188 80.28 80.2787 79.56 79.7987L49.56 57.2388C48.84 56.6387 47.88 56.6387 47.04 56.9987C46.2 57.3587 45.72 58.1987 45.72 59.1587V89.5187H12C8.04 89.5187 4.8 86.2787 4.8 82.3187V29.5187H103.2V82.3187ZM103.2 24.7187H4.8V12.7187C4.8 8.75875 8.04 5.51875 12 5.51875H96C99.96 5.51875 103.2 8.75875 103.2 12.7187V24.7187ZM16.8 15.1187C16.8 16.4387 15.72 17.5187 14.4 17.5187C13.08 17.5187 12 16.4387 12 15.1187C12 13.7987 13.08 12.7187 14.4 12.7187C15.72 12.7187 16.8 13.7987 16.8 15.1187ZM28.8 15.1187C28.8 16.4387 27.72 17.5187 26.4 17.5187C25.08 17.5187 24 16.4387 24 15.1187C24 13.7987 25.08 12.7187 26.4 12.7187C27.72 12.7187 28.8 13.7987 28.8 15.1187ZM40.8 15.1187C40.8 16.4387 39.72 17.5187 38.4 17.5187C37.08 17.5187 36 16.4387 36 15.1187C36 13.7987 37.08 12.7187 38.4 12.7187C39.72 12.7187 40.8 13.7987 40.8 15.1187ZM38.4 45.2388C37.8 44.0387 38.28 42.5988 39.48 41.9987C40.68 41.3988 42.12 41.8787 42.72 43.0788L44.88 47.3988C45.48 48.5987 45 50.0387 43.8 50.6387C43.44 50.7588 43.08 50.8787 42.72 50.8787C41.88 50.8787 41.04 50.3987 40.56 49.5587L38.4 45.2388ZM62.16 56.7587C61.56 55.5587 62.04 54.1187 63.24 53.5187L67.56 51.3587C68.76 50.7587 70.2 51.2388 70.8 52.4388C71.4 53.6387 70.92 55.0788 69.72 55.6787L65.4 57.8387C65.04 57.9587 64.68 58.0788 64.32 58.0788C63.48 58.1987 62.64 57.5987 62.16 56.7587ZM37.56 69.1187C38.16 70.3187 37.68 71.7588 36.48 72.3587L32.16 74.5187C31.8 74.6387 31.44 74.7588 31.08 74.7588C30.24 74.7588 29.4 74.2787 28.92 73.4387C28.32 72.2387 28.8 70.7987 30 70.1987L34.32 68.0387C35.52 67.4388 36.96 67.9187 37.56 69.1187ZM52.68 46.7987L54.24 42.2388C54.6 40.9188 56.04 40.3188 57.24 40.6788C58.44 41.0387 59.16 42.4788 58.8 43.6788L57.24 48.2388C56.88 49.1987 55.92 49.9187 54.96 49.9187C54.72 49.9187 54.48 49.9188 54.24 49.7987C53.04 49.4387 52.32 48.1187 52.68 46.7987ZM27.72 55.5587C28.08 54.2387 29.52 53.6387 30.72 53.9987L35.28 55.5587C36.48 55.9187 37.2 57.3587 36.84 58.5587C36.48 59.5187 35.52 60.2388 34.56 60.2388C34.32 60.2388 34.08 60.2387 33.84 60.1187L29.28 58.5587C27.96 58.1987 27.24 56.8787 27.72 55.5587Z" fill="url(#paint0_linear_48_1952)"/>
<defs>
<linearGradient id="paint0_linear_48_1952" x1="108" y1="28.9898" x2="9.88134" y2="82.5961" gradientUnits="userSpaceOnUse">
<stop stop-color="#A45CFF"/>
<stop offset="1" stop-color="#3C0CFF"/>
</linearGradient>
</defs>
</svg>
