<svg width="120" height="120" viewBox="0 0 120 120" fill="none" xmlns="http://www.w3.org/2000/svg">
<g clip-path="url(#clip0_48_1817)">
<path fill-rule="evenodd" clip-rule="evenodd" d="M35.0649 36.3827C35.0649 34.0137 36.0568 31.8686 37.6465 30.3414L37.6649 30.3216C37.7501 30.2315 37.8407 30.1496 37.9358 30.076C39.4113 28.7844 41.3409 28 43.4476 28H111.611C113.729 28 115.67 28.7933 117.151 30.0985C117.232 30.1631 117.309 30.2337 117.383 30.3105C118.993 31.839 120 33.9966 120 36.3827V84.1101C120 86.3837 119.085 88.4528 117.604 89.9673C117.587 89.9849 117.57 90.0022 117.553 90.0194C116.031 91.5494 113.927 92.4995 111.611 92.4995H43.4476C41.1627 92.4995 39.0873 91.5756 37.5732 90.0836C37.5558 90.0677 37.5385 90.0516 37.5214 90.0351C37.4743 89.9896 37.4295 89.9427 37.3871 89.8944C35.9494 88.3862 35.0649 86.3464 35.0649 84.1101V36.3827ZM39.7524 36.3827C39.7524 36.1142 39.7817 35.852 39.8371 35.5992L64.4009 58.8128L39.7597 84.3414C39.7549 84.2649 39.7524 84.1878 39.7524 84.1101V36.3827ZM69.3643 57.0454C69.4 57.0799 69.4344 57.1152 69.4674 57.1513L70.4678 58.0967C73.6724 61.1213 75.8007 62.108 77.5288 62.1144C79.2569 62.108 81.3847 61.1214 84.5888 58.0977L84.59 58.0966L85.6637 57.0819C85.6715 57.074 85.6794 57.0662 85.6874 57.0584C85.6919 57.054 85.6964 57.0496 85.7009 57.0452C85.7256 57.0214 85.7506 56.9983 85.776 56.9758L111.477 32.6875H43.5808L69.2162 56.9139C69.2669 56.9553 69.3163 56.9991 69.3643 57.0454ZM42.9566 87.7789L67.813 62.0273C71.0202 64.9449 74.1229 66.7936 77.5231 66.8019H77.5346C80.9364 66.7936 84.04 64.9432 87.2483 62.0239L112.102 87.7789C111.941 87.8007 111.777 87.812 111.611 87.812H43.4476C43.2813 87.812 43.1174 87.8008 42.9566 87.7789ZM115.305 84.3475L90.6604 58.8094L115.226 35.5941C115.283 35.8486 115.313 36.1125 115.313 36.3827V84.1101C115.313 84.1898 115.31 84.2689 115.305 84.3475ZM7.47914 49.3923C6.18472 49.3923 5.13539 50.4417 5.13539 51.7361C5.13539 53.0305 6.18472 54.0798 7.47914 54.0798H10.3826C11.677 54.0798 12.7263 53.0305 12.7263 51.7361C12.7263 50.4417 11.677 49.3923 10.3826 49.3923H7.47914ZM21.2447 49.3923C19.9503 49.3923 18.9009 50.4417 18.9009 51.7361C18.9009 53.0305 19.9503 54.0798 21.2447 54.0798H28.267C29.5614 54.0798 30.6108 53.0305 30.6108 51.7361C30.6108 50.4417 29.5614 49.3923 28.267 49.3923H21.2447ZM2.34375 63.1312C1.04933 63.1312 0 64.1805 0 65.4749C0 66.7693 1.04933 67.8187 2.34375 67.8187H28.267C29.5614 67.8187 30.6108 66.7693 30.6108 65.4749C30.6108 64.1805 29.5614 63.1312 28.267 63.1312H2.34375ZM9.83109 76.8768C8.53668 76.8768 7.48734 77.9261 7.48734 79.2205C7.48734 80.515 8.53668 81.5643 9.83109 81.5643H16.8532C18.1476 81.5643 19.197 80.515 19.197 79.2205C19.197 77.9261 18.1476 76.8768 16.8532 76.8768H9.83109ZM25.3638 76.8768C24.0694 76.8768 23.0201 77.9261 23.0201 79.2205C23.0201 80.515 24.0694 81.5643 25.3638 81.5643H28.267C29.5614 81.5643 30.6108 80.515 30.6108 79.2205C30.6108 77.9261 29.5614 76.8768 28.267 76.8768H25.3638Z" fill="url(#paint0_linear_48_1817)"/>
</g>
<defs>
<linearGradient id="paint0_linear_48_1817" x1="120" y1="45.1121" x2="49.4243" y2="115.893" gradientUnits="userSpaceOnUse">
<stop stop-color="#A45CFF"/>
<stop offset="1" stop-color="#3C0CFF"/>
</linearGradient>
<clipPath id="clip0_48_1817">
<rect width="120" height="120" fill="white"/>
</clipPath>
</defs>
</svg>
