<svg width="120" height="120" viewBox="0 0 120 120" fill="none" xmlns="http://www.w3.org/2000/svg">
<g clip-path="url(#clip0_48_1834)">
<path d="M46.7993 14.9707L50.8811 23.1942C52.2918 26.036 55.9425 26.8889 58.4662 24.9661C60.7026 23.262 63.9002 23.7124 65.5788 25.968L66.0082 26.5451C66.5502 27.2734 67.2785 27.8421 68.1165 28.1914C68.9545 28.5407 69.8711 28.6577 70.77 28.53L73.4439 28.1501C74.3388 28.0229 75.1832 27.658 75.8889 27.0933C76.5947 26.5287 77.136 25.785 77.4564 24.9398L80.0704 18.0441M21.2831 40.3259C19.8199 44.5378 19.0244 49.0622 19.0244 53.7736C19.0244 66.0401 24.4129 77.0491 32.9552 84.5566M100.107 45.3427C100.686 48.1155 100.978 50.9408 100.976 53.7736C100.976 76.4051 82.6317 94.7491 60 94.7491C58.6031 94.7491 57.2205 94.6781 55.859 94.5431" stroke="url(#paint0_linear_48_1834)" stroke-width="4.66667" stroke-miterlimit="10" stroke-linecap="round" stroke-linejoin="round"/>
<path d="M29.2217 26.7249C36.7292 18.1873 47.7361 12.7988 60 12.7988C72.2639 12.7988 83.2709 18.1873 90.7784 26.7249" stroke="url(#paint1_linear_48_1834)" stroke-width="4.66667" stroke-miterlimit="10" stroke-linecap="round" stroke-linejoin="round"/>
<path d="M34.2881 21.8708L37.8443 33.6636C38.0553 34.3642 38.4956 34.9737 39.0945 35.3942L43.7041 38.6401C44.1336 38.9412 44.4841 39.3413 44.726 39.8066C44.9679 40.2719 45.0942 40.7887 45.094 41.3131V45.3734C45.094 46.1263 44.8336 46.8556 44.3576 47.4404L40.1766 52.5685C39.87 52.9449 39.4833 53.2482 39.0448 53.4563C38.6069 53.6649 38.1282 53.7733 37.6432 53.7737C35.4675 53.7737 33.9 55.857 34.5014 57.9477L34.6695 58.5301C34.8652 59.212 35.2777 59.8117 35.8446 60.2385C36.4114 60.6652 37.1017 60.8958 37.8113 60.8954H41.8882C42.788 60.8954 43.6474 61.2671 44.2652 61.9206L46.1309 63.8952C46.5807 64.3714 46.8772 64.9718 46.9819 65.6185C47.0866 66.2652 46.9946 66.9285 46.718 67.5223L44.4286 72.4281C44.1921 72.936 44.0894 73.4959 44.1302 74.0546L44.7434 82.2015C44.804 83.0103 45.1625 83.7679 45.7495 84.3275L45.9862 84.5525M19.0235 53.7737H21.2259C22.2921 53.7737 23.2985 54.2659 23.9531 55.1073L25.665 57.3076C25.9602 57.6871 26.173 58.1241 26.2897 58.5906C26.4065 59.0571 26.4245 59.5428 26.3428 60.0167L25.5066 64.8655C25.4046 65.4563 25.1508 66.0105 24.7699 66.4735L22.1948 69.6036M85.4016 85.9276C84.8406 86.3724 84.1452 86.6136 83.4293 86.6117C82.5035 86.6117 81.5827 86.2116 80.948 85.4469C80.6327 85.0673 80.4091 84.6201 80.2945 84.1401C80.18 83.6601 80.1776 83.1602 80.2875 82.6791L82.7662 71.7978C82.9218 71.1166 83.2341 70.4812 83.6784 69.9419C84.1227 69.4027 84.6868 68.9746 85.3256 68.6916L88.2471 67.3965C88.8544 67.1273 89.3943 66.7267 89.8279 66.2235C90.2615 65.7203 90.578 65.1271 90.7545 64.4867L91.9123 60.2938C92.1277 59.5129 92.1277 58.6882 91.9123 57.9073L91.1002 54.9622C90.839 54.0148 90.2742 53.1793 89.4924 52.584C88.7105 51.9886 87.7549 51.6664 86.7722 51.6666H83.9714C83.0145 51.6671 82.0827 51.3609 81.3127 50.7929L75.6115 46.6023C75.0443 46.1849 74.5831 45.64 74.2652 45.0116C73.9473 44.3832 73.7815 43.6889 73.7812 42.9847V41.7345C73.7812 38.9101 76.3596 36.7864 79.132 37.3309L84.0731 38.2967C85.0465 38.4862 86.0553 38.3489 86.9426 37.906L90.2027 36.2771C90.4029 36.1764 90.5952 36.0608 90.7781 35.9314M1.75781 27.2832V30.7121C1.75781 33.3277 3.87891 35.4465 6.49219 35.4465H15.4898L22.1508 41.0574C23.0742 41.8355 24.4875 41.177 24.4875 39.9699V35.4465C27.1008 35.4465 29.2219 33.3277 29.2219 30.7121V12.7191C29.2219 10.1035 27.1008 7.98242 24.4875 7.98242H6.49219C3.87891 7.98242 1.75781 10.1035 1.75781 12.7191V19.0801" stroke="url(#paint2_linear_48_1834)" stroke-width="4.66667" stroke-miterlimit="10" stroke-linecap="round" stroke-linejoin="round"/>
<path d="M9.5083 29.2912L15.198 14.3522C15.3142 14.0679 15.7167 14.0674 15.8334 14.3515L21.4713 29.2912M11.2828 25.5705H19.7256M107.227 14.1696H113.508C116.121 14.1696 118.242 16.2907 118.242 18.9063V36.8993C118.242 39.5149 116.121 41.6336 113.508 41.6336H104.51L97.8494 47.2446C96.926 48.0227 95.5127 47.3641 95.5127 46.1571V41.6336C92.8994 41.6336 90.7783 39.5149 90.7783 36.8993V18.9063C90.7783 16.2907 92.8994 14.1696 95.5127 14.1696H99.0236" stroke="url(#paint3_linear_48_1834)" stroke-width="4.66667" stroke-miterlimit="10" stroke-linecap="round" stroke-linejoin="round"/>
<path d="M104.622 20.3262C102.371 20.7703 101.15 22.493 101.681 24.3804C102.325 26.6674 105.266 26.591 105.266 26.591C105.266 26.591 100.376 28.8427 100.376 31.9828C100.376 34.1885 102.227 35.4785 104.51 35.4785C106.794 35.4785 108.645 33.6274 108.645 31.3439M46.2492 112.016H51.1219C53.7375 112.016 55.8586 109.895 55.8586 107.28V89.2868C55.8586 86.6712 53.7375 84.5524 51.1219 84.5524H42.1266L35.4656 78.9415C34.5398 78.1634 33.1289 78.822 33.1289 80.029V84.5524C30.5133 84.5524 28.3945 86.6712 28.3945 89.2868V107.28C28.3945 109.895 30.5133 112.016 33.1289 112.016H38.0461M35.7338 93.075H48.5184M42.1261 90.7073V93.075" stroke="url(#paint4_linear_48_1834)" stroke-width="4.66667" stroke-miterlimit="10" stroke-linecap="round" stroke-linejoin="round"/>
<path d="M46.5803 93.0762C46.5803 93.0762 44.3591 104.21 34.5498 105.861" stroke="url(#paint5_linear_48_1834)" stroke-width="4.66667" stroke-miterlimit="10" stroke-linecap="round" stroke-linejoin="round"/>
<path d="M39.8857 98.6387C41.6506 101.687 44.6832 105.015 49.7023 105.86" stroke="url(#paint6_linear_48_1834)" stroke-width="4.66667" stroke-miterlimit="10" stroke-linecap="round" stroke-linejoin="round"/>
</g>
<defs>
<linearGradient id="paint0_linear_48_1834" x1="100.976" y1="36.1364" x2="26.986" y2="77.1072" gradientUnits="userSpaceOnUse">
<stop stop-color="#A45CFF"/>
<stop offset="1" stop-color="#3C0CFF"/>
</linearGradient>
<linearGradient id="paint1_linear_48_1834" x1="90.7784" y1="16.4935" x2="79.9036" y2="42.4057" gradientUnits="userSpaceOnUse">
<stop stop-color="#A45CFF"/>
<stop offset="1" stop-color="#3C0CFF"/>
</linearGradient>
<linearGradient id="paint2_linear_48_1834" x1="92.0738" y1="28.8433" x2="15.0563" y2="76.5308" gradientUnits="userSpaceOnUse">
<stop stop-color="#A45CFF"/>
<stop offset="1" stop-color="#3C0CFF"/>
</linearGradient>
<linearGradient id="paint3_linear_48_1834" x1="118.242" y1="23.0111" x2="86.7407" y2="78.2237" gradientUnits="userSpaceOnUse">
<stop stop-color="#A45CFF"/>
<stop offset="1" stop-color="#3C0CFF"/>
</linearGradient>
<linearGradient id="paint4_linear_48_1834" x1="108.645" y1="44.6522" x2="31.2112" y2="81.1856" gradientUnits="userSpaceOnUse">
<stop stop-color="#A45CFF"/>
<stop offset="1" stop-color="#3C0CFF"/>
</linearGradient>
<linearGradient id="paint5_linear_48_1834" x1="46.5803" y1="96.4681" x2="35.2925" y2="102.194" gradientUnits="userSpaceOnUse">
<stop stop-color="#A45CFF"/>
<stop offset="1" stop-color="#3C0CFF"/>
</linearGradient>
<linearGradient id="paint6_linear_48_1834" x1="49.7023" y1="100.554" x2="42.1681" y2="106.076" gradientUnits="userSpaceOnUse">
<stop stop-color="#A45CFF"/>
<stop offset="1" stop-color="#3C0CFF"/>
</linearGradient>
<clipPath id="clip0_48_1834">
<rect width="120" height="120" fill="white"/>
</clipPath>
</defs>
</svg>
