<svg width="92" height="120" viewBox="0 0 92 120" fill="none" xmlns="http://www.w3.org/2000/svg">
<path d="M61.9398 40.6563L52.3984 39.2707L48.1309 30.6223C47.9351 30.2256 47.6322 29.8916 47.2565 29.6581C46.8808 29.4245 46.4473 29.3008 46.005 29.3008C45.5626 29.3008 45.1291 29.4245 44.7534 29.6581C44.3777 29.8916 44.0748 30.2256 43.879 30.6223L39.6115 39.2707L30.0674 40.6563C29.6294 40.7194 29.2177 40.9038 28.8791 41.1888C28.5405 41.4737 28.2884 41.8477 28.1514 42.2685C28.0143 42.6893 27.9978 43.14 28.1036 43.5697C28.2094 43.9994 28.4334 44.3909 28.7503 44.6999L35.6548 51.4305L34.0241 60.935C33.9658 61.2753 33.9825 61.6241 34.0731 61.9573C34.1637 62.2904 34.3259 62.5997 34.5484 62.8636C34.771 63.1276 35.0485 63.3397 35.3615 63.4852C35.6745 63.6308 36.0156 63.7062 36.3608 63.7062C36.7462 63.7033 37.1251 63.6065 37.4647 63.4242L45.9999 58.9461L54.535 63.4242C54.926 63.6315 55.3672 63.7252 55.8087 63.6947C56.2502 63.6642 56.6744 63.5108 57.0332 63.2518C57.392 62.9928 57.6712 62.6385 57.8391 62.2291C58.007 61.8196 58.057 61.3714 57.9834 60.935L56.3527 51.4305L63.2572 44.6999C63.6308 44.3354 63.8737 43.8579 63.9483 43.3413C64.1348 42.0451 63.2358 40.843 61.9398 40.6563ZM52.1456 48.8856C51.8689 49.1548 51.6621 49.4875 51.5432 49.8548C51.4244 50.2221 51.3969 50.6128 51.4634 50.9931L52.4907 56.9914L47.1038 54.1595C46.7619 53.9832 46.3822 53.8928 45.9976 53.8961C45.613 53.8993 45.2349 53.996 44.896 54.1779L39.509 57.0099L40.539 51.0115C40.6055 50.6313 40.5781 50.2405 40.4592 49.8732C40.3403 49.506 40.1335 49.1733 39.8568 48.9041L35.4996 44.655L41.5215 43.7804C41.9019 43.7253 42.2633 43.5786 42.5744 43.3528C42.8856 43.127 43.1372 42.829 43.3076 42.4844L45.9999 37.0262L48.6922 42.4844C48.8625 42.829 49.114 43.1271 49.4252 43.3529C49.7364 43.5787 50.0978 43.7254 50.4783 43.7804L56.5028 44.6392L52.1456 48.8856Z" fill="url(#paint0_linear_48_1943)"/>
<path d="M45.9999 16.1758C28.9606 16.1758 15.1473 29.9891 15.1473 47.0284C15.1473 64.0677 28.9606 77.881 45.9999 77.881C63.0315 77.862 76.8338 64.0599 76.8525 47.0284C76.8525 29.9891 63.0392 16.1758 45.9999 16.1758ZM45.9999 73.1393C31.5793 73.1393 19.889 61.449 19.889 47.0284C19.889 32.6078 31.5793 20.9175 45.9999 20.9175C60.4141 20.9335 72.0948 32.6145 72.1109 47.0284C72.1109 61.4492 60.4205 73.1393 45.9999 73.1393Z" fill="url(#paint1_linear_48_1943)"/>
<path d="M89.4233 53.4231L84.9872 55.1011C85.6774 56.9266 86.5362 59.1975 86.2411 60.1063C85.9091 61.1284 83.8993 62.4377 82.1236 63.594C80.0162 64.9692 77.619 66.5287 75.9725 68.794C74.3261 71.0596 73.5491 73.8651 72.8824 76.3149C72.3556 78.2407 71.7076 80.6379 70.8673 81.249C70.0269 81.8601 67.5928 81.7257 65.5988 81.631C63.0515 81.5098 60.1642 81.3675 57.4484 82.2579C54.8141 83.1114 52.6251 84.8921 50.6862 86.4543C49.0239 87.7979 47.1378 89.3205 46.0026 89.3205C44.8674 89.3205 42.9809 87.7979 41.3163 86.4492C39.3774 84.8817 37.1806 83.1063 34.5568 82.2555C33.0553 81.768 31.372 81.5417 29.2568 81.5417C28.2794 81.5417 27.3232 81.5864 26.4013 81.6313C24.423 81.726 21.9624 81.8421 21.1486 81.2493C20.3347 80.6566 19.6576 78.2356 19.1308 76.3099C18.4643 73.8573 17.7109 71.0807 16.0433 68.7889C14.3757 66.4972 12.0023 64.9665 9.88954 63.589C8.11679 62.4326 6.10674 61.1233 5.77472 60.1013C5.47962 59.1978 6.34111 56.9244 7.03137 55.0961C7.94556 52.6804 8.97802 49.9434 8.97802 47.0299C8.97802 44.1163 7.94262 41.3794 7.02869 38.9637C6.33843 37.1383 5.47961 34.8647 5.77204 33.9585C6.10406 32.9365 8.11385 31.6271 9.88954 30.4681C11.997 29.093 14.3915 27.5334 16.0406 25.2708C17.6898 23.0079 18.464 20.1998 19.1308 17.7499C19.6576 15.8241 20.3055 13.4269 21.1459 12.8159C21.9863 12.2048 24.4204 12.3391 26.4013 12.4338C28.9485 12.555 31.8385 12.6974 34.5675 11.807C37.2017 10.9535 39.3881 9.17273 41.3297 7.61055C42.9788 6.26186 44.865 4.74168 46.0002 4.74168C47.1354 4.74168 49.0218 6.26159 50.6838 7.61028C52.6227 9.17755 54.8195 10.9532 57.4459 11.8067C60.1645 12.6891 63.0542 12.5521 65.6122 12.4336C67.5904 12.3413 70.051 12.2254 70.8649 12.8156C71.6787 13.4058 72.3428 15.8212 72.8696 17.7496C73.536 20.2022 74.2894 22.9788 75.957 25.2706C77.6246 27.5623 79.998 29.0956 82.1108 30.4705C83.8838 31.6269 85.8936 32.9362 86.2283 33.9582C86.5234 34.8644 85.6619 37.1377 84.9716 38.9634C84.0574 41.3791 83.0223 44.1187 83.0223 47.0296C83.0223 49.9405 84.0577 52.6801 84.9716 55.0958L87.1896 54.2581L89.4075 53.4204C88.5618 51.1867 87.7637 49.0766 87.7637 47.0296C87.7637 44.9826 88.554 42.8728 89.4048 40.6388C90.5034 37.741 91.5438 34.9829 90.7351 32.4937C89.8843 29.8779 87.2474 28.1603 84.6974 26.4981C82.8535 25.289 80.925 24.0404 79.7898 22.4809C78.6544 20.9214 78.0302 18.6638 77.4427 16.5064C76.6128 13.4558 75.8305 10.5739 73.6414 8.98278C71.4524 7.3917 68.515 7.54981 65.3751 7.69723C63.128 7.80264 60.802 7.91314 58.9081 7.29672C57.1169 6.71454 55.3596 5.29469 53.6631 3.92219C51.2684 1.99427 48.8131 0 45.9999 0C43.1867 0 40.7314 1.99427 38.3342 3.92513C36.6377 5.29763 34.8808 6.71481 33.0893 7.29698C31.1954 7.91073 28.9718 7.80799 26.6222 7.6975C23.4821 7.55008 20.5161 7.41042 18.3533 8.98304C16.1905 10.5557 15.3819 13.4612 14.552 16.509C13.9645 18.6665 13.3588 20.8978 12.2049 22.4836C11.0509 24.0693 9.15433 25.2917 7.29731 26.5007C4.74735 28.163 2.11044 29.8806 1.25965 32.4964C0.450865 34.9859 1.49134 37.7333 2.58988 40.6442C3.43291 42.8781 4.23099 44.988 4.23099 47.0323C4.23099 49.0766 3.44066 51.1864 2.58988 53.4231C1.49134 56.3209 0.450865 59.0817 1.25965 61.5682C2.11044 64.1867 4.74735 65.9043 7.29731 67.5665C9.14122 68.7756 11.0697 70.0242 12.2022 71.5837C13.335 73.1432 13.9618 75.4007 14.5493 77.5582C15.055 79.4233 15.5478 81.2252 16.3539 82.7082L6.74938 107.27C6.60043 107.652 6.55289 108.066 6.61137 108.471C6.66986 108.876 6.83237 109.26 7.08309 109.584C7.33381 109.908 7.66417 110.161 8.04197 110.319C8.41978 110.478 8.83214 110.535 9.23887 110.487L22.6736 108.88L31.4485 119.169C31.7152 119.481 32.0584 119.719 32.4445 119.859C32.8307 119.998 33.2465 120.035 33.6512 119.966C34.0559 119.897 34.4357 119.724 34.7534 119.463C35.071 119.203 35.3156 118.865 35.4632 118.482L45.0389 93.983C45.6764 94.0892 46.3271 94.0892 46.9647 93.983L56.5376 118.482C56.6869 118.863 56.9325 119.2 57.2506 119.458C57.5687 119.717 57.9483 119.888 58.3525 119.956C58.7566 120.024 59.1715 119.986 59.5566 119.846C59.9417 119.706 60.2839 119.468 60.5497 119.156L69.3246 108.867L82.7593 110.474C83.1647 110.521 83.5755 110.464 83.9521 110.306C84.3287 110.149 84.6583 109.897 84.909 109.575C85.1596 109.253 85.3228 108.871 85.3828 108.468C85.4428 108.064 85.3976 107.651 85.2515 107.27L75.6432 82.7031C76.4493 81.2201 76.9392 79.4182 77.4478 77.5531C78.0326 75.3957 78.6383 73.1644 79.7949 71.5786C80.9513 69.9929 82.8455 68.7705 84.7025 67.5614C87.2524 65.8992 89.892 64.1816 90.7402 61.5658C91.5489 59.0763 90.5111 56.3313 89.4233 53.4231ZM32.478 113.079L25.4523 104.836C25.1985 104.539 24.8753 104.309 24.5113 104.167C24.1473 104.025 23.7539 103.976 23.366 104.022L12.6075 105.311L20.1654 85.9802C22.0489 86.5809 24.2853 86.4754 26.6193 86.365C27.4886 86.3227 28.387 86.2807 29.2535 86.2807C30.8551 86.2807 32.0748 86.4334 33.089 86.7628C34.8803 87.345 36.6348 88.7621 38.334 90.1373C39.1243 90.7722 39.9146 91.4124 40.7258 91.9812L32.478 113.079ZM79.3918 105.311L68.636 104.022C68.2478 103.976 67.8543 104.026 67.4903 104.169C67.1263 104.311 66.8032 104.541 66.5497 104.839L59.5213 113.082L51.2681 91.9863C52.0796 91.4122 52.875 90.7719 53.6599 90.1424C55.3564 88.7699 57.1134 87.3527 58.9049 86.7705C60.7964 86.1568 63.017 86.2595 65.3746 86.37C67.7322 86.4808 69.9451 86.5833 71.8286 85.9853L79.3918 105.311Z" fill="url(#paint2_linear_48_1943)"/>
<defs>
<linearGradient id="paint0_linear_48_1943" x1="63.9728" y1="38.4288" x2="31.7829" y2="56.5539" gradientUnits="userSpaceOnUse">
<stop stop-color="#A45CFF"/>
<stop offset="1" stop-color="#3C0CFF"/>
</linearGradient>
<linearGradient id="paint1_linear_48_1943" x1="76.8525" y1="32.5465" x2="20.4495" y2="62.951" gradientUnits="userSpaceOnUse">
<stop stop-color="#A45CFF"/>
<stop offset="1" stop-color="#3C0CFF"/>
</linearGradient>
<linearGradient id="paint2_linear_48_1943" x1="91.0286" y1="31.8368" x2="-0.268547" y2="68.7708" gradientUnits="userSpaceOnUse">
<stop stop-color="#A45CFF"/>
<stop offset="1" stop-color="#3C0CFF"/>
</linearGradient>
</defs>
</svg>
