<svg width="120" height="120" viewBox="0 0 120 120" fill="none" xmlns="http://www.w3.org/2000/svg">
<g clip-path="url(#clip0_48_1859)">
<mask id="mask0_48_1859" style="mask-type:luminance" maskUnits="userSpaceOnUse" x="0" y="0" width="120" height="120">
<path d="M120 0H0V120H120V0Z" fill="white"/>
<path d="M62.3437 38.9063C63.6375 38.9063 64.6875 39.9563 64.6875 41.25C64.6875 42.5438 63.6375 43.5938 62.3437 43.5938C61.05 43.5938 60 42.5438 60 41.25C60 39.9563 61.05 38.9063 62.3437 38.9063Z" fill="white"/>
<path d="M62.3437 52.9688C63.6375 52.9688 64.6875 54.0188 64.6875 55.3125C64.6875 56.6063 63.6375 57.6562 62.3437 57.6562C61.05 57.6562 60 56.6063 60 55.3125C60 54.0188 61.05 52.9688 62.3437 52.9688Z" fill="white"/>
<path d="M29.5312 105.938C30.825 105.938 31.875 106.988 31.875 108.281C31.875 109.575 30.825 110.625 29.5312 110.625C28.2375 110.625 27.1875 109.575 27.1875 108.281C27.1875 106.988 28.2375 105.938 29.5312 105.938Z" fill="white"/>
</mask>
<g mask="url(#mask0_48_1859)">
<mask id="mask1_48_1859" style="mask-type:luminance" maskUnits="userSpaceOnUse" x="0" y="0" width="120" height="120">
<path d="M0 0.000343323H120V120H0V0.000343323Z" fill="white"/>
</mask>
<g mask="url(#mask1_48_1859)">
<path fill-rule="evenodd" clip-rule="evenodd" d="M3.7605 108.282C3.7605 114.748 9.00281 119.99 15.4688 119.99H62.3437C68.8097 119.99 74.052 114.748 74.052 108.282V98.9069V77.5738L81.8715 71.7092H109.219C113.097 71.7092 116.239 68.5669 116.239 64.6884V31.8759C116.239 27.9974 113.097 24.8551 109.219 24.8551H74.052V11.7197C74.052 5.25372 68.8097 0.0114136 62.3437 0.0114136H15.4688C9.00281 0.0114136 3.7605 5.25372 3.7605 11.7197V98.9069V108.282ZM8.42717 96.5736V14.0531H69.3853V24.8551H52.9688C49.0903 24.8551 45.948 27.9974 45.948 31.8759V64.6884C45.948 68.5669 49.0903 71.7092 52.9688 71.7092H60.0105V83.4383C60.0105 84.3221 60.5098 85.1301 61.3003 85.5253C62.0908 85.9205 63.0367 85.8353 63.7438 85.305L69.3853 81.0738V96.5736H8.42717ZM69.3853 101.24H8.42717V108.282C8.42717 112.171 11.5801 115.324 15.4688 115.324H62.3437C66.2323 115.324 69.3853 112.171 69.3853 108.282V101.24ZM68.9894 9.38641H8.82303C9.78587 6.64433 12.3979 4.67808 15.4688 4.67808H62.3437C65.4145 4.67808 68.0266 6.64433 68.9894 9.38641ZM70.3474 74.5189C70.329 74.5323 70.3108 74.5459 70.2929 74.5598L64.6771 78.7716V69.3758C64.6771 68.0872 63.6325 67.0425 62.3438 67.0425H52.9688C51.6676 67.0425 50.6147 65.9895 50.6147 64.6884V31.8759C50.6147 30.5748 51.6676 29.5218 52.9688 29.5218H109.219C110.52 29.5218 111.573 30.5748 111.573 31.8759V64.6884C111.573 65.9895 110.52 67.0425 109.219 67.0425H81.0937C80.5889 67.0425 80.0976 67.2063 79.6937 67.5092L70.3474 74.5189ZM31.8751 108.282C31.8751 106.988 30.8251 105.938 29.5313 105.938C28.2376 105.938 27.1876 106.988 27.1876 108.282C27.1876 109.576 28.2376 110.626 29.5313 110.626C30.8251 110.626 31.8751 109.576 31.8751 108.282ZM64.6876 55.3133C64.6876 54.0196 63.6376 52.9696 62.3438 52.9696C61.0501 52.9696 60.0001 54.0196 60.0001 55.3133C60.0001 56.6071 61.0501 57.6571 62.3438 57.6571C63.6376 57.6571 64.6876 56.6071 64.6876 55.3133ZM62.3438 38.9071C63.6376 38.9071 64.6876 39.9571 64.6876 41.2508C64.6876 42.5446 63.6376 43.5946 62.3438 43.5946C61.0501 43.5946 60.0001 42.5446 60.0001 41.2508C60.0001 39.9571 61.0501 38.9071 62.3438 38.9071ZM69.3855 41.2508C69.3855 42.5395 70.4302 43.5842 71.7188 43.5842H99.8438C101.132 43.5842 102.177 42.5395 102.177 41.2508C102.177 39.9622 101.132 38.9175 99.8438 38.9175H71.7188C70.4302 38.9175 69.3855 39.9622 69.3855 41.2508ZM71.7188 57.6466C70.4302 57.6466 69.3855 56.602 69.3855 55.3133C69.3855 54.0247 70.4302 52.98 71.7188 52.98H99.8438C101.132 52.98 102.177 54.0247 102.177 55.3133C102.177 56.602 101.132 57.6466 99.8438 57.6466H71.7188ZM38.9063 110.615C37.6177 110.615 36.573 109.571 36.573 108.282C36.573 106.993 37.6177 105.949 38.9063 105.949H48.2813C49.57 105.949 50.6146 106.993 50.6146 108.282C50.6146 109.571 49.57 110.615 48.2813 110.615H38.9063Z" fill="url(#paint0_linear_48_1859)"/>
</g>
</g>
</g>
<defs>
<linearGradient id="paint0_linear_48_1859" x1="116.239" y1="88.1591" x2="10.5433" y2="34.7444" gradientUnits="userSpaceOnUse">
<stop stop-color="#A45CFF"/>
<stop offset="1" stop-color="#3C0CFF"/>
</linearGradient>
<clipPath id="clip0_48_1859">
<rect width="120" height="120" fill="white"/>
</clipPath>
</defs>
</svg>
