<svg width="120" height="120" viewBox="0 0 120 120" fill="none" xmlns="http://www.w3.org/2000/svg">
<path d="M96 48C109.234 48 120 37.2343 120 24C120 10.7657 109.234 0 96 0C86.3897 0 78.1035 5.6905 74.2745 13.8682L67.8477 11.496C67.9237 11.004 68 10.5117 68 10C68 4.48625 63.5138 0 58 0C52.4862 0 48 4.48625 48 10C48 15.5138 52.4862 20 58 20C61.582 20 64.706 18.09 66.4717 15.252L72.8877 17.62C72.3242 19.6563 72 21.788 72 24C72 26.62 72.4355 29.1357 73.2158 31.498L51.2197 40.8205C47.1922 33.2057 39.1982 28 30 28C27.0195 28 24.1758 28.5725 21.54 29.5683L16.0077 17.9425C18.4177 16.1142 20 13.25 20 10C20 4.48625 15.5138 0 10 0C4.48625 0 0 4.48625 0 10C0 15.5138 4.48625 20 10 20C10.832 20 11.63 19.8682 12.4043 19.6737L17.9298 31.288C10.8075 35.456 6 43.168 6 52C6 60.296 10.2325 67.6182 16.6485 71.9297L12.99 78.5058C12.038 78.206 11.0475 78 10 78C4.48625 78 0 82.4862 0 88C0 93.5138 4.48625 98 10 98C15.5138 98 20 93.5138 20 88C20 84.9718 18.6182 82.2862 16.4862 80.4522L20.1523 73.8623C23.1603 75.2238 26.4883 76 30 76C35.4882 76 40.5362 74.128 44.584 71.0155L52.456 79.6758C48.4638 83.9638 46 89.6925 46 96C46 97.2237 46.122 98.416 46.2977 99.59L37.0363 101.788C35.4425 98.38 32.0037 96 28 96C22.4862 96 18 100.486 18 106C18 111.514 22.4862 116 28 116C33.5138 116 38 111.514 38 106C38 105.89 37.9698 105.786 37.9678 105.676L47.212 103.484C50.3643 113.061 59.38 120 70 120C83.2345 120 94 109.234 94 96C94 91.8965 92.962 88.0322 91.1375 84.6525L102.886 77.0137C104.702 78.8537 107.218 80 110 80C115.514 80 120 75.5138 120 70C120 64.4862 115.514 60 110 60C104.486 60 100 64.4862 100 70C100 71.292 100.266 72.5195 100.714 73.6543L88.9385 81.3095C86.5696 78.2623 83.5043 75.8277 80 74.21L89.7617 47.1485C91.754 47.6855 93.8398 48 96 48ZM58 16C54.6925 16 52 13.3075 52 10C52 6.6925 54.6925 4 58 4C61.3075 4 64 6.6925 64 10C64 13.3075 61.3075 16 58 16ZM4 10C4 6.6925 6.6925 4 10 4C13.3075 4 16 6.6925 16 10C16 13.3075 13.3075 16 10 16C6.6925 16 4 13.3075 4 10ZM10 94C6.6925 94 4 91.3075 4 88C4 84.6925 6.6925 82 10 82C13.3075 82 16 84.6925 16 88C16 91.3075 13.3075 94 10 94ZM28 112C24.6925 112 22 109.307 22 106C22 102.693 24.6925 100 28 100C31.3075 100 34 102.693 34 106C34 109.307 31.3075 112 28 112ZM110 64C113.307 64 116 66.6925 116 70C116 73.3075 113.307 76 110 76C106.693 76 104 73.3075 104 70C104 66.6925 106.693 64 110 64ZM84.2217 40.128C85.1142 35.502 89.1925 32 94 32H98C102.807 32 106.886 35.502 107.778 40.128C104.47 42.5497 100.406 44 96 44C91.5938 44 87.5302 42.55 84.2217 40.128ZM96 28C92.6925 28 90 25.3075 90 22C90 18.6925 92.6925 16 96 16C99.3075 16 102 18.6925 102 22C102 25.3075 99.3075 28 96 28ZM96 4C107.028 4 116 12.9718 116 24C116 29 114.141 33.5683 111.096 37.0783C109.694 33.3878 106.773 30.4425 103.132 28.9883C104.903 27.1835 106 24.72 106 22C106 16.4862 101.514 12 96 12C90.4862 12 86 16.4862 86 22C86 24.7197 87.0975 27.1835 88.8682 28.9883C85.2275 30.4425 82.3058 33.3878 80.9043 37.0783C77.8585 33.5683 76 29 76 24C76 12.9718 84.9718 4 96 4ZM10 52C10 40.9718 18.9718 32 30 32C41.0282 32 50 40.9718 50 52C50 57.0157 48.13 61.5958 45.0682 65.1103C43.672 61.4063 40.7443 58.4463 37.0938 56.9883C38.8622 55.1835 39.96 52.7197 39.96 50C39.96 44.4862 35.4737 40 29.96 40C24.4462 40 19.96 44.4862 19.96 50C19.96 52.7197 21.0575 55.1835 22.828 56.9883C19.1982 58.4358 16.2805 61.37 14.874 65.0458C11.8457 61.54 10 56.9865 10 52ZM23.96 50C23.96 46.6925 26.6525 44 29.96 44C33.2675 44 35.96 46.6925 35.96 50C35.96 53.3075 33.2675 56 29.96 56C26.6525 56 23.96 53.3075 23.96 50ZM18.1885 68.1015C19.0897 63.4883 23.162 60 27.96 60H31.96C36.7762 60 40.8625 63.5138 41.7422 68.1543C38.4405 70.5618 34.3898 72 30 72C25.578 72 21.502 70.54 18.1885 68.1015ZM58.1885 112.102C59.0897 107.488 63.162 104 67.96 104H71.96C76.7762 104 80.8625 107.514 81.7422 112.154C78.4405 114.562 74.3898 116 70 116C65.578 116 61.502 114.54 58.1885 112.102ZM69.96 100C66.6525 100 63.96 97.3075 63.96 94C63.96 90.6925 66.6525 88 69.96 88C73.2675 88 75.96 90.6925 75.96 94C75.96 97.3075 73.2675 100 69.96 100ZM90 96C90 101.016 88.13 105.596 85.0683 109.11C83.6718 105.406 80.7443 102.446 77.0938 100.988C78.8622 99.1835 79.96 96.7197 79.96 94C79.96 88.4862 75.4737 84 69.96 84C64.4462 84 59.96 88.4862 59.96 94C59.96 96.7197 61.0575 99.1835 62.828 100.988C59.1982 102.436 56.2805 105.37 54.874 109.046C51.8458 105.54 50 100.986 50 96C50 84.9718 58.9718 76 70 76C81.0282 76 90 84.9718 90 96ZM76.2383 72.8515C74.246 72.3145 72.1602 72 70 72C64.5118 72 59.4638 73.872 55.416 76.9845L47.544 68.3242C51.5362 64.0362 54 58.3075 54 52C54 49.38 53.5645 46.8642 52.7842 44.502L74.7803 35.1795C77.2443 39.838 81.1982 43.5763 86.002 45.79L76.2383 72.8515Z" fill="url(#paint0_linear_48_1829)"/>
<defs>
<linearGradient id="paint0_linear_48_1829" x1="120" y1="31.8367" x2="10.3114" y2="90.9652" gradientUnits="userSpaceOnUse">
<stop stop-color="#A45CFF"/>
<stop offset="1" stop-color="#3C0CFF"/>
</linearGradient>
</defs>
</svg>
