<svg width="100" height="100" viewBox="0 0 100 100" fill="none" xmlns="http://www.w3.org/2000/svg">
<path fill-rule="evenodd" clip-rule="evenodd" d="M27.65 60H10C8.9 60 7.925 60.725 7.6 61.775L0.125 86.725C0.0750005 86.875 0 87.425 0 87.55V97.5C0 98.875 1.125 100 2.5 100H97.5C98.875 100 100 98.875 100 97.5V87.55C100 87.425 99.925 86.875 99.875 86.725L92.4 61.775C92.075 60.725 91.1 60 90 60H72.35C72.45 59.175 72.5 58.35 72.5 57.5C72.5 51.5326 70.1295 45.8097 65.9099 41.5901C61.6903 37.3705 55.9674 35 50 35C44.0326 35 38.3097 37.3705 34.0901 41.5901C29.8705 45.8097 27.5 51.5326 27.5 57.5C27.5 58.35 27.55 59.175 27.65 60ZM95 90V95H5V90H95ZM71.225 65C69.8295 68.9197 67.3817 72.3794 64.15 75H72.525C73.9 75 75.025 76.125 75.025 77.5C75.025 78.875 73.9 80 72.525 80H27.5C26.125 80 25 78.875 25 77.5C25 76.125 26.125 75 27.5 75H35.875C32.6433 72.3794 30.1955 68.9197 28.8 65H11.875L5.875 85H94.15L88.15 65H71.225ZM50 40C59.65 40 67.5 47.85 67.5 57.5C67.5 67.15 59.65 75 50 75C40.35 75 32.5 67.15 32.5 57.5C32.5 47.85 40.35 40 50 40ZM47.5 47.625C46.0857 47.9079 44.8136 48.6735 43.9016 49.7908C42.9895 50.9081 42.494 52.3077 42.5 53.75C42.5 55.425 43.15 57 44.325 58.175C45.5 59.35 47.075 60 48.75 60H51.25C51.575 60 51.9 60.125 52.125 60.375C52.35 60.6 52.5 60.925 52.5 61.25C52.5 61.575 52.375 61.9 52.125 62.125C51.875 62.35 51.575 62.5 51.25 62.5H45C43.625 62.5 42.5 63.625 42.5 65C42.5 66.375 43.625 67.5 45 67.5H47.5V70C47.5 71.375 48.625 72.5 50 72.5C51.375 72.5 52.5 71.375 52.5 70V67.375C53.9143 67.0921 55.1864 66.3265 56.0984 65.2092C57.0105 64.0919 57.506 62.6923 57.5 61.25C57.5 59.575 56.85 58 55.675 56.825C54.5 55.65 52.925 55 51.25 55H48.75C48.425 55 48.1 54.875 47.875 54.625C47.65 54.375 47.5 54.075 47.5 53.75C47.5 53.425 47.625 53.1 47.875 52.875C48.1073 52.6417 48.4209 52.5073 48.75 52.5H55C56.375 52.5 57.5 51.375 57.5 50C57.5 48.625 56.375 47.5 55 47.5H52.5V45C52.5 43.625 51.375 42.5 50 42.5C48.625 42.5 47.5 43.625 47.5 45V47.625ZM75 45V52.5C75 53.875 76.125 55 77.5 55C78.875 55 80 53.875 80 52.5V45C80 43.625 78.875 42.5 77.5 42.5C76.125 42.5 75 43.625 75 45ZM22.5 35V47.5C22.5 48.875 23.625 50 25 50C26.375 50 27.5 48.875 27.5 47.5V35C27.5 33.625 26.375 32.5 25 32.5C23.625 32.5 22.5 33.625 22.5 35ZM77.5 35C78.875 35 80 36.125 80 37.5C80 38.875 78.875 40 77.5 40C76.125 40 75 38.875 75 37.5C75 36.125 76.125 35 77.5 35ZM32.7 25.375C32.2519 26.2842 32.0168 27.2835 32.0125 28.2971C32.0082 29.3107 32.2347 30.312 32.675 31.225C33.775 33.55 36.125 35 38.7 35C40.125 35 41.5 34.5 42.6 33.575L55.9 22.5H62.25C61.05 24.85 61 27.675 62.2 30.125C62.9155 31.59 64.0287 32.824 65.4125 33.6861C66.7962 34.5482 68.3947 35.0035 70.025 35H70.05C72.075 35 74.05 34.3 75.6 33C78.925 30.25 86.15 24.35 88.4 22.5H97.5C98.875 22.5 100 21.375 100 20V2.5C100 1.125 98.875 0 97.5 0H42.025C39.825 0 37.7 0.675001 35.925 1.95C30.95 5.525 18.35 14.6 12.85 18.575C10.4 20.35 9.375 23.5 10.35 26.35C10.95 28.15 12.275 29.65 14.025 30.45C15.75 31.25 17.75 31.3 19.525 30.6L32.7 25.375ZM95 17.5H87.5C86.925 17.5 86.375 17.7 85.925 18.075C85.925 18.075 76.4 25.875 72.425 29.15C71.75 29.7 70.925 30 70.05 30H70.025C68.6 30 67.325 29.2 66.7 27.925C66.1 26.675 66.275 25.175 67.15 24.1C68.35 22.6 69.2 21.55 69.2 21.55C69.4939 21.1814 69.6781 20.7375 69.7315 20.2691C69.7849 19.8007 69.7053 19.3268 69.5018 18.9015C69.2983 18.4763 68.9791 18.1169 68.5809 17.8646C68.1827 17.6124 67.7214 17.4773 67.25 17.475H41C39.675 17.475 38.375 17.725 37.15 18.2L17.7 25.9C17.4543 25.9974 17.1914 26.0441 16.9271 26.0374C16.6629 26.0307 16.4027 25.9707 16.1622 25.861C15.9217 25.7512 15.7059 25.594 15.5277 25.3988C15.3494 25.2036 15.2125 24.9744 15.125 24.725C14.85 23.925 15.125 23.075 15.825 22.575L38.9 5.975C39.825 5.3 40.925 4.95 42.05 4.95H95.025V17.45L95 17.5ZM48.1 22.5H41.2L37.375 27.275C36.975 27.775 36.9 28.475 37.175 29.05C37.45 29.625 38.05 30 38.675 30C38.925 30 39.175 29.9 39.375 29.75L48.075 22.5H48.1Z" fill="url(#paint0_linear_21_4583)"/>
<defs>
<linearGradient id="paint0_linear_21_4583" x1="100" y1="26.5306" x2="8.5928" y2="75.8044" gradientUnits="userSpaceOnUse">
<stop stop-color="#A45CFF"/>
<stop offset="1" stop-color="#3C0CFF"/>
</linearGradient>
</defs>
</svg>
