<svg width="120" height="120" viewBox="0 0 120 120" fill="none" xmlns="http://www.w3.org/2000/svg">
<path fill-rule="evenodd" clip-rule="evenodd" d="M53.3348 37.8926C54.6293 37.8926 55.6786 38.9419 55.6786 40.2363V57.1966L71.2527 63.93C72.4408 64.4437 72.9876 65.8233 72.4739 67.0114C71.9602 68.1996 70.5806 68.7463 69.3925 68.2326L52.4047 60.888C51.5466 60.517 50.9911 59.6716 50.9911 58.7367V40.2363C50.9911 38.9419 52.0404 37.8926 53.3348 37.8926Z" fill="url(#paint0_linear_48_1848)"/>
<path fill-rule="evenodd" clip-rule="evenodd" d="M53.3348 42.3457C44.2955 42.3457 36.9635 49.6819 36.9635 58.7367C36.9635 67.7915 44.2955 75.1277 53.3348 75.1277C62.3741 75.1277 69.7062 67.7915 69.7062 58.7367C69.7062 49.6819 62.3741 42.3457 53.3348 42.3457ZM32.276 58.7367C32.276 47.0977 41.702 37.6582 53.3348 37.6582C64.9676 37.6582 74.3937 47.0977 74.3937 58.7367C74.3937 70.3757 64.9676 79.8152 53.3348 79.8152C41.702 79.8152 32.276 70.3757 32.276 58.7367Z" fill="url(#paint1_linear_48_1848)"/>
<path fill-rule="evenodd" clip-rule="evenodd" d="M26.5967 8.64797C26.5967 3.87424 30.4632 0 35.2381 0H98.0925C102.867 0 106.734 3.87424 106.734 8.64797V98.352C106.734 103.126 102.867 107 98.0925 107H91.5284C90.234 107 89.1846 105.951 89.1846 104.656C89.1846 103.362 90.234 102.312 91.5284 102.312H98.0925C100.274 102.312 102.046 100.542 102.046 98.352V8.64797C102.046 6.45842 100.274 4.6875 98.0925 4.6875H35.2381C33.0567 4.6875 31.2842 6.45842 31.2842 8.64797V14.8751C31.2842 16.1695 30.2348 17.2188 28.9404 17.2188C27.646 17.2188 26.5967 16.1695 26.5967 14.8751V8.64797Z" fill="url(#paint2_linear_48_1848)"/>
<path fill-rule="evenodd" clip-rule="evenodd" d="M69.5791 13.1786C70.4548 12.8158 71.4628 13.0161 72.1332 13.6861L92.7165 34.2593C93.387 34.9296 93.5877 35.9377 93.225 36.8137C92.8623 37.6896 92.0077 38.2608 91.0596 38.2608H76.7798C72.005 38.2608 68.1326 34.3915 68.1326 29.6166V15.3438C68.1326 14.396 68.7035 13.5414 69.5791 13.1786ZM72.8201 21.0002V29.6166C72.8201 31.8006 74.5918 33.5733 76.7798 33.5733H85.3993L72.8201 21.0002Z" fill="url(#paint3_linear_48_1848)"/>
<path fill-rule="evenodd" clip-rule="evenodd" d="M13.2664 21.6442C13.2664 16.869 17.1389 13 21.9136 13H70.4764C71.0978 13 71.6937 13.2468 72.1332 13.6861L92.7163 34.2593C93.1561 34.6988 93.4032 35.2952 93.4032 35.917V111.356C93.4032 116.131 89.5306 120 84.7559 120H21.9136C17.1388 120 13.2664 116.131 13.2664 111.356V21.6442ZM21.9136 17.6875C19.7256 17.6875 17.9539 19.4599 17.9539 21.6442V111.356C17.9539 113.54 19.7256 115.312 21.9136 115.312H84.7559C86.944 115.312 88.7157 113.54 88.7157 111.356V36.8881L69.5059 17.6875H21.9136ZM67.9868 83.4859C69.2812 83.4859 70.3306 84.5353 70.3306 85.8297V101.816C70.3306 103.111 69.2812 104.16 67.9868 104.16C66.6924 104.16 65.6431 103.111 65.6431 101.816V85.8297C65.6431 84.5353 66.6924 83.4859 67.9868 83.4859ZM58.2188 88.0799C59.5132 88.0799 60.5625 89.1292 60.5625 90.4237V101.816C60.5625 103.111 59.5132 104.16 58.2188 104.16C56.9244 104.16 55.875 103.111 55.875 101.816V90.4237C55.875 89.1292 56.9244 88.0799 58.2188 88.0799ZM48.451 92.6741C49.7454 92.6741 50.7947 93.7235 50.7947 95.0179V101.816C50.7947 103.111 49.7454 104.16 48.451 104.16C47.1566 104.16 46.1072 103.111 46.1072 101.816V95.0179C46.1072 93.7235 47.1566 92.6741 48.451 92.6741ZM38.6829 97.2684C39.9773 97.2684 41.0267 98.3177 41.0267 99.6121V101.816C41.0267 103.111 39.9773 104.16 38.6829 104.16C37.3885 104.16 36.3392 103.111 36.3392 101.816V99.6121C36.3392 98.3177 37.3885 97.2684 38.6829 97.2684Z" fill="url(#paint4_linear_48_1848)"/>
<defs>
<linearGradient id="paint0_linear_48_1848" x1="72.6669" y1="45.9932" x2="50.3626" y2="54.5287" gradientUnits="userSpaceOnUse">
<stop stop-color="#A45CFF"/>
<stop offset="1" stop-color="#3C0CFF"/>
</linearGradient>
<linearGradient id="paint1_linear_48_1848" x1="74.3937" y1="48.8427" x2="35.8789" y2="69.585" gradientUnits="userSpaceOnUse">
<stop stop-color="#A45CFF"/>
<stop offset="1" stop-color="#3C0CFF"/>
</linearGradient>
<linearGradient id="paint2_linear_48_1848" x1="106.734" y1="28.3877" x2="25.4465" y2="61.2055" gradientUnits="userSpaceOnUse">
<stop stop-color="#A45CFF"/>
<stop offset="1" stop-color="#3C0CFF"/>
</linearGradient>
<linearGradient id="paint3_linear_48_1848" x1="93.4034" y1="19.7018" x2="70.3082" y2="32.1565" gradientUnits="userSpaceOnUse">
<stop stop-color="#A45CFF"/>
<stop offset="1" stop-color="#3C0CFF"/>
</linearGradient>
<linearGradient id="paint4_linear_48_1848" x1="93.4032" y1="41.3877" x2="12.1161" y2="74.2052" gradientUnits="userSpaceOnUse">
<stop stop-color="#A45CFF"/>
<stop offset="1" stop-color="#3C0CFF"/>
</linearGradient>
</defs>
</svg>
