<svg width="94" height="120" viewBox="0 0 94 120" fill="none" xmlns="http://www.w3.org/2000/svg">
<path fill-rule="evenodd" clip-rule="evenodd" d="M40.335 37.8945C41.6294 37.8945 42.6787 38.9439 42.6787 40.2383V57.1986L58.2528 63.932C59.4409 64.4457 59.9877 65.8253 59.474 67.0134C58.9603 68.2015 57.5807 68.7483 56.3926 68.2346L39.4049 60.89C38.5468 60.519 37.9912 59.6735 37.9912 58.7387V40.2383C37.9912 38.9439 39.0405 37.8945 40.335 37.8945Z" fill="url(#paint0_linear_48_1931)"/>
<path fill-rule="evenodd" clip-rule="evenodd" d="M40.335 42.3477C31.2956 42.3477 23.9636 49.6838 23.9636 58.7387C23.9636 67.7935 31.2956 75.1297 40.335 75.1297C49.3743 75.1297 56.7063 67.7935 56.7063 58.7387C56.7063 49.6838 49.3743 42.3477 40.335 42.3477ZM19.2761 58.7387C19.2761 47.0997 28.7022 37.6602 40.335 37.6602C51.9677 37.6602 61.3938 47.0997 61.3938 58.7387C61.3938 70.3777 51.9677 79.8172 40.335 79.8172C28.7022 79.8172 19.2761 70.3777 19.2761 58.7387Z" fill="url(#paint1_linear_48_1931)"/>
<path fill-rule="evenodd" clip-rule="evenodd" d="M13.5967 8.64797C13.5967 3.87424 17.4632 0 22.2381 0H85.0925C89.8674 0 93.7339 3.87424 93.7339 8.64797V98.352C93.7339 103.126 89.8674 107 85.0925 107H78.5284C77.234 107 76.1846 105.951 76.1846 104.656C76.1846 103.362 77.234 102.312 78.5284 102.312H85.0925C87.2739 102.312 89.0464 100.542 89.0464 98.352V8.64797C89.0464 6.45842 87.2739 4.6875 85.0925 4.6875H22.2381C20.0567 4.6875 18.2842 6.45842 18.2842 8.64797V14.8751C18.2842 16.1695 17.2348 17.2188 15.9404 17.2188C14.646 17.2188 13.5967 16.1695 13.5967 14.8751V8.64797Z" fill="url(#paint2_linear_48_1931)"/>
<path fill-rule="evenodd" clip-rule="evenodd" d="M56.5791 13.1786C57.4548 12.8158 58.4628 13.0161 59.1332 13.6861L79.7165 34.2593C80.387 34.9296 80.5877 35.9377 80.225 36.8137C79.8623 37.6896 79.0077 38.2608 78.0596 38.2608H63.7798C59.005 38.2608 55.1326 34.3915 55.1326 29.6166V15.3438C55.1326 14.396 55.7035 13.5414 56.5791 13.1786ZM59.8201 21.0002V29.6166C59.8201 31.8006 61.5918 33.5733 63.7798 33.5733H72.3993L59.8201 21.0002Z" fill="url(#paint3_linear_48_1931)"/>
<path fill-rule="evenodd" clip-rule="evenodd" d="M0.266357 21.6442C0.266357 16.869 4.13888 13 8.91362 13H57.4764C58.0978 13 58.6937 13.2468 59.1332 13.6861L79.7163 34.2593C80.1561 34.6988 80.4032 35.2952 80.4032 35.917V111.356C80.4032 116.131 76.5306 120 71.7559 120H8.91362C4.13882 120 0.266357 116.131 0.266357 111.356V21.6442ZM8.91362 17.6875C6.72556 17.6875 4.95386 19.4599 4.95386 21.6442V111.356C4.95386 113.54 6.72561 115.312 8.91362 115.312H71.7559C73.944 115.312 75.7157 113.54 75.7157 111.356V36.8881L56.5059 17.6875H8.91362ZM54.9868 83.4859C56.2812 83.4859 57.3306 84.5353 57.3306 85.8297V101.816C57.3306 103.111 56.2812 104.16 54.9868 104.16C53.6924 104.16 52.6431 103.111 52.6431 101.816V85.8297C52.6431 84.5353 53.6924 83.4859 54.9868 83.4859ZM45.2188 88.0799C46.5132 88.0799 47.5625 89.1292 47.5625 90.4237V101.816C47.5625 103.111 46.5132 104.16 45.2188 104.16C43.9244 104.16 42.875 103.111 42.875 101.816V90.4237C42.875 89.1292 43.9244 88.0799 45.2188 88.0799ZM35.451 92.6741C36.7454 92.6741 37.7947 93.7235 37.7947 95.0179V101.816C37.7947 103.111 36.7454 104.16 35.451 104.16C34.1566 104.16 33.1072 103.111 33.1072 101.816V95.0179C33.1072 93.7235 34.1566 92.6741 35.451 92.6741ZM25.6829 97.2684C26.9773 97.2684 28.0267 98.3177 28.0267 99.6121V101.816C28.0267 103.111 26.9773 104.16 25.6829 104.16C24.3885 104.16 23.3392 103.111 23.3392 101.816V99.6121C23.3392 98.3177 24.3885 97.2684 25.6829 97.2684Z" fill="url(#paint4_linear_48_1931)"/>
<defs>
<linearGradient id="paint0_linear_48_1931" x1="59.667" y1="45.9951" x2="37.3628" y2="54.5306" gradientUnits="userSpaceOnUse">
<stop stop-color="#A45CFF"/>
<stop offset="1" stop-color="#3C0CFF"/>
</linearGradient>
<linearGradient id="paint1_linear_48_1931" x1="61.3938" y1="48.8447" x2="22.879" y2="69.587" gradientUnits="userSpaceOnUse">
<stop stop-color="#A45CFF"/>
<stop offset="1" stop-color="#3C0CFF"/>
</linearGradient>
<linearGradient id="paint2_linear_48_1931" x1="93.7339" y1="28.3877" x2="12.4465" y2="61.2055" gradientUnits="userSpaceOnUse">
<stop stop-color="#A45CFF"/>
<stop offset="1" stop-color="#3C0CFF"/>
</linearGradient>
<linearGradient id="paint3_linear_48_1931" x1="80.4034" y1="19.7018" x2="57.3082" y2="32.1565" gradientUnits="userSpaceOnUse">
<stop stop-color="#A45CFF"/>
<stop offset="1" stop-color="#3C0CFF"/>
</linearGradient>
<linearGradient id="paint4_linear_48_1931" x1="80.4032" y1="41.3877" x2="-0.883918" y2="74.2052" gradientUnits="userSpaceOnUse">
<stop stop-color="#A45CFF"/>
<stop offset="1" stop-color="#3C0CFF"/>
</linearGradient>
</defs>
</svg>
