<svg width="120" height="102" viewBox="0 0 120 102" fill="none" xmlns="http://www.w3.org/2000/svg">
<path d="M99.7269 0.628906C90.5579 0.628906 83.3132 7.98674 83.3132 17.1557C83.3132 26.3247 90.6711 33.5694 99.7269 33.5694C108.783 33.5694 116.254 26.2115 116.254 17.0425C116.254 7.87354 108.896 0.628906 99.7269 0.628906ZM99.7269 29.947C92.5954 29.947 86.8224 24.174 86.8224 17.0425C86.8224 9.91109 92.7086 4.25122 99.7269 4.25122C106.858 4.25122 112.631 10.0243 112.631 17.1557C112.631 24.2872 106.858 29.947 99.7269 29.947Z" fill="url(#paint0_linear_48_1922)"/>
<path d="M104.934 19.6464C104.821 19.3068 104.821 19.0805 104.594 18.7409C104.481 18.5145 104.368 18.1749 104.141 17.9485C103.915 17.7221 103.802 17.4957 103.576 17.2693C103.349 17.0429 103.123 16.8165 102.783 16.7033C102.557 16.4769 102.217 16.3637 101.991 16.2505C101.651 16.1373 101.425 15.9109 101.085 15.7977C100.746 15.6845 100.406 15.5713 100.18 15.4581C100.066 15.4581 99.84 15.3449 99.7268 15.2317C99.6136 15.1185 99.3872 15.1185 99.274 15.0053C99.1608 14.8921 98.9344 14.8921 98.8212 14.779L98.4816 14.4394C98.3684 14.3262 98.2552 14.213 98.2552 13.9866C98.142 13.8734 98.142 13.647 98.142 13.5338V12.9678C98.142 12.8546 98.2552 12.6282 98.2552 12.515C98.3684 12.4018 98.3684 12.1754 98.4816 12.0622L98.8212 11.7226C98.9344 11.6094 99.1608 11.4962 99.3872 11.4962C99.6136 11.383 99.7268 11.383 99.9532 11.383H100.632C100.859 11.383 100.972 11.383 101.198 11.4962C101.425 11.4962 101.651 11.6094 101.764 11.6094C101.878 11.6094 102.104 11.7226 102.217 11.7226C102.444 11.7226 102.557 11.8358 102.67 11.8358L103.236 12.0622L103.349 11.383L103.576 9.57187V9.11908L103.123 9.00588C103.01 9.00588 102.783 8.89269 102.67 8.89269C102.557 8.89269 102.444 8.77949 102.217 8.77949C102.104 8.77949 101.878 8.66629 101.651 8.66629C101.425 8.66629 101.312 8.55309 101.085 8.55309H100.972V6.40234H98.2552V8.66629H98.142C97.8024 8.77949 97.4629 8.89269 97.1233 9.11908C96.7837 9.23228 96.5573 9.45867 96.3309 9.68507C96.1045 9.91146 95.8781 10.1379 95.6517 10.4775C95.4253 10.7038 95.3121 11.0434 95.1989 11.383L94.8593 12.4018C94.7461 12.7414 94.7461 13.1942 94.7461 13.5338C94.7461 13.8734 94.7461 14.0998 94.8593 14.4394C94.9725 14.779 94.9725 15.0053 95.1989 15.3449C95.3121 15.5713 95.5385 15.9109 95.6517 16.1373C95.8781 16.3637 95.9913 16.5901 96.2177 16.8165C96.4441 17.0429 96.6705 17.2693 97.0101 17.3825C97.2365 17.6089 97.576 17.7221 97.8024 17.8353C98.142 17.9485 98.4816 18.1749 98.708 18.2881C99.0476 18.4013 99.3872 18.5145 99.6136 18.6277C99.7268 18.6277 99.9532 18.7409 100.066 18.8541C100.18 18.9673 100.406 18.9673 100.519 19.0805C100.632 19.1937 100.746 19.3068 100.859 19.3068L101.198 19.6464C101.312 19.7596 101.312 19.8728 101.425 20.0992C101.425 20.2124 101.538 20.4388 101.538 20.6652V21.2312C101.538 21.3444 101.425 21.5708 101.312 21.684L100.972 22.0236C100.859 22.1368 100.746 22.25 100.519 22.3632C100.406 22.4764 100.18 22.4764 100.066 22.5896C99.9532 22.5896 99.7268 22.7028 99.5004 22.7028H98.0288C97.8024 22.7028 97.576 22.5896 97.4629 22.5896C97.2365 22.5896 97.0101 22.4764 96.7837 22.3632C96.5573 22.25 96.3309 22.25 96.1045 22.1368C95.9913 22.1368 95.8781 22.0236 95.7649 22.0236C95.6517 22.0236 95.5385 21.9104 95.4253 21.9104L94.7461 21.5708L94.6329 22.3632L94.4065 24.4007V24.7403L94.7461 24.8535C95.1989 24.7403 95.4253 24.8535 95.7649 24.9667C95.9913 25.0799 96.3309 25.1931 96.5573 25.1931C96.7837 25.3063 97.1233 25.3063 97.4629 25.4195C97.8024 25.5327 98.0288 25.5327 98.3684 25.5327H98.5948V27.7967H101.312V25.4195H101.425C101.764 25.3063 102.104 25.1931 102.444 24.9667C102.783 24.8535 103.01 24.6271 103.349 24.4007C103.576 24.1743 103.802 23.9479 104.028 23.6083C104.255 23.382 104.368 23.0424 104.594 22.7028L104.934 21.684C105.047 21.3444 105.047 21.0048 105.047 20.552C105.047 20.2124 105.047 19.986 104.934 19.6464ZM91.803 35.7205C91.237 34.9281 89.9918 34.8149 89.1994 35.3809L70.8615 49.9833L47.2032 40.1352C46.6372 39.9088 45.958 40.022 45.5052 40.3616L20.149 58.4731C19.3566 59.0391 19.1303 60.1711 19.6962 60.9635C20.0358 61.5295 20.6018 61.7559 21.1678 61.7559C21.5074 61.7559 21.847 61.6427 22.1866 61.4163L46.7504 43.8707L70.5219 53.7189C71.0879 53.9453 71.8802 53.8321 72.333 53.4925L91.4634 38.324C92.2558 37.758 92.369 36.5129 91.803 35.7205Z" fill="url(#paint1_linear_48_1922)"/>
<path d="M118.291 97.7528H109.915V45.3424C109.915 44.3236 109.122 43.5312 108.104 43.5312H91.4635C90.4447 43.5312 89.6523 44.3236 89.6523 45.3424V97.7528H83.5397V63.454C83.5397 62.4352 82.7473 61.6428 81.7285 61.6428H64.9753C63.9565 61.6428 63.1641 62.4352 63.1641 63.454V97.7528H57.0515V60.7373C57.0515 59.7185 56.2591 58.9261 55.2403 58.9261H38.6003C37.5815 58.9261 36.7892 59.7185 36.7892 60.7373V97.7528H30.6765V71.3778C30.6765 70.359 29.8841 69.5666 28.8653 69.5666H12.1121C11.0933 69.5666 10.301 70.359 10.301 71.3778V97.7528H1.81116C0.792382 97.7528 0 98.5452 0 99.564C0 100.583 0.792382 101.375 1.81116 101.375H118.178C119.197 101.375 119.989 100.583 119.989 99.564C120.102 98.5452 119.31 97.7528 118.291 97.7528ZM26.941 97.7528H13.9233V73.189H26.941V97.7528ZM53.4292 97.7528H40.4115V62.5484H53.4292V97.7528ZM79.8042 97.7528H66.7865V65.2652H79.8042V97.7528ZM106.292 97.7528H93.2747V47.1536H106.292V97.7528Z" fill="url(#paint2_linear_48_1922)"/>
<defs>
<linearGradient id="paint0_linear_48_1922" x1="116.254" y1="9.36821" x2="86.1437" y2="25.5992" gradientUnits="userSpaceOnUse">
<stop stop-color="#A45CFF"/>
<stop offset="1" stop-color="#3C0CFF"/>
</linearGradient>
<linearGradient id="paint1_linear_48_1922" x1="105.047" y1="21.088" x2="45.4598" y2="70.7985" gradientUnits="userSpaceOnUse">
<stop stop-color="#A45CFF"/>
<stop offset="1" stop-color="#3C0CFF"/>
</linearGradient>
<linearGradient id="paint2_linear_48_1922" x1="120" y1="58.8776" x2="57.1002" y2="129.219" gradientUnits="userSpaceOnUse">
<stop stop-color="#A45CFF"/>
<stop offset="1" stop-color="#3C0CFF"/>
</linearGradient>
</defs>
</svg>
