<svg width="120" height="120" viewBox="0 0 120 120" fill="none" xmlns="http://www.w3.org/2000/svg">
<path d="M111.574 52.319C111.146 39.2756 105.757 26.8871 96.5062 17.6821C86.7506 7.92461 73.7849 2.55273 59.9999 2.55273C32.1581 2.55273 9.40869 24.7134 8.42807 52.319C6.28126 53.2699 4.45633 54.8231 3.1744 56.7902C1.89247 58.7574 1.20857 61.0541 1.20557 63.4021V77.0184C1.20904 80.2337 2.48787 83.3164 4.76147 85.59C7.03506 87.8636 10.1177 89.1424 13.3331 89.1459C15.4134 89.1434 17.4079 88.3159 18.8789 86.8448C20.3499 85.3738 21.1775 83.3793 21.1799 81.299V59.1196C21.1799 55.0565 18.0637 51.7434 14.1018 51.3496C15.5643 27.299 35.5856 8.17773 59.9999 8.17773C72.2849 8.17773 83.8368 12.9665 92.5312 21.6609C100.515 29.6446 105.187 40.0509 105.891 51.3515C101.932 51.749 98.8218 55.0602 98.8218 59.1196V81.2971C98.8218 85.394 101.987 88.7277 105.996 89.0746V94.679C105.992 97.7136 104.785 100.623 102.639 102.769C100.493 104.914 97.5834 106.121 94.5487 106.124H86.0718C85.5003 104.458 84.4214 103.012 82.9865 101.991C81.5515 100.969 79.8327 100.423 78.0712 100.428H69.3337C68.0793 100.428 66.8756 100.694 65.7731 101.208C64.2968 101.89 63.0464 102.98 62.1693 104.349C61.2922 105.719 60.8251 107.31 60.8231 108.936C60.8231 111.213 61.7099 113.35 63.3168 114.95C64.1044 115.744 65.0419 116.373 66.0747 116.802C67.1076 117.231 68.2154 117.45 69.3337 117.447H78.0712C81.6937 117.447 84.8868 115.105 86.0774 111.749H94.5487C103.963 111.749 111.621 104.091 111.621 94.679V88.0734C113.755 87.1171 115.567 85.5646 116.84 83.6028C118.112 81.6409 118.791 79.3531 118.794 77.0146V63.3984C118.794 58.4596 115.821 54.2071 111.574 52.319ZM15.5531 59.1196V81.2971C15.5531 82.5215 14.5574 83.519 13.3312 83.519C11.6072 83.517 9.95445 82.8313 8.73542 81.6123C7.5164 80.3932 6.83068 78.7404 6.82869 77.0165V63.4002C6.83068 61.6763 7.5164 60.0235 8.73542 58.8045C9.95445 57.5854 11.6072 56.8997 13.3312 56.8977C14.5574 56.8977 15.5531 57.8952 15.5531 59.1196ZM80.8931 109.54C80.7533 110.186 80.3972 110.765 79.8837 111.18C79.3701 111.596 78.73 111.824 78.0693 111.826H69.3318C68.5631 111.826 67.8412 111.526 67.2899 110.975C67.0216 110.708 66.8089 110.391 66.664 110.042C66.5192 109.693 66.4452 109.318 66.4462 108.94C66.4482 108.176 66.7529 107.443 67.2937 106.903C67.8345 106.362 68.5673 106.058 69.3318 106.056H78.0693C78.8381 106.056 79.5599 106.355 80.1093 106.906C80.6531 107.448 80.9531 108.171 80.9531 108.94C80.9549 109.146 80.9324 109.353 80.8931 109.54ZM113.169 77.0165C113.167 78.7404 112.482 80.3932 111.263 81.6123C110.044 82.8313 108.391 83.517 106.667 83.519C106.078 83.5185 105.513 83.2842 105.096 82.8677C104.68 82.4511 104.445 81.8862 104.445 81.2971V59.1196C104.445 57.8952 105.441 56.8977 106.667 56.8977C108.391 56.8997 110.044 57.5854 111.263 58.8045C112.482 60.0235 113.167 61.6763 113.169 63.4002V77.0165Z" fill="url(#paint0_linear_48_1808)"/>
<path d="M78.2119 77.9853C81.3715 77.9818 84.4008 76.7251 86.635 74.4909C88.8692 72.2567 90.1259 69.2275 90.1294 66.0678V41.7847C90.1294 38.6084 88.8881 35.6159 86.6344 33.3622C84.3806 31.1084 81.39 29.8672 78.2119 29.8672H41.7881C38.6285 29.8707 35.5992 31.1274 33.365 33.3616C31.1308 35.5958 29.8741 38.625 29.8706 41.7847V66.0678C29.8741 69.2275 31.1308 72.2567 33.365 74.4909C35.5992 76.7251 38.6285 77.9818 41.7881 77.9853H42.0112V84.2778C42.0075 85.0462 42.1558 85.8077 42.4474 86.5186C42.739 87.2294 43.1683 87.8756 43.7106 88.42C44.2529 88.9644 44.8974 89.3961 45.6072 89.6905C46.3169 89.9849 47.0779 90.1361 47.8462 90.1353C48.6141 90.1369 49.3744 89.9838 50.0818 89.6851C50.7892 89.3865 51.4293 88.9485 51.9637 88.3972L62.4319 77.9853H78.2119ZM59.2912 73.1778L47.9625 84.4447C47.9119 84.4972 47.8744 84.5366 47.7675 84.4897C47.6381 84.4372 47.6381 84.3528 47.6381 84.2778V75.1728C47.6381 74.4269 47.3418 73.7115 46.8143 73.1841C46.2869 72.6566 45.5715 72.3603 44.8256 72.3603H41.79C40.1217 72.3583 38.5223 71.6947 37.3427 70.5151C36.1631 69.3354 35.4995 67.7361 35.4975 66.0678V41.7847C35.4995 40.1164 36.1631 38.5171 37.3427 37.3374C38.5223 36.1578 40.1217 35.4942 41.79 35.4922H78.2137C79.89 35.4922 81.4669 36.1484 82.6594 37.3391C83.8519 38.5316 84.5062 40.1103 84.5062 41.7847V66.0678C84.5042 67.7361 83.8406 69.3354 82.661 70.5151C81.4814 71.6947 79.882 72.3583 78.2137 72.3603H61.275C60.5306 72.3603 59.8181 72.6547 59.2912 73.1778Z" fill="url(#paint1_linear_48_1808)"/>
<path d="M46.3369 50.2266C44.0494 50.2266 42.1875 52.0903 42.1875 54.3759C42.1875 56.6616 44.0512 58.5253 46.3369 58.5253C48.6262 58.5253 50.49 56.6616 50.49 54.3759C50.49 52.0903 48.6281 50.2266 46.3369 50.2266ZM59.9981 50.2266C57.7106 50.2266 55.8487 52.0903 55.8487 54.3759C55.8487 56.6616 57.7125 58.5253 59.9981 58.5253C62.2894 58.5253 64.1513 56.6616 64.1513 54.3759C64.1513 52.0903 62.2894 50.2266 59.9981 50.2266ZM73.6594 50.2266C71.3719 50.2266 69.51 52.0903 69.51 54.3759C69.51 56.6616 71.3738 58.5253 73.6594 58.5253C75.9487 58.5253 77.8125 56.6616 77.8125 54.3759C77.8125 52.0903 75.9487 50.2266 73.6594 50.2266Z" fill="url(#paint2_linear_48_1808)"/>
<defs>
<linearGradient id="paint0_linear_48_1808" x1="118.794" y1="33.0349" x2="12.4459" y2="91.7072" gradientUnits="userSpaceOnUse">
<stop stop-color="#A45CFF"/>
<stop offset="1" stop-color="#3C0CFF"/>
</linearGradient>
<linearGradient id="paint1_linear_48_1808" x1="90.1294" y1="45.8567" x2="35.0447" y2="75.5459" gradientUnits="userSpaceOnUse">
<stop stop-color="#A45CFF"/>
<stop offset="1" stop-color="#3C0CFF"/>
</linearGradient>
<linearGradient id="paint2_linear_48_1808" x1="77.8125" y1="52.4283" x2="71.1993" y2="67.7316" gradientUnits="userSpaceOnUse">
<stop stop-color="#A45CFF"/>
<stop offset="1" stop-color="#3C0CFF"/>
</linearGradient>
</defs>
</svg>
